G04 DipTrace 2.3.0.3*
%INBottom.gbr*%
%MOIN*%
%ADD13C,0.049*%
%ADD15C,0.0128*%
%ADD16C,0.079*%
%ADD17C,0.118*%
%ADD18C,0.0787*%
%ADD19C,0.013*%
%ADD23C,0.0787*%
%ADD24R,0.07X0.07*%
%ADD25C,0.0709*%
%ADD26O,0.0709X0.189*%
%ADD27O,0.0787X0.1575*%
%ADD28O,0.1575X0.0787*%
%ADD29C,0.079*%
%ADD31C,0.1575*%
%FSLAX44Y44*%
G04*
G70*
G90*
G75*
G01*
%LNBottom*%
%LPD*%
X38887Y26219D2*
D15*
X41446D1*
X31669Y26149D2*
X34229D1*
X36523D1*
X37105Y25567D1*
X37879D1*
X38180Y26149D1*
X38817D1*
X38887Y26219D1*
X10277Y8625D2*
D16*
Y9576D1*
D17*
X7141Y12711D1*
Y15139D1*
X5358Y15380D1*
X5407Y15216D1*
X16889Y8633D2*
D18*
Y9441D1*
X16326Y10003D1*
X13493D1*
Y8615D1*
X10277Y9576D2*
D17*
Y10003D1*
X13493D1*
X31669Y26149D2*
D19*
X30751D1*
X30428Y26501D1*
X29487D1*
X29135Y26149D1*
X27767D1*
X27407Y25789D1*
Y15965D1*
X28243Y12619D2*
X27594D1*
X27347Y12373D1*
Y10946D1*
X27674Y10619D1*
X28243D1*
X21579Y13780D2*
Y11917D1*
X21228Y11566D1*
X28243Y12619D2*
X26999D1*
X25648Y13971D1*
X25737D1*
X27407Y15965D2*
Y14253D1*
X28243Y13417D1*
Y12619D1*
X20477Y6215D2*
X21553Y5139D1*
Y5094D1*
X5407Y15216D2*
D17*
Y19184D1*
X6012Y19790D1*
X7015D1*
Y19544D1*
X8196Y17615D2*
X7484Y17998D1*
X7032Y19204D1*
X7015Y18900D1*
Y19544D1*
D18*
D3*
D17*
D3*
X5757Y23195D2*
D13*
Y23210D1*
X6468D1*
X7015Y22663D1*
Y22067D1*
Y19790D1*
X16665Y10003D2*
D17*
X13493D1*
X25737Y13971D2*
D19*
X25258D1*
X23416Y12128D1*
X7039Y22067D2*
D13*
X7015D1*
X24215Y25446D2*
D19*
Y25559D1*
X24166Y25510D1*
Y25880D1*
X23791Y26255D1*
Y28067D1*
X24361Y28637D1*
X42152D1*
X42580Y28208D1*
Y25942D1*
X42605D1*
X21579Y26375D2*
X23108D1*
X24037Y25446D1*
X24215D1*
X21915Y7003D2*
X21978D1*
Y6696D1*
X23356Y5318D1*
Y4779D1*
X22997Y4421D1*
X21357D1*
X20191Y5587D1*
X19449D1*
X18828Y4966D1*
X42132Y24851D2*
X41539Y24258D1*
X37880D1*
X37291Y24847D1*
X37200D1*
X36542Y25504D1*
X33067D1*
X32446Y24884D1*
Y24851D1*
X21579Y26375D2*
Y28393D1*
X21326Y28646D1*
X7055D1*
X6671Y28262D1*
Y24886D1*
X5979Y24195D1*
X5757D1*
X16903Y20604D2*
D15*
X16951Y20556D1*
Y22040D1*
X17854Y22942D1*
X19770D1*
X20578Y23750D1*
X16160Y20591D2*
X16182D1*
Y22354D1*
X17578Y23750D1*
X14910Y20591D2*
Y21714D1*
X14052Y22572D1*
X13660D1*
X12560Y23672D1*
Y23750D1*
X12578D1*
X14097Y20591D2*
X13959D1*
X14108Y20442D1*
Y21498D1*
X12665Y22942D1*
X10386D1*
X9578Y23750D1*
X14097Y19841D2*
X13751D1*
X13544Y19633D1*
Y18466D1*
X13049Y17971D1*
X11083D1*
X9579Y16468D1*
X14910Y19841D2*
Y18798D1*
X12579Y16468D1*
X16160Y19841D2*
X16191D1*
Y17857D1*
X17579Y16468D1*
X16903Y19841D2*
X16966Y19903D1*
Y18556D1*
X17336Y18186D1*
X18861D1*
X20579Y16468D1*
X5407Y13247D2*
D17*
Y11279D1*
X16070Y11190D2*
D19*
X15040D1*
Y11191D1*
X21894Y10903D2*
D15*
X22214Y11224D1*
Y15444D1*
X22030Y15629D1*
X8527D1*
X6531Y17624D1*
X20477Y8715D2*
D19*
X18535Y6774D1*
Y5673D1*
X17828Y4966D1*
X8217Y22513D2*
Y19376D1*
X8117Y19270D1*
X8202Y19298D1*
X8769Y18441D2*
X8809Y18627D1*
Y22688D1*
X7191Y24306D1*
Y26964D1*
X7451Y27224D1*
X10731D1*
X11579Y26375D1*
X12102Y11003D2*
Y11628D1*
X11789Y11941D1*
X10977D1*
X9010Y6464D2*
X9171Y6625D1*
X10277D1*
X10579Y13780D2*
X11514Y12845D1*
X16347D1*
X17478Y11715D1*
Y7222D1*
X16889Y6633D1*
X27139Y26451D2*
X27596D1*
X27978Y26833D1*
X36526D1*
X37292Y26067D1*
X21728Y9316D2*
X20790D1*
X20663Y9443D1*
X19475D1*
X18180Y10739D1*
Y12319D1*
X17458Y13040D1*
X17319D1*
X16579Y13780D1*
X23415Y8781D2*
X22603Y7969D1*
Y6690D1*
X24510Y4783D1*
Y4662D1*
X23416Y10164D2*
X23061D1*
X22841Y9944D1*
X21055D1*
Y9977D1*
X27284Y7806D2*
X28243Y8765D1*
Y9619D1*
X26284Y7806D2*
Y8578D1*
X25243Y9619D1*
X24510Y5652D2*
X26521D1*
X27510Y4662D1*
X20165Y28193D2*
Y27067D1*
X20857Y26375D1*
X20579D1*
X27510Y4662D2*
X29188Y6340D1*
Y25264D1*
X29946Y26023D1*
X23308Y16155D2*
D15*
Y16189D1*
X23150D1*
X22538Y15577D1*
Y10708D1*
X22125Y10294D1*
X21627D1*
X21050Y10871D1*
X18985D1*
X18929Y10903D1*
X18894D1*
X4742Y28455D2*
D19*
X4469Y28181D1*
Y6599D1*
X4681Y6386D1*
X7899D1*
X8253Y6032D1*
X14572D1*
X14688Y5916D1*
X9349Y22438D2*
Y22419D1*
X12243Y19525D1*
X12542D1*
X10277Y7625D2*
D18*
X9175D1*
X7490Y9310D1*
X5407D1*
X16889Y7633D2*
X15946D1*
X15429Y4929D1*
X7354D1*
X6910Y5373D1*
X5407D1*
X31669Y27921D2*
D15*
X34229D1*
X31669D2*
D19*
X25297D1*
X24609Y27234D1*
X24563D1*
X16977Y27755D2*
Y27067D1*
X17669Y26375D1*
X17579D1*
X24531Y26218D2*
X24563D1*
Y27234D1*
X26737Y13971D2*
Y25941D1*
X26489Y26188D1*
X25992D1*
X8140Y24563D2*
D15*
Y24576D1*
X21966D1*
D19*
X24086D1*
X25617Y23046D1*
Y15492D1*
X22952Y12828D1*
Y11432D1*
X23283Y11101D1*
X24018D1*
X24267Y10852D1*
Y9848D1*
X23894Y9475D1*
X22778D1*
X21353Y8050D1*
Y6227D1*
X22485Y5094D1*
X22553D1*
X38887Y27991D2*
X38107Y27210D1*
X26069D1*
X25400Y26542D1*
Y25889D1*
X24086Y24576D1*
D13*
X6531Y17624D3*
X14097Y20591D3*
X14910D3*
X14097Y19841D3*
X14910D3*
X16903Y20604D3*
Y19841D3*
X16160D3*
Y20591D3*
X27139Y26451D3*
X37292Y26067D3*
X8202Y19298D3*
X8217Y22513D3*
X23416Y12128D3*
X7039Y22067D3*
X9349Y22438D3*
X8140Y24563D3*
X21228Y11566D3*
X24215Y25446D3*
X15040Y11191D3*
X16070Y11190D3*
X8769Y18441D3*
X10977Y11941D3*
X12102Y11003D3*
X9010Y6464D3*
X21728Y9316D3*
X29946Y26023D3*
X20165Y28193D3*
X16977Y27755D3*
X24563Y27234D3*
X24531Y26218D3*
X25992Y26188D3*
X42605Y25942D3*
X21915Y7003D3*
X14688Y5916D3*
X4742Y28455D3*
D23*
X5757Y24195D3*
Y23195D3*
Y22195D3*
Y27995D3*
Y26995D3*
Y25995D3*
D24*
X23415Y8781D3*
D16*
Y7781D3*
D24*
X27284Y7806D3*
D16*
X26284D3*
X24308Y16155D3*
D24*
X23308D3*
D16*
X20477Y6215D3*
D24*
Y8715D3*
D16*
X21553Y5094D3*
D24*
X22553D3*
D16*
X25737Y13971D3*
D24*
X26737D3*
D16*
X20799Y18815D3*
D24*
Y21315D3*
X23416Y10164D3*
D25*
Y14514D3*
D23*
X13493Y8615D3*
Y7615D3*
Y6615D3*
X10277Y8625D3*
Y7625D3*
Y6625D3*
X16889Y8633D3*
Y7633D3*
Y6633D3*
X8578Y23750D3*
X9578D3*
X10578D3*
X11578D3*
X12578D3*
X13578D3*
X14578D3*
X15578D3*
X16578D3*
X17578D3*
X18578D3*
X19578D3*
X20578D3*
X21578D3*
X21579Y16468D3*
X20579D3*
X19579D3*
X18579D3*
X17579D3*
X16579D3*
X15579D3*
X14579D3*
X13579D3*
X12579D3*
X11579D3*
X10579D3*
X9579D3*
X8579D3*
X21579Y26375D3*
X20579D3*
X19579D3*
X18579D3*
X17579D3*
X16579D3*
X15579D3*
X14579D3*
X13579D3*
X12579D3*
X11579D3*
X10579D3*
X9579D3*
X8579D3*
Y25375D3*
X9579D3*
X10579D3*
X11579D3*
X12579D3*
X13579D3*
X14579D3*
X15579D3*
X16579D3*
X17579D3*
X18579D3*
X19579D3*
X20579D3*
X21579D3*
Y14780D3*
X20579D3*
X19579D3*
X18579D3*
X17579D3*
X16579D3*
X15579D3*
X14579D3*
X13579D3*
X12579D3*
X11579D3*
X10579D3*
X9579D3*
X8579D3*
Y13780D3*
X9579D3*
X10579D3*
X11579D3*
X12579D3*
X13579D3*
X14579D3*
X15579D3*
X16579D3*
X17579D3*
X18579D3*
X19579D3*
X20579D3*
X21579D3*
D26*
X9377Y19544D3*
D27*
X7015D3*
D28*
X8196Y17615D3*
D16*
X28407Y15965D3*
D24*
X27407D3*
X28243Y9619D3*
D29*
Y10619D3*
Y11619D3*
Y12619D3*
X25243D3*
Y11619D3*
Y10619D3*
Y9619D3*
D24*
X12542Y19525D3*
D29*
Y20525D3*
D16*
X18055Y9977D3*
D29*
X21055D3*
D16*
X27510Y5652D3*
D29*
X24510D3*
D16*
X27510Y4662D3*
D29*
X24510D3*
D16*
X21894Y10903D3*
D29*
X18894D3*
D16*
X18067Y17305D3*
D29*
Y20305D3*
D24*
X31669Y27921D3*
D29*
Y26149D3*
X34229D3*
Y27921D3*
D24*
X38887Y27991D3*
D29*
Y26219D3*
X41446D3*
Y27991D3*
D23*
X42132Y24851D3*
X40754D3*
X42132Y7607D3*
X37291Y24847D3*
X35913D3*
X37291Y7603D3*
X32446Y24851D3*
X31068D3*
X32446Y7607D3*
X19828Y4966D3*
X18828D3*
X17828D3*
X16828D3*
D31*
X5407Y15216D3*
Y13247D3*
Y11279D3*
Y9310D3*
Y7342D3*
Y5373D3*
M02*
