G04 DipTrace 2.3.0.3*
%INBottomSilk.gbr*%
%MOIN*%
%ADD12C,0.003*%
%FSLAX44Y44*%
G04*
G70*
G90*
G75*
G01*
%LNBotSilk*%
%LPD*%
X16246Y28763D2*
D12*
X19726D1*
X16190Y28733D2*
X19783D1*
X16147Y28703D2*
X19825D1*
X16116Y28673D2*
X19857D1*
X16101Y28643D2*
X19871D1*
X16088Y28613D2*
X19884D1*
X16078Y28583D2*
X19894D1*
X16072Y28553D2*
X19901D1*
X16068Y28523D2*
X19905D1*
X16066Y28493D2*
X19910D1*
X16061Y28463D2*
X19918D1*
X16054Y28433D2*
X19926D1*
X16046Y28403D2*
X19931D1*
X16041Y28373D2*
X19934D1*
X16037Y28343D2*
X19936D1*
X16032Y28313D2*
X19941D1*
X16024Y28283D2*
X19948D1*
X16016Y28253D2*
X19956D1*
X16011Y28223D2*
X19961D1*
X16007Y28193D2*
X19965D1*
X16002Y28163D2*
X19970D1*
X15994Y28133D2*
X19978D1*
X15986Y28103D2*
X19986D1*
X15981Y28073D2*
X19991D1*
X15978Y28043D2*
X19995D1*
X15976Y28013D2*
X20000D1*
X15971Y27983D2*
X20008D1*
X15964Y27953D2*
X20016D1*
X15956Y27923D2*
X20021D1*
X15951Y27893D2*
X20024D1*
X15947Y27863D2*
X20026D1*
X15942Y27833D2*
X20031D1*
X15934Y27803D2*
X20038D1*
X15926Y27773D2*
X20046D1*
X15921Y27743D2*
X20052D1*
X15917Y27713D2*
X20059D1*
X15912Y27683D2*
X20067D1*
X15904Y27653D2*
X20076D1*
X15896Y27623D2*
X20081D1*
X15891Y27593D2*
X20084D1*
X15888Y27563D2*
X20085D1*
X15886Y27533D2*
X20087D1*
X15881Y27503D2*
X20091D1*
X15874Y27473D2*
X20098D1*
X15866Y27443D2*
X20106D1*
X15860Y27413D2*
X20111D1*
X15853Y27383D2*
X20115D1*
X15845Y27353D2*
X20120D1*
X15837Y27323D2*
X20128D1*
X15831Y27293D2*
X20136D1*
X15828Y27263D2*
X20141D1*
X15826Y27233D2*
X20144D1*
X15821Y27203D2*
X20146D1*
X15814Y27173D2*
X20151D1*
X15806Y27143D2*
X20158D1*
X15801Y27113D2*
X20166D1*
X15797Y27083D2*
X20171D1*
X15792Y27053D2*
X20175D1*
X15784Y27023D2*
X20180D1*
X15776Y26993D2*
X20188D1*
X15771Y26963D2*
X20196D1*
X15768Y26933D2*
X20202D1*
X15766Y26903D2*
X20209D1*
X15761Y26873D2*
X20217D1*
X15754Y26843D2*
X20226D1*
X15746Y26813D2*
X20231D1*
X15741Y26783D2*
X20234D1*
X15737Y26753D2*
X20236D1*
X15732Y26723D2*
X20241D1*
X15724Y26693D2*
X20248D1*
X15716Y26663D2*
X20256D1*
X15711Y26633D2*
X20261D1*
X15708Y26603D2*
X20265D1*
X15706Y26573D2*
X20270D1*
X15701Y26543D2*
X20278D1*
X15694Y26513D2*
X20286D1*
X15686Y26483D2*
X20291D1*
X15681Y26453D2*
X20294D1*
X15677Y26423D2*
X20296D1*
X15672Y26393D2*
X20301D1*
X15664Y26363D2*
X20308D1*
X15656Y26333D2*
X20316D1*
X15651Y26303D2*
X20321D1*
X15647Y26273D2*
X20325D1*
X15642Y26243D2*
X20330D1*
X15634Y26213D2*
X20338D1*
X15626Y26183D2*
X20346D1*
X15621Y26153D2*
X20351D1*
X15618Y26123D2*
X20354D1*
X15616Y26093D2*
X20356D1*
X15611Y26063D2*
X20361D1*
X9646Y26033D2*
X9706D1*
X15604D2*
X20368D1*
X26266D2*
X26326D1*
X9602Y26003D2*
X9761D1*
X15596D2*
X20376D1*
X26211D2*
X26370D1*
X9564Y25973D2*
X9813D1*
X15591D2*
X20381D1*
X26159D2*
X26409D1*
X9529Y25943D2*
X9861D1*
X15587D2*
X20385D1*
X26111D2*
X26443D1*
X9497Y25913D2*
X9908D1*
X15582D2*
X20390D1*
X26065D2*
X26475D1*
X9467Y25883D2*
X9952D1*
X15574D2*
X20398D1*
X26020D2*
X26506D1*
X9436Y25853D2*
X9995D1*
X15566D2*
X20406D1*
X25978D2*
X26536D1*
X9406Y25823D2*
X10035D1*
X15561D2*
X20411D1*
X25937D2*
X26566D1*
X9376Y25793D2*
X10077D1*
X15558D2*
X20415D1*
X25895D2*
X26596D1*
X9346Y25763D2*
X10120D1*
X15556D2*
X20420D1*
X25852D2*
X26626D1*
X9316Y25733D2*
X10164D1*
X15551D2*
X20428D1*
X25808D2*
X26656D1*
X9286Y25703D2*
X10209D1*
X15544D2*
X20436D1*
X25763D2*
X26686D1*
X9256Y25673D2*
X10254D1*
X15536D2*
X20441D1*
X25719D2*
X26716D1*
X9226Y25643D2*
X10299D1*
X15530D2*
X20444D1*
X25674D2*
X26746D1*
X9196Y25613D2*
X10344D1*
X15523D2*
X20446D1*
X25629D2*
X26776D1*
X9166Y25583D2*
X10389D1*
X15515D2*
X20451D1*
X25584D2*
X26806D1*
X9136Y25553D2*
X10433D1*
X15507D2*
X20458D1*
X25540D2*
X26836D1*
X9106Y25523D2*
X10475D1*
X15501D2*
X20466D1*
X25497D2*
X26866D1*
X9076Y25493D2*
X10515D1*
X15498D2*
X20471D1*
X25456D2*
X26896D1*
X9046Y25463D2*
X10557D1*
X15496D2*
X20475D1*
X25411D2*
X26926D1*
X9016Y25433D2*
X10600D1*
X15491D2*
X20480D1*
X25365D2*
X26956D1*
X8986Y25403D2*
X10644D1*
X15484D2*
X20488D1*
X25320D2*
X26986D1*
X8956Y25373D2*
X10689D1*
X15476D2*
X20496D1*
X25278D2*
X27016D1*
X8926Y25343D2*
X10734D1*
X15471D2*
X20501D1*
X25236D2*
X27046D1*
X8896Y25313D2*
X10779D1*
X15468D2*
X20505D1*
X25192D2*
X27076D1*
X8866Y25283D2*
X10824D1*
X15466D2*
X20510D1*
X25149D2*
X27106D1*
X8836Y25253D2*
X10869D1*
X15461D2*
X20518D1*
X25107D2*
X27136D1*
X8806Y25223D2*
X10914D1*
X15454D2*
X20526D1*
X25066D2*
X27166D1*
X8776Y25193D2*
X10959D1*
X15446D2*
X20531D1*
X25021D2*
X27196D1*
X8746Y25163D2*
X11003D1*
X15440D2*
X20535D1*
X24975D2*
X27226D1*
X8716Y25133D2*
X11045D1*
X15433D2*
X20540D1*
X24930D2*
X27256D1*
X8686Y25103D2*
X11086D1*
X15423D2*
X20549D1*
X24888D2*
X27286D1*
X8656Y25073D2*
X11131D1*
X15410D2*
X20562D1*
X24846D2*
X27316D1*
X8626Y25043D2*
X11177D1*
X15391D2*
X20581D1*
X24802D2*
X27346D1*
X8596Y25013D2*
X11222D1*
X15364D2*
X20609D1*
X24758D2*
X27376D1*
X8566Y24983D2*
X11264D1*
X15324D2*
X20648D1*
X24713D2*
X27406D1*
X8536Y24953D2*
X11306D1*
X15272D2*
X20701D1*
X24669D2*
X27436D1*
X8506Y24923D2*
X11350D1*
X15209D2*
X20763D1*
X24624D2*
X27466D1*
X8476Y24893D2*
X11394D1*
X15140D2*
X20832D1*
X24579D2*
X27496D1*
X8446Y24863D2*
X11439D1*
X15068D2*
X20904D1*
X24534D2*
X27526D1*
X8416Y24833D2*
X11484D1*
X14997D2*
X20975D1*
X24489D2*
X27556D1*
X8386Y24803D2*
X11529D1*
X14927D2*
X21046D1*
X24444D2*
X27586D1*
X8356Y24773D2*
X11573D1*
X14855D2*
X21117D1*
X24400D2*
X27616D1*
X8326Y24743D2*
X11615D1*
X14782D2*
X21190D1*
X24358D2*
X27646D1*
X8296Y24713D2*
X11655D1*
X14708D2*
X21264D1*
X24317D2*
X27676D1*
X8266Y24683D2*
X11697D1*
X14633D2*
X21339D1*
X24275D2*
X27706D1*
X8236Y24653D2*
X11740D1*
X14559D2*
X21414D1*
X24232D2*
X27736D1*
X8206Y24623D2*
X11784D1*
X14484D2*
X21489D1*
X24188D2*
X27766D1*
X8176Y24593D2*
X11829D1*
X14409D2*
X21564D1*
X24143D2*
X27796D1*
X8146Y24563D2*
X11873D1*
X14334D2*
X21639D1*
X24099D2*
X27826D1*
X8116Y24533D2*
X11915D1*
X14260D2*
X21713D1*
X24054D2*
X27856D1*
X8086Y24503D2*
X11956D1*
X14188D2*
X21785D1*
X24010D2*
X27886D1*
X8056Y24473D2*
X12001D1*
X14117D2*
X21855D1*
X23968D2*
X27916D1*
X8026Y24443D2*
X12047D1*
X14045D2*
X21927D1*
X23927D2*
X27946D1*
X7996Y24413D2*
X12092D1*
X13972D2*
X22000D1*
X23886D2*
X27976D1*
X7966Y24383D2*
X12134D1*
X13898D2*
X22074D1*
X23846D2*
X28006D1*
X7936Y24353D2*
X12176D1*
X13823D2*
X22149D1*
X23806D2*
X28036D1*
X7906Y24323D2*
X12220D1*
X13749D2*
X22224D1*
X23765D2*
X28066D1*
X7876Y24293D2*
X12264D1*
X13674D2*
X22299D1*
X23722D2*
X28096D1*
X7846Y24263D2*
X12309D1*
X13600D2*
X22373D1*
X23678D2*
X28126D1*
X7816Y24233D2*
X12354D1*
X13528D2*
X22445D1*
X23633D2*
X28156D1*
X7786Y24203D2*
X12399D1*
X13457D2*
X22515D1*
X23589D2*
X28186D1*
X7756Y24173D2*
X12443D1*
X13385D2*
X22587D1*
X23544D2*
X28216D1*
X7726Y24143D2*
X12485D1*
X13312D2*
X22660D1*
X23499D2*
X28246D1*
X7696Y24113D2*
X12525D1*
X13238D2*
X22734D1*
X23454D2*
X28276D1*
X7666Y24083D2*
X12568D1*
X13163D2*
X22810D1*
X23408D2*
X28306D1*
X7636Y24053D2*
X12620D1*
X13081D2*
X22891D1*
X23354D2*
X28336D1*
X7606Y24023D2*
X12701D1*
X12977D2*
X22995D1*
X23272D2*
X28366D1*
X7576Y23993D2*
X12825D1*
X12838D2*
X23134D1*
X23148D2*
X28396D1*
X7546Y23963D2*
X28426D1*
X7516Y23933D2*
X28456D1*
X7486Y23903D2*
X28486D1*
X7456Y23873D2*
X28516D1*
X7426Y23843D2*
X28546D1*
X7396Y23813D2*
X28576D1*
X7366Y23783D2*
X28606D1*
X7336Y23753D2*
X28636D1*
X7306Y23723D2*
X28666D1*
X7276Y23693D2*
X28696D1*
X7246Y23663D2*
X28726D1*
X7216Y23633D2*
X28756D1*
X7186Y23603D2*
X28786D1*
X7156Y23573D2*
X28816D1*
X7127Y23543D2*
X28845D1*
X7102Y23513D2*
X28870D1*
X7085Y23483D2*
X28888D1*
X7074Y23453D2*
X28898D1*
X7070Y23423D2*
X28903D1*
X7068Y23393D2*
X28905D1*
X7068Y23363D2*
X28904D1*
X7071Y23333D2*
X28901D1*
X7080Y23303D2*
X28893D1*
X7092Y23273D2*
X28880D1*
X7109Y23243D2*
X28864D1*
X7127Y23213D2*
X28845D1*
X7146Y23183D2*
X28826D1*
X7166Y23153D2*
X28806D1*
X7186Y23123D2*
X28786D1*
X7206Y23093D2*
X28766D1*
X7226Y23063D2*
X28746D1*
X7246Y23033D2*
X28726D1*
X7266Y23003D2*
X28706D1*
X7286Y22973D2*
X28685D1*
X7306Y22943D2*
X28662D1*
X7326Y22913D2*
X28639D1*
X7347Y22883D2*
X28619D1*
X7370Y22853D2*
X28601D1*
X7393Y22823D2*
X28583D1*
X7415Y22793D2*
X28564D1*
X7435Y22763D2*
X28542D1*
X7456Y22733D2*
X28519D1*
X7476Y22703D2*
X28497D1*
X7496Y22673D2*
X28477D1*
X7516Y22643D2*
X28456D1*
X7536Y22613D2*
X28436D1*
X7556Y22583D2*
X28416D1*
X7576Y22553D2*
X28396D1*
X7596Y22523D2*
X28376D1*
X7617Y22493D2*
X28356D1*
X7640Y22463D2*
X28336D1*
X7663Y22433D2*
X28316D1*
X7684Y22403D2*
X28296D1*
X7702Y22373D2*
X28276D1*
X7719Y22343D2*
X28256D1*
X7738Y22313D2*
X28235D1*
X7761Y22283D2*
X28212D1*
X7784Y22253D2*
X28189D1*
X7805Y22223D2*
X28168D1*
X7825Y22193D2*
X28147D1*
X7846Y22163D2*
X28126D1*
X7866Y22133D2*
X28106D1*
X7886Y22103D2*
X28086D1*
X7906Y22073D2*
X28066D1*
X7926Y22043D2*
X28046D1*
X7946Y22013D2*
X28026D1*
X7966Y21983D2*
X28006D1*
X7986Y21953D2*
X27986D1*
X8006Y21923D2*
X27965D1*
X8026Y21893D2*
X27942D1*
X8046Y21863D2*
X27919D1*
X8067Y21833D2*
X27898D1*
X8090Y21803D2*
X27877D1*
X8113Y21773D2*
X27856D1*
X8135Y21743D2*
X27836D1*
X8155Y21713D2*
X27816D1*
X8176Y21683D2*
X27796D1*
X8196Y21653D2*
X27776D1*
X8216Y21623D2*
X27756D1*
X8236Y21593D2*
X27736D1*
X8256Y21563D2*
X27716D1*
X8276Y21533D2*
X27696D1*
X8296Y21503D2*
X27676D1*
X8316Y21473D2*
X27656D1*
X8336Y21443D2*
X27635D1*
X8356Y21413D2*
X27612D1*
X8376Y21383D2*
X27589D1*
X8397Y21353D2*
X27568D1*
X8420Y21323D2*
X27547D1*
X8443Y21293D2*
X27526D1*
X8465Y21263D2*
X27506D1*
X8485Y21233D2*
X27486D1*
X8506Y21203D2*
X27466D1*
X8525Y21173D2*
X27446D1*
X8542Y21143D2*
X27426D1*
X8559Y21113D2*
X27406D1*
X8578Y21083D2*
X27386D1*
X8601Y21053D2*
X27366D1*
X8624Y21023D2*
X27346D1*
X30436D2*
X32236D1*
X32506D2*
X34156D1*
X34426D2*
X36046D1*
X36946D2*
X38596D1*
X39316D2*
X40516D1*
X40786D2*
X41026D1*
X42676D2*
X42916D1*
X8645Y20993D2*
X27326D1*
X30436D2*
X32236D1*
X32506D2*
X34156D1*
X34426D2*
X36046D1*
X36946D2*
X38596D1*
X39316D2*
X40516D1*
X40786D2*
X41026D1*
X42676D2*
X42916D1*
X8665Y20963D2*
X27305D1*
X30436D2*
X32236D1*
X32506D2*
X34156D1*
X34426D2*
X36046D1*
X36946D2*
X38596D1*
X39316D2*
X40516D1*
X40786D2*
X41026D1*
X42676D2*
X42916D1*
X8686Y20933D2*
X27282D1*
X30436D2*
X32236D1*
X32506D2*
X34156D1*
X34426D2*
X36046D1*
X36946D2*
X38596D1*
X39316D2*
X40516D1*
X40786D2*
X41026D1*
X42676D2*
X42916D1*
X8706Y20903D2*
X27259D1*
X30436D2*
X32236D1*
X32506D2*
X34156D1*
X34426D2*
X36046D1*
X36946D2*
X38596D1*
X39316D2*
X40516D1*
X40786D2*
X41026D1*
X42676D2*
X42916D1*
X8727Y20873D2*
X27238D1*
X30436D2*
X32236D1*
X32506D2*
X34156D1*
X34426D2*
X36046D1*
X36946D2*
X38596D1*
X39316D2*
X40516D1*
X40786D2*
X41026D1*
X42676D2*
X42916D1*
X8750Y20843D2*
X27217D1*
X30436D2*
X32236D1*
X32506D2*
X34156D1*
X34426D2*
X36046D1*
X36946D2*
X38596D1*
X39316D2*
X40516D1*
X40786D2*
X41026D1*
X42676D2*
X42916D1*
X8773Y20813D2*
X27196D1*
X30436D2*
X32236D1*
X32506D2*
X34156D1*
X34426D2*
X36046D1*
X36946D2*
X38596D1*
X39316D2*
X40516D1*
X40786D2*
X41026D1*
X42676D2*
X42916D1*
X8795Y20783D2*
X27177D1*
X30436D2*
X32236D1*
X32506D2*
X34156D1*
X34426D2*
X36046D1*
X36946D2*
X38596D1*
X39316D2*
X40516D1*
X40786D2*
X41026D1*
X42676D2*
X42916D1*
X8815Y20753D2*
X27160D1*
X30436D2*
X30706D1*
X31216D2*
X31456D1*
X31966D2*
X32236D1*
X32506D2*
X32776D1*
X33886D2*
X34156D1*
X35776D2*
X36046D1*
X36946D2*
X37216D1*
X39316D2*
X39586D1*
X40246D2*
X40516D1*
X40786D2*
X41026D1*
X42676D2*
X42916D1*
X8836Y20723D2*
X27143D1*
X30436D2*
X30706D1*
X31216D2*
X31456D1*
X31966D2*
X32236D1*
X32506D2*
X32776D1*
X33886D2*
X34156D1*
X35776D2*
X36046D1*
X36946D2*
X37216D1*
X39316D2*
X39586D1*
X40246D2*
X40516D1*
X40786D2*
X41026D1*
X42676D2*
X42916D1*
X8856Y20693D2*
X27124D1*
X30436D2*
X30706D1*
X31216D2*
X31456D1*
X31966D2*
X32236D1*
X32506D2*
X32776D1*
X33886D2*
X34156D1*
X35776D2*
X36046D1*
X36946D2*
X37216D1*
X39316D2*
X39586D1*
X40246D2*
X40516D1*
X40786D2*
X41026D1*
X42676D2*
X42916D1*
X8876Y20663D2*
X27102D1*
X30436D2*
X30706D1*
X31216D2*
X31456D1*
X31966D2*
X32236D1*
X32506D2*
X32776D1*
X33886D2*
X34156D1*
X35776D2*
X36046D1*
X36946D2*
X37216D1*
X39316D2*
X39586D1*
X40246D2*
X40516D1*
X40786D2*
X41026D1*
X42676D2*
X42916D1*
X8896Y20633D2*
X27079D1*
X30436D2*
X30706D1*
X31216D2*
X31456D1*
X31966D2*
X32236D1*
X32506D2*
X32776D1*
X33886D2*
X34156D1*
X35776D2*
X36046D1*
X36946D2*
X37216D1*
X39316D2*
X39586D1*
X40246D2*
X40516D1*
X40786D2*
X41026D1*
X42676D2*
X42916D1*
X8916Y20603D2*
X27057D1*
X30436D2*
X30706D1*
X31216D2*
X31456D1*
X31966D2*
X32236D1*
X32506D2*
X32776D1*
X33886D2*
X34156D1*
X35776D2*
X36046D1*
X36946D2*
X37216D1*
X39316D2*
X39586D1*
X40246D2*
X40516D1*
X40786D2*
X41026D1*
X42676D2*
X42916D1*
X8936Y20573D2*
X27037D1*
X30436D2*
X30706D1*
X31216D2*
X31456D1*
X31966D2*
X32236D1*
X32506D2*
X32776D1*
X33886D2*
X34156D1*
X35776D2*
X36046D1*
X36946D2*
X37216D1*
X39316D2*
X39586D1*
X40246D2*
X40516D1*
X40786D2*
X41026D1*
X42676D2*
X42916D1*
X8956Y20543D2*
X27016D1*
X30436D2*
X30706D1*
X31216D2*
X31456D1*
X31966D2*
X32236D1*
X32506D2*
X32776D1*
X33886D2*
X34156D1*
X35776D2*
X36046D1*
X36946D2*
X37216D1*
X39316D2*
X39586D1*
X40246D2*
X40516D1*
X40786D2*
X41026D1*
X42676D2*
X42916D1*
X8976Y20513D2*
X26996D1*
X30436D2*
X30706D1*
X31216D2*
X31456D1*
X31966D2*
X32236D1*
X32506D2*
X32776D1*
X33886D2*
X34156D1*
X35776D2*
X36046D1*
X36946D2*
X37216D1*
X39316D2*
X39586D1*
X40246D2*
X40516D1*
X40786D2*
X41026D1*
X42676D2*
X42916D1*
X8996Y20483D2*
X26976D1*
X30436D2*
X30706D1*
X31216D2*
X31456D1*
X31966D2*
X32236D1*
X32506D2*
X32776D1*
X33886D2*
X34156D1*
X35776D2*
X36046D1*
X36946D2*
X37216D1*
X39316D2*
X39586D1*
X40246D2*
X40516D1*
X40786D2*
X41026D1*
X42676D2*
X42916D1*
X9016Y20453D2*
X26956D1*
X30436D2*
X30706D1*
X31216D2*
X31456D1*
X31966D2*
X32236D1*
X32506D2*
X32776D1*
X33886D2*
X34156D1*
X35776D2*
X36046D1*
X36946D2*
X37216D1*
X39316D2*
X39586D1*
X40246D2*
X40516D1*
X40786D2*
X41026D1*
X42676D2*
X42916D1*
X9035Y20423D2*
X26937D1*
X30436D2*
X30706D1*
X31216D2*
X31456D1*
X31966D2*
X32236D1*
X32506D2*
X32776D1*
X33886D2*
X34156D1*
X35776D2*
X36046D1*
X36946D2*
X37216D1*
X39316D2*
X39586D1*
X40246D2*
X40516D1*
X40786D2*
X41026D1*
X42676D2*
X42916D1*
X9051Y20393D2*
X26921D1*
X30436D2*
X30706D1*
X31216D2*
X31456D1*
X31966D2*
X32236D1*
X32506D2*
X32776D1*
X33886D2*
X34156D1*
X35776D2*
X36046D1*
X36946D2*
X37216D1*
X39316D2*
X39586D1*
X40246D2*
X40516D1*
X40786D2*
X41026D1*
X42676D2*
X42916D1*
X9063Y20363D2*
X26909D1*
X30436D2*
X30706D1*
X31216D2*
X31456D1*
X31966D2*
X32236D1*
X32506D2*
X32776D1*
X33886D2*
X34156D1*
X35776D2*
X36046D1*
X36946D2*
X37216D1*
X39316D2*
X39586D1*
X40246D2*
X40516D1*
X40786D2*
X41026D1*
X42676D2*
X42916D1*
X9070Y20333D2*
X26902D1*
X30436D2*
X30706D1*
X31216D2*
X31456D1*
X31966D2*
X32236D1*
X32506D2*
X32776D1*
X33886D2*
X34156D1*
X35776D2*
X36046D1*
X36946D2*
X38596D1*
X38866D2*
X40516D1*
X40786D2*
X41026D1*
X42676D2*
X42916D1*
X9073Y20303D2*
X26899D1*
X30436D2*
X30706D1*
X31216D2*
X31456D1*
X31966D2*
X32236D1*
X32506D2*
X32776D1*
X33886D2*
X34156D1*
X35776D2*
X36046D1*
X36946D2*
X38596D1*
X38866D2*
X40516D1*
X40786D2*
X41026D1*
X42676D2*
X42916D1*
X9074Y20273D2*
X26898D1*
X30436D2*
X30706D1*
X31216D2*
X31456D1*
X31966D2*
X32236D1*
X32506D2*
X32776D1*
X33886D2*
X34156D1*
X35776D2*
X36046D1*
X36946D2*
X38596D1*
X38866D2*
X40516D1*
X40786D2*
X41026D1*
X42676D2*
X42916D1*
X9071Y20243D2*
X26902D1*
X30436D2*
X30706D1*
X31216D2*
X31456D1*
X31966D2*
X32236D1*
X32506D2*
X32776D1*
X33886D2*
X34156D1*
X35776D2*
X36046D1*
X36946D2*
X38596D1*
X38866D2*
X40516D1*
X40786D2*
X41026D1*
X42676D2*
X42916D1*
X9063Y20213D2*
X26910D1*
X30436D2*
X30706D1*
X31216D2*
X31456D1*
X31966D2*
X32236D1*
X32506D2*
X32776D1*
X33886D2*
X34156D1*
X35776D2*
X36046D1*
X36946D2*
X38596D1*
X38866D2*
X40516D1*
X40786D2*
X41026D1*
X42676D2*
X42916D1*
X9051Y20183D2*
X26921D1*
X30436D2*
X30706D1*
X31216D2*
X31456D1*
X31966D2*
X32236D1*
X32506D2*
X32776D1*
X33886D2*
X34156D1*
X35776D2*
X36046D1*
X36946D2*
X38596D1*
X38866D2*
X40516D1*
X40786D2*
X41026D1*
X42676D2*
X42916D1*
X9039Y20153D2*
X26935D1*
X30436D2*
X30706D1*
X31216D2*
X31456D1*
X31966D2*
X32236D1*
X32506D2*
X32776D1*
X33886D2*
X34156D1*
X35776D2*
X36046D1*
X36946D2*
X38596D1*
X38866D2*
X40516D1*
X40786D2*
X41026D1*
X42676D2*
X42916D1*
X9027Y20123D2*
X26949D1*
X30436D2*
X30706D1*
X31216D2*
X31456D1*
X31966D2*
X32236D1*
X32506D2*
X32776D1*
X33886D2*
X34156D1*
X35776D2*
X36046D1*
X36946D2*
X38596D1*
X38866D2*
X40516D1*
X40786D2*
X41026D1*
X42676D2*
X42916D1*
X9017Y20093D2*
X26963D1*
X30436D2*
X30706D1*
X31216D2*
X31456D1*
X31966D2*
X32236D1*
X32506D2*
X32776D1*
X33886D2*
X34156D1*
X35776D2*
X36046D1*
X36946D2*
X38596D1*
X38866D2*
X40516D1*
X40786D2*
X41026D1*
X42676D2*
X42916D1*
X9005Y20063D2*
X26975D1*
X30436D2*
X30706D1*
X31216D2*
X31456D1*
X31966D2*
X32236D1*
X32506D2*
X32776D1*
X33886D2*
X34156D1*
X35776D2*
X36046D1*
X36946D2*
X37216D1*
X38866D2*
X39136D1*
X40246D2*
X40516D1*
X40786D2*
X41026D1*
X42676D2*
X42916D1*
X8992Y20033D2*
X26985D1*
X30436D2*
X30706D1*
X31216D2*
X31456D1*
X31966D2*
X32236D1*
X32506D2*
X32776D1*
X33886D2*
X34156D1*
X35776D2*
X36046D1*
X36946D2*
X37216D1*
X38866D2*
X39136D1*
X40246D2*
X40516D1*
X40786D2*
X41026D1*
X42676D2*
X42916D1*
X8978Y20003D2*
X26997D1*
X30436D2*
X30706D1*
X31216D2*
X31456D1*
X31966D2*
X32236D1*
X32506D2*
X32776D1*
X33886D2*
X34156D1*
X35776D2*
X36046D1*
X36946D2*
X37216D1*
X38866D2*
X39136D1*
X40246D2*
X40516D1*
X40786D2*
X41026D1*
X42676D2*
X42916D1*
X8963Y19973D2*
X27010D1*
X30436D2*
X30706D1*
X31216D2*
X31456D1*
X31966D2*
X32236D1*
X32506D2*
X32776D1*
X33886D2*
X34156D1*
X35776D2*
X36046D1*
X36946D2*
X37216D1*
X38866D2*
X39136D1*
X40246D2*
X40516D1*
X40786D2*
X41026D1*
X42676D2*
X42916D1*
X8950Y19943D2*
X27024D1*
X30436D2*
X30706D1*
X31216D2*
X31456D1*
X31966D2*
X32236D1*
X32506D2*
X32776D1*
X33886D2*
X34156D1*
X35776D2*
X36046D1*
X36946D2*
X37216D1*
X38866D2*
X39136D1*
X40246D2*
X40516D1*
X40786D2*
X41026D1*
X42676D2*
X42916D1*
X8938Y19913D2*
X27039D1*
X30436D2*
X30706D1*
X31216D2*
X31456D1*
X31966D2*
X32236D1*
X32506D2*
X32776D1*
X33886D2*
X34156D1*
X35776D2*
X36046D1*
X36946D2*
X37216D1*
X38866D2*
X39136D1*
X40246D2*
X40516D1*
X40786D2*
X41026D1*
X42676D2*
X42916D1*
X8927Y19883D2*
X27053D1*
X30436D2*
X30706D1*
X31216D2*
X31456D1*
X31966D2*
X32236D1*
X32506D2*
X32776D1*
X33886D2*
X34156D1*
X35776D2*
X36046D1*
X36946D2*
X37216D1*
X38866D2*
X39136D1*
X40246D2*
X40516D1*
X40786D2*
X41026D1*
X42676D2*
X42916D1*
X8915Y19853D2*
X27065D1*
X30436D2*
X30706D1*
X31216D2*
X31456D1*
X31966D2*
X32236D1*
X32506D2*
X32776D1*
X33886D2*
X34156D1*
X35776D2*
X36046D1*
X36946D2*
X37216D1*
X38866D2*
X39136D1*
X40246D2*
X40516D1*
X40786D2*
X41026D1*
X42676D2*
X42916D1*
X8902Y19823D2*
X27075D1*
X30436D2*
X30706D1*
X31216D2*
X31456D1*
X31966D2*
X32236D1*
X32506D2*
X32776D1*
X33886D2*
X34156D1*
X35776D2*
X36046D1*
X36946D2*
X37216D1*
X38866D2*
X39136D1*
X40246D2*
X40516D1*
X40786D2*
X41026D1*
X42676D2*
X42916D1*
X8888Y19793D2*
X27087D1*
X30436D2*
X30706D1*
X31216D2*
X31456D1*
X31966D2*
X32236D1*
X32506D2*
X32776D1*
X33886D2*
X34156D1*
X35776D2*
X36046D1*
X36946D2*
X37216D1*
X38866D2*
X39136D1*
X40246D2*
X40516D1*
X40786D2*
X41026D1*
X42676D2*
X42916D1*
X8873Y19763D2*
X27100D1*
X30436D2*
X30706D1*
X31216D2*
X31456D1*
X31966D2*
X32236D1*
X32506D2*
X32776D1*
X33886D2*
X34156D1*
X35776D2*
X36046D1*
X36946D2*
X37216D1*
X38866D2*
X39136D1*
X40246D2*
X40516D1*
X40786D2*
X41026D1*
X42676D2*
X42916D1*
X8859Y19733D2*
X27113D1*
X30436D2*
X30706D1*
X31216D2*
X31456D1*
X31966D2*
X32236D1*
X32506D2*
X32776D1*
X33886D2*
X34156D1*
X35776D2*
X36046D1*
X36946D2*
X37216D1*
X38866D2*
X39136D1*
X40246D2*
X40516D1*
X40786D2*
X41026D1*
X42676D2*
X42916D1*
X8844Y19703D2*
X27125D1*
X30436D2*
X30706D1*
X31216D2*
X31456D1*
X31966D2*
X32236D1*
X32506D2*
X32776D1*
X33886D2*
X34156D1*
X35776D2*
X36046D1*
X36946D2*
X37216D1*
X38866D2*
X39136D1*
X40246D2*
X40516D1*
X40786D2*
X41026D1*
X42676D2*
X42916D1*
X8830Y19673D2*
X27135D1*
X30436D2*
X30706D1*
X31216D2*
X31456D1*
X31966D2*
X32236D1*
X32506D2*
X32776D1*
X33886D2*
X34156D1*
X35776D2*
X36046D1*
X36946D2*
X37216D1*
X38866D2*
X39136D1*
X40246D2*
X40516D1*
X40786D2*
X41026D1*
X42676D2*
X42916D1*
X8818Y19643D2*
X27147D1*
X30436D2*
X30706D1*
X31216D2*
X31456D1*
X31966D2*
X32236D1*
X32506D2*
X34156D1*
X34426D2*
X36046D1*
X36376D2*
X36646D1*
X36946D2*
X38596D1*
X38866D2*
X40516D1*
X40786D2*
X41026D1*
X41296D2*
X42916D1*
X8807Y19613D2*
X27160D1*
X30436D2*
X30706D1*
X31216D2*
X31456D1*
X31966D2*
X32236D1*
X32506D2*
X34156D1*
X34426D2*
X36046D1*
X36376D2*
X36646D1*
X36946D2*
X38596D1*
X38866D2*
X40516D1*
X40786D2*
X41026D1*
X41296D2*
X42916D1*
X8795Y19583D2*
X27174D1*
X30436D2*
X30706D1*
X31216D2*
X31456D1*
X31966D2*
X32236D1*
X32506D2*
X34156D1*
X34426D2*
X36046D1*
X36376D2*
X36646D1*
X36946D2*
X38596D1*
X38866D2*
X40516D1*
X40786D2*
X41026D1*
X41296D2*
X42916D1*
X8782Y19553D2*
X27189D1*
X30436D2*
X30706D1*
X31216D2*
X31456D1*
X31966D2*
X32236D1*
X32506D2*
X34156D1*
X34426D2*
X36046D1*
X36376D2*
X36646D1*
X36946D2*
X38596D1*
X38866D2*
X40516D1*
X40786D2*
X41026D1*
X41296D2*
X42916D1*
X8768Y19523D2*
X27204D1*
X30436D2*
X30706D1*
X31216D2*
X31456D1*
X31966D2*
X32236D1*
X32506D2*
X34156D1*
X34426D2*
X36046D1*
X36376D2*
X36646D1*
X36946D2*
X38596D1*
X38866D2*
X40516D1*
X40786D2*
X41026D1*
X41296D2*
X42916D1*
X8753Y19493D2*
X27219D1*
X30436D2*
X30706D1*
X31216D2*
X31456D1*
X31966D2*
X32236D1*
X32506D2*
X34156D1*
X34426D2*
X36046D1*
X36376D2*
X36646D1*
X36946D2*
X38596D1*
X38866D2*
X40516D1*
X40786D2*
X41026D1*
X41296D2*
X42916D1*
X8740Y19463D2*
X27234D1*
X30436D2*
X30706D1*
X31216D2*
X31456D1*
X31966D2*
X32236D1*
X32506D2*
X34156D1*
X34426D2*
X36046D1*
X36376D2*
X36646D1*
X36946D2*
X38596D1*
X38866D2*
X40516D1*
X40786D2*
X41026D1*
X41296D2*
X42916D1*
X8728Y19433D2*
X27249D1*
X30436D2*
X30706D1*
X31216D2*
X31456D1*
X31966D2*
X32236D1*
X32506D2*
X34156D1*
X34426D2*
X36046D1*
X36376D2*
X36646D1*
X36946D2*
X38596D1*
X38866D2*
X40516D1*
X40786D2*
X41026D1*
X41296D2*
X42916D1*
X8717Y19403D2*
X27263D1*
X30436D2*
X30706D1*
X31216D2*
X31456D1*
X31966D2*
X32236D1*
X32506D2*
X34156D1*
X34426D2*
X36046D1*
X36376D2*
X36646D1*
X36946D2*
X38596D1*
X38866D2*
X40516D1*
X40786D2*
X41026D1*
X41296D2*
X42916D1*
X8705Y19373D2*
X27275D1*
X8692Y19343D2*
X27285D1*
X8678Y19313D2*
X27297D1*
X8663Y19283D2*
X27310D1*
X8650Y19253D2*
X27323D1*
X8638Y19223D2*
X27335D1*
X8627Y19193D2*
X27345D1*
X8615Y19163D2*
X27357D1*
X8602Y19133D2*
X27370D1*
X8589Y19103D2*
X27384D1*
X8577Y19073D2*
X27399D1*
X8567Y19043D2*
X27413D1*
X8555Y19013D2*
X27425D1*
X8542Y18983D2*
X27435D1*
X8528Y18953D2*
X27447D1*
X8513Y18923D2*
X27460D1*
X8500Y18893D2*
X27473D1*
X8488Y18863D2*
X27485D1*
X8477Y18833D2*
X17585D1*
X18387D2*
X27495D1*
X8465Y18803D2*
X17388D1*
X18585D2*
X27507D1*
X8452Y18773D2*
X17221D1*
X18751D2*
X27520D1*
X8438Y18743D2*
X17080D1*
X18891D2*
X27534D1*
X8423Y18713D2*
X16959D1*
X19010D2*
X27549D1*
X8410Y18683D2*
X8446D1*
X8626D2*
X16854D1*
X19115D2*
X27376D1*
X27556D2*
X27563D1*
X8398Y18653D2*
X8446D1*
X8626D2*
X16761D1*
X19210D2*
X27376D1*
X27556D2*
X27575D1*
X8387Y18623D2*
X8446D1*
X8626D2*
X16676D1*
X19298D2*
X27376D1*
X27556D2*
X27585D1*
X8375Y18593D2*
X8446D1*
X8626D2*
X16596D1*
X19378D2*
X27376D1*
X27556D2*
X27597D1*
X8362Y18563D2*
X8446D1*
X8626D2*
X16521D1*
X19453D2*
X27376D1*
X27556D2*
X27610D1*
X8349Y18533D2*
X8446D1*
X8626D2*
X16451D1*
X19525D2*
X27376D1*
X27557D2*
X27623D1*
X8338Y18503D2*
X8446D1*
X8626D2*
X16391D1*
X19595D2*
X27376D1*
X27558D2*
X27634D1*
X8331Y18473D2*
X8446D1*
X8626D2*
X16349D1*
X19661D2*
X27376D1*
X27571D2*
X27641D1*
X4576Y18443D2*
X5536D1*
X5686D2*
X6646D1*
X6826D2*
X7756D1*
X7936D2*
X8446D1*
X8626D2*
X16318D1*
X16846D2*
X17026D1*
X17176D2*
X18136D1*
X18886D2*
X27376D1*
X27608D2*
X28336D1*
X28486D2*
X29446D1*
X29626D2*
X30556D1*
X30736D2*
X30886D1*
X31546D2*
X31696D1*
X32446D2*
X33406D1*
X33556D2*
X34516D1*
X34666D2*
X35626D1*
X35776D2*
X35926D1*
X36586D2*
X36736D1*
X36916D2*
X37876D1*
X38026D2*
X38986D1*
X39136D2*
X40096D1*
X40276D2*
X41206D1*
X41386D2*
X42346D1*
X42496D2*
X43456D1*
X4576Y18413D2*
X5536D1*
X5686D2*
X6646D1*
X6826D2*
X7756D1*
X7936D2*
X8365D1*
X8896D2*
X9016D1*
X10006D2*
X10126D1*
X11116D2*
X11266D1*
X12316D2*
X12466D1*
X12616D2*
X12766D1*
X13726D2*
X13876D1*
X14866D2*
X14986D1*
X15976D2*
X16126D1*
X16186D2*
X16338D1*
X16821D2*
X17011D1*
X17176D2*
X18136D1*
X18886D2*
X19800D1*
X19832D2*
X19996D1*
X20986D2*
X21106D1*
X22096D2*
X22816D1*
X23806D2*
X23926D1*
X24916D2*
X25036D1*
X26026D2*
X26176D1*
X26326D2*
X26626D1*
X26776D2*
X27076D1*
X27226D2*
X27376D1*
X27649D2*
X28336D1*
X28486D2*
X29446D1*
X29626D2*
X30556D1*
X30736D2*
X30886D1*
X31546D2*
X31696D1*
X32446D2*
X33406D1*
X33556D2*
X34516D1*
X34666D2*
X35626D1*
X35776D2*
X35926D1*
X36586D2*
X36736D1*
X36916D2*
X37876D1*
X38026D2*
X38986D1*
X39136D2*
X40096D1*
X40276D2*
X41206D1*
X41386D2*
X42346D1*
X42496D2*
X43456D1*
X4576Y18383D2*
X5536D1*
X5686D2*
X6646D1*
X6826D2*
X7756D1*
X7936D2*
X8310D1*
X8896D2*
X9016D1*
X10006D2*
X10126D1*
X11116D2*
X11266D1*
X12316D2*
X12466D1*
X12616D2*
X12766D1*
X13726D2*
X13876D1*
X14866D2*
X14986D1*
X15976D2*
X16357D1*
X16798D2*
X16994D1*
X17176D2*
X18136D1*
X18886D2*
X19996D1*
X20986D2*
X21106D1*
X22096D2*
X22816D1*
X23806D2*
X23926D1*
X24916D2*
X25036D1*
X26026D2*
X26176D1*
X26326D2*
X26626D1*
X26776D2*
X27076D1*
X27226D2*
X27376D1*
X27681D2*
X28336D1*
X28486D2*
X29446D1*
X29626D2*
X30556D1*
X30736D2*
X30886D1*
X31546D2*
X31696D1*
X32446D2*
X33406D1*
X33556D2*
X34516D1*
X34666D2*
X35626D1*
X35776D2*
X35926D1*
X36586D2*
X36736D1*
X36916D2*
X37876D1*
X38026D2*
X38986D1*
X39136D2*
X40096D1*
X40276D2*
X41206D1*
X41386D2*
X42346D1*
X42496D2*
X43456D1*
X4576Y18353D2*
X5536D1*
X5686D2*
X6646D1*
X6826D2*
X7756D1*
X7936D2*
X8270D1*
X8896D2*
X9016D1*
X10006D2*
X10126D1*
X11116D2*
X11266D1*
X12316D2*
X12466D1*
X12616D2*
X12766D1*
X13726D2*
X13876D1*
X14866D2*
X14986D1*
X15975D2*
X16099D1*
X16181D2*
X16377D1*
X16776D2*
X16975D1*
X17176D2*
X18136D1*
X18886D2*
X19999D1*
X20986D2*
X21106D1*
X22096D2*
X22816D1*
X23806D2*
X23926D1*
X24916D2*
X25036D1*
X26026D2*
X26176D1*
X26326D2*
X26626D1*
X26776D2*
X27076D1*
X27226D2*
X27376D1*
X27705D2*
X28336D1*
X28486D2*
X29446D1*
X29626D2*
X30556D1*
X30736D2*
X30886D1*
X31546D2*
X31696D1*
X32446D2*
X33406D1*
X33556D2*
X34516D1*
X34666D2*
X35626D1*
X35776D2*
X35926D1*
X36586D2*
X36736D1*
X36916D2*
X37876D1*
X38026D2*
X38986D1*
X39136D2*
X40096D1*
X40276D2*
X41206D1*
X41386D2*
X42346D1*
X42496D2*
X43456D1*
X4576Y18323D2*
X5536D1*
X5686D2*
X6646D1*
X6826D2*
X7756D1*
X7936D2*
X8253D1*
X8896D2*
X9016D1*
X10006D2*
X10126D1*
X11116D2*
X11266D1*
X12316D2*
X12466D1*
X12616D2*
X12766D1*
X13726D2*
X13876D1*
X14866D2*
X14986D1*
X15972D2*
X16049D1*
X16204D2*
X16400D1*
X16752D2*
X16955D1*
X17176D2*
X18136D1*
X18886D2*
X19846D1*
X19924D2*
X20004D1*
X20986D2*
X21106D1*
X22096D2*
X22816D1*
X23806D2*
X23926D1*
X24916D2*
X25036D1*
X26026D2*
X26176D1*
X26326D2*
X26626D1*
X26776D2*
X27076D1*
X27226D2*
X27376D1*
X27721D2*
X28336D1*
X28486D2*
X29446D1*
X29626D2*
X30556D1*
X30736D2*
X30886D1*
X31546D2*
X31696D1*
X32446D2*
X33406D1*
X33556D2*
X34516D1*
X34666D2*
X35626D1*
X35776D2*
X35926D1*
X36586D2*
X36736D1*
X36916D2*
X37876D1*
X38026D2*
X38986D1*
X39136D2*
X40096D1*
X40276D2*
X41206D1*
X41386D2*
X42346D1*
X42496D2*
X43456D1*
X4576Y18293D2*
X5536D1*
X5686D2*
X6646D1*
X6826D2*
X7756D1*
X7936D2*
X8243D1*
X8896D2*
X9016D1*
X10006D2*
X10126D1*
X11116D2*
X11266D1*
X12316D2*
X12466D1*
X12616D2*
X12766D1*
X13726D2*
X13876D1*
X14866D2*
X14986D1*
X15953D2*
X16007D1*
X16225D2*
X16423D1*
X16729D2*
X16932D1*
X17176D2*
X18136D1*
X18886D2*
X19846D1*
X19965D2*
X20026D1*
X20986D2*
X21106D1*
X22096D2*
X22816D1*
X23806D2*
X23926D1*
X24916D2*
X25036D1*
X26026D2*
X26176D1*
X26326D2*
X26626D1*
X26776D2*
X27076D1*
X27226D2*
X27376D1*
X27730D2*
X28336D1*
X28486D2*
X29446D1*
X29626D2*
X30556D1*
X30736D2*
X30886D1*
X31546D2*
X31696D1*
X32446D2*
X33406D1*
X33556D2*
X34516D1*
X34666D2*
X35626D1*
X35776D2*
X35926D1*
X36586D2*
X36736D1*
X36916D2*
X37876D1*
X38026D2*
X38986D1*
X39136D2*
X40096D1*
X40276D2*
X41206D1*
X41386D2*
X42346D1*
X42496D2*
X43456D1*
X5386Y18263D2*
X5536D1*
X6496D2*
X6646D1*
X6826D2*
X6946D1*
X7606D2*
X7756D1*
X8236D2*
X8446D1*
X8626D2*
X9016D1*
X9196D2*
X9826D1*
X10006D2*
X10126D1*
X10306D2*
X10936D1*
X11116D2*
X11266D1*
X11416D2*
X11716D1*
X11866D2*
X12166D1*
X12316D2*
X12466D1*
X12616D2*
X13576D1*
X13726D2*
X13876D1*
X14056D2*
X14686D1*
X14866D2*
X14986D1*
X15166D2*
X15796D1*
X15926D2*
X15991D1*
X16246D2*
X16445D1*
X16707D2*
X16909D1*
X17986D2*
X18136D1*
X19696D2*
X19846D1*
X19981D2*
X20054D1*
X20176D2*
X20806D1*
X20986D2*
X21916D1*
X22096D2*
X22816D1*
X22996D2*
X23626D1*
X23806D2*
X24736D1*
X24916D2*
X25036D1*
X25216D2*
X26176D1*
X26326D2*
X26626D1*
X26776D2*
X27076D1*
X27226D2*
X27376D1*
X27556D2*
X27736D1*
X28186D2*
X28336D1*
X29296D2*
X29446D1*
X29626D2*
X29746D1*
X30736D2*
X30886D1*
X31546D2*
X31696D1*
X32446D2*
X32596D1*
X33256D2*
X33406D1*
X34366D2*
X34516D1*
X35476D2*
X35626D1*
X35776D2*
X35926D1*
X36586D2*
X36736D1*
X36916D2*
X37066D1*
X37726D2*
X37876D1*
X38836D2*
X38986D1*
X39136D2*
X39286D1*
X39946D2*
X40096D1*
X40276D2*
X40426D1*
X41086D2*
X41206D1*
X41386D2*
X41536D1*
X42196D2*
X42346D1*
X42496D2*
X42646D1*
X43306D2*
X43456D1*
X5386Y18233D2*
X5536D1*
X6496D2*
X6646D1*
X6826D2*
X6946D1*
X7606D2*
X7756D1*
X8221D2*
X8446D1*
X8626D2*
X9016D1*
X9196D2*
X9826D1*
X10006D2*
X10126D1*
X10306D2*
X10936D1*
X11116D2*
X11266D1*
X11416D2*
X11716D1*
X11866D2*
X12166D1*
X12316D2*
X12466D1*
X12616D2*
X13576D1*
X13726D2*
X13876D1*
X14056D2*
X14686D1*
X14866D2*
X14986D1*
X15166D2*
X15796D1*
X15892D2*
X15983D1*
X16266D2*
X16466D1*
X16686D2*
X16887D1*
X17986D2*
X18136D1*
X19696D2*
X19846D1*
X19990D2*
X20085D1*
X20176D2*
X20806D1*
X20986D2*
X21916D1*
X22096D2*
X22816D1*
X22996D2*
X23626D1*
X23806D2*
X24736D1*
X24916D2*
X25036D1*
X25216D2*
X26176D1*
X26326D2*
X26626D1*
X26776D2*
X27076D1*
X27226D2*
X27376D1*
X27556D2*
X27751D1*
X28186D2*
X28336D1*
X29296D2*
X29446D1*
X29626D2*
X29746D1*
X30736D2*
X30886D1*
X31546D2*
X31696D1*
X32446D2*
X32596D1*
X33256D2*
X33406D1*
X34366D2*
X34516D1*
X35476D2*
X35626D1*
X35776D2*
X35926D1*
X36586D2*
X36736D1*
X36916D2*
X37066D1*
X37726D2*
X37876D1*
X38836D2*
X38986D1*
X39136D2*
X39286D1*
X39946D2*
X40096D1*
X40276D2*
X40426D1*
X41086D2*
X41206D1*
X41386D2*
X41536D1*
X42196D2*
X42346D1*
X42496D2*
X42646D1*
X43306D2*
X43456D1*
X5386Y18203D2*
X5536D1*
X6496D2*
X6646D1*
X6826D2*
X6946D1*
X7606D2*
X7756D1*
X8209D2*
X8446D1*
X8626D2*
X9016D1*
X9196D2*
X9826D1*
X10006D2*
X10126D1*
X10306D2*
X10936D1*
X11116D2*
X11266D1*
X11416D2*
X11716D1*
X11866D2*
X12166D1*
X12316D2*
X12466D1*
X12616D2*
X13576D1*
X13726D2*
X13876D1*
X14056D2*
X14686D1*
X14866D2*
X14986D1*
X15166D2*
X15796D1*
X15856D2*
X15979D1*
X16287D2*
X16490D1*
X16662D2*
X16866D1*
X17986D2*
X18136D1*
X19696D2*
X19846D1*
X19994D2*
X20116D1*
X20176D2*
X20806D1*
X20986D2*
X21916D1*
X22096D2*
X22816D1*
X22996D2*
X23626D1*
X23806D2*
X24736D1*
X24916D2*
X25036D1*
X25216D2*
X26176D1*
X26326D2*
X26626D1*
X26776D2*
X27076D1*
X27226D2*
X27376D1*
X27556D2*
X27764D1*
X28186D2*
X28336D1*
X29296D2*
X29446D1*
X29626D2*
X29746D1*
X30736D2*
X30886D1*
X31546D2*
X31696D1*
X32446D2*
X32596D1*
X33256D2*
X33406D1*
X34366D2*
X34516D1*
X35476D2*
X35626D1*
X35776D2*
X35926D1*
X36586D2*
X36736D1*
X36916D2*
X37066D1*
X37726D2*
X37876D1*
X38836D2*
X38986D1*
X39136D2*
X39286D1*
X39946D2*
X40096D1*
X40276D2*
X40426D1*
X41086D2*
X41206D1*
X41386D2*
X41536D1*
X42196D2*
X42346D1*
X42496D2*
X42646D1*
X43306D2*
X43456D1*
X5386Y18173D2*
X5536D1*
X6496D2*
X6646D1*
X6826D2*
X6946D1*
X7606D2*
X7756D1*
X8196D2*
X8446D1*
X8626D2*
X9016D1*
X9196D2*
X9826D1*
X10006D2*
X10126D1*
X10306D2*
X10936D1*
X11116D2*
X11266D1*
X11416D2*
X11716D1*
X11866D2*
X12166D1*
X12316D2*
X12466D1*
X12616D2*
X13576D1*
X13726D2*
X13876D1*
X14056D2*
X14686D1*
X14866D2*
X14986D1*
X15166D2*
X15977D1*
X16310D2*
X16513D1*
X16639D2*
X16842D1*
X17986D2*
X18136D1*
X19696D2*
X19846D1*
X19995D2*
X20806D1*
X20986D2*
X21916D1*
X22096D2*
X22816D1*
X22996D2*
X23626D1*
X23806D2*
X24736D1*
X24916D2*
X25036D1*
X25216D2*
X26176D1*
X26326D2*
X26626D1*
X26776D2*
X27076D1*
X27226D2*
X27376D1*
X27556D2*
X27776D1*
X28186D2*
X28336D1*
X29296D2*
X29446D1*
X29626D2*
X29746D1*
X30736D2*
X30886D1*
X31546D2*
X31696D1*
X32446D2*
X32596D1*
X33256D2*
X33406D1*
X34366D2*
X34516D1*
X35476D2*
X35626D1*
X35776D2*
X35926D1*
X36586D2*
X36736D1*
X36916D2*
X37066D1*
X37726D2*
X37876D1*
X38836D2*
X38986D1*
X39136D2*
X39286D1*
X39946D2*
X40096D1*
X40276D2*
X40426D1*
X41086D2*
X41206D1*
X41386D2*
X41536D1*
X42196D2*
X42346D1*
X42496D2*
X42646D1*
X43306D2*
X43456D1*
X5386Y18143D2*
X5536D1*
X6496D2*
X6646D1*
X6826D2*
X6946D1*
X7606D2*
X7756D1*
X8182D2*
X8446D1*
X8626D2*
X9016D1*
X9196D2*
X9826D1*
X10006D2*
X10126D1*
X10306D2*
X10936D1*
X11116D2*
X11266D1*
X11416D2*
X11716D1*
X11866D2*
X12166D1*
X12316D2*
X12466D1*
X12616D2*
X13576D1*
X13726D2*
X13876D1*
X14056D2*
X14686D1*
X14866D2*
X14986D1*
X15166D2*
X15772D1*
X15826D2*
X15976D1*
X16333D2*
X16535D1*
X16618D2*
X16819D1*
X17986D2*
X18136D1*
X19696D2*
X19846D1*
X19996D2*
X20146D1*
X20200D2*
X20806D1*
X20986D2*
X21916D1*
X22096D2*
X22816D1*
X22996D2*
X23626D1*
X23806D2*
X24736D1*
X24916D2*
X25036D1*
X25216D2*
X26176D1*
X26326D2*
X26626D1*
X26776D2*
X27076D1*
X27226D2*
X27376D1*
X27556D2*
X27790D1*
X28186D2*
X28336D1*
X29296D2*
X29446D1*
X29626D2*
X29746D1*
X30736D2*
X30886D1*
X31546D2*
X31696D1*
X32446D2*
X32596D1*
X33256D2*
X33406D1*
X34366D2*
X34516D1*
X35476D2*
X35626D1*
X35776D2*
X35926D1*
X36586D2*
X36736D1*
X36916D2*
X37066D1*
X37726D2*
X37876D1*
X38836D2*
X38986D1*
X39136D2*
X39286D1*
X39946D2*
X40096D1*
X40276D2*
X40426D1*
X41086D2*
X41206D1*
X41386D2*
X41536D1*
X42196D2*
X42346D1*
X42496D2*
X42646D1*
X43306D2*
X43456D1*
X5386Y18113D2*
X5536D1*
X6496D2*
X6646D1*
X6826D2*
X6946D1*
X7606D2*
X7756D1*
X8168D2*
X8446D1*
X8626D2*
X9016D1*
X9196D2*
X9826D1*
X10006D2*
X10126D1*
X10306D2*
X10936D1*
X11116D2*
X11266D1*
X11416D2*
X11716D1*
X11866D2*
X12166D1*
X12316D2*
X12466D1*
X12616D2*
X13576D1*
X13726D2*
X13876D1*
X14056D2*
X14686D1*
X14866D2*
X14986D1*
X15166D2*
X15723D1*
X15826D2*
X15976D1*
X16355D2*
X16555D1*
X16597D2*
X16798D1*
X17986D2*
X18136D1*
X19696D2*
X19846D1*
X19996D2*
X20146D1*
X20249D2*
X20806D1*
X20986D2*
X21916D1*
X22096D2*
X22816D1*
X22996D2*
X23626D1*
X23806D2*
X24736D1*
X24916D2*
X25036D1*
X25216D2*
X26176D1*
X26326D2*
X26626D1*
X26776D2*
X27076D1*
X27226D2*
X27376D1*
X27556D2*
X27804D1*
X28186D2*
X28336D1*
X29296D2*
X29446D1*
X29626D2*
X29746D1*
X30736D2*
X30886D1*
X31546D2*
X31696D1*
X32446D2*
X32596D1*
X33256D2*
X33406D1*
X34366D2*
X34516D1*
X35476D2*
X35626D1*
X35776D2*
X35926D1*
X36586D2*
X36736D1*
X36916D2*
X37066D1*
X37726D2*
X37876D1*
X38836D2*
X38986D1*
X39136D2*
X39286D1*
X39946D2*
X40096D1*
X40276D2*
X40426D1*
X41086D2*
X41206D1*
X41386D2*
X41536D1*
X42196D2*
X42346D1*
X42496D2*
X42646D1*
X43306D2*
X43456D1*
X5386Y18083D2*
X5536D1*
X6496D2*
X6646D1*
X6826D2*
X6946D1*
X7606D2*
X7756D1*
X8153D2*
X8446D1*
X8626D2*
X9016D1*
X9196D2*
X9826D1*
X10006D2*
X10126D1*
X10306D2*
X10936D1*
X11116D2*
X11266D1*
X11416D2*
X11716D1*
X11866D2*
X12166D1*
X12316D2*
X12466D1*
X12616D2*
X13576D1*
X13726D2*
X13876D1*
X14056D2*
X14686D1*
X14866D2*
X14986D1*
X15166D2*
X15679D1*
X15826D2*
X15976D1*
X16376D2*
X16777D1*
X17986D2*
X18136D1*
X19696D2*
X19846D1*
X19996D2*
X20146D1*
X20293D2*
X20806D1*
X20986D2*
X21916D1*
X22096D2*
X22816D1*
X22996D2*
X23626D1*
X23806D2*
X24736D1*
X24916D2*
X25036D1*
X25216D2*
X26176D1*
X26326D2*
X26626D1*
X26776D2*
X27076D1*
X27226D2*
X27376D1*
X27556D2*
X27819D1*
X28186D2*
X28336D1*
X29296D2*
X29446D1*
X29626D2*
X29746D1*
X30736D2*
X30886D1*
X31546D2*
X31696D1*
X32446D2*
X32596D1*
X33256D2*
X33406D1*
X34366D2*
X34516D1*
X35476D2*
X35626D1*
X35776D2*
X35926D1*
X36586D2*
X36736D1*
X36916D2*
X37066D1*
X37726D2*
X37876D1*
X38836D2*
X38986D1*
X39136D2*
X39286D1*
X39946D2*
X40096D1*
X40276D2*
X40426D1*
X41086D2*
X41206D1*
X41386D2*
X41536D1*
X42196D2*
X42346D1*
X42496D2*
X42646D1*
X43306D2*
X43456D1*
X5386Y18053D2*
X5536D1*
X6496D2*
X6646D1*
X6826D2*
X6946D1*
X7606D2*
X7756D1*
X8139D2*
X8446D1*
X8626D2*
X9016D1*
X9196D2*
X9826D1*
X10006D2*
X10126D1*
X10306D2*
X10936D1*
X11116D2*
X11266D1*
X11416D2*
X11716D1*
X11866D2*
X12166D1*
X12316D2*
X12466D1*
X12616D2*
X13576D1*
X13726D2*
X13876D1*
X14056D2*
X14686D1*
X14866D2*
X14986D1*
X15166D2*
X15637D1*
X15826D2*
X15976D1*
X16400D2*
X16756D1*
X17986D2*
X18136D1*
X19696D2*
X19846D1*
X19996D2*
X20146D1*
X20335D2*
X20806D1*
X20986D2*
X21916D1*
X22096D2*
X22816D1*
X22996D2*
X23626D1*
X23806D2*
X24736D1*
X24916D2*
X25036D1*
X25216D2*
X26176D1*
X26326D2*
X26626D1*
X26776D2*
X27076D1*
X27226D2*
X27376D1*
X27556D2*
X27834D1*
X28186D2*
X28336D1*
X29296D2*
X29446D1*
X29626D2*
X29746D1*
X30736D2*
X30886D1*
X31546D2*
X31696D1*
X32446D2*
X32596D1*
X33256D2*
X33406D1*
X34366D2*
X34516D1*
X35476D2*
X35626D1*
X35776D2*
X35926D1*
X36586D2*
X36736D1*
X36916D2*
X37066D1*
X37726D2*
X37876D1*
X38836D2*
X38986D1*
X39136D2*
X39286D1*
X39946D2*
X40096D1*
X40276D2*
X40426D1*
X41086D2*
X41206D1*
X41386D2*
X41536D1*
X42196D2*
X42346D1*
X42496D2*
X42646D1*
X43306D2*
X43456D1*
X4576Y18023D2*
X5536D1*
X6496D2*
X6646D1*
X6826D2*
X7756D1*
X8124D2*
X8446D1*
X8626D2*
X9016D1*
X9196D2*
X9826D1*
X10006D2*
X10126D1*
X11116D2*
X11266D1*
X11416D2*
X11716D1*
X11866D2*
X12166D1*
X12316D2*
X12466D1*
X12616D2*
X13576D1*
X13726D2*
X13876D1*
X14866D2*
X14986D1*
X15166D2*
X15598D1*
X15826D2*
X15976D1*
X16422D2*
X16738D1*
X17176D2*
X18136D1*
X19696D2*
X19846D1*
X19996D2*
X20146D1*
X20375D2*
X20806D1*
X20986D2*
X21106D1*
X22096D2*
X22816D1*
X23806D2*
X24736D1*
X24916D2*
X25036D1*
X26026D2*
X26176D1*
X26326D2*
X26626D1*
X26776D2*
X27076D1*
X27226D2*
X27376D1*
X27556D2*
X27849D1*
X28186D2*
X28336D1*
X29296D2*
X29446D1*
X29626D2*
X30556D1*
X30736D2*
X31696D1*
X32446D2*
X33406D1*
X34366D2*
X34516D1*
X35476D2*
X35626D1*
X35776D2*
X35926D1*
X36586D2*
X36736D1*
X36916D2*
X37066D1*
X37726D2*
X37876D1*
X38026D2*
X38986D1*
X39136D2*
X39286D1*
X39946D2*
X40096D1*
X40276D2*
X41206D1*
X41386D2*
X41536D1*
X42196D2*
X42346D1*
X42496D2*
X42646D1*
X43306D2*
X43456D1*
X4576Y17993D2*
X5536D1*
X6496D2*
X6646D1*
X6826D2*
X7756D1*
X8110D2*
X8446D1*
X8626D2*
X9016D1*
X9196D2*
X9826D1*
X10006D2*
X10126D1*
X11116D2*
X11266D1*
X11416D2*
X11716D1*
X11866D2*
X12166D1*
X12316D2*
X12466D1*
X12616D2*
X13576D1*
X13726D2*
X13876D1*
X14866D2*
X14986D1*
X15166D2*
X15561D1*
X15826D2*
X15976D1*
X16438D2*
X16723D1*
X17176D2*
X18136D1*
X19696D2*
X19846D1*
X19996D2*
X20146D1*
X20411D2*
X20806D1*
X20986D2*
X21106D1*
X22096D2*
X22816D1*
X23806D2*
X24736D1*
X24916D2*
X25036D1*
X26026D2*
X26176D1*
X26326D2*
X26626D1*
X26776D2*
X27076D1*
X27226D2*
X27376D1*
X27556D2*
X27863D1*
X28186D2*
X28336D1*
X29296D2*
X29446D1*
X29626D2*
X30556D1*
X30736D2*
X31696D1*
X32446D2*
X33406D1*
X34366D2*
X34516D1*
X35476D2*
X35626D1*
X35776D2*
X35926D1*
X36586D2*
X36736D1*
X36916D2*
X37066D1*
X37726D2*
X37876D1*
X38026D2*
X38986D1*
X39136D2*
X39286D1*
X39946D2*
X40096D1*
X40276D2*
X41206D1*
X41386D2*
X41536D1*
X42196D2*
X42346D1*
X42496D2*
X42646D1*
X43306D2*
X43456D1*
X4576Y17963D2*
X5536D1*
X6496D2*
X6646D1*
X6826D2*
X7756D1*
X8098D2*
X8446D1*
X8626D2*
X9016D1*
X9196D2*
X9826D1*
X10006D2*
X10126D1*
X11116D2*
X11266D1*
X11416D2*
X11716D1*
X11866D2*
X12166D1*
X12316D2*
X12466D1*
X12616D2*
X13576D1*
X13726D2*
X13876D1*
X14866D2*
X14986D1*
X15166D2*
X15528D1*
X15826D2*
X15976D1*
X16450D2*
X16711D1*
X17176D2*
X18136D1*
X19696D2*
X19846D1*
X19996D2*
X20146D1*
X20444D2*
X20806D1*
X20986D2*
X21106D1*
X22096D2*
X22816D1*
X23806D2*
X24736D1*
X24916D2*
X25036D1*
X26026D2*
X26176D1*
X26326D2*
X26626D1*
X26776D2*
X27076D1*
X27226D2*
X27376D1*
X27556D2*
X27875D1*
X28186D2*
X28336D1*
X29296D2*
X29446D1*
X29626D2*
X30556D1*
X30736D2*
X31696D1*
X32446D2*
X33406D1*
X34366D2*
X34516D1*
X35476D2*
X35626D1*
X35776D2*
X35926D1*
X36586D2*
X36736D1*
X36916D2*
X37066D1*
X37726D2*
X37876D1*
X38026D2*
X38986D1*
X39136D2*
X39286D1*
X39946D2*
X40096D1*
X40276D2*
X41206D1*
X41386D2*
X41536D1*
X42196D2*
X42346D1*
X42496D2*
X42646D1*
X43306D2*
X43456D1*
X4576Y17933D2*
X5536D1*
X6496D2*
X6646D1*
X6826D2*
X7756D1*
X8087D2*
X8446D1*
X8626D2*
X9016D1*
X9196D2*
X9826D1*
X10006D2*
X10126D1*
X11116D2*
X11266D1*
X11416D2*
X11716D1*
X11866D2*
X12166D1*
X12316D2*
X12466D1*
X12616D2*
X13576D1*
X13726D2*
X13876D1*
X14866D2*
X14986D1*
X15166D2*
X15497D1*
X15826D2*
X15976D1*
X16450D2*
X16715D1*
X17176D2*
X18136D1*
X19696D2*
X19846D1*
X19996D2*
X20146D1*
X20475D2*
X20806D1*
X20986D2*
X21106D1*
X22096D2*
X22816D1*
X23806D2*
X24736D1*
X24916D2*
X25036D1*
X26026D2*
X26176D1*
X26326D2*
X26626D1*
X26776D2*
X27076D1*
X27226D2*
X27376D1*
X27556D2*
X27885D1*
X28186D2*
X28336D1*
X29296D2*
X29446D1*
X29626D2*
X30556D1*
X30736D2*
X31696D1*
X32446D2*
X33406D1*
X34366D2*
X34516D1*
X35476D2*
X35626D1*
X35776D2*
X35926D1*
X36586D2*
X36736D1*
X36916D2*
X37066D1*
X37726D2*
X37876D1*
X38026D2*
X38986D1*
X39136D2*
X39286D1*
X39946D2*
X40096D1*
X40276D2*
X41206D1*
X41386D2*
X41536D1*
X42196D2*
X42346D1*
X42496D2*
X42646D1*
X43306D2*
X43456D1*
X4576Y17903D2*
X5536D1*
X6496D2*
X6646D1*
X6826D2*
X7756D1*
X8075D2*
X8446D1*
X8626D2*
X9016D1*
X9196D2*
X9826D1*
X10006D2*
X10126D1*
X11116D2*
X11266D1*
X11416D2*
X11716D1*
X11866D2*
X12166D1*
X12316D2*
X12466D1*
X12616D2*
X13576D1*
X13726D2*
X13876D1*
X14866D2*
X14986D1*
X15166D2*
X15466D1*
X15826D2*
X15976D1*
X16437D2*
X16725D1*
X17176D2*
X18136D1*
X19696D2*
X19846D1*
X19996D2*
X20146D1*
X20506D2*
X20806D1*
X20986D2*
X21106D1*
X22096D2*
X22816D1*
X23806D2*
X24736D1*
X24916D2*
X25036D1*
X26026D2*
X26176D1*
X26326D2*
X26626D1*
X26776D2*
X27076D1*
X27226D2*
X27376D1*
X27556D2*
X27897D1*
X28186D2*
X28336D1*
X29296D2*
X29446D1*
X29626D2*
X30556D1*
X30736D2*
X31696D1*
X32446D2*
X33406D1*
X34366D2*
X34516D1*
X35476D2*
X35626D1*
X35776D2*
X35926D1*
X36586D2*
X36736D1*
X36916D2*
X37066D1*
X37726D2*
X37876D1*
X38026D2*
X38986D1*
X39136D2*
X39286D1*
X39946D2*
X40096D1*
X40276D2*
X41206D1*
X41386D2*
X41536D1*
X42196D2*
X42346D1*
X42496D2*
X42646D1*
X43306D2*
X43456D1*
X4576Y17873D2*
X5536D1*
X6496D2*
X6646D1*
X6826D2*
X7756D1*
X8062D2*
X8446D1*
X8626D2*
X9016D1*
X9196D2*
X9826D1*
X10006D2*
X10936D1*
X11116D2*
X11266D1*
X11416D2*
X11716D1*
X11866D2*
X12166D1*
X12316D2*
X12466D1*
X12616D2*
X13576D1*
X13726D2*
X14686D1*
X14866D2*
X14986D1*
X15166D2*
X15436D1*
X15826D2*
X15976D1*
X16419D2*
X16741D1*
X17176D2*
X18136D1*
X19696D2*
X19846D1*
X19996D2*
X20146D1*
X20536D2*
X20806D1*
X20986D2*
X21916D1*
X22096D2*
X23626D1*
X23806D2*
X24736D1*
X24916D2*
X25036D1*
X25216D2*
X25846D1*
X26026D2*
X26176D1*
X26326D2*
X26626D1*
X26776D2*
X27076D1*
X27226D2*
X27376D1*
X27556D2*
X27910D1*
X28186D2*
X28336D1*
X29296D2*
X29446D1*
X29626D2*
X30556D1*
X30736D2*
X31696D1*
X32446D2*
X33406D1*
X34366D2*
X34516D1*
X35476D2*
X35626D1*
X35776D2*
X35926D1*
X36586D2*
X36736D1*
X36916D2*
X37066D1*
X37726D2*
X37876D1*
X38026D2*
X38986D1*
X39136D2*
X39286D1*
X39946D2*
X40096D1*
X40276D2*
X41206D1*
X41386D2*
X41536D1*
X42196D2*
X42346D1*
X42496D2*
X42646D1*
X43306D2*
X43456D1*
X4576Y17843D2*
X4726D1*
X6496D2*
X6646D1*
X7606D2*
X7756D1*
X8048D2*
X8446D1*
X8626D2*
X9016D1*
X9196D2*
X9826D1*
X10006D2*
X10936D1*
X11116D2*
X11266D1*
X11416D2*
X11716D1*
X11866D2*
X12166D1*
X12316D2*
X12466D1*
X12616D2*
X13576D1*
X13726D2*
X14686D1*
X14866D2*
X14986D1*
X15166D2*
X15406D1*
X15826D2*
X15976D1*
X16398D2*
X16762D1*
X17986D2*
X18136D1*
X19696D2*
X19846D1*
X19996D2*
X20146D1*
X20566D2*
X20806D1*
X20986D2*
X21916D1*
X22096D2*
X23626D1*
X23806D2*
X24736D1*
X24916D2*
X25036D1*
X25216D2*
X25846D1*
X26026D2*
X26176D1*
X26326D2*
X26626D1*
X26776D2*
X27076D1*
X27226D2*
X27376D1*
X27556D2*
X27924D1*
X28186D2*
X28336D1*
X29296D2*
X29446D1*
X29626D2*
X29746D1*
X30406D2*
X30556D1*
X30736D2*
X30886D1*
X31546D2*
X31696D1*
X33256D2*
X33406D1*
X34366D2*
X34516D1*
X35476D2*
X35626D1*
X35776D2*
X35926D1*
X36586D2*
X36736D1*
X36916D2*
X37066D1*
X37726D2*
X37876D1*
X38026D2*
X38176D1*
X39136D2*
X39286D1*
X39946D2*
X40096D1*
X41086D2*
X41206D1*
X41386D2*
X41536D1*
X42196D2*
X42346D1*
X42496D2*
X42646D1*
X43306D2*
X43456D1*
X4576Y17813D2*
X4726D1*
X6496D2*
X6646D1*
X7606D2*
X7756D1*
X8033D2*
X8446D1*
X8626D2*
X9016D1*
X9196D2*
X9826D1*
X10006D2*
X10936D1*
X11116D2*
X11266D1*
X11416D2*
X11716D1*
X11866D2*
X12166D1*
X12316D2*
X12466D1*
X12616D2*
X13576D1*
X13726D2*
X14686D1*
X14866D2*
X14986D1*
X15166D2*
X15376D1*
X15826D2*
X15976D1*
X16377D2*
X16784D1*
X17986D2*
X18136D1*
X19696D2*
X19846D1*
X19996D2*
X20146D1*
X20596D2*
X20806D1*
X20986D2*
X21916D1*
X22096D2*
X23626D1*
X23806D2*
X24736D1*
X24916D2*
X25036D1*
X25216D2*
X25846D1*
X26026D2*
X26176D1*
X26326D2*
X26626D1*
X26776D2*
X27076D1*
X27226D2*
X27376D1*
X27556D2*
X27939D1*
X28186D2*
X28336D1*
X29296D2*
X29446D1*
X29626D2*
X29746D1*
X30406D2*
X30556D1*
X30736D2*
X30886D1*
X31546D2*
X31696D1*
X33256D2*
X33406D1*
X34366D2*
X34516D1*
X35476D2*
X35626D1*
X35776D2*
X35926D1*
X36586D2*
X36736D1*
X36916D2*
X37066D1*
X37726D2*
X37876D1*
X38026D2*
X38176D1*
X39136D2*
X39286D1*
X39946D2*
X40096D1*
X41086D2*
X41206D1*
X41386D2*
X41536D1*
X42196D2*
X42346D1*
X42496D2*
X42646D1*
X43306D2*
X43456D1*
X4576Y17783D2*
X4726D1*
X6496D2*
X6646D1*
X7606D2*
X7756D1*
X8018D2*
X8446D1*
X8626D2*
X9016D1*
X9196D2*
X9826D1*
X10006D2*
X10936D1*
X11116D2*
X11266D1*
X11416D2*
X11716D1*
X11866D2*
X12166D1*
X12316D2*
X12466D1*
X12616D2*
X13576D1*
X13726D2*
X14686D1*
X14866D2*
X14986D1*
X15166D2*
X15346D1*
X15826D2*
X15976D1*
X16356D2*
X16551D1*
X16601D2*
X16805D1*
X17986D2*
X18136D1*
X19696D2*
X19846D1*
X19996D2*
X20146D1*
X20626D2*
X20806D1*
X20986D2*
X21916D1*
X22096D2*
X23626D1*
X23806D2*
X24736D1*
X24916D2*
X25036D1*
X25216D2*
X25846D1*
X26026D2*
X26176D1*
X26326D2*
X26626D1*
X26776D2*
X27076D1*
X27226D2*
X27376D1*
X27556D2*
X27954D1*
X28186D2*
X28336D1*
X29296D2*
X29446D1*
X29626D2*
X29746D1*
X30406D2*
X30556D1*
X30736D2*
X30886D1*
X31546D2*
X31696D1*
X33256D2*
X33406D1*
X34366D2*
X34516D1*
X35476D2*
X35626D1*
X35776D2*
X35926D1*
X36586D2*
X36736D1*
X36916D2*
X37066D1*
X37726D2*
X37876D1*
X38026D2*
X38176D1*
X39136D2*
X39286D1*
X39946D2*
X40096D1*
X41086D2*
X41206D1*
X41386D2*
X41536D1*
X42196D2*
X42346D1*
X42496D2*
X42646D1*
X43306D2*
X43456D1*
X4576Y17753D2*
X4726D1*
X6496D2*
X6646D1*
X7606D2*
X7756D1*
X8002D2*
X8446D1*
X8626D2*
X9016D1*
X9196D2*
X9826D1*
X10006D2*
X10936D1*
X11116D2*
X11266D1*
X11416D2*
X11716D1*
X11866D2*
X12166D1*
X12316D2*
X12466D1*
X12616D2*
X13576D1*
X13726D2*
X14686D1*
X14866D2*
X14986D1*
X15166D2*
X15316D1*
X15826D2*
X15976D1*
X16332D2*
X16528D1*
X16624D2*
X16827D1*
X17986D2*
X18136D1*
X19696D2*
X19846D1*
X19996D2*
X20146D1*
X20656D2*
X20806D1*
X20986D2*
X21916D1*
X22096D2*
X23626D1*
X23806D2*
X24736D1*
X24916D2*
X25036D1*
X25216D2*
X25846D1*
X26026D2*
X26176D1*
X26326D2*
X26626D1*
X26776D2*
X27076D1*
X27226D2*
X27376D1*
X27556D2*
X27970D1*
X28186D2*
X28336D1*
X29296D2*
X29446D1*
X29626D2*
X29746D1*
X30406D2*
X30556D1*
X30736D2*
X30886D1*
X31546D2*
X31696D1*
X33256D2*
X33406D1*
X34366D2*
X34516D1*
X35476D2*
X35626D1*
X35776D2*
X35926D1*
X36586D2*
X36736D1*
X36916D2*
X37066D1*
X37726D2*
X37876D1*
X38026D2*
X38176D1*
X39136D2*
X39286D1*
X39946D2*
X40096D1*
X41086D2*
X41206D1*
X41386D2*
X41536D1*
X42196D2*
X42346D1*
X42496D2*
X42646D1*
X43306D2*
X43456D1*
X4576Y17723D2*
X4726D1*
X6496D2*
X6646D1*
X7606D2*
X7756D1*
X7982D2*
X8446D1*
X8626D2*
X9016D1*
X9196D2*
X9826D1*
X10006D2*
X10936D1*
X11116D2*
X11266D1*
X11416D2*
X11716D1*
X11866D2*
X12166D1*
X12316D2*
X12466D1*
X12616D2*
X13576D1*
X13726D2*
X14686D1*
X14866D2*
X14986D1*
X15166D2*
X15286D1*
X15826D2*
X15976D1*
X16309D2*
X16506D1*
X16646D2*
X16850D1*
X17986D2*
X18136D1*
X19696D2*
X19846D1*
X19996D2*
X20146D1*
X20686D2*
X20806D1*
X20986D2*
X21916D1*
X22096D2*
X23626D1*
X23806D2*
X24736D1*
X24916D2*
X25036D1*
X25216D2*
X25846D1*
X26026D2*
X26176D1*
X26326D2*
X26626D1*
X26776D2*
X27076D1*
X27226D2*
X27376D1*
X27556D2*
X27989D1*
X28184D2*
X28336D1*
X29296D2*
X29446D1*
X29626D2*
X29746D1*
X30406D2*
X30556D1*
X30736D2*
X30886D1*
X31546D2*
X31696D1*
X33256D2*
X33406D1*
X34366D2*
X34516D1*
X35476D2*
X35626D1*
X35776D2*
X35926D1*
X36586D2*
X36736D1*
X36916D2*
X37066D1*
X37726D2*
X37876D1*
X38026D2*
X38176D1*
X39136D2*
X39286D1*
X39946D2*
X40096D1*
X41086D2*
X41206D1*
X41386D2*
X41536D1*
X42196D2*
X42346D1*
X42496D2*
X42646D1*
X43306D2*
X43456D1*
X4576Y17693D2*
X4726D1*
X6496D2*
X6646D1*
X7606D2*
X7760D1*
X7954D2*
X8446D1*
X8626D2*
X9016D1*
X9196D2*
X9826D1*
X10006D2*
X10936D1*
X11116D2*
X11266D1*
X11416D2*
X11716D1*
X11866D2*
X12166D1*
X12316D2*
X12466D1*
X12616D2*
X13576D1*
X13726D2*
X14686D1*
X14866D2*
X14986D1*
X15166D2*
X15256D1*
X15826D2*
X15976D1*
X16287D2*
X16482D1*
X16670D2*
X16873D1*
X17986D2*
X18136D1*
X19696D2*
X19846D1*
X19996D2*
X20146D1*
X20716D2*
X20806D1*
X20986D2*
X21916D1*
X22096D2*
X23626D1*
X23806D2*
X24736D1*
X24916D2*
X25036D1*
X25216D2*
X25846D1*
X26026D2*
X26176D1*
X26326D2*
X26626D1*
X26776D2*
X27076D1*
X27226D2*
X27376D1*
X27556D2*
X28012D1*
X28178D2*
X28336D1*
X29296D2*
X29446D1*
X29626D2*
X29746D1*
X30406D2*
X30556D1*
X30736D2*
X30886D1*
X31546D2*
X31696D1*
X33256D2*
X33406D1*
X34366D2*
X34516D1*
X35476D2*
X35626D1*
X35776D2*
X35926D1*
X36586D2*
X36736D1*
X36916D2*
X37066D1*
X37726D2*
X37876D1*
X38026D2*
X38176D1*
X39136D2*
X39286D1*
X39946D2*
X40096D1*
X41086D2*
X41206D1*
X41386D2*
X41536D1*
X42196D2*
X42346D1*
X42496D2*
X42646D1*
X43306D2*
X43456D1*
X4576Y17663D2*
X4726D1*
X6496D2*
X6646D1*
X7606D2*
X7768D1*
X7918D2*
X8446D1*
X8626D2*
X9016D1*
X9196D2*
X9826D1*
X10006D2*
X10936D1*
X11116D2*
X11266D1*
X11416D2*
X11716D1*
X11866D2*
X12166D1*
X12316D2*
X12466D1*
X12616D2*
X13576D1*
X13726D2*
X14686D1*
X14866D2*
X14986D1*
X15165D2*
X15226D1*
X15826D2*
X15976D1*
X16266D2*
X16459D1*
X16693D2*
X16895D1*
X17986D2*
X18136D1*
X19696D2*
X19846D1*
X19996D2*
X20146D1*
X20746D2*
X20807D1*
X20986D2*
X21916D1*
X22096D2*
X23626D1*
X23806D2*
X24736D1*
X24916D2*
X25036D1*
X25216D2*
X25846D1*
X26026D2*
X26176D1*
X26326D2*
X26626D1*
X26776D2*
X27076D1*
X27226D2*
X27376D1*
X27556D2*
X28038D1*
X28155D2*
X28338D1*
X29296D2*
X29446D1*
X29626D2*
X29746D1*
X30406D2*
X30556D1*
X30736D2*
X30886D1*
X31546D2*
X31696D1*
X33256D2*
X33406D1*
X34366D2*
X34516D1*
X35476D2*
X35626D1*
X35776D2*
X35926D1*
X36586D2*
X36736D1*
X36916D2*
X37066D1*
X37726D2*
X37876D1*
X38026D2*
X38176D1*
X39136D2*
X39286D1*
X39946D2*
X40096D1*
X41086D2*
X41206D1*
X41386D2*
X41536D1*
X42196D2*
X42346D1*
X42496D2*
X42646D1*
X43306D2*
X43456D1*
X4576Y17633D2*
X5536D1*
X6496D2*
X6646D1*
X6826D2*
X7803D1*
X7876D2*
X8446D1*
X8626D2*
X9016D1*
X9196D2*
X9826D1*
X10006D2*
X10936D1*
X11116D2*
X11266D1*
X11416D2*
X11716D1*
X11866D2*
X12166D1*
X12316D2*
X12466D1*
X12616D2*
X13576D1*
X13726D2*
X14686D1*
X14866D2*
X14986D1*
X15160D2*
X15976D1*
X16242D2*
X16437D1*
X16715D2*
X16916D1*
X17176D2*
X18136D1*
X19696D2*
X19846D1*
X19996D2*
X20812D1*
X20986D2*
X21916D1*
X22096D2*
X23626D1*
X23806D2*
X24736D1*
X24916D2*
X25036D1*
X25216D2*
X25846D1*
X26026D2*
X26176D1*
X26326D2*
X26626D1*
X26776D2*
X27076D1*
X27226D2*
X27376D1*
X27556D2*
X28066D1*
X28126D2*
X28343D1*
X29296D2*
X29446D1*
X29626D2*
X30556D1*
X30736D2*
X30886D1*
X31546D2*
X31696D1*
X32446D2*
X33406D1*
X33556D2*
X34516D1*
X35476D2*
X35626D1*
X35776D2*
X36736D1*
X36916D2*
X37876D1*
X38026D2*
X38986D1*
X39136D2*
X39286D1*
X39946D2*
X40096D1*
X40276D2*
X41206D1*
X41386D2*
X42346D1*
X42496D2*
X43456D1*
X4576Y17603D2*
X5536D1*
X6496D2*
X6646D1*
X6826D2*
X8446D1*
X8626D2*
X9016D1*
X9196D2*
X9826D1*
X10006D2*
X10126D1*
X11116D2*
X11266D1*
X11416D2*
X11716D1*
X11866D2*
X12166D1*
X12316D2*
X12466D1*
X12616D2*
X13576D1*
X13726D2*
X13876D1*
X14866D2*
X14986D1*
X15148D2*
X15976D1*
X16219D2*
X16416D1*
X16736D2*
X16940D1*
X17176D2*
X18136D1*
X19696D2*
X19846D1*
X19996D2*
X20825D1*
X20986D2*
X21916D1*
X22096D2*
X22816D1*
X23806D2*
X24736D1*
X24916D2*
X25036D1*
X26026D2*
X26176D1*
X27226D2*
X27376D1*
X28201D2*
X28371D1*
X29296D2*
X29446D1*
X29626D2*
X30556D1*
X30736D2*
X30886D1*
X31546D2*
X31696D1*
X32446D2*
X33406D1*
X33556D2*
X34516D1*
X35476D2*
X35626D1*
X35776D2*
X36736D1*
X36916D2*
X37876D1*
X38026D2*
X38986D1*
X39136D2*
X39286D1*
X39946D2*
X40096D1*
X40276D2*
X41206D1*
X41386D2*
X42346D1*
X42496D2*
X43456D1*
X4576Y17573D2*
X5536D1*
X6496D2*
X6646D1*
X6827D2*
X7660D1*
X7786D2*
X8446D1*
X8626D2*
X9016D1*
X9196D2*
X9826D1*
X10006D2*
X10126D1*
X11116D2*
X11267D1*
X11416D2*
X11717D1*
X11866D2*
X12167D1*
X12316D2*
X12467D1*
X12616D2*
X13577D1*
X13726D2*
X13876D1*
X14866D2*
X14986D1*
X15128D2*
X15976D1*
X16197D2*
X16392D1*
X16760D2*
X16963D1*
X17176D2*
X18136D1*
X19696D2*
X19846D1*
X19996D2*
X20844D1*
X20986D2*
X21916D1*
X22096D2*
X22816D1*
X23806D2*
X24736D1*
X24916D2*
X25036D1*
X26026D2*
X26176D1*
X27226D2*
X27376D1*
X28269D2*
X28455D1*
X29296D2*
X29446D1*
X29626D2*
X30556D1*
X30736D2*
X30886D1*
X31546D2*
X31696D1*
X32446D2*
X33406D1*
X33556D2*
X34516D1*
X35476D2*
X35626D1*
X35776D2*
X36736D1*
X36916D2*
X37876D1*
X38026D2*
X38986D1*
X39136D2*
X39286D1*
X39946D2*
X40096D1*
X40276D2*
X41206D1*
X41386D2*
X42346D1*
X42496D2*
X43456D1*
X4576Y17543D2*
X5536D1*
X6496D2*
X6646D1*
X6828D2*
X7498D1*
X7786D2*
X8446D1*
X8626D2*
X9016D1*
X9196D2*
X9826D1*
X10006D2*
X10126D1*
X11116D2*
X11268D1*
X11414D2*
X11718D1*
X11864D2*
X12168D1*
X12314D2*
X12468D1*
X12614D2*
X13578D1*
X13724D2*
X13876D1*
X14866D2*
X14987D1*
X15103D2*
X15976D1*
X16176D2*
X16370D1*
X16782D2*
X16985D1*
X17176D2*
X18136D1*
X19696D2*
X19846D1*
X19996D2*
X20870D1*
X20985D2*
X21916D1*
X22096D2*
X22816D1*
X23806D2*
X24736D1*
X24916D2*
X25036D1*
X26026D2*
X26176D1*
X27226D2*
X27376D1*
X28325D2*
X28570D1*
X29296D2*
X29446D1*
X29626D2*
X30556D1*
X30736D2*
X30886D1*
X31546D2*
X31696D1*
X32446D2*
X33406D1*
X33556D2*
X34516D1*
X35476D2*
X35626D1*
X35776D2*
X36736D1*
X36916D2*
X37876D1*
X38026D2*
X38986D1*
X39136D2*
X39286D1*
X39946D2*
X40096D1*
X40276D2*
X41206D1*
X41386D2*
X42346D1*
X42496D2*
X43456D1*
X4576Y17513D2*
X5536D1*
X6496D2*
X6646D1*
X6842D2*
X7328D1*
X7786D2*
X8446D1*
X8626D2*
X9016D1*
X9196D2*
X9826D1*
X10006D2*
X10126D1*
X11116D2*
X11282D1*
X11400D2*
X11732D1*
X11850D2*
X12182D1*
X12300D2*
X12482D1*
X12600D2*
X13592D1*
X13710D2*
X13876D1*
X14866D2*
X14991D1*
X15075D2*
X15976D1*
X16152D2*
X16351D1*
X16801D2*
X17005D1*
X17176D2*
X18136D1*
X19696D2*
X19846D1*
X19996D2*
X20897D1*
X20980D2*
X21916D1*
X22096D2*
X22816D1*
X23806D2*
X24736D1*
X24916D2*
X25036D1*
X26026D2*
X26176D1*
X27226D2*
X27376D1*
X28350D2*
X28710D1*
X29296D2*
X29446D1*
X29626D2*
X30556D1*
X30736D2*
X30886D1*
X31546D2*
X31696D1*
X32446D2*
X33406D1*
X33556D2*
X34516D1*
X35476D2*
X35626D1*
X35776D2*
X36736D1*
X36916D2*
X37876D1*
X38026D2*
X38986D1*
X39136D2*
X39286D1*
X39946D2*
X40096D1*
X40276D2*
X41206D1*
X41386D2*
X42346D1*
X42496D2*
X43456D1*
X4576Y17483D2*
X5536D1*
X6496D2*
X6646D1*
X6889D2*
X7153D1*
X7786D2*
X8446D1*
X8626D2*
X9016D1*
X9196D2*
X9826D1*
X10006D2*
X10126D1*
X11116D2*
X11329D1*
X11353D2*
X11779D1*
X11803D2*
X12229D1*
X12253D2*
X12529D1*
X12553D2*
X13639D1*
X13663D2*
X13876D1*
X14866D2*
X14997D1*
X15046D2*
X15976D1*
X16126D2*
X16336D1*
X16816D2*
X17026D1*
X17176D2*
X18136D1*
X19696D2*
X19846D1*
X19996D2*
X20926D1*
X20970D2*
X21916D1*
X22096D2*
X22816D1*
X23806D2*
X24736D1*
X24916D2*
X25036D1*
X26026D2*
X26176D1*
X27226D2*
X27376D1*
X28359D2*
X28862D1*
X29296D2*
X29446D1*
X29626D2*
X30556D1*
X30736D2*
X30886D1*
X31546D2*
X31696D1*
X32446D2*
X33406D1*
X33556D2*
X34516D1*
X35476D2*
X35626D1*
X35776D2*
X36736D1*
X36916D2*
X37876D1*
X38026D2*
X38986D1*
X39136D2*
X39286D1*
X39946D2*
X40096D1*
X40276D2*
X41206D1*
X41386D2*
X42346D1*
X42496D2*
X43456D1*
X6946Y17453D2*
X15003D1*
X15826D2*
X15976D1*
X20956D2*
X29018D1*
X42196D2*
X42346D1*
X6799Y17423D2*
X14996D1*
X15826D2*
X15976D1*
X20976D2*
X29179D1*
X42196D2*
X42346D1*
X6644Y17393D2*
X14977D1*
X15826D2*
X15976D1*
X20997D2*
X29343D1*
X42196D2*
X42346D1*
X6485Y17363D2*
X14953D1*
X15826D2*
X15976D1*
X21020D2*
X29506D1*
X42196D2*
X42346D1*
X6322Y17333D2*
X14930D1*
X15826D2*
X15976D1*
X21043D2*
X29665D1*
X42196D2*
X42346D1*
X6159Y17303D2*
X14908D1*
X15826D2*
X15976D1*
X21065D2*
X29822D1*
X42196D2*
X42346D1*
X5997Y17273D2*
X14887D1*
X15826D2*
X15976D1*
X21085D2*
X29979D1*
X42196D2*
X42346D1*
X5837Y17243D2*
X14866D1*
X15826D2*
X15976D1*
X21106D2*
X30137D1*
X42196D2*
X42346D1*
X5675Y17213D2*
X14846D1*
X15826D2*
X15976D1*
X21126D2*
X30298D1*
X42196D2*
X42346D1*
X5512Y17183D2*
X14826D1*
X21146D2*
X30460D1*
X5349Y17153D2*
X14806D1*
X21166D2*
X30623D1*
X5187Y17123D2*
X14786D1*
X21186D2*
X30785D1*
X5027Y17093D2*
X14766D1*
X21206D2*
X30945D1*
X4868Y17063D2*
X14746D1*
X21226D2*
X31104D1*
X4717Y17033D2*
X14727D1*
X21245D2*
X31255D1*
X4589Y17003D2*
X14710D1*
X21262D2*
X31384D1*
X4492Y16973D2*
X14693D1*
X21279D2*
X31480D1*
X4427Y16943D2*
X14675D1*
X21297D2*
X31545D1*
X4378Y16913D2*
X14655D1*
X21317D2*
X31594D1*
X4358Y16883D2*
X14637D1*
X21335D2*
X31615D1*
X4346Y16853D2*
X14620D1*
X21352D2*
X31627D1*
X4340Y16823D2*
X14604D1*
X21368D2*
X31632D1*
X4338Y16793D2*
X14589D1*
X21383D2*
X31635D1*
X4337Y16763D2*
X14574D1*
X21399D2*
X31636D1*
X4336Y16733D2*
X14559D1*
X21414D2*
X31636D1*
X4336Y16703D2*
X14544D1*
X21429D2*
X31636D1*
X4336Y16673D2*
X14529D1*
X21443D2*
X31636D1*
X4336Y16643D2*
X14514D1*
X21455D2*
X31636D1*
X4336Y16613D2*
X14500D1*
X21465D2*
X31636D1*
X4336Y16583D2*
X14488D1*
X21477D2*
X31636D1*
X4336Y16553D2*
X14477D1*
X21490D2*
X31636D1*
X4336Y16523D2*
X14465D1*
X21504D2*
X31636D1*
X4336Y16493D2*
X14452D1*
X21519D2*
X31636D1*
X4336Y16463D2*
X14439D1*
X21534D2*
X31636D1*
X4336Y16433D2*
X14427D1*
X21549D2*
X31636D1*
X4336Y16403D2*
X14417D1*
X21563D2*
X31636D1*
X4336Y16373D2*
X14405D1*
X21575D2*
X31636D1*
X4336Y16343D2*
X14392D1*
X21585D2*
X31636D1*
X4336Y16313D2*
X14379D1*
X21596D2*
X31636D1*
X4336Y16283D2*
X14368D1*
X21605D2*
X31636D1*
X4336Y16253D2*
X14361D1*
X21612D2*
X31636D1*
X4336Y16223D2*
X14354D1*
X21619D2*
X31636D1*
X4336Y16193D2*
X14345D1*
X21628D2*
X31636D1*
X4336Y16163D2*
X14335D1*
X21637D2*
X31636D1*
X4336Y16133D2*
X14326D1*
X21646D2*
X31636D1*
X4336Y16103D2*
X14316D1*
X21656D2*
X31636D1*
X4336Y16073D2*
X14306D1*
X21666D2*
X31636D1*
X4336Y16043D2*
X14296D1*
X21676D2*
X31636D1*
X4336Y16013D2*
X14286D1*
X21686D2*
X31636D1*
X4336Y15983D2*
X14277D1*
X21695D2*
X31636D1*
X4336Y15953D2*
X14271D1*
X21701D2*
X31636D1*
X4336Y15923D2*
X14267D1*
X21705D2*
X31636D1*
X4336Y15893D2*
X14262D1*
X21710D2*
X31636D1*
X4336Y15863D2*
X14254D1*
X21718D2*
X31636D1*
X4336Y15833D2*
X14246D1*
X21726D2*
X31636D1*
X4336Y15803D2*
X14241D1*
X21731D2*
X31636D1*
X4336Y15773D2*
X14237D1*
X21735D2*
X31636D1*
X4336Y15743D2*
X14232D1*
X21740D2*
X31636D1*
X4336Y15713D2*
X14224D1*
X21748D2*
X31636D1*
X4336Y15683D2*
X14216D1*
X21756D2*
X31636D1*
X4336Y15653D2*
X14211D1*
X21761D2*
X31636D1*
X4336Y15623D2*
X14208D1*
X21764D2*
X31636D1*
X4336Y15593D2*
X14207D1*
X21765D2*
X31636D1*
X4336Y15563D2*
X14206D1*
X21766D2*
X31636D1*
X4336Y15533D2*
X14205D1*
X21767D2*
X31636D1*
X4336Y15503D2*
X14201D1*
X21771D2*
X31636D1*
X4336Y15473D2*
X14194D1*
X21778D2*
X31636D1*
X4336Y15443D2*
X14186D1*
X21786D2*
X31636D1*
X4336Y15413D2*
X14181D1*
X21791D2*
X31636D1*
X4336Y15383D2*
X14178D1*
X21794D2*
X31636D1*
X4336Y15353D2*
X14177D1*
X21795D2*
X31636D1*
X4336Y15323D2*
X14176D1*
X21796D2*
X31636D1*
X4336Y15293D2*
X14176D1*
X21796D2*
X31636D1*
X4336Y15263D2*
X14176D1*
X21796D2*
X31636D1*
X4336Y15233D2*
X14176D1*
X21796D2*
X31636D1*
X4336Y15203D2*
X14176D1*
X21796D2*
X31636D1*
X4336Y15173D2*
X14176D1*
X21796D2*
X31636D1*
X4336Y15143D2*
X14176D1*
X21796D2*
X31636D1*
X4336Y15113D2*
X14176D1*
X21796D2*
X31636D1*
X4336Y15083D2*
X14176D1*
X21796D2*
X31636D1*
X4336Y15053D2*
X14176D1*
X21796D2*
X31636D1*
X4336Y15023D2*
X14176D1*
X21796D2*
X31636D1*
X4336Y14993D2*
X14176D1*
X21796D2*
X31636D1*
X4336Y14963D2*
X14176D1*
X21796D2*
X31636D1*
X4336Y14933D2*
X14176D1*
X21796D2*
X31636D1*
X4336Y14903D2*
X14176D1*
X21796D2*
X31636D1*
X4336Y14873D2*
X14176D1*
X21796D2*
X31636D1*
X4336Y14843D2*
X14176D1*
X21796D2*
X31636D1*
X4336Y14813D2*
X14176D1*
X21796D2*
X31636D1*
X4336Y14783D2*
X14176D1*
X21796D2*
X31636D1*
X4336Y14753D2*
X14176D1*
X21796D2*
X31636D1*
X4336Y14723D2*
X14177D1*
X21795D2*
X31636D1*
X4336Y14693D2*
X14181D1*
X21791D2*
X31636D1*
X4336Y14663D2*
X14188D1*
X21784D2*
X31636D1*
X4336Y14633D2*
X14196D1*
X21776D2*
X31636D1*
X4336Y14603D2*
X14201D1*
X21771D2*
X31636D1*
X4336Y14573D2*
X14204D1*
X21768D2*
X31636D1*
X4336Y14543D2*
X14205D1*
X21767D2*
X31636D1*
X4336Y14513D2*
X14206D1*
X21766D2*
X31636D1*
X4336Y14483D2*
X14207D1*
X21765D2*
X31636D1*
X4336Y14453D2*
X14211D1*
X21761D2*
X31636D1*
X4336Y14423D2*
X14218D1*
X21754D2*
X31636D1*
X4336Y14393D2*
X14226D1*
X21746D2*
X31636D1*
X4336Y14363D2*
X14232D1*
X21741D2*
X31636D1*
X4336Y14333D2*
X14239D1*
X21737D2*
X31636D1*
X4336Y14303D2*
X14247D1*
X21732D2*
X31636D1*
X4336Y14273D2*
X14256D1*
X21724D2*
X31636D1*
X4336Y14243D2*
X14261D1*
X21716D2*
X31636D1*
X4336Y14213D2*
X14265D1*
X21710D2*
X31636D1*
X4336Y14183D2*
X14270D1*
X21703D2*
X31636D1*
X4336Y14153D2*
X14278D1*
X21695D2*
X31636D1*
X4336Y14123D2*
X14286D1*
X21686D2*
X31636D1*
X4336Y14093D2*
X14292D1*
X21680D2*
X31636D1*
X4336Y14063D2*
X14299D1*
X21673D2*
X31636D1*
X4336Y14033D2*
X14308D1*
X21665D2*
X31636D1*
X4336Y14003D2*
X14317D1*
X21655D2*
X31636D1*
X4336Y13973D2*
X14326D1*
X21646D2*
X31636D1*
X4336Y13943D2*
X14336D1*
X21636D2*
X31636D1*
X4336Y13913D2*
X14346D1*
X21626D2*
X31636D1*
X4336Y13883D2*
X14356D1*
X21616D2*
X31636D1*
X4336Y13853D2*
X14366D1*
X21606D2*
X31636D1*
X4336Y13823D2*
X14376D1*
X21596D2*
X31636D1*
X4336Y13793D2*
X14386D1*
X21586D2*
X31636D1*
X4336Y13763D2*
X14396D1*
X21576D2*
X31636D1*
X4336Y13733D2*
X14406D1*
X21566D2*
X31636D1*
X4336Y13703D2*
X14416D1*
X21556D2*
X31636D1*
X4336Y13673D2*
X14427D1*
X21545D2*
X31636D1*
X4336Y13643D2*
X14440D1*
X21532D2*
X31636D1*
X4336Y13613D2*
X14454D1*
X21518D2*
X31636D1*
X4336Y13583D2*
X14469D1*
X21503D2*
X31636D1*
X4336Y13553D2*
X14483D1*
X21490D2*
X31636D1*
X4336Y13523D2*
X14495D1*
X21478D2*
X31636D1*
X4336Y13493D2*
X14505D1*
X21467D2*
X31636D1*
X4336Y13463D2*
X14517D1*
X21455D2*
X31636D1*
X4336Y13433D2*
X14530D1*
X21442D2*
X31636D1*
X4336Y13403D2*
X14544D1*
X21428D2*
X31636D1*
X4336Y13373D2*
X14559D1*
X21413D2*
X31636D1*
X4336Y13343D2*
X14574D1*
X21398D2*
X31636D1*
X4337Y13313D2*
X14589D1*
X21383D2*
X31635D1*
X4343Y13283D2*
X14604D1*
X21365D2*
X31630D1*
X4352Y13253D2*
X14620D1*
X21345D2*
X31620D1*
X4384Y13223D2*
X14638D1*
X21327D2*
X31589D1*
X4437Y13193D2*
X14657D1*
X21310D2*
X31536D1*
X4521Y13163D2*
X14675D1*
X21294D2*
X31451D1*
X4636Y13133D2*
X14692D1*
X21279D2*
X31336D1*
X4773Y13103D2*
X14709D1*
X21264D2*
X31199D1*
X4924Y13073D2*
X14727D1*
X21249D2*
X31048D1*
X5082Y13043D2*
X14747D1*
X21232D2*
X30889D1*
X5241Y13013D2*
X14766D1*
X21214D2*
X30727D1*
X5402Y12983D2*
X14786D1*
X21191D2*
X30564D1*
X5564Y12953D2*
X14806D1*
X21169D2*
X30404D1*
X5726Y12923D2*
X14826D1*
X21147D2*
X30249D1*
X5885Y12893D2*
X14846D1*
X21127D2*
X30093D1*
X6048Y12863D2*
X14866D1*
X21106D2*
X29933D1*
X6213Y12833D2*
X14886D1*
X21086D2*
X29772D1*
X6376Y12803D2*
X14907D1*
X21065D2*
X29612D1*
X6535Y12773D2*
X14931D1*
X21041D2*
X29450D1*
X6692Y12743D2*
X14957D1*
X21015D2*
X29288D1*
X6849Y12713D2*
X14982D1*
X20990D2*
X29127D1*
X7007Y12683D2*
X15004D1*
X20968D2*
X28967D1*
X7167Y12653D2*
X15026D1*
X20946D2*
X28806D1*
X7325Y12623D2*
X15051D1*
X20921D2*
X28648D1*
X7477Y12593D2*
X15078D1*
X20894D2*
X28495D1*
X7614Y12563D2*
X15107D1*
X20865D2*
X28358D1*
X7723Y12533D2*
X15135D1*
X20837D2*
X28249D1*
X7801Y12503D2*
X15161D1*
X20811D2*
X28171D1*
X7852Y12473D2*
X15184D1*
X20788D2*
X28120D1*
X7885Y12443D2*
X15206D1*
X20766D2*
X28087D1*
X7908Y12413D2*
X15231D1*
X20741D2*
X28064D1*
X7927Y12383D2*
X15259D1*
X20713D2*
X28046D1*
X7943Y12353D2*
X15292D1*
X20680D2*
X28030D1*
X7958Y12323D2*
X15329D1*
X20644D2*
X28018D1*
X7972Y12293D2*
X15366D1*
X20606D2*
X28007D1*
X7985Y12263D2*
X15401D1*
X20571D2*
X27995D1*
X7995Y12233D2*
X15434D1*
X20538D2*
X27982D1*
X8007Y12203D2*
X15465D1*
X20507D2*
X27969D1*
X8020Y12173D2*
X15497D1*
X20475D2*
X27957D1*
X8033Y12143D2*
X15531D1*
X20441D2*
X27947D1*
X8045Y12113D2*
X15568D1*
X20404D2*
X27935D1*
X8055Y12083D2*
X15606D1*
X20366D2*
X27922D1*
X8067Y12053D2*
X15642D1*
X20330D2*
X27908D1*
X8080Y12023D2*
X15679D1*
X20293D2*
X27893D1*
X8094Y11993D2*
X15719D1*
X20254D2*
X27880D1*
X8109Y11963D2*
X15761D1*
X20211D2*
X27868D1*
X8123Y11933D2*
X15804D1*
X20168D2*
X27857D1*
X8135Y11903D2*
X15849D1*
X20123D2*
X27845D1*
X8145Y11873D2*
X15893D1*
X20080D2*
X27832D1*
X8156Y11843D2*
X15934D1*
X20039D2*
X27819D1*
X8166Y11813D2*
X15971D1*
X20001D2*
X27807D1*
X8176Y11783D2*
X16009D1*
X19963D2*
X27797D1*
X8187Y11753D2*
X16049D1*
X19924D2*
X27786D1*
X8200Y11723D2*
X16092D1*
X19880D2*
X27776D1*
X8213Y11693D2*
X16138D1*
X19834D2*
X27766D1*
X8225Y11663D2*
X16187D1*
X19785D2*
X27755D1*
X8235Y11633D2*
X16236D1*
X19736D2*
X27742D1*
X8247Y11603D2*
X16286D1*
X19686D2*
X27728D1*
X8260Y11573D2*
X16335D1*
X19637D2*
X27713D1*
X8273Y11543D2*
X16380D1*
X19592D2*
X27700D1*
X8285Y11513D2*
X16417D1*
X19555D2*
X27688D1*
X8295Y11483D2*
X16447D1*
X19526D2*
X27677D1*
X8307Y11453D2*
X16470D1*
X19503D2*
X27666D1*
X8320Y11423D2*
X16478D1*
X19494D2*
X27656D1*
X8333Y11393D2*
X16483D1*
X19490D2*
X27646D1*
X8345Y11363D2*
X16485D1*
X19488D2*
X27635D1*
X8355Y11333D2*
X16484D1*
X19488D2*
X27622D1*
X8367Y11303D2*
X16481D1*
X19491D2*
X27608D1*
X8380Y11273D2*
X16474D1*
X19500D2*
X27593D1*
X8393Y11243D2*
X16465D1*
X19511D2*
X27580D1*
X8405Y11213D2*
X16456D1*
X19524D2*
X27568D1*
X8415Y11183D2*
X16445D1*
X19535D2*
X27557D1*
X8427Y11153D2*
X16432D1*
X19545D2*
X27545D1*
X8440Y11123D2*
X16418D1*
X19557D2*
X27532D1*
X8453Y11093D2*
X16403D1*
X19570D2*
X27519D1*
X8465Y11063D2*
X16390D1*
X19583D2*
X27507D1*
X8475Y11033D2*
X16378D1*
X19595D2*
X27497D1*
X8487Y11003D2*
X16367D1*
X19605D2*
X27485D1*
X8500Y10973D2*
X16355D1*
X19617D2*
X27472D1*
X8513Y10943D2*
X16342D1*
X19630D2*
X27459D1*
X8525Y10913D2*
X16329D1*
X19643D2*
X27447D1*
X8535Y10883D2*
X16317D1*
X19655D2*
X27437D1*
X8547Y10853D2*
X16307D1*
X19665D2*
X27425D1*
X8560Y10823D2*
X16295D1*
X19677D2*
X27412D1*
X8573Y10793D2*
X16282D1*
X19690D2*
X27399D1*
X8585Y10763D2*
X16269D1*
X19703D2*
X27387D1*
X8595Y10733D2*
X16257D1*
X19715D2*
X27377D1*
X8606Y10703D2*
X16247D1*
X19725D2*
X27366D1*
X8616Y10673D2*
X16235D1*
X19737D2*
X27356D1*
X8626Y10643D2*
X16222D1*
X19750D2*
X27346D1*
X8637Y10613D2*
X16208D1*
X19764D2*
X27335D1*
X8650Y10583D2*
X16193D1*
X19779D2*
X27322D1*
X8664Y10553D2*
X16180D1*
X19793D2*
X27309D1*
X8679Y10523D2*
X16168D1*
X19805D2*
X27297D1*
X8693Y10493D2*
X16157D1*
X19815D2*
X27287D1*
X8705Y10463D2*
X16145D1*
X19827D2*
X27275D1*
X8715Y10433D2*
X16132D1*
X19840D2*
X27262D1*
X8726Y10403D2*
X16119D1*
X19853D2*
X27249D1*
X8736Y10373D2*
X16107D1*
X19865D2*
X27237D1*
X8746Y10343D2*
X16097D1*
X19875D2*
X27227D1*
X8757Y10313D2*
X16085D1*
X19887D2*
X27215D1*
X8770Y10283D2*
X16072D1*
X19900D2*
X27202D1*
X8784Y10253D2*
X16058D1*
X19914D2*
X27188D1*
X8799Y10223D2*
X16043D1*
X19929D2*
X27173D1*
X8813Y10193D2*
X16030D1*
X19943D2*
X27160D1*
X8825Y10163D2*
X16018D1*
X19955D2*
X27148D1*
X8835Y10133D2*
X16007D1*
X19965D2*
X27137D1*
X8847Y10103D2*
X15995D1*
X19977D2*
X27125D1*
X8860Y10073D2*
X15982D1*
X19990D2*
X27112D1*
X8873Y10043D2*
X15969D1*
X20003D2*
X27099D1*
X8885Y10013D2*
X15957D1*
X20015D2*
X27087D1*
X8895Y9983D2*
X15947D1*
X20025D2*
X27077D1*
X8907Y9953D2*
X15935D1*
X20037D2*
X27065D1*
X8920Y9923D2*
X15922D1*
X20050D2*
X27052D1*
X8933Y9893D2*
X15909D1*
X20063D2*
X27039D1*
X8945Y9863D2*
X15897D1*
X20075D2*
X27027D1*
X8955Y9833D2*
X15887D1*
X20085D2*
X27017D1*
X8966Y9803D2*
X15875D1*
X20097D2*
X27006D1*
X8975Y9773D2*
X15862D1*
X20110D2*
X26997D1*
X8981Y9743D2*
X15848D1*
X20123D2*
X26991D1*
X8983Y9713D2*
X15833D1*
X20135D2*
X26990D1*
X8980Y9683D2*
X15820D1*
X20145D2*
X26992D1*
X8972Y9653D2*
X15808D1*
X20157D2*
X27000D1*
X8961Y9623D2*
X15797D1*
X20170D2*
X27012D1*
X8948Y9593D2*
X15785D1*
X20184D2*
X27029D1*
X8932Y9563D2*
X15772D1*
X20199D2*
X27047D1*
X8914Y9533D2*
X15759D1*
X20213D2*
X27066D1*
X8891Y9503D2*
X15747D1*
X20225D2*
X27086D1*
X8869Y9473D2*
X15737D1*
X20235D2*
X27106D1*
X8847Y9443D2*
X15725D1*
X20247D2*
X27126D1*
X8827Y9413D2*
X15712D1*
X20260D2*
X27146D1*
X8806Y9383D2*
X15698D1*
X20273D2*
X27166D1*
X8786Y9353D2*
X15683D1*
X20285D2*
X27186D1*
X8766Y9323D2*
X15670D1*
X20295D2*
X27206D1*
X8746Y9293D2*
X15658D1*
X20307D2*
X27226D1*
X8726Y9263D2*
X15647D1*
X20320D2*
X27246D1*
X8705Y9233D2*
X15635D1*
X20334D2*
X27267D1*
X8682Y9203D2*
X15622D1*
X20349D2*
X27290D1*
X8659Y9173D2*
X15609D1*
X20363D2*
X27313D1*
X8639Y9143D2*
X15597D1*
X20375D2*
X27335D1*
X8621Y9113D2*
X15587D1*
X20385D2*
X27355D1*
X8603Y9083D2*
X15575D1*
X20397D2*
X27376D1*
X8584Y9053D2*
X15562D1*
X20410D2*
X27396D1*
X8562Y9023D2*
X15548D1*
X20423D2*
X27416D1*
X8539Y8993D2*
X15533D1*
X20435D2*
X27436D1*
X8517Y8963D2*
X15520D1*
X20445D2*
X27456D1*
X8497Y8933D2*
X15508D1*
X20457D2*
X27476D1*
X8476Y8903D2*
X15497D1*
X20470D2*
X27496D1*
X8456Y8873D2*
X15485D1*
X20483D2*
X27516D1*
X8436Y8843D2*
X15472D1*
X20495D2*
X27537D1*
X8416Y8813D2*
X15459D1*
X20505D2*
X27560D1*
X8396Y8783D2*
X15447D1*
X20517D2*
X27583D1*
X8376Y8753D2*
X15437D1*
X20530D2*
X27604D1*
X8356Y8723D2*
X15425D1*
X20544D2*
X27622D1*
X8336Y8693D2*
X15412D1*
X20559D2*
X27639D1*
X8315Y8663D2*
X15399D1*
X20573D2*
X27658D1*
X8292Y8633D2*
X15387D1*
X20585D2*
X27681D1*
X8269Y8603D2*
X15377D1*
X20595D2*
X27704D1*
X8248Y8573D2*
X15365D1*
X20607D2*
X27725D1*
X8227Y8543D2*
X15352D1*
X20620D2*
X27745D1*
X8206Y8513D2*
X15338D1*
X20634D2*
X27766D1*
X8186Y8483D2*
X15323D1*
X20649D2*
X27786D1*
X8166Y8453D2*
X15310D1*
X20663D2*
X27806D1*
X8146Y8423D2*
X15298D1*
X20675D2*
X27826D1*
X8126Y8393D2*
X15287D1*
X20685D2*
X27846D1*
X8106Y8363D2*
X15275D1*
X20697D2*
X27867D1*
X8086Y8333D2*
X15262D1*
X20710D2*
X27890D1*
X8066Y8303D2*
X15249D1*
X20723D2*
X27913D1*
X8046Y8273D2*
X15237D1*
X20735D2*
X27934D1*
X8026Y8243D2*
X15227D1*
X20745D2*
X27952D1*
X8006Y8213D2*
X15215D1*
X20757D2*
X27969D1*
X7986Y8183D2*
X15202D1*
X20770D2*
X27988D1*
X7966Y8153D2*
X15188D1*
X20783D2*
X28011D1*
X7946Y8123D2*
X15173D1*
X20795D2*
X28034D1*
X7925Y8093D2*
X15160D1*
X20805D2*
X28055D1*
X7902Y8063D2*
X15148D1*
X20817D2*
X28075D1*
X7879Y8033D2*
X15137D1*
X20830D2*
X28096D1*
X7858Y8003D2*
X15125D1*
X20844D2*
X28116D1*
X7837Y7973D2*
X15112D1*
X20859D2*
X28136D1*
X7816Y7943D2*
X15099D1*
X20873D2*
X28156D1*
X7796Y7913D2*
X15087D1*
X20885D2*
X28176D1*
X7776Y7883D2*
X15077D1*
X20895D2*
X28196D1*
X7756Y7853D2*
X15065D1*
X20907D2*
X28216D1*
X7736Y7823D2*
X15052D1*
X20920D2*
X28236D1*
X7716Y7793D2*
X15039D1*
X20933D2*
X28256D1*
X7696Y7763D2*
X15027D1*
X20945D2*
X28276D1*
X7676Y7733D2*
X15017D1*
X20955D2*
X28296D1*
X7656Y7703D2*
X15005D1*
X20967D2*
X28316D1*
X7636Y7673D2*
X14992D1*
X20980D2*
X28336D1*
X7616Y7643D2*
X14978D1*
X20993D2*
X28356D1*
X7595Y7613D2*
X14963D1*
X21005D2*
X28377D1*
X7572Y7583D2*
X14950D1*
X21015D2*
X28400D1*
X7549Y7553D2*
X14938D1*
X21027D2*
X28423D1*
X7528Y7523D2*
X14927D1*
X21040D2*
X28445D1*
X7507Y7493D2*
X14915D1*
X21054D2*
X28465D1*
X7486Y7463D2*
X14902D1*
X21069D2*
X28486D1*
X7466Y7433D2*
X14889D1*
X21083D2*
X28506D1*
X7446Y7403D2*
X14877D1*
X21095D2*
X28526D1*
X7426Y7373D2*
X14867D1*
X21105D2*
X28546D1*
X7406Y7343D2*
X14855D1*
X21117D2*
X28566D1*
X7386Y7313D2*
X14842D1*
X21130D2*
X28586D1*
X7366Y7283D2*
X14829D1*
X21143D2*
X28606D1*
X7346Y7253D2*
X14817D1*
X21155D2*
X28626D1*
X7326Y7223D2*
X14807D1*
X21167D2*
X28646D1*
X7306Y7193D2*
X14795D1*
X21181D2*
X28666D1*
X7286Y7163D2*
X14782D1*
X21197D2*
X28686D1*
X7265Y7133D2*
X14768D1*
X21212D2*
X28707D1*
X7242Y7103D2*
X14753D1*
X21224D2*
X28730D1*
X7219Y7073D2*
X14740D1*
X21235D2*
X28753D1*
X7198Y7043D2*
X14728D1*
X21246D2*
X28775D1*
X7177Y7013D2*
X14717D1*
X21256D2*
X28795D1*
X7156Y6983D2*
X14705D1*
X21267D2*
X28816D1*
X7136Y6953D2*
X14692D1*
X21280D2*
X28836D1*
X7116Y6923D2*
X14679D1*
X21293D2*
X28856D1*
X7097Y6893D2*
X14667D1*
X21305D2*
X28875D1*
X7081Y6863D2*
X14657D1*
X21315D2*
X28891D1*
X7069Y6833D2*
X14645D1*
X21327D2*
X28904D1*
X7058Y6803D2*
X14632D1*
X21340D2*
X28914D1*
X7050Y6773D2*
X14618D1*
X21354D2*
X28922D1*
X7053Y6743D2*
X14603D1*
X21369D2*
X28919D1*
X7059Y6713D2*
X14590D1*
X21383D2*
X28913D1*
X7068Y6683D2*
X14578D1*
X21395D2*
X28904D1*
X7083Y6653D2*
X14567D1*
X21405D2*
X28889D1*
X7104Y6623D2*
X14555D1*
X21417D2*
X28869D1*
X7129Y6593D2*
X14542D1*
X21430D2*
X28843D1*
X7157Y6563D2*
X14528D1*
X21443D2*
X28815D1*
X7187Y6533D2*
X14513D1*
X21455D2*
X28786D1*
X7216Y6503D2*
X14500D1*
X21465D2*
X28756D1*
X7246Y6473D2*
X14488D1*
X21477D2*
X28726D1*
X7276Y6443D2*
X14477D1*
X21490D2*
X28696D1*
X7306Y6413D2*
X14465D1*
X21504D2*
X28666D1*
X7336Y6383D2*
X14452D1*
X21519D2*
X28636D1*
X7366Y6353D2*
X14439D1*
X21533D2*
X28606D1*
X7396Y6323D2*
X14427D1*
X21545D2*
X28576D1*
X7426Y6293D2*
X14417D1*
X21555D2*
X28546D1*
X7456Y6263D2*
X14405D1*
X21567D2*
X28516D1*
X7486Y6233D2*
X14392D1*
X21580D2*
X28486D1*
X7516Y6203D2*
X14379D1*
X21593D2*
X28456D1*
X7546Y6173D2*
X14367D1*
X21605D2*
X28426D1*
X7576Y6143D2*
X14357D1*
X21615D2*
X28396D1*
X7606Y6113D2*
X14345D1*
X21627D2*
X28366D1*
X7636Y6083D2*
X14332D1*
X21640D2*
X28336D1*
X7666Y6053D2*
X14318D1*
X21653D2*
X28306D1*
X7696Y6023D2*
X14303D1*
X21665D2*
X28276D1*
X7726Y5993D2*
X12497D1*
X12636D2*
X14290D1*
X21675D2*
X23337D1*
X23464D2*
X28246D1*
X7756Y5963D2*
X12441D1*
X12706D2*
X14278D1*
X21687D2*
X23267D1*
X23531D2*
X28216D1*
X7786Y5933D2*
X12390D1*
X12768D2*
X14267D1*
X21700D2*
X23204D1*
X23585D2*
X28186D1*
X7816Y5903D2*
X12342D1*
X12828D2*
X14255D1*
X21714D2*
X23145D1*
X23633D2*
X28156D1*
X7846Y5873D2*
X12299D1*
X12887D2*
X14242D1*
X21729D2*
X23085D1*
X23678D2*
X28126D1*
X7876Y5843D2*
X12257D1*
X12946D2*
X14229D1*
X21743D2*
X23026D1*
X23724D2*
X28096D1*
X7906Y5813D2*
X12215D1*
X13006D2*
X14217D1*
X21755D2*
X22966D1*
X23769D2*
X28066D1*
X7936Y5783D2*
X12172D1*
X13066D2*
X14207D1*
X21765D2*
X22907D1*
X23814D2*
X28036D1*
X7966Y5753D2*
X12128D1*
X13125D2*
X14195D1*
X21777D2*
X22851D1*
X23859D2*
X28006D1*
X7996Y5723D2*
X12083D1*
X13181D2*
X14182D1*
X21790D2*
X22798D1*
X23903D2*
X27976D1*
X8026Y5693D2*
X12039D1*
X13234D2*
X14169D1*
X21803D2*
X22746D1*
X23945D2*
X27946D1*
X8056Y5663D2*
X11994D1*
X13286D2*
X14157D1*
X21815D2*
X22691D1*
X23985D2*
X27916D1*
X8086Y5633D2*
X11949D1*
X13341D2*
X14147D1*
X21825D2*
X22634D1*
X24027D2*
X27886D1*
X8116Y5603D2*
X11904D1*
X13398D2*
X14135D1*
X21837D2*
X22575D1*
X24070D2*
X27856D1*
X8146Y5573D2*
X11859D1*
X13457D2*
X14122D1*
X21850D2*
X22517D1*
X24113D2*
X27826D1*
X8176Y5543D2*
X11814D1*
X13515D2*
X14108D1*
X21864D2*
X22460D1*
X24155D2*
X27796D1*
X8206Y5513D2*
X11770D1*
X13571D2*
X14093D1*
X21879D2*
X22404D1*
X24195D2*
X27766D1*
X8236Y5483D2*
X11727D1*
X13624D2*
X14079D1*
X21894D2*
X22349D1*
X24237D2*
X27736D1*
X8266Y5453D2*
X11686D1*
X13676D2*
X14066D1*
X21910D2*
X22294D1*
X24280D2*
X27706D1*
X8296Y5423D2*
X11641D1*
X13731D2*
X14049D1*
X21930D2*
X22239D1*
X24324D2*
X27676D1*
X8326Y5393D2*
X11595D1*
X13788D2*
X14022D1*
X21958D2*
X22183D1*
X24369D2*
X27646D1*
X8356Y5363D2*
X11550D1*
X13847D2*
X13982D1*
X21995D2*
X22125D1*
X24414D2*
X27616D1*
X8386Y5333D2*
X11508D1*
X13906D2*
X13936D1*
X22036D2*
X22066D1*
X24459D2*
X27586D1*
X8416Y5303D2*
X11466D1*
X24504D2*
X27556D1*
X8446Y5273D2*
X11422D1*
X24549D2*
X27526D1*
X8476Y5243D2*
X11378D1*
X24594D2*
X27496D1*
X8506Y5213D2*
X11334D1*
X24639D2*
X27466D1*
X8536Y5183D2*
X11290D1*
X24683D2*
X27436D1*
X8566Y5153D2*
X11248D1*
X24725D2*
X27406D1*
X8596Y5123D2*
X11207D1*
X24765D2*
X27376D1*
X8626Y5093D2*
X11165D1*
X24807D2*
X27346D1*
X8656Y5063D2*
X11122D1*
X24850D2*
X27316D1*
X8686Y5033D2*
X11078D1*
X24894D2*
X27286D1*
X8716Y5003D2*
X11033D1*
X24939D2*
X27256D1*
X8746Y4973D2*
X10989D1*
X24984D2*
X27226D1*
X8776Y4943D2*
X10944D1*
X25029D2*
X27196D1*
X8806Y4913D2*
X10900D1*
X25074D2*
X27166D1*
X8836Y4883D2*
X10858D1*
X25119D2*
X27136D1*
X8866Y4853D2*
X10817D1*
X25163D2*
X27106D1*
X8896Y4823D2*
X10775D1*
X25205D2*
X27076D1*
X8926Y4793D2*
X10732D1*
X25246D2*
X27046D1*
X8956Y4763D2*
X10688D1*
X25291D2*
X27016D1*
X8986Y4733D2*
X10643D1*
X25337D2*
X26986D1*
X9016Y4703D2*
X10599D1*
X25382D2*
X26956D1*
X9046Y4673D2*
X10554D1*
X25424D2*
X26926D1*
X9076Y4643D2*
X10509D1*
X25466D2*
X26896D1*
X9106Y4613D2*
X10464D1*
X25510D2*
X26866D1*
X9136Y4583D2*
X10419D1*
X25554D2*
X26836D1*
X9166Y4553D2*
X10374D1*
X25599D2*
X26806D1*
X9196Y4523D2*
X10329D1*
X25644D2*
X26776D1*
X9226Y4493D2*
X10284D1*
X25689D2*
X26746D1*
X9256Y4463D2*
X10240D1*
X25734D2*
X26716D1*
X9286Y4433D2*
X10198D1*
X25779D2*
X26686D1*
X9316Y4403D2*
X10157D1*
X25823D2*
X26656D1*
X9346Y4373D2*
X10115D1*
X25865D2*
X26626D1*
X9376Y4343D2*
X10072D1*
X25905D2*
X26596D1*
X9406Y4313D2*
X10028D1*
X25947D2*
X26566D1*
X9436Y4283D2*
X9983D1*
X25990D2*
X26536D1*
X9466Y4253D2*
X9939D1*
X26034D2*
X26506D1*
X9496Y4223D2*
X9894D1*
X26079D2*
X26476D1*
X9526Y4193D2*
X9849D1*
X26123D2*
X26446D1*
X9556Y4163D2*
X9807D1*
X26165D2*
X26416D1*
X9586Y4133D2*
X9766D1*
X26206D2*
X26386D1*
X16246Y28763D2*
X16190Y28733D1*
X16147Y28703D1*
X16116Y28673D1*
X16101Y28643D1*
X16088Y28613D1*
X16078Y28583D1*
X16072Y28553D1*
X16068Y28523D1*
X16066Y28493D1*
X16061Y28463D1*
X16054Y28433D1*
X16046Y28403D1*
X16041Y28373D1*
X16037Y28343D1*
X16032Y28313D1*
X16024Y28283D1*
X16016Y28253D1*
X16011Y28223D1*
X16007Y28193D1*
X16002Y28163D1*
X15994Y28133D1*
X15986Y28103D1*
X15981Y28073D1*
X15978Y28043D1*
X15976Y28013D1*
X15971Y27983D1*
X15964Y27953D1*
X15956Y27923D1*
X15951Y27893D1*
X15947Y27863D1*
X15942Y27833D1*
X15934Y27803D1*
X15926Y27773D1*
X15921Y27743D1*
X15917Y27713D1*
X15912Y27683D1*
X15904Y27653D1*
X15896Y27623D1*
X15891Y27593D1*
X15888Y27563D1*
X15886Y27533D1*
X15881Y27503D1*
X15874Y27473D1*
X15866Y27443D1*
X15860Y27413D1*
X15853Y27383D1*
X15845Y27353D1*
X15837Y27323D1*
X15831Y27293D1*
X15828Y27263D1*
X15826Y27233D1*
X15821Y27203D1*
X15814Y27173D1*
X15806Y27143D1*
X15801Y27113D1*
X15797Y27083D1*
X15792Y27053D1*
X15784Y27023D1*
X15776Y26993D1*
X15771Y26963D1*
X15768Y26933D1*
X15766Y26903D1*
X15761Y26873D1*
X15754Y26843D1*
X15746Y26813D1*
X15741Y26783D1*
X15737Y26753D1*
X15732Y26723D1*
X15724Y26693D1*
X15716Y26663D1*
X15711Y26633D1*
X15708Y26603D1*
X15706Y26573D1*
X15701Y26543D1*
X15694Y26513D1*
X15686Y26483D1*
X15681Y26453D1*
X15677Y26423D1*
X15672Y26393D1*
X15664Y26363D1*
X15656Y26333D1*
X15651Y26303D1*
X15647Y26273D1*
X15642Y26243D1*
X15634Y26213D1*
X15626Y26183D1*
X15621Y26153D1*
X15618Y26123D1*
X15616Y26093D1*
X15611Y26063D1*
X15604Y26033D1*
X15596Y26003D1*
X15591Y25973D1*
X15587Y25943D1*
X15582Y25913D1*
X15574Y25883D1*
X15566Y25853D1*
X15561Y25823D1*
X15558Y25793D1*
X15556Y25763D1*
X15551Y25733D1*
X15544Y25703D1*
X15536Y25673D1*
X15530Y25643D1*
X15523Y25613D1*
X15515Y25583D1*
X15507Y25553D1*
X15501Y25523D1*
X15498Y25493D1*
X15496Y25463D1*
X15491Y25433D1*
X15484Y25403D1*
X15476Y25373D1*
X15471Y25343D1*
X15468Y25313D1*
X15466Y25283D1*
X15461Y25253D1*
X15454Y25223D1*
X15446Y25193D1*
X15440Y25163D1*
X15433Y25133D1*
X15423Y25103D1*
X15410Y25073D1*
X15391Y25043D1*
X15364Y25013D1*
X15324Y24983D1*
X15272Y24953D1*
X15209Y24923D1*
X15140Y24893D1*
X15068Y24863D1*
X14997Y24833D1*
X14927Y24803D1*
X14855Y24773D1*
X14782Y24743D1*
X14708Y24713D1*
X14633Y24683D1*
X14559Y24653D1*
X14484Y24623D1*
X14409Y24593D1*
X14334Y24563D1*
X14260Y24533D1*
X14188Y24503D1*
X14117Y24473D1*
X14045Y24443D1*
X13972Y24413D1*
X13898Y24383D1*
X13823Y24353D1*
X13749Y24323D1*
X13674Y24293D1*
X13600Y24263D1*
X13528Y24233D1*
X13457Y24203D1*
X13385Y24173D1*
X13312Y24143D1*
X13238Y24113D1*
X13163Y24083D1*
X13081Y24053D1*
X12977Y24023D1*
X12838Y23993D1*
X12676Y23963D1*
X19726Y28763D2*
X19783Y28733D1*
X19825Y28703D1*
X19857Y28673D1*
X19871Y28643D1*
X19884Y28613D1*
X19894Y28583D1*
X19901Y28553D1*
X19905Y28523D1*
X19910Y28493D1*
X19918Y28463D1*
X19926Y28433D1*
X19931Y28403D1*
X19934Y28373D1*
X19936Y28343D1*
X19941Y28313D1*
X19948Y28283D1*
X19956Y28253D1*
X19961Y28223D1*
X19965Y28193D1*
X19970Y28163D1*
X19978Y28133D1*
X19986Y28103D1*
X19991Y28073D1*
X19995Y28043D1*
X20000Y28013D1*
X20008Y27983D1*
X20016Y27953D1*
X20021Y27923D1*
X20024Y27893D1*
X20026Y27863D1*
X20031Y27833D1*
X20038Y27803D1*
X20046Y27773D1*
X20052Y27743D1*
X20059Y27713D1*
X20067Y27683D1*
X20076Y27653D1*
X20081Y27623D1*
X20084Y27593D1*
X20085Y27563D1*
X20087Y27533D1*
X20091Y27503D1*
X20098Y27473D1*
X20106Y27443D1*
X20111Y27413D1*
X20115Y27383D1*
X20120Y27353D1*
X20128Y27323D1*
X20136Y27293D1*
X20141Y27263D1*
X20144Y27233D1*
X20146Y27203D1*
X20151Y27173D1*
X20158Y27143D1*
X20166Y27113D1*
X20171Y27083D1*
X20175Y27053D1*
X20180Y27023D1*
X20188Y26993D1*
X20196Y26963D1*
X20202Y26933D1*
X20209Y26903D1*
X20217Y26873D1*
X20226Y26843D1*
X20231Y26813D1*
X20234Y26783D1*
X20236Y26753D1*
X20241Y26723D1*
X20248Y26693D1*
X20256Y26663D1*
X20261Y26633D1*
X20265Y26603D1*
X20270Y26573D1*
X20278Y26543D1*
X20286Y26513D1*
X20291Y26483D1*
X20294Y26453D1*
X20296Y26423D1*
X20301Y26393D1*
X20308Y26363D1*
X20316Y26333D1*
X20321Y26303D1*
X20325Y26273D1*
X20330Y26243D1*
X20338Y26213D1*
X20346Y26183D1*
X20351Y26153D1*
X20354Y26123D1*
X20356Y26093D1*
X20361Y26063D1*
X20368Y26033D1*
X20376Y26003D1*
X20381Y25973D1*
X20385Y25943D1*
X20390Y25913D1*
X20398Y25883D1*
X20406Y25853D1*
X20411Y25823D1*
X20415Y25793D1*
X20420Y25763D1*
X20428Y25733D1*
X20436Y25703D1*
X20441Y25673D1*
X20444Y25643D1*
X20446Y25613D1*
X20451Y25583D1*
X20458Y25553D1*
X20466Y25523D1*
X20471Y25493D1*
X20475Y25463D1*
X20480Y25433D1*
X20488Y25403D1*
X20496Y25373D1*
X20501Y25343D1*
X20505Y25313D1*
X20510Y25283D1*
X20518Y25253D1*
X20526Y25223D1*
X20531Y25193D1*
X20535Y25163D1*
X20540Y25133D1*
X20549Y25103D1*
X20562Y25073D1*
X20581Y25043D1*
X20609Y25013D1*
X20648Y24983D1*
X20701Y24953D1*
X20763Y24923D1*
X20832Y24893D1*
X20904Y24863D1*
X20975Y24833D1*
X21046Y24803D1*
X21117Y24773D1*
X21190Y24743D1*
X21264Y24713D1*
X21339Y24683D1*
X21414Y24653D1*
X21489Y24623D1*
X21564Y24593D1*
X21639Y24563D1*
X21713Y24533D1*
X21785Y24503D1*
X21855Y24473D1*
X21927Y24443D1*
X22000Y24413D1*
X22074Y24383D1*
X22149Y24353D1*
X22224Y24323D1*
X22299Y24293D1*
X22373Y24263D1*
X22445Y24233D1*
X22515Y24203D1*
X22587Y24173D1*
X22660Y24143D1*
X22734Y24113D1*
X22810Y24083D1*
X22891Y24053D1*
X22995Y24023D1*
X23134Y23993D1*
X23296Y23963D1*
X9646Y26033D2*
X9602Y26003D1*
X9564Y25973D1*
X9529Y25943D1*
X9497Y25913D1*
X9467Y25883D1*
X9436Y25853D1*
X9406Y25823D1*
X9376Y25793D1*
X9346Y25763D1*
X9316Y25733D1*
X9286Y25703D1*
X9256Y25673D1*
X9226Y25643D1*
X9196Y25613D1*
X9166Y25583D1*
X9136Y25553D1*
X9106Y25523D1*
X9076Y25493D1*
X9046Y25463D1*
X9016Y25433D1*
X8986Y25403D1*
X8956Y25373D1*
X8926Y25343D1*
X8896Y25313D1*
X8866Y25283D1*
X8836Y25253D1*
X8806Y25223D1*
X8776Y25193D1*
X8746Y25163D1*
X8716Y25133D1*
X8686Y25103D1*
X8656Y25073D1*
X8626Y25043D1*
X8596Y25013D1*
X8566Y24983D1*
X8536Y24953D1*
X8506Y24923D1*
X8476Y24893D1*
X8446Y24863D1*
X8416Y24833D1*
X8386Y24803D1*
X8356Y24773D1*
X8326Y24743D1*
X8296Y24713D1*
X8266Y24683D1*
X8236Y24653D1*
X8206Y24623D1*
X8176Y24593D1*
X8146Y24563D1*
X8116Y24533D1*
X8086Y24503D1*
X8056Y24473D1*
X8026Y24443D1*
X7996Y24413D1*
X7966Y24383D1*
X7936Y24353D1*
X7906Y24323D1*
X7876Y24293D1*
X7846Y24263D1*
X7816Y24233D1*
X7786Y24203D1*
X7756Y24173D1*
X7726Y24143D1*
X7696Y24113D1*
X7666Y24083D1*
X7636Y24053D1*
X7606Y24023D1*
X7576Y23993D1*
X7546Y23963D1*
X7516Y23933D1*
X7486Y23903D1*
X7456Y23873D1*
X7426Y23843D1*
X7396Y23813D1*
X7366Y23783D1*
X7336Y23753D1*
X7306Y23723D1*
X7276Y23693D1*
X7246Y23663D1*
X7216Y23633D1*
X7186Y23603D1*
X7156Y23573D1*
X7127Y23543D1*
X7102Y23513D1*
X7085Y23483D1*
X7074Y23453D1*
X7070Y23423D1*
X7068Y23393D1*
Y23363D1*
X7071Y23333D1*
X7080Y23303D1*
X7092Y23273D1*
X7109Y23243D1*
X7127Y23213D1*
X7146Y23183D1*
X7166Y23153D1*
X7186Y23123D1*
X7206Y23093D1*
X7226Y23063D1*
X7246Y23033D1*
X7266Y23003D1*
X7286Y22973D1*
X7306Y22943D1*
X7326Y22913D1*
X7347Y22883D1*
X7370Y22853D1*
X7393Y22823D1*
X7415Y22793D1*
X7435Y22763D1*
X7456Y22733D1*
X7476Y22703D1*
X7496Y22673D1*
X7516Y22643D1*
X7536Y22613D1*
X7556Y22583D1*
X7576Y22553D1*
X7596Y22523D1*
X7617Y22493D1*
X7640Y22463D1*
X7663Y22433D1*
X7684Y22403D1*
X7702Y22373D1*
X7719Y22343D1*
X7738Y22313D1*
X7761Y22283D1*
X7784Y22253D1*
X7805Y22223D1*
X7825Y22193D1*
X7846Y22163D1*
X7866Y22133D1*
X7886Y22103D1*
X7906Y22073D1*
X7926Y22043D1*
X7946Y22013D1*
X7966Y21983D1*
X7986Y21953D1*
X8006Y21923D1*
X8026Y21893D1*
X8046Y21863D1*
X8067Y21833D1*
X8090Y21803D1*
X8113Y21773D1*
X8135Y21743D1*
X8155Y21713D1*
X8176Y21683D1*
X8196Y21653D1*
X8216Y21623D1*
X8236Y21593D1*
X8256Y21563D1*
X8276Y21533D1*
X8296Y21503D1*
X8316Y21473D1*
X8336Y21443D1*
X8356Y21413D1*
X8376Y21383D1*
X8397Y21353D1*
X8420Y21323D1*
X8443Y21293D1*
X8465Y21263D1*
X8485Y21233D1*
X8506Y21203D1*
X8525Y21173D1*
X8542Y21143D1*
X8559Y21113D1*
X8578Y21083D1*
X8601Y21053D1*
X8624Y21023D1*
X8645Y20993D1*
X8665Y20963D1*
X8686Y20933D1*
X8706Y20903D1*
X8727Y20873D1*
X8750Y20843D1*
X8773Y20813D1*
X8795Y20783D1*
X8815Y20753D1*
X8836Y20723D1*
X8856Y20693D1*
X8876Y20663D1*
X8896Y20633D1*
X8916Y20603D1*
X8936Y20573D1*
X8956Y20543D1*
X8976Y20513D1*
X8996Y20483D1*
X9016Y20453D1*
X9035Y20423D1*
X9051Y20393D1*
X9063Y20363D1*
X9070Y20333D1*
X9073Y20303D1*
X9074Y20273D1*
X9071Y20243D1*
X9063Y20213D1*
X9051Y20183D1*
X9039Y20153D1*
X9027Y20123D1*
X9017Y20093D1*
X9005Y20063D1*
X8992Y20033D1*
X8978Y20003D1*
X8963Y19973D1*
X8950Y19943D1*
X8938Y19913D1*
X8927Y19883D1*
X8915Y19853D1*
X8902Y19823D1*
X8888Y19793D1*
X8873Y19763D1*
X8859Y19733D1*
X8844Y19703D1*
X8830Y19673D1*
X8818Y19643D1*
X8807Y19613D1*
X8795Y19583D1*
X8782Y19553D1*
X8768Y19523D1*
X8753Y19493D1*
X8740Y19463D1*
X8728Y19433D1*
X8717Y19403D1*
X8705Y19373D1*
X8692Y19343D1*
X8678Y19313D1*
X8663Y19283D1*
X8650Y19253D1*
X8638Y19223D1*
X8627Y19193D1*
X8615Y19163D1*
X8602Y19133D1*
X8589Y19103D1*
X8577Y19073D1*
X8567Y19043D1*
X8555Y19013D1*
X8542Y18983D1*
X8528Y18953D1*
X8513Y18923D1*
X8500Y18893D1*
X8488Y18863D1*
X8477Y18833D1*
X8465Y18803D1*
X8452Y18773D1*
X8438Y18743D1*
X8423Y18713D1*
X8410Y18683D1*
X8398Y18653D1*
X8387Y18623D1*
X8375Y18593D1*
X8362Y18563D1*
X8349Y18533D1*
X8338Y18503D1*
X8331Y18473D1*
X8326Y18443D1*
X9706Y26033D2*
X9761Y26003D1*
X9813Y25973D1*
X9861Y25943D1*
X9908Y25913D1*
X9952Y25883D1*
X9995Y25853D1*
X10035Y25823D1*
X10077Y25793D1*
X10120Y25763D1*
X10164Y25733D1*
X10209Y25703D1*
X10254Y25673D1*
X10299Y25643D1*
X10344Y25613D1*
X10389Y25583D1*
X10433Y25553D1*
X10475Y25523D1*
X10515Y25493D1*
X10557Y25463D1*
X10600Y25433D1*
X10644Y25403D1*
X10689Y25373D1*
X10734Y25343D1*
X10779Y25313D1*
X10824Y25283D1*
X10869Y25253D1*
X10914Y25223D1*
X10959Y25193D1*
X11003Y25163D1*
X11045Y25133D1*
X11086Y25103D1*
X11131Y25073D1*
X11177Y25043D1*
X11222Y25013D1*
X11264Y24983D1*
X11306Y24953D1*
X11350Y24923D1*
X11394Y24893D1*
X11439Y24863D1*
X11484Y24833D1*
X11529Y24803D1*
X11573Y24773D1*
X11615Y24743D1*
X11655Y24713D1*
X11697Y24683D1*
X11740Y24653D1*
X11784Y24623D1*
X11829Y24593D1*
X11873Y24563D1*
X11915Y24533D1*
X11956Y24503D1*
X12001Y24473D1*
X12047Y24443D1*
X12092Y24413D1*
X12134Y24383D1*
X12176Y24353D1*
X12220Y24323D1*
X12264Y24293D1*
X12309Y24263D1*
X12354Y24233D1*
X12399Y24203D1*
X12443Y24173D1*
X12485Y24143D1*
X12525Y24113D1*
X12568Y24083D1*
X12620Y24053D1*
X12701Y24023D1*
X12825Y23993D1*
X12976Y23963D1*
X26266Y26033D2*
X26211Y26003D1*
X26159Y25973D1*
X26111Y25943D1*
X26065Y25913D1*
X26020Y25883D1*
X25978Y25853D1*
X25937Y25823D1*
X25895Y25793D1*
X25852Y25763D1*
X25808Y25733D1*
X25763Y25703D1*
X25719Y25673D1*
X25674Y25643D1*
X25629Y25613D1*
X25584Y25583D1*
X25540Y25553D1*
X25497Y25523D1*
X25456Y25493D1*
X25411Y25463D1*
X25365Y25433D1*
X25320Y25403D1*
X25278Y25373D1*
X25236Y25343D1*
X25192Y25313D1*
X25149Y25283D1*
X25107Y25253D1*
X25066Y25223D1*
X25021Y25193D1*
X24975Y25163D1*
X24930Y25133D1*
X24888Y25103D1*
X24846Y25073D1*
X24802Y25043D1*
X24758Y25013D1*
X24713Y24983D1*
X24669Y24953D1*
X24624Y24923D1*
X24579Y24893D1*
X24534Y24863D1*
X24489Y24833D1*
X24444Y24803D1*
X24400Y24773D1*
X24358Y24743D1*
X24317Y24713D1*
X24275Y24683D1*
X24232Y24653D1*
X24188Y24623D1*
X24143Y24593D1*
X24099Y24563D1*
X24054Y24533D1*
X24010Y24503D1*
X23968Y24473D1*
X23927Y24443D1*
X23886Y24413D1*
X23846Y24383D1*
X23806Y24353D1*
X23765Y24323D1*
X23722Y24293D1*
X23678Y24263D1*
X23633Y24233D1*
X23589Y24203D1*
X23544Y24173D1*
X23499Y24143D1*
X23454Y24113D1*
X23408Y24083D1*
X23354Y24053D1*
X23272Y24023D1*
X23148Y23993D1*
X22996Y23963D1*
X26326Y26033D2*
X26370Y26003D1*
X26409Y25973D1*
X26443Y25943D1*
X26475Y25913D1*
X26506Y25883D1*
X26536Y25853D1*
X26566Y25823D1*
X26596Y25793D1*
X26626Y25763D1*
X26656Y25733D1*
X26686Y25703D1*
X26716Y25673D1*
X26746Y25643D1*
X26776Y25613D1*
X26806Y25583D1*
X26836Y25553D1*
X26866Y25523D1*
X26896Y25493D1*
X26926Y25463D1*
X26956Y25433D1*
X26986Y25403D1*
X27016Y25373D1*
X27046Y25343D1*
X27076Y25313D1*
X27106Y25283D1*
X27136Y25253D1*
X27166Y25223D1*
X27196Y25193D1*
X27226Y25163D1*
X27256Y25133D1*
X27286Y25103D1*
X27316Y25073D1*
X27346Y25043D1*
X27376Y25013D1*
X27406Y24983D1*
X27436Y24953D1*
X27466Y24923D1*
X27496Y24893D1*
X27526Y24863D1*
X27556Y24833D1*
X27586Y24803D1*
X27616Y24773D1*
X27646Y24743D1*
X27676Y24713D1*
X27706Y24683D1*
X27736Y24653D1*
X27766Y24623D1*
X27796Y24593D1*
X27826Y24563D1*
X27856Y24533D1*
X27886Y24503D1*
X27916Y24473D1*
X27946Y24443D1*
X27976Y24413D1*
X28006Y24383D1*
X28036Y24353D1*
X28066Y24323D1*
X28096Y24293D1*
X28126Y24263D1*
X28156Y24233D1*
X28186Y24203D1*
X28216Y24173D1*
X28246Y24143D1*
X28276Y24113D1*
X28306Y24083D1*
X28336Y24053D1*
X28366Y24023D1*
X28396Y23993D1*
X28426Y23963D1*
X28456Y23933D1*
X28486Y23903D1*
X28516Y23873D1*
X28546Y23843D1*
X28576Y23813D1*
X28606Y23783D1*
X28636Y23753D1*
X28666Y23723D1*
X28696Y23693D1*
X28726Y23663D1*
X28756Y23633D1*
X28786Y23603D1*
X28816Y23573D1*
X28845Y23543D1*
X28870Y23513D1*
X28888Y23483D1*
X28898Y23453D1*
X28903Y23423D1*
X28905Y23393D1*
X28904Y23363D1*
X28901Y23333D1*
X28893Y23303D1*
X28880Y23273D1*
X28864Y23243D1*
X28845Y23213D1*
X28826Y23183D1*
X28806Y23153D1*
X28786Y23123D1*
X28766Y23093D1*
X28746Y23063D1*
X28726Y23033D1*
X28706Y23003D1*
X28685Y22973D1*
X28662Y22943D1*
X28639Y22913D1*
X28619Y22883D1*
X28601Y22853D1*
X28583Y22823D1*
X28564Y22793D1*
X28542Y22763D1*
X28519Y22733D1*
X28497Y22703D1*
X28477Y22673D1*
X28456Y22643D1*
X28436Y22613D1*
X28416Y22583D1*
X28396Y22553D1*
X28376Y22523D1*
X28356Y22493D1*
X28336Y22463D1*
X28316Y22433D1*
X28296Y22403D1*
X28276Y22373D1*
X28256Y22343D1*
X28235Y22313D1*
X28212Y22283D1*
X28189Y22253D1*
X28168Y22223D1*
X28147Y22193D1*
X28126Y22163D1*
X28106Y22133D1*
X28086Y22103D1*
X28066Y22073D1*
X28046Y22043D1*
X28026Y22013D1*
X28006Y21983D1*
X27986Y21953D1*
X27965Y21923D1*
X27942Y21893D1*
X27919Y21863D1*
X27898Y21833D1*
X27877Y21803D1*
X27856Y21773D1*
X27836Y21743D1*
X27816Y21713D1*
X27796Y21683D1*
X27776Y21653D1*
X27756Y21623D1*
X27736Y21593D1*
X27716Y21563D1*
X27696Y21533D1*
X27676Y21503D1*
X27656Y21473D1*
X27635Y21443D1*
X27612Y21413D1*
X27589Y21383D1*
X27568Y21353D1*
X27547Y21323D1*
X27526Y21293D1*
X27506Y21263D1*
X27486Y21233D1*
X27466Y21203D1*
X27446Y21173D1*
X27426Y21143D1*
X27406Y21113D1*
X27386Y21083D1*
X27366Y21053D1*
X27346Y21023D1*
X27326Y20993D1*
X27305Y20963D1*
X27282Y20933D1*
X27259Y20903D1*
X27238Y20873D1*
X27217Y20843D1*
X27196Y20813D1*
X27177Y20783D1*
X27160Y20753D1*
X27143Y20723D1*
X27124Y20693D1*
X27102Y20663D1*
X27079Y20633D1*
X27057Y20603D1*
X27037Y20573D1*
X27016Y20543D1*
X26996Y20513D1*
X26976Y20483D1*
X26956Y20453D1*
X26937Y20423D1*
X26921Y20393D1*
X26909Y20363D1*
X26902Y20333D1*
X26899Y20303D1*
X26898Y20273D1*
X26902Y20243D1*
X26910Y20213D1*
X26921Y20183D1*
X26935Y20153D1*
X26949Y20123D1*
X26963Y20093D1*
X26975Y20063D1*
X26985Y20033D1*
X26997Y20003D1*
X27010Y19973D1*
X27024Y19943D1*
X27039Y19913D1*
X27053Y19883D1*
X27065Y19853D1*
X27075Y19823D1*
X27087Y19793D1*
X27100Y19763D1*
X27113Y19733D1*
X27125Y19703D1*
X27135Y19673D1*
X27147Y19643D1*
X27160Y19613D1*
X27174Y19583D1*
X27189Y19553D1*
X27204Y19523D1*
X27219Y19493D1*
X27234Y19463D1*
X27249Y19433D1*
X27263Y19403D1*
X27275Y19373D1*
X27285Y19343D1*
X27297Y19313D1*
X27310Y19283D1*
X27323Y19253D1*
X27335Y19223D1*
X27345Y19193D1*
X27357Y19163D1*
X27370Y19133D1*
X27384Y19103D1*
X27399Y19073D1*
X27413Y19043D1*
X27425Y19013D1*
X27435Y18983D1*
X27447Y18953D1*
X27460Y18923D1*
X27473Y18893D1*
X27485Y18863D1*
X27495Y18833D1*
X27507Y18803D1*
X27520Y18773D1*
X27534Y18743D1*
X27549Y18713D1*
X27563Y18683D1*
X27575Y18653D1*
X27585Y18623D1*
X27597Y18593D1*
X27610Y18563D1*
X27623Y18533D1*
X27634Y18503D1*
X27641Y18473D1*
X27646Y18443D1*
X30436Y21023D2*
Y20993D1*
Y20963D1*
Y20933D1*
Y20903D1*
Y20873D1*
Y20843D1*
Y20813D1*
Y20783D1*
Y20753D1*
Y20723D1*
Y20693D1*
Y20663D1*
Y20633D1*
Y20603D1*
Y20573D1*
Y20543D1*
Y20513D1*
Y20483D1*
Y20453D1*
Y20423D1*
Y20393D1*
Y20363D1*
Y20333D1*
Y20303D1*
Y20273D1*
Y20243D1*
Y20213D1*
Y20183D1*
Y20153D1*
Y20123D1*
Y20093D1*
Y20063D1*
Y20033D1*
Y20003D1*
Y19973D1*
Y19943D1*
Y19913D1*
Y19883D1*
Y19853D1*
Y19823D1*
Y19793D1*
Y19763D1*
Y19733D1*
Y19703D1*
Y19673D1*
Y19643D1*
Y19613D1*
Y19583D1*
Y19553D1*
Y19523D1*
Y19493D1*
Y19463D1*
Y19433D1*
Y19403D1*
X32236Y21023D2*
Y20993D1*
Y20963D1*
Y20933D1*
Y20903D1*
Y20873D1*
Y20843D1*
Y20813D1*
Y20783D1*
Y20753D1*
Y20723D1*
Y20693D1*
Y20663D1*
Y20633D1*
Y20603D1*
Y20573D1*
Y20543D1*
Y20513D1*
Y20483D1*
Y20453D1*
Y20423D1*
Y20393D1*
Y20363D1*
Y20333D1*
Y20303D1*
Y20273D1*
Y20243D1*
Y20213D1*
Y20183D1*
Y20153D1*
Y20123D1*
Y20093D1*
Y20063D1*
Y20033D1*
Y20003D1*
Y19973D1*
Y19943D1*
Y19913D1*
Y19883D1*
Y19853D1*
Y19823D1*
Y19793D1*
Y19763D1*
Y19733D1*
Y19703D1*
Y19673D1*
Y19643D1*
Y19613D1*
Y19583D1*
Y19553D1*
Y19523D1*
Y19493D1*
Y19463D1*
Y19433D1*
Y19403D1*
X32506Y21023D2*
Y20993D1*
Y20963D1*
Y20933D1*
Y20903D1*
Y20873D1*
Y20843D1*
Y20813D1*
Y20783D1*
Y20753D1*
Y20723D1*
Y20693D1*
Y20663D1*
Y20633D1*
Y20603D1*
Y20573D1*
Y20543D1*
Y20513D1*
Y20483D1*
Y20453D1*
Y20423D1*
Y20393D1*
Y20363D1*
Y20333D1*
Y20303D1*
Y20273D1*
Y20243D1*
Y20213D1*
Y20183D1*
Y20153D1*
Y20123D1*
Y20093D1*
Y20063D1*
Y20033D1*
Y20003D1*
Y19973D1*
Y19943D1*
Y19913D1*
Y19883D1*
Y19853D1*
Y19823D1*
Y19793D1*
Y19763D1*
Y19733D1*
Y19703D1*
Y19673D1*
Y19643D1*
Y19613D1*
Y19583D1*
Y19553D1*
Y19523D1*
Y19493D1*
Y19463D1*
Y19433D1*
Y19403D1*
X34156Y21023D2*
Y20993D1*
Y20963D1*
Y20933D1*
Y20903D1*
Y20873D1*
Y20843D1*
Y20813D1*
Y20783D1*
Y20753D1*
Y20723D1*
Y20693D1*
Y20663D1*
Y20633D1*
Y20603D1*
Y20573D1*
Y20543D1*
Y20513D1*
Y20483D1*
Y20453D1*
Y20423D1*
Y20393D1*
Y20363D1*
Y20333D1*
Y20303D1*
Y20273D1*
Y20243D1*
Y20213D1*
Y20183D1*
Y20153D1*
Y20123D1*
Y20093D1*
Y20063D1*
Y20033D1*
Y20003D1*
Y19973D1*
Y19943D1*
Y19913D1*
Y19883D1*
Y19853D1*
Y19823D1*
Y19793D1*
Y19763D1*
Y19733D1*
Y19703D1*
Y19673D1*
Y19643D1*
Y19613D1*
Y19583D1*
Y19553D1*
Y19523D1*
Y19493D1*
Y19463D1*
Y19433D1*
Y19403D1*
X34426Y21023D2*
Y20993D1*
Y20963D1*
Y20933D1*
Y20903D1*
Y20873D1*
Y20843D1*
Y20813D1*
Y20783D1*
X36046Y21023D2*
Y20993D1*
Y20963D1*
Y20933D1*
Y20903D1*
Y20873D1*
Y20843D1*
Y20813D1*
Y20783D1*
Y20753D1*
Y20723D1*
Y20693D1*
Y20663D1*
Y20633D1*
Y20603D1*
Y20573D1*
Y20543D1*
Y20513D1*
Y20483D1*
Y20453D1*
Y20423D1*
Y20393D1*
Y20363D1*
Y20333D1*
Y20303D1*
Y20273D1*
Y20243D1*
Y20213D1*
Y20183D1*
Y20153D1*
Y20123D1*
Y20093D1*
Y20063D1*
Y20033D1*
Y20003D1*
Y19973D1*
Y19943D1*
Y19913D1*
Y19883D1*
Y19853D1*
Y19823D1*
Y19793D1*
Y19763D1*
Y19733D1*
Y19703D1*
Y19673D1*
Y19643D1*
Y19613D1*
Y19583D1*
Y19553D1*
Y19523D1*
Y19493D1*
Y19463D1*
Y19433D1*
Y19403D1*
X36946Y21023D2*
Y20993D1*
Y20963D1*
Y20933D1*
Y20903D1*
Y20873D1*
Y20843D1*
Y20813D1*
Y20783D1*
Y20753D1*
Y20723D1*
Y20693D1*
Y20663D1*
Y20633D1*
Y20603D1*
Y20573D1*
Y20543D1*
Y20513D1*
Y20483D1*
Y20453D1*
Y20423D1*
Y20393D1*
Y20363D1*
Y20333D1*
Y20303D1*
Y20273D1*
Y20243D1*
Y20213D1*
Y20183D1*
Y20153D1*
Y20123D1*
Y20093D1*
Y20063D1*
Y20033D1*
Y20003D1*
Y19973D1*
Y19943D1*
Y19913D1*
Y19883D1*
Y19853D1*
Y19823D1*
Y19793D1*
Y19763D1*
Y19733D1*
Y19703D1*
Y19673D1*
Y19643D1*
Y19613D1*
Y19583D1*
Y19553D1*
Y19523D1*
Y19493D1*
Y19463D1*
Y19433D1*
Y19403D1*
X38596Y21023D2*
Y20993D1*
Y20963D1*
Y20933D1*
Y20903D1*
Y20873D1*
Y20843D1*
Y20813D1*
Y20783D1*
X39316Y21023D2*
Y20993D1*
Y20963D1*
Y20933D1*
Y20903D1*
Y20873D1*
Y20843D1*
Y20813D1*
Y20783D1*
Y20753D1*
Y20723D1*
Y20693D1*
Y20663D1*
Y20633D1*
Y20603D1*
Y20573D1*
Y20543D1*
Y20513D1*
Y20483D1*
Y20453D1*
Y20423D1*
Y20393D1*
Y20363D1*
Y20333D1*
X40516Y21023D2*
Y20993D1*
Y20963D1*
Y20933D1*
Y20903D1*
Y20873D1*
Y20843D1*
Y20813D1*
Y20783D1*
Y20753D1*
Y20723D1*
Y20693D1*
Y20663D1*
Y20633D1*
Y20603D1*
Y20573D1*
Y20543D1*
Y20513D1*
Y20483D1*
Y20453D1*
Y20423D1*
Y20393D1*
Y20363D1*
Y20333D1*
Y20303D1*
Y20273D1*
Y20243D1*
Y20213D1*
Y20183D1*
Y20153D1*
Y20123D1*
Y20093D1*
Y20063D1*
Y20033D1*
Y20003D1*
Y19973D1*
Y19943D1*
Y19913D1*
Y19883D1*
Y19853D1*
Y19823D1*
Y19793D1*
Y19763D1*
Y19733D1*
Y19703D1*
Y19673D1*
Y19643D1*
Y19613D1*
Y19583D1*
Y19553D1*
Y19523D1*
Y19493D1*
Y19463D1*
Y19433D1*
Y19403D1*
X40786Y21023D2*
Y20993D1*
Y20963D1*
Y20933D1*
Y20903D1*
Y20873D1*
Y20843D1*
Y20813D1*
Y20783D1*
Y20753D1*
Y20723D1*
Y20693D1*
Y20663D1*
Y20633D1*
Y20603D1*
Y20573D1*
Y20543D1*
Y20513D1*
Y20483D1*
Y20453D1*
Y20423D1*
Y20393D1*
Y20363D1*
Y20333D1*
Y20303D1*
Y20273D1*
Y20243D1*
Y20213D1*
Y20183D1*
Y20153D1*
Y20123D1*
Y20093D1*
Y20063D1*
Y20033D1*
Y20003D1*
Y19973D1*
Y19943D1*
Y19913D1*
Y19883D1*
Y19853D1*
Y19823D1*
Y19793D1*
Y19763D1*
Y19733D1*
Y19703D1*
Y19673D1*
Y19643D1*
Y19613D1*
Y19583D1*
Y19553D1*
Y19523D1*
Y19493D1*
Y19463D1*
Y19433D1*
Y19403D1*
X41026Y21023D2*
Y20993D1*
Y20963D1*
Y20933D1*
Y20903D1*
Y20873D1*
Y20843D1*
Y20813D1*
Y20783D1*
Y20753D1*
Y20723D1*
Y20693D1*
Y20663D1*
Y20633D1*
Y20603D1*
Y20573D1*
Y20543D1*
Y20513D1*
Y20483D1*
Y20453D1*
Y20423D1*
Y20393D1*
Y20363D1*
Y20333D1*
Y20303D1*
Y20273D1*
Y20243D1*
Y20213D1*
Y20183D1*
Y20153D1*
Y20123D1*
Y20093D1*
Y20063D1*
Y20033D1*
Y20003D1*
Y19973D1*
Y19943D1*
Y19913D1*
Y19883D1*
Y19853D1*
Y19823D1*
Y19793D1*
Y19763D1*
Y19733D1*
Y19703D1*
Y19673D1*
Y19643D1*
Y19613D1*
Y19583D1*
Y19553D1*
Y19523D1*
Y19493D1*
Y19463D1*
Y19433D1*
Y19403D1*
X42676Y21023D2*
Y20993D1*
Y20963D1*
Y20933D1*
Y20903D1*
Y20873D1*
Y20843D1*
Y20813D1*
Y20783D1*
Y20753D1*
Y20723D1*
Y20693D1*
Y20663D1*
Y20633D1*
Y20603D1*
Y20573D1*
Y20543D1*
Y20513D1*
Y20483D1*
Y20453D1*
Y20423D1*
Y20393D1*
Y20363D1*
Y20333D1*
Y20303D1*
Y20273D1*
Y20243D1*
Y20213D1*
Y20183D1*
Y20153D1*
Y20123D1*
Y20093D1*
Y20063D1*
Y20033D1*
Y20003D1*
Y19973D1*
Y19943D1*
Y19913D1*
Y19883D1*
Y19853D1*
Y19823D1*
Y19793D1*
Y19763D1*
Y19733D1*
Y19703D1*
Y19673D1*
Y19643D1*
X42916Y21023D2*
Y20993D1*
Y20963D1*
Y20933D1*
Y20903D1*
Y20873D1*
Y20843D1*
Y20813D1*
Y20783D1*
Y20753D1*
Y20723D1*
Y20693D1*
Y20663D1*
Y20633D1*
Y20603D1*
Y20573D1*
Y20543D1*
Y20513D1*
Y20483D1*
Y20453D1*
Y20423D1*
Y20393D1*
Y20363D1*
Y20333D1*
Y20303D1*
Y20273D1*
Y20243D1*
Y20213D1*
Y20183D1*
Y20153D1*
Y20123D1*
Y20093D1*
Y20063D1*
Y20033D1*
Y20003D1*
Y19973D1*
Y19943D1*
Y19913D1*
Y19883D1*
Y19853D1*
Y19823D1*
Y19793D1*
Y19763D1*
Y19733D1*
Y19703D1*
Y19673D1*
Y19643D1*
Y19613D1*
Y19583D1*
Y19553D1*
Y19523D1*
Y19493D1*
Y19463D1*
Y19433D1*
Y19403D1*
X30706Y20783D2*
Y20753D1*
Y20723D1*
Y20693D1*
Y20663D1*
Y20633D1*
Y20603D1*
Y20573D1*
Y20543D1*
Y20513D1*
Y20483D1*
Y20453D1*
Y20423D1*
Y20393D1*
Y20363D1*
Y20333D1*
Y20303D1*
Y20273D1*
Y20243D1*
Y20213D1*
Y20183D1*
Y20153D1*
Y20123D1*
Y20093D1*
Y20063D1*
Y20033D1*
Y20003D1*
Y19973D1*
Y19943D1*
Y19913D1*
Y19883D1*
Y19853D1*
Y19823D1*
Y19793D1*
Y19763D1*
Y19733D1*
Y19703D1*
Y19673D1*
Y19643D1*
Y19613D1*
Y19583D1*
Y19553D1*
Y19523D1*
Y19493D1*
Y19463D1*
Y19433D1*
Y19403D1*
X31216Y20783D2*
Y20753D1*
Y20723D1*
Y20693D1*
Y20663D1*
Y20633D1*
Y20603D1*
Y20573D1*
Y20543D1*
Y20513D1*
Y20483D1*
Y20453D1*
Y20423D1*
Y20393D1*
Y20363D1*
Y20333D1*
Y20303D1*
Y20273D1*
Y20243D1*
Y20213D1*
Y20183D1*
Y20153D1*
Y20123D1*
Y20093D1*
Y20063D1*
Y20033D1*
Y20003D1*
Y19973D1*
Y19943D1*
Y19913D1*
Y19883D1*
Y19853D1*
Y19823D1*
Y19793D1*
Y19763D1*
Y19733D1*
Y19703D1*
Y19673D1*
Y19643D1*
Y19613D1*
Y19583D1*
Y19553D1*
Y19523D1*
Y19493D1*
Y19463D1*
Y19433D1*
Y19403D1*
X31456Y20783D2*
Y20753D1*
Y20723D1*
Y20693D1*
Y20663D1*
Y20633D1*
Y20603D1*
Y20573D1*
Y20543D1*
Y20513D1*
Y20483D1*
Y20453D1*
Y20423D1*
Y20393D1*
Y20363D1*
Y20333D1*
Y20303D1*
Y20273D1*
Y20243D1*
Y20213D1*
Y20183D1*
Y20153D1*
Y20123D1*
Y20093D1*
Y20063D1*
Y20033D1*
Y20003D1*
Y19973D1*
Y19943D1*
Y19913D1*
Y19883D1*
Y19853D1*
Y19823D1*
Y19793D1*
Y19763D1*
Y19733D1*
Y19703D1*
Y19673D1*
Y19643D1*
Y19613D1*
Y19583D1*
Y19553D1*
Y19523D1*
Y19493D1*
Y19463D1*
Y19433D1*
Y19403D1*
X31966Y20783D2*
Y20753D1*
Y20723D1*
Y20693D1*
Y20663D1*
Y20633D1*
Y20603D1*
Y20573D1*
Y20543D1*
Y20513D1*
Y20483D1*
Y20453D1*
Y20423D1*
Y20393D1*
Y20363D1*
Y20333D1*
Y20303D1*
Y20273D1*
Y20243D1*
Y20213D1*
Y20183D1*
Y20153D1*
Y20123D1*
Y20093D1*
Y20063D1*
Y20033D1*
Y20003D1*
Y19973D1*
Y19943D1*
Y19913D1*
Y19883D1*
Y19853D1*
Y19823D1*
Y19793D1*
Y19763D1*
Y19733D1*
Y19703D1*
Y19673D1*
Y19643D1*
Y19613D1*
Y19583D1*
Y19553D1*
Y19523D1*
Y19493D1*
Y19463D1*
Y19433D1*
Y19403D1*
X32776Y20783D2*
Y20753D1*
Y20723D1*
Y20693D1*
Y20663D1*
Y20633D1*
Y20603D1*
Y20573D1*
Y20543D1*
Y20513D1*
Y20483D1*
Y20453D1*
Y20423D1*
Y20393D1*
Y20363D1*
Y20333D1*
Y20303D1*
Y20273D1*
Y20243D1*
Y20213D1*
Y20183D1*
Y20153D1*
Y20123D1*
Y20093D1*
Y20063D1*
Y20033D1*
Y20003D1*
Y19973D1*
Y19943D1*
Y19913D1*
Y19883D1*
Y19853D1*
Y19823D1*
Y19793D1*
Y19763D1*
Y19733D1*
Y19703D1*
Y19673D1*
Y19643D1*
X33886Y20783D2*
Y20753D1*
Y20723D1*
Y20693D1*
Y20663D1*
Y20633D1*
Y20603D1*
Y20573D1*
Y20543D1*
Y20513D1*
Y20483D1*
Y20453D1*
Y20423D1*
Y20393D1*
Y20363D1*
Y20333D1*
Y20303D1*
Y20273D1*
Y20243D1*
Y20213D1*
Y20183D1*
Y20153D1*
Y20123D1*
Y20093D1*
Y20063D1*
Y20033D1*
Y20003D1*
Y19973D1*
Y19943D1*
Y19913D1*
Y19883D1*
Y19853D1*
Y19823D1*
Y19793D1*
Y19763D1*
Y19733D1*
Y19703D1*
Y19673D1*
Y19643D1*
X35776Y20783D2*
Y20753D1*
Y20723D1*
Y20693D1*
Y20663D1*
Y20633D1*
Y20603D1*
Y20573D1*
Y20543D1*
Y20513D1*
Y20483D1*
Y20453D1*
Y20423D1*
Y20393D1*
Y20363D1*
Y20333D1*
Y20303D1*
Y20273D1*
Y20243D1*
Y20213D1*
Y20183D1*
Y20153D1*
Y20123D1*
Y20093D1*
Y20063D1*
Y20033D1*
Y20003D1*
Y19973D1*
Y19943D1*
Y19913D1*
Y19883D1*
Y19853D1*
Y19823D1*
Y19793D1*
Y19763D1*
Y19733D1*
Y19703D1*
Y19673D1*
Y19643D1*
X37216Y20783D2*
Y20753D1*
Y20723D1*
Y20693D1*
Y20663D1*
Y20633D1*
Y20603D1*
Y20573D1*
Y20543D1*
Y20513D1*
Y20483D1*
Y20453D1*
Y20423D1*
Y20393D1*
Y20363D1*
Y20333D1*
X39586Y20783D2*
Y20753D1*
Y20723D1*
Y20693D1*
Y20663D1*
Y20633D1*
Y20603D1*
Y20573D1*
Y20543D1*
Y20513D1*
Y20483D1*
Y20453D1*
Y20423D1*
Y20393D1*
Y20363D1*
Y20333D1*
X40246Y20783D2*
Y20753D1*
Y20723D1*
Y20693D1*
Y20663D1*
Y20633D1*
Y20603D1*
Y20573D1*
Y20543D1*
Y20513D1*
Y20483D1*
Y20453D1*
Y20423D1*
Y20393D1*
Y20363D1*
Y20333D1*
X38596D2*
Y20303D1*
Y20273D1*
Y20243D1*
Y20213D1*
Y20183D1*
Y20153D1*
Y20123D1*
Y20093D1*
X38866Y20333D2*
Y20303D1*
Y20273D1*
Y20243D1*
Y20213D1*
Y20183D1*
Y20153D1*
Y20123D1*
Y20093D1*
Y20063D1*
Y20033D1*
Y20003D1*
Y19973D1*
Y19943D1*
Y19913D1*
Y19883D1*
Y19853D1*
Y19823D1*
Y19793D1*
Y19763D1*
Y19733D1*
Y19703D1*
Y19673D1*
Y19643D1*
Y19613D1*
Y19583D1*
Y19553D1*
Y19523D1*
Y19493D1*
Y19463D1*
Y19433D1*
Y19403D1*
X37216Y20093D2*
Y20063D1*
Y20033D1*
Y20003D1*
Y19973D1*
Y19943D1*
Y19913D1*
Y19883D1*
Y19853D1*
Y19823D1*
Y19793D1*
Y19763D1*
Y19733D1*
Y19703D1*
Y19673D1*
Y19643D1*
X39136Y20093D2*
Y20063D1*
Y20033D1*
Y20003D1*
Y19973D1*
Y19943D1*
Y19913D1*
Y19883D1*
Y19853D1*
Y19823D1*
Y19793D1*
Y19763D1*
Y19733D1*
Y19703D1*
Y19673D1*
Y19643D1*
X40246Y20093D2*
Y20063D1*
Y20033D1*
Y20003D1*
Y19973D1*
Y19943D1*
Y19913D1*
Y19883D1*
Y19853D1*
Y19823D1*
Y19793D1*
Y19763D1*
Y19733D1*
Y19703D1*
Y19673D1*
Y19643D1*
X34426D2*
Y19613D1*
Y19583D1*
Y19553D1*
Y19523D1*
Y19493D1*
Y19463D1*
Y19433D1*
Y19403D1*
X36376Y19643D2*
Y19613D1*
Y19583D1*
Y19553D1*
Y19523D1*
Y19493D1*
Y19463D1*
Y19433D1*
Y19403D1*
X36646Y19643D2*
Y19613D1*
Y19583D1*
Y19553D1*
Y19523D1*
Y19493D1*
Y19463D1*
Y19433D1*
Y19403D1*
X38596Y19643D2*
Y19613D1*
Y19583D1*
Y19553D1*
Y19523D1*
Y19493D1*
Y19463D1*
Y19433D1*
Y19403D1*
X41296Y19643D2*
Y19613D1*
Y19583D1*
Y19553D1*
Y19523D1*
Y19493D1*
Y19463D1*
Y19433D1*
Y19403D1*
X17806Y18863D2*
X17585Y18833D1*
X17388Y18803D1*
X17221Y18773D1*
X17080Y18743D1*
X16959Y18713D1*
X16854Y18683D1*
X16761Y18653D1*
X16676Y18623D1*
X16596Y18593D1*
X16521Y18563D1*
X16451Y18533D1*
X16391Y18503D1*
X16349Y18473D1*
X16318Y18443D1*
X16338Y18413D1*
X16357Y18383D1*
X16377Y18353D1*
X16400Y18323D1*
X16423Y18293D1*
X16445Y18263D1*
X16466Y18233D1*
X16490Y18203D1*
X16513Y18173D1*
X16535Y18143D1*
X16555Y18113D1*
X16576Y18083D1*
X18166Y18863D2*
X18387Y18833D1*
X18585Y18803D1*
X18751Y18773D1*
X18891Y18743D1*
X19010Y18713D1*
X19115Y18683D1*
X19210Y18653D1*
X19298Y18623D1*
X19378Y18593D1*
X19453Y18563D1*
X19525Y18533D1*
X19595Y18503D1*
X19661Y18473D1*
X19726Y18443D1*
X8446Y18713D2*
Y18683D1*
Y18653D1*
Y18623D1*
Y18593D1*
Y18563D1*
Y18533D1*
Y18503D1*
Y18473D1*
Y18443D1*
X8365Y18413D1*
X8310Y18383D1*
X8270Y18353D1*
X8253Y18323D1*
X8243Y18293D1*
X8236Y18263D1*
X8446D1*
Y18233D1*
Y18203D1*
Y18173D1*
Y18143D1*
Y18113D1*
Y18083D1*
Y18053D1*
Y18023D1*
Y17993D1*
Y17963D1*
Y17933D1*
Y17903D1*
Y17873D1*
Y17843D1*
Y17813D1*
Y17783D1*
Y17753D1*
Y17723D1*
Y17693D1*
Y17663D1*
Y17633D1*
Y17603D1*
Y17573D1*
Y17543D1*
Y17513D1*
Y17483D1*
X8596Y17453D1*
X8626Y18713D2*
Y18683D1*
Y18653D1*
Y18623D1*
Y18593D1*
Y18563D1*
Y18533D1*
Y18503D1*
Y18473D1*
Y18443D1*
Y18413D1*
X8896D1*
Y18383D1*
Y18353D1*
Y18323D1*
Y18293D1*
Y18263D1*
X8626D1*
Y18233D1*
Y18203D1*
Y18173D1*
Y18143D1*
Y18113D1*
Y18083D1*
Y18053D1*
Y18023D1*
Y17993D1*
Y17963D1*
Y17933D1*
Y17903D1*
Y17873D1*
Y17843D1*
Y17813D1*
Y17783D1*
Y17753D1*
Y17723D1*
Y17693D1*
Y17663D1*
Y17633D1*
Y17603D1*
Y17573D1*
Y17543D1*
Y17513D1*
Y17483D1*
X8476Y17453D1*
X27376Y18713D2*
Y18683D1*
Y18653D1*
Y18623D1*
Y18593D1*
Y18563D1*
Y18533D1*
Y18503D1*
Y18473D1*
Y18443D1*
Y18413D1*
Y18383D1*
Y18353D1*
Y18323D1*
Y18293D1*
Y18263D1*
Y18233D1*
Y18203D1*
Y18173D1*
Y18143D1*
Y18113D1*
Y18083D1*
Y18053D1*
Y18023D1*
Y17993D1*
Y17963D1*
Y17933D1*
Y17903D1*
Y17873D1*
Y17843D1*
Y17813D1*
Y17783D1*
Y17753D1*
Y17723D1*
Y17693D1*
Y17663D1*
Y17633D1*
Y17603D1*
Y17573D1*
Y17543D1*
Y17513D1*
Y17483D1*
Y17453D1*
X27556Y18653D2*
Y18623D1*
Y18593D1*
Y18563D1*
X27557Y18533D1*
X27558Y18503D1*
X27571Y18473D1*
X27608Y18443D1*
X27649Y18413D1*
X27681Y18383D1*
X27705Y18353D1*
X27721Y18323D1*
X27730Y18293D1*
X27736Y18263D1*
X27556D1*
Y18233D1*
Y18203D1*
Y18173D1*
Y18143D1*
Y18113D1*
Y18083D1*
Y18053D1*
Y18023D1*
Y17993D1*
Y17963D1*
Y17933D1*
Y17903D1*
Y17873D1*
Y17843D1*
Y17813D1*
Y17783D1*
Y17753D1*
Y17723D1*
Y17693D1*
Y17663D1*
Y17633D1*
X4576Y18443D2*
Y18413D1*
Y18383D1*
Y18353D1*
Y18323D1*
Y18293D1*
X5536Y18443D2*
Y18413D1*
Y18383D1*
Y18353D1*
Y18323D1*
Y18293D1*
Y18263D1*
Y18233D1*
Y18203D1*
Y18173D1*
Y18143D1*
Y18113D1*
Y18083D1*
Y18053D1*
Y18023D1*
Y17993D1*
Y17963D1*
Y17933D1*
Y17903D1*
Y17873D1*
X5686Y18443D2*
Y18413D1*
Y18383D1*
Y18353D1*
Y18323D1*
Y18293D1*
X6646Y18443D2*
Y18413D1*
Y18383D1*
Y18353D1*
Y18323D1*
Y18293D1*
Y18263D1*
Y18233D1*
Y18203D1*
Y18173D1*
Y18143D1*
Y18113D1*
Y18083D1*
Y18053D1*
Y18023D1*
Y17993D1*
Y17963D1*
Y17933D1*
Y17903D1*
Y17873D1*
Y17843D1*
Y17813D1*
Y17783D1*
Y17753D1*
Y17723D1*
Y17693D1*
Y17663D1*
Y17633D1*
Y17603D1*
Y17573D1*
Y17543D1*
Y17513D1*
Y17483D1*
X6826Y18443D2*
Y18413D1*
Y18383D1*
Y18353D1*
Y18323D1*
Y18293D1*
Y18263D1*
Y18233D1*
Y18203D1*
Y18173D1*
Y18143D1*
Y18113D1*
Y18083D1*
Y18053D1*
Y18023D1*
Y17993D1*
Y17963D1*
Y17933D1*
Y17903D1*
Y17873D1*
X7756Y18443D2*
Y18413D1*
Y18383D1*
Y18353D1*
Y18323D1*
Y18293D1*
Y18263D1*
Y18233D1*
Y18203D1*
Y18173D1*
Y18143D1*
Y18113D1*
Y18083D1*
Y18053D1*
Y18023D1*
Y17993D1*
Y17963D1*
Y17933D1*
Y17903D1*
Y17873D1*
Y17843D1*
Y17813D1*
Y17783D1*
Y17753D1*
Y17723D1*
X7760Y17693D1*
X7768Y17663D1*
X7803Y17633D1*
X7846Y17603D1*
X7936Y18443D2*
Y18413D1*
Y18383D1*
Y18353D1*
Y18323D1*
Y18293D1*
X8236Y18263D1*
X8221Y18233D1*
X8209Y18203D1*
X8196Y18173D1*
X8182Y18143D1*
X8168Y18113D1*
X8153Y18083D1*
X8139Y18053D1*
X8124Y18023D1*
X8110Y17993D1*
X8098Y17963D1*
X8087Y17933D1*
X8075Y17903D1*
X8062Y17873D1*
X8048Y17843D1*
X8033Y17813D1*
X8018Y17783D1*
X8002Y17753D1*
X7982Y17723D1*
X7954Y17693D1*
X7918Y17663D1*
X7876Y17633D1*
X16846Y18443D2*
X16821Y18413D1*
X16798Y18383D1*
X16776Y18353D1*
X16752Y18323D1*
X16729Y18293D1*
X16707Y18263D1*
X16686Y18233D1*
X16662Y18203D1*
X16639Y18173D1*
X16618Y18143D1*
X16597Y18113D1*
X16576Y18083D1*
X17026Y18443D2*
X17011Y18413D1*
X16994Y18383D1*
X16975Y18353D1*
X16955Y18323D1*
X16932Y18293D1*
X16909Y18263D1*
X16887Y18233D1*
X16866Y18203D1*
X16842Y18173D1*
X16819Y18143D1*
X16798Y18113D1*
X16777Y18083D1*
X16756Y18053D1*
X16738Y18023D1*
X16723Y17993D1*
X16711Y17963D1*
X16715Y17933D1*
X16725Y17903D1*
X16741Y17873D1*
X16762Y17843D1*
X16784Y17813D1*
X16805Y17783D1*
X16827Y17753D1*
X16850Y17723D1*
X16873Y17693D1*
X16895Y17663D1*
X16916Y17633D1*
X16940Y17603D1*
X16963Y17573D1*
X16985Y17543D1*
X17005Y17513D1*
X17026Y17483D1*
X17176Y18443D2*
Y18413D1*
Y18383D1*
Y18353D1*
Y18323D1*
Y18293D1*
X18136Y18443D2*
Y18413D1*
Y18383D1*
Y18353D1*
Y18323D1*
Y18293D1*
Y18263D1*
Y18233D1*
Y18203D1*
Y18173D1*
Y18143D1*
Y18113D1*
Y18083D1*
Y18053D1*
Y18023D1*
Y17993D1*
Y17963D1*
Y17933D1*
Y17903D1*
Y17873D1*
Y17843D1*
Y17813D1*
Y17783D1*
Y17753D1*
Y17723D1*
Y17693D1*
Y17663D1*
Y17633D1*
Y17603D1*
Y17573D1*
Y17543D1*
Y17513D1*
Y17483D1*
X18886Y18443D2*
Y18413D1*
Y18383D1*
Y18353D1*
Y18323D1*
Y18293D1*
X28336Y18443D2*
Y18413D1*
Y18383D1*
Y18353D1*
Y18323D1*
Y18293D1*
Y18263D1*
Y18233D1*
Y18203D1*
Y18173D1*
Y18143D1*
Y18113D1*
Y18083D1*
Y18053D1*
Y18023D1*
Y17993D1*
Y17963D1*
Y17933D1*
Y17903D1*
Y17873D1*
Y17843D1*
Y17813D1*
Y17783D1*
Y17753D1*
Y17723D1*
Y17693D1*
X28338Y17663D1*
X28343Y17633D1*
X28371Y17603D1*
X28455Y17573D1*
X28570Y17543D1*
X28710Y17513D1*
X28862Y17483D1*
X29018Y17453D1*
X29179Y17423D1*
X29343Y17393D1*
X29506Y17363D1*
X29665Y17333D1*
X29822Y17303D1*
X29979Y17273D1*
X30137Y17243D1*
X30298Y17213D1*
X30460Y17183D1*
X30623Y17153D1*
X30785Y17123D1*
X30945Y17093D1*
X31104Y17063D1*
X31255Y17033D1*
X31384Y17003D1*
X31480Y16973D1*
X31545Y16943D1*
X31594Y16913D1*
X31615Y16883D1*
X31627Y16853D1*
X31632Y16823D1*
X31635Y16793D1*
X31636Y16763D1*
Y16733D1*
Y16703D1*
Y16673D1*
Y16643D1*
Y16613D1*
Y16583D1*
Y16553D1*
Y16523D1*
Y16493D1*
Y16463D1*
Y16433D1*
Y16403D1*
Y16373D1*
Y16343D1*
Y16313D1*
Y16283D1*
Y16253D1*
Y16223D1*
Y16193D1*
Y16163D1*
Y16133D1*
Y16103D1*
Y16073D1*
Y16043D1*
Y16013D1*
Y15983D1*
Y15953D1*
Y15923D1*
Y15893D1*
Y15863D1*
Y15833D1*
Y15803D1*
Y15773D1*
Y15743D1*
Y15713D1*
Y15683D1*
Y15653D1*
Y15623D1*
Y15593D1*
Y15563D1*
Y15533D1*
Y15503D1*
Y15473D1*
Y15443D1*
Y15413D1*
Y15383D1*
Y15353D1*
Y15323D1*
Y15293D1*
Y15263D1*
Y15233D1*
Y15203D1*
Y15173D1*
Y15143D1*
Y15113D1*
Y15083D1*
Y15053D1*
Y15023D1*
Y14993D1*
Y14963D1*
Y14933D1*
Y14903D1*
Y14873D1*
Y14843D1*
Y14813D1*
Y14783D1*
Y14753D1*
Y14723D1*
Y14693D1*
Y14663D1*
Y14633D1*
Y14603D1*
Y14573D1*
Y14543D1*
Y14513D1*
Y14483D1*
Y14453D1*
Y14423D1*
Y14393D1*
Y14363D1*
Y14333D1*
Y14303D1*
Y14273D1*
Y14243D1*
Y14213D1*
Y14183D1*
Y14153D1*
Y14123D1*
Y14093D1*
Y14063D1*
Y14033D1*
Y14003D1*
Y13973D1*
Y13943D1*
Y13913D1*
Y13883D1*
Y13853D1*
Y13823D1*
Y13793D1*
Y13763D1*
Y13733D1*
Y13703D1*
Y13673D1*
Y13643D1*
Y13613D1*
Y13583D1*
Y13553D1*
Y13523D1*
Y13493D1*
Y13463D1*
Y13433D1*
Y13403D1*
Y13373D1*
Y13343D1*
X31635Y13313D1*
X31630Y13283D1*
X31620Y13253D1*
X31589Y13223D1*
X31536Y13193D1*
X31451Y13163D1*
X31336Y13133D1*
X31199Y13103D1*
X31048Y13073D1*
X30889Y13043D1*
X30727Y13013D1*
X30564Y12983D1*
X30404Y12953D1*
X30249Y12923D1*
X30093Y12893D1*
X29933Y12863D1*
X29772Y12833D1*
X29612Y12803D1*
X29450Y12773D1*
X29288Y12743D1*
X29127Y12713D1*
X28967Y12683D1*
X28806Y12653D1*
X28648Y12623D1*
X28495Y12593D1*
X28358Y12563D1*
X28249Y12533D1*
X28171Y12503D1*
X28120Y12473D1*
X28087Y12443D1*
X28064Y12413D1*
X28046Y12383D1*
X28030Y12353D1*
X28018Y12323D1*
X28007Y12293D1*
X27995Y12263D1*
X27982Y12233D1*
X27969Y12203D1*
X27957Y12173D1*
X27947Y12143D1*
X27935Y12113D1*
X27922Y12083D1*
X27908Y12053D1*
X27893Y12023D1*
X27880Y11993D1*
X27868Y11963D1*
X27857Y11933D1*
X27845Y11903D1*
X27832Y11873D1*
X27819Y11843D1*
X27807Y11813D1*
X27797Y11783D1*
X27786Y11753D1*
X27776Y11723D1*
X27766Y11693D1*
X27755Y11663D1*
X27742Y11633D1*
X27728Y11603D1*
X27713Y11573D1*
X27700Y11543D1*
X27688Y11513D1*
X27677Y11483D1*
X27666Y11453D1*
X27656Y11423D1*
X27646Y11393D1*
X27635Y11363D1*
X27622Y11333D1*
X27608Y11303D1*
X27593Y11273D1*
X27580Y11243D1*
X27568Y11213D1*
X27557Y11183D1*
X27545Y11153D1*
X27532Y11123D1*
X27519Y11093D1*
X27507Y11063D1*
X27497Y11033D1*
X27485Y11003D1*
X27472Y10973D1*
X27459Y10943D1*
X27447Y10913D1*
X27437Y10883D1*
X27425Y10853D1*
X27412Y10823D1*
X27399Y10793D1*
X27387Y10763D1*
X27377Y10733D1*
X27366Y10703D1*
X27356Y10673D1*
X27346Y10643D1*
X27335Y10613D1*
X27322Y10583D1*
X27309Y10553D1*
X27297Y10523D1*
X27287Y10493D1*
X27275Y10463D1*
X27262Y10433D1*
X27249Y10403D1*
X27237Y10373D1*
X27227Y10343D1*
X27215Y10313D1*
X27202Y10283D1*
X27188Y10253D1*
X27173Y10223D1*
X27160Y10193D1*
X27148Y10163D1*
X27137Y10133D1*
X27125Y10103D1*
X27112Y10073D1*
X27099Y10043D1*
X27087Y10013D1*
X27077Y9983D1*
X27065Y9953D1*
X27052Y9923D1*
X27039Y9893D1*
X27027Y9863D1*
X27017Y9833D1*
X27006Y9803D1*
X26997Y9773D1*
X26991Y9743D1*
X26990Y9713D1*
X26992Y9683D1*
X27000Y9653D1*
X27012Y9623D1*
X27029Y9593D1*
X27047Y9563D1*
X27066Y9533D1*
X27086Y9503D1*
X27106Y9473D1*
X27126Y9443D1*
X27146Y9413D1*
X27166Y9383D1*
X27186Y9353D1*
X27206Y9323D1*
X27226Y9293D1*
X27246Y9263D1*
X27267Y9233D1*
X27290Y9203D1*
X27313Y9173D1*
X27335Y9143D1*
X27355Y9113D1*
X27376Y9083D1*
X27396Y9053D1*
X27416Y9023D1*
X27436Y8993D1*
X27456Y8963D1*
X27476Y8933D1*
X27496Y8903D1*
X27516Y8873D1*
X27537Y8843D1*
X27560Y8813D1*
X27583Y8783D1*
X27604Y8753D1*
X27622Y8723D1*
X27639Y8693D1*
X27658Y8663D1*
X27681Y8633D1*
X27704Y8603D1*
X27725Y8573D1*
X27745Y8543D1*
X27766Y8513D1*
X27786Y8483D1*
X27806Y8453D1*
X27826Y8423D1*
X27846Y8393D1*
X27867Y8363D1*
X27890Y8333D1*
X27913Y8303D1*
X27934Y8273D1*
X27952Y8243D1*
X27969Y8213D1*
X27988Y8183D1*
X28011Y8153D1*
X28034Y8123D1*
X28055Y8093D1*
X28075Y8063D1*
X28096Y8033D1*
X28116Y8003D1*
X28136Y7973D1*
X28156Y7943D1*
X28176Y7913D1*
X28196Y7883D1*
X28216Y7853D1*
X28236Y7823D1*
X28256Y7793D1*
X28276Y7763D1*
X28296Y7733D1*
X28316Y7703D1*
X28336Y7673D1*
X28356Y7643D1*
X28377Y7613D1*
X28400Y7583D1*
X28423Y7553D1*
X28445Y7523D1*
X28465Y7493D1*
X28486Y7463D1*
X28506Y7433D1*
X28526Y7403D1*
X28546Y7373D1*
X28566Y7343D1*
X28586Y7313D1*
X28606Y7283D1*
X28626Y7253D1*
X28646Y7223D1*
X28666Y7193D1*
X28686Y7163D1*
X28707Y7133D1*
X28730Y7103D1*
X28753Y7073D1*
X28775Y7043D1*
X28795Y7013D1*
X28816Y6983D1*
X28836Y6953D1*
X28856Y6923D1*
X28875Y6893D1*
X28891Y6863D1*
X28904Y6833D1*
X28914Y6803D1*
X28922Y6773D1*
X28919Y6743D1*
X28913Y6713D1*
X28904Y6683D1*
X28889Y6653D1*
X28869Y6623D1*
X28843Y6593D1*
X28815Y6563D1*
X28786Y6533D1*
X28756Y6503D1*
X28726Y6473D1*
X28696Y6443D1*
X28666Y6413D1*
X28636Y6383D1*
X28606Y6353D1*
X28576Y6323D1*
X28546Y6293D1*
X28516Y6263D1*
X28486Y6233D1*
X28456Y6203D1*
X28426Y6173D1*
X28396Y6143D1*
X28366Y6113D1*
X28336Y6083D1*
X28306Y6053D1*
X28276Y6023D1*
X28246Y5993D1*
X28216Y5963D1*
X28186Y5933D1*
X28156Y5903D1*
X28126Y5873D1*
X28096Y5843D1*
X28066Y5813D1*
X28036Y5783D1*
X28006Y5753D1*
X27976Y5723D1*
X27946Y5693D1*
X27916Y5663D1*
X27886Y5633D1*
X27856Y5603D1*
X27826Y5573D1*
X27796Y5543D1*
X27766Y5513D1*
X27736Y5483D1*
X27706Y5453D1*
X27676Y5423D1*
X27646Y5393D1*
X27616Y5363D1*
X27586Y5333D1*
X27556Y5303D1*
X27526Y5273D1*
X27496Y5243D1*
X27466Y5213D1*
X27436Y5183D1*
X27406Y5153D1*
X27376Y5123D1*
X27346Y5093D1*
X27316Y5063D1*
X27286Y5033D1*
X27256Y5003D1*
X27226Y4973D1*
X27196Y4943D1*
X27166Y4913D1*
X27136Y4883D1*
X27106Y4853D1*
X27076Y4823D1*
X27046Y4793D1*
X27016Y4763D1*
X26986Y4733D1*
X26956Y4703D1*
X26926Y4673D1*
X26896Y4643D1*
X26866Y4613D1*
X26836Y4583D1*
X26806Y4553D1*
X26776Y4523D1*
X26746Y4493D1*
X26716Y4463D1*
X26686Y4433D1*
X26656Y4403D1*
X26626Y4373D1*
X26596Y4343D1*
X26566Y4313D1*
X26536Y4283D1*
X26506Y4253D1*
X26476Y4223D1*
X26446Y4193D1*
X26416Y4163D1*
X26386Y4133D1*
X28486Y18443D2*
Y18413D1*
Y18383D1*
Y18353D1*
Y18323D1*
Y18293D1*
X29446Y18443D2*
Y18413D1*
Y18383D1*
Y18353D1*
Y18323D1*
Y18293D1*
Y18263D1*
Y18233D1*
Y18203D1*
Y18173D1*
Y18143D1*
Y18113D1*
Y18083D1*
Y18053D1*
Y18023D1*
Y17993D1*
Y17963D1*
Y17933D1*
Y17903D1*
Y17873D1*
Y17843D1*
Y17813D1*
Y17783D1*
Y17753D1*
Y17723D1*
Y17693D1*
Y17663D1*
Y17633D1*
Y17603D1*
Y17573D1*
Y17543D1*
Y17513D1*
Y17483D1*
X29626Y18443D2*
Y18413D1*
Y18383D1*
Y18353D1*
Y18323D1*
Y18293D1*
Y18263D1*
Y18233D1*
Y18203D1*
Y18173D1*
Y18143D1*
Y18113D1*
Y18083D1*
Y18053D1*
Y18023D1*
Y17993D1*
Y17963D1*
Y17933D1*
Y17903D1*
Y17873D1*
Y17843D1*
Y17813D1*
Y17783D1*
Y17753D1*
Y17723D1*
Y17693D1*
Y17663D1*
Y17633D1*
Y17603D1*
Y17573D1*
Y17543D1*
Y17513D1*
Y17483D1*
X30556Y18443D2*
Y18413D1*
Y18383D1*
Y18353D1*
Y18323D1*
Y18293D1*
X30736Y18443D2*
Y18413D1*
Y18383D1*
Y18353D1*
Y18323D1*
Y18293D1*
Y18263D1*
Y18233D1*
Y18203D1*
Y18173D1*
Y18143D1*
Y18113D1*
Y18083D1*
Y18053D1*
Y18023D1*
Y17993D1*
Y17963D1*
Y17933D1*
Y17903D1*
Y17873D1*
Y17843D1*
Y17813D1*
Y17783D1*
Y17753D1*
Y17723D1*
Y17693D1*
Y17663D1*
Y17633D1*
Y17603D1*
Y17573D1*
Y17543D1*
Y17513D1*
Y17483D1*
X30886Y18443D2*
Y18413D1*
Y18383D1*
Y18353D1*
Y18323D1*
Y18293D1*
Y18263D1*
Y18233D1*
Y18203D1*
Y18173D1*
Y18143D1*
Y18113D1*
Y18083D1*
Y18053D1*
Y18023D1*
X31546Y18443D2*
Y18413D1*
Y18383D1*
Y18353D1*
Y18323D1*
Y18293D1*
Y18263D1*
Y18233D1*
Y18203D1*
Y18173D1*
Y18143D1*
Y18113D1*
Y18083D1*
Y18053D1*
Y18023D1*
X31696Y18443D2*
Y18413D1*
Y18383D1*
Y18353D1*
Y18323D1*
Y18293D1*
Y18263D1*
Y18233D1*
Y18203D1*
Y18173D1*
Y18143D1*
Y18113D1*
Y18083D1*
Y18053D1*
Y18023D1*
Y17993D1*
Y17963D1*
Y17933D1*
Y17903D1*
Y17873D1*
Y17843D1*
Y17813D1*
Y17783D1*
Y17753D1*
Y17723D1*
Y17693D1*
Y17663D1*
Y17633D1*
Y17603D1*
Y17573D1*
Y17543D1*
Y17513D1*
Y17483D1*
X32446Y18443D2*
Y18413D1*
Y18383D1*
Y18353D1*
Y18323D1*
Y18293D1*
Y18263D1*
Y18233D1*
Y18203D1*
Y18173D1*
Y18143D1*
Y18113D1*
Y18083D1*
Y18053D1*
Y18023D1*
Y17993D1*
Y17963D1*
Y17933D1*
Y17903D1*
Y17873D1*
X33406Y18443D2*
Y18413D1*
Y18383D1*
Y18353D1*
Y18323D1*
Y18293D1*
Y18263D1*
Y18233D1*
Y18203D1*
Y18173D1*
Y18143D1*
Y18113D1*
Y18083D1*
Y18053D1*
Y18023D1*
Y17993D1*
Y17963D1*
Y17933D1*
Y17903D1*
Y17873D1*
Y17843D1*
Y17813D1*
Y17783D1*
Y17753D1*
Y17723D1*
Y17693D1*
Y17663D1*
Y17633D1*
Y17603D1*
Y17573D1*
Y17543D1*
Y17513D1*
Y17483D1*
X33556Y18443D2*
Y18413D1*
Y18383D1*
Y18353D1*
Y18323D1*
Y18293D1*
X34516Y18443D2*
Y18413D1*
Y18383D1*
Y18353D1*
Y18323D1*
Y18293D1*
Y18263D1*
Y18233D1*
Y18203D1*
Y18173D1*
Y18143D1*
Y18113D1*
Y18083D1*
Y18053D1*
Y18023D1*
Y17993D1*
Y17963D1*
Y17933D1*
Y17903D1*
Y17873D1*
Y17843D1*
Y17813D1*
Y17783D1*
Y17753D1*
Y17723D1*
Y17693D1*
Y17663D1*
Y17633D1*
Y17603D1*
Y17573D1*
Y17543D1*
Y17513D1*
Y17483D1*
X34666Y18443D2*
Y18413D1*
Y18383D1*
Y18353D1*
Y18323D1*
Y18293D1*
X35626Y18443D2*
Y18413D1*
Y18383D1*
Y18353D1*
Y18323D1*
Y18293D1*
Y18263D1*
Y18233D1*
Y18203D1*
Y18173D1*
Y18143D1*
Y18113D1*
Y18083D1*
Y18053D1*
Y18023D1*
Y17993D1*
Y17963D1*
Y17933D1*
Y17903D1*
Y17873D1*
Y17843D1*
Y17813D1*
Y17783D1*
Y17753D1*
Y17723D1*
Y17693D1*
Y17663D1*
Y17633D1*
Y17603D1*
Y17573D1*
Y17543D1*
Y17513D1*
Y17483D1*
X35776Y18443D2*
Y18413D1*
Y18383D1*
Y18353D1*
Y18323D1*
Y18293D1*
Y18263D1*
Y18233D1*
Y18203D1*
Y18173D1*
Y18143D1*
Y18113D1*
Y18083D1*
Y18053D1*
Y18023D1*
Y17993D1*
Y17963D1*
Y17933D1*
Y17903D1*
Y17873D1*
Y17843D1*
Y17813D1*
Y17783D1*
Y17753D1*
Y17723D1*
Y17693D1*
Y17663D1*
Y17633D1*
Y17603D1*
Y17573D1*
Y17543D1*
Y17513D1*
Y17483D1*
X35926Y18443D2*
Y18413D1*
Y18383D1*
Y18353D1*
Y18323D1*
Y18293D1*
Y18263D1*
Y18233D1*
Y18203D1*
Y18173D1*
Y18143D1*
Y18113D1*
Y18083D1*
Y18053D1*
Y18023D1*
Y17993D1*
Y17963D1*
Y17933D1*
Y17903D1*
Y17873D1*
Y17843D1*
Y17813D1*
Y17783D1*
Y17753D1*
Y17723D1*
Y17693D1*
Y17663D1*
Y17633D1*
X36586Y18443D2*
Y18413D1*
Y18383D1*
Y18353D1*
Y18323D1*
Y18293D1*
Y18263D1*
Y18233D1*
Y18203D1*
Y18173D1*
Y18143D1*
Y18113D1*
Y18083D1*
Y18053D1*
Y18023D1*
Y17993D1*
Y17963D1*
Y17933D1*
Y17903D1*
Y17873D1*
Y17843D1*
Y17813D1*
Y17783D1*
Y17753D1*
Y17723D1*
Y17693D1*
Y17663D1*
Y17633D1*
X36736Y18443D2*
Y18413D1*
Y18383D1*
Y18353D1*
Y18323D1*
Y18293D1*
Y18263D1*
Y18233D1*
Y18203D1*
Y18173D1*
Y18143D1*
Y18113D1*
Y18083D1*
Y18053D1*
Y18023D1*
Y17993D1*
Y17963D1*
Y17933D1*
Y17903D1*
Y17873D1*
Y17843D1*
Y17813D1*
Y17783D1*
Y17753D1*
Y17723D1*
Y17693D1*
Y17663D1*
Y17633D1*
Y17603D1*
Y17573D1*
Y17543D1*
Y17513D1*
Y17483D1*
X36916Y18443D2*
Y18413D1*
Y18383D1*
Y18353D1*
Y18323D1*
Y18293D1*
Y18263D1*
Y18233D1*
Y18203D1*
Y18173D1*
Y18143D1*
Y18113D1*
Y18083D1*
Y18053D1*
Y18023D1*
Y17993D1*
Y17963D1*
Y17933D1*
Y17903D1*
Y17873D1*
Y17843D1*
Y17813D1*
Y17783D1*
Y17753D1*
Y17723D1*
Y17693D1*
Y17663D1*
Y17633D1*
Y17603D1*
Y17573D1*
Y17543D1*
Y17513D1*
Y17483D1*
X37876Y18443D2*
Y18413D1*
Y18383D1*
Y18353D1*
Y18323D1*
Y18293D1*
Y18263D1*
Y18233D1*
Y18203D1*
Y18173D1*
Y18143D1*
Y18113D1*
Y18083D1*
Y18053D1*
Y18023D1*
Y17993D1*
Y17963D1*
Y17933D1*
Y17903D1*
Y17873D1*
Y17843D1*
Y17813D1*
Y17783D1*
Y17753D1*
Y17723D1*
Y17693D1*
Y17663D1*
Y17633D1*
Y17603D1*
Y17573D1*
Y17543D1*
Y17513D1*
Y17483D1*
X38026Y18443D2*
Y18413D1*
Y18383D1*
Y18353D1*
Y18323D1*
Y18293D1*
X38986Y18443D2*
Y18413D1*
Y18383D1*
Y18353D1*
Y18323D1*
Y18293D1*
Y18263D1*
Y18233D1*
Y18203D1*
Y18173D1*
Y18143D1*
Y18113D1*
Y18083D1*
Y18053D1*
Y18023D1*
Y17993D1*
Y17963D1*
Y17933D1*
Y17903D1*
Y17873D1*
X39136Y18443D2*
Y18413D1*
Y18383D1*
Y18353D1*
Y18323D1*
Y18293D1*
Y18263D1*
Y18233D1*
Y18203D1*
Y18173D1*
Y18143D1*
Y18113D1*
Y18083D1*
Y18053D1*
Y18023D1*
Y17993D1*
Y17963D1*
Y17933D1*
Y17903D1*
Y17873D1*
Y17843D1*
Y17813D1*
Y17783D1*
Y17753D1*
Y17723D1*
Y17693D1*
Y17663D1*
Y17633D1*
Y17603D1*
Y17573D1*
Y17543D1*
Y17513D1*
Y17483D1*
X40096Y18443D2*
Y18413D1*
Y18383D1*
Y18353D1*
Y18323D1*
Y18293D1*
Y18263D1*
Y18233D1*
Y18203D1*
Y18173D1*
Y18143D1*
Y18113D1*
Y18083D1*
Y18053D1*
Y18023D1*
Y17993D1*
Y17963D1*
Y17933D1*
Y17903D1*
Y17873D1*
Y17843D1*
Y17813D1*
Y17783D1*
Y17753D1*
Y17723D1*
Y17693D1*
Y17663D1*
Y17633D1*
Y17603D1*
Y17573D1*
Y17543D1*
Y17513D1*
Y17483D1*
X40276Y18443D2*
Y18413D1*
Y18383D1*
Y18353D1*
Y18323D1*
Y18293D1*
Y18263D1*
Y18233D1*
Y18203D1*
Y18173D1*
Y18143D1*
Y18113D1*
Y18083D1*
Y18053D1*
Y18023D1*
Y17993D1*
Y17963D1*
Y17933D1*
Y17903D1*
Y17873D1*
X41206Y18443D2*
Y18413D1*
Y18383D1*
Y18353D1*
Y18323D1*
Y18293D1*
Y18263D1*
Y18233D1*
Y18203D1*
Y18173D1*
Y18143D1*
Y18113D1*
Y18083D1*
Y18053D1*
Y18023D1*
Y17993D1*
Y17963D1*
Y17933D1*
Y17903D1*
Y17873D1*
Y17843D1*
Y17813D1*
Y17783D1*
Y17753D1*
Y17723D1*
Y17693D1*
Y17663D1*
Y17633D1*
Y17603D1*
Y17573D1*
Y17543D1*
Y17513D1*
Y17483D1*
X41386Y18443D2*
Y18413D1*
Y18383D1*
Y18353D1*
Y18323D1*
Y18293D1*
Y18263D1*
Y18233D1*
Y18203D1*
Y18173D1*
Y18143D1*
Y18113D1*
Y18083D1*
Y18053D1*
Y18023D1*
Y17993D1*
Y17963D1*
Y17933D1*
Y17903D1*
Y17873D1*
Y17843D1*
Y17813D1*
Y17783D1*
Y17753D1*
Y17723D1*
Y17693D1*
Y17663D1*
Y17633D1*
Y17603D1*
Y17573D1*
Y17543D1*
Y17513D1*
Y17483D1*
X42346Y18443D2*
Y18413D1*
Y18383D1*
Y18353D1*
Y18323D1*
Y18293D1*
Y18263D1*
Y18233D1*
Y18203D1*
Y18173D1*
Y18143D1*
Y18113D1*
Y18083D1*
Y18053D1*
Y18023D1*
Y17993D1*
Y17963D1*
Y17933D1*
Y17903D1*
Y17873D1*
Y17843D1*
Y17813D1*
Y17783D1*
Y17753D1*
Y17723D1*
Y17693D1*
Y17663D1*
Y17633D1*
Y17603D1*
Y17573D1*
Y17543D1*
Y17513D1*
Y17483D1*
Y17453D1*
Y17423D1*
Y17393D1*
Y17363D1*
Y17333D1*
Y17303D1*
Y17273D1*
Y17243D1*
Y17213D1*
X42496Y18443D2*
Y18413D1*
Y18383D1*
Y18353D1*
Y18323D1*
Y18293D1*
Y18263D1*
Y18233D1*
Y18203D1*
Y18173D1*
Y18143D1*
Y18113D1*
Y18083D1*
Y18053D1*
Y18023D1*
Y17993D1*
Y17963D1*
Y17933D1*
Y17903D1*
Y17873D1*
Y17843D1*
Y17813D1*
Y17783D1*
Y17753D1*
Y17723D1*
Y17693D1*
Y17663D1*
Y17633D1*
Y17603D1*
Y17573D1*
Y17543D1*
Y17513D1*
Y17483D1*
X43456Y18443D2*
Y18413D1*
Y18383D1*
Y18353D1*
Y18323D1*
Y18293D1*
Y18263D1*
Y18233D1*
Y18203D1*
Y18173D1*
Y18143D1*
Y18113D1*
Y18083D1*
Y18053D1*
Y18023D1*
Y17993D1*
Y17963D1*
Y17933D1*
Y17903D1*
Y17873D1*
Y17843D1*
Y17813D1*
Y17783D1*
Y17753D1*
Y17723D1*
Y17693D1*
Y17663D1*
Y17633D1*
Y17603D1*
Y17573D1*
Y17543D1*
Y17513D1*
Y17483D1*
X9016Y18443D2*
Y18413D1*
Y18383D1*
Y18353D1*
Y18323D1*
Y18293D1*
Y18263D1*
Y18233D1*
Y18203D1*
Y18173D1*
Y18143D1*
Y18113D1*
Y18083D1*
Y18053D1*
Y18023D1*
Y17993D1*
Y17963D1*
Y17933D1*
Y17903D1*
Y17873D1*
Y17843D1*
Y17813D1*
Y17783D1*
Y17753D1*
Y17723D1*
Y17693D1*
Y17663D1*
Y17633D1*
Y17603D1*
Y17573D1*
Y17543D1*
Y17513D1*
Y17483D1*
X9166Y17453D1*
X10006Y18443D2*
Y18413D1*
Y18383D1*
Y18353D1*
Y18323D1*
Y18293D1*
Y18263D1*
Y18233D1*
Y18203D1*
Y18173D1*
Y18143D1*
Y18113D1*
Y18083D1*
Y18053D1*
Y18023D1*
Y17993D1*
Y17963D1*
Y17933D1*
Y17903D1*
Y17873D1*
Y17843D1*
Y17813D1*
Y17783D1*
Y17753D1*
Y17723D1*
Y17693D1*
Y17663D1*
Y17633D1*
Y17603D1*
Y17573D1*
Y17543D1*
Y17513D1*
Y17483D1*
X9856Y17453D1*
X10126Y18443D2*
Y18413D1*
Y18383D1*
Y18353D1*
Y18323D1*
Y18293D1*
Y18263D1*
Y18233D1*
Y18203D1*
Y18173D1*
Y18143D1*
Y18113D1*
Y18083D1*
Y18053D1*
Y18023D1*
Y17993D1*
Y17963D1*
Y17933D1*
Y17903D1*
Y17873D1*
X11116Y18443D2*
Y18413D1*
Y18383D1*
Y18353D1*
Y18323D1*
Y18293D1*
Y18263D1*
Y18233D1*
Y18203D1*
Y18173D1*
Y18143D1*
Y18113D1*
Y18083D1*
Y18053D1*
Y18023D1*
Y17993D1*
Y17963D1*
Y17933D1*
Y17903D1*
Y17873D1*
Y17843D1*
Y17813D1*
Y17783D1*
Y17753D1*
Y17723D1*
Y17693D1*
Y17663D1*
Y17633D1*
Y17603D1*
Y17573D1*
Y17543D1*
Y17513D1*
Y17483D1*
Y17453D1*
X11266Y18443D2*
Y18413D1*
Y18383D1*
Y18353D1*
Y18323D1*
Y18293D1*
Y18263D1*
Y18233D1*
Y18203D1*
Y18173D1*
Y18143D1*
Y18113D1*
Y18083D1*
Y18053D1*
Y18023D1*
Y17993D1*
Y17963D1*
Y17933D1*
Y17903D1*
Y17873D1*
Y17843D1*
Y17813D1*
Y17783D1*
Y17753D1*
Y17723D1*
Y17693D1*
Y17663D1*
Y17633D1*
Y17603D1*
X11267Y17573D1*
X11268Y17543D1*
X11282Y17513D1*
X11329Y17483D1*
X11386Y17453D1*
X12316Y18443D2*
Y18413D1*
Y18383D1*
Y18353D1*
Y18323D1*
Y18293D1*
Y18263D1*
Y18233D1*
Y18203D1*
Y18173D1*
Y18143D1*
Y18113D1*
Y18083D1*
Y18053D1*
Y18023D1*
Y17993D1*
Y17963D1*
Y17933D1*
Y17903D1*
Y17873D1*
Y17843D1*
Y17813D1*
Y17783D1*
Y17753D1*
Y17723D1*
Y17693D1*
Y17663D1*
Y17633D1*
Y17603D1*
Y17573D1*
X12314Y17543D1*
X12300Y17513D1*
X12253Y17483D1*
X12196Y17453D1*
X12466Y18443D2*
Y18413D1*
Y18383D1*
Y18353D1*
Y18323D1*
Y18293D1*
Y18263D1*
Y18233D1*
Y18203D1*
Y18173D1*
Y18143D1*
Y18113D1*
Y18083D1*
Y18053D1*
Y18023D1*
Y17993D1*
Y17963D1*
Y17933D1*
Y17903D1*
Y17873D1*
Y17843D1*
Y17813D1*
Y17783D1*
Y17753D1*
Y17723D1*
Y17693D1*
Y17663D1*
Y17633D1*
Y17603D1*
X12467Y17573D1*
X12468Y17543D1*
X12482Y17513D1*
X12529Y17483D1*
X12586Y17453D1*
X12616Y18443D2*
Y18413D1*
Y18383D1*
Y18353D1*
Y18323D1*
Y18293D1*
Y18263D1*
Y18233D1*
Y18203D1*
Y18173D1*
Y18143D1*
Y18113D1*
Y18083D1*
Y18053D1*
Y18023D1*
Y17993D1*
Y17963D1*
Y17933D1*
Y17903D1*
Y17873D1*
Y17843D1*
Y17813D1*
Y17783D1*
Y17753D1*
Y17723D1*
Y17693D1*
Y17663D1*
Y17633D1*
Y17603D1*
Y17573D1*
X12614Y17543D1*
X12600Y17513D1*
X12553Y17483D1*
X12496Y17453D1*
X12766Y18443D2*
Y18413D1*
Y18383D1*
Y18353D1*
Y18323D1*
Y18293D1*
Y18263D1*
X13726Y18443D2*
Y18413D1*
Y18383D1*
Y18353D1*
Y18323D1*
Y18293D1*
Y18263D1*
Y18233D1*
Y18203D1*
Y18173D1*
Y18143D1*
Y18113D1*
Y18083D1*
Y18053D1*
Y18023D1*
Y17993D1*
Y17963D1*
Y17933D1*
Y17903D1*
Y17873D1*
Y17843D1*
Y17813D1*
Y17783D1*
Y17753D1*
Y17723D1*
Y17693D1*
Y17663D1*
Y17633D1*
Y17603D1*
Y17573D1*
X13724Y17543D1*
X13710Y17513D1*
X13663Y17483D1*
X13606Y17453D1*
X13876Y18443D2*
Y18413D1*
Y18383D1*
Y18353D1*
Y18323D1*
Y18293D1*
Y18263D1*
Y18233D1*
Y18203D1*
Y18173D1*
Y18143D1*
Y18113D1*
Y18083D1*
Y18053D1*
Y18023D1*
Y17993D1*
Y17963D1*
Y17933D1*
Y17903D1*
Y17873D1*
X14866Y18443D2*
Y18413D1*
Y18383D1*
Y18353D1*
Y18323D1*
Y18293D1*
Y18263D1*
Y18233D1*
Y18203D1*
Y18173D1*
Y18143D1*
Y18113D1*
Y18083D1*
Y18053D1*
Y18023D1*
Y17993D1*
Y17963D1*
Y17933D1*
Y17903D1*
Y17873D1*
Y17843D1*
Y17813D1*
Y17783D1*
Y17753D1*
Y17723D1*
Y17693D1*
Y17663D1*
Y17633D1*
Y17603D1*
Y17573D1*
Y17543D1*
Y17513D1*
Y17483D1*
Y17453D1*
X14986Y18443D2*
Y18413D1*
Y18383D1*
Y18353D1*
Y18323D1*
Y18293D1*
Y18263D1*
Y18233D1*
Y18203D1*
Y18173D1*
Y18143D1*
Y18113D1*
Y18083D1*
Y18053D1*
Y18023D1*
Y17993D1*
Y17963D1*
Y17933D1*
Y17903D1*
Y17873D1*
Y17843D1*
Y17813D1*
Y17783D1*
Y17753D1*
Y17723D1*
Y17693D1*
Y17663D1*
Y17633D1*
Y17603D1*
Y17573D1*
X14987Y17543D1*
X14991Y17513D1*
X14997Y17483D1*
X15003Y17453D1*
X14996Y17423D1*
X14977Y17393D1*
X14953Y17363D1*
X14930Y17333D1*
X14908Y17303D1*
X14887Y17273D1*
X14866Y17243D1*
X14846Y17213D1*
X14826Y17183D1*
X14806Y17153D1*
X14786Y17123D1*
X14766Y17093D1*
X14746Y17063D1*
X14727Y17033D1*
X14710Y17003D1*
X14693Y16973D1*
X14675Y16943D1*
X14655Y16913D1*
X14637Y16883D1*
X14620Y16853D1*
X14604Y16823D1*
X14589Y16793D1*
X14574Y16763D1*
X14559Y16733D1*
X14544Y16703D1*
X14529Y16673D1*
X14514Y16643D1*
X14500Y16613D1*
X14488Y16583D1*
X14477Y16553D1*
X14465Y16523D1*
X14452Y16493D1*
X14439Y16463D1*
X14427Y16433D1*
X14417Y16403D1*
X14405Y16373D1*
X14392Y16343D1*
X14379Y16313D1*
X14368Y16283D1*
X14361Y16253D1*
X14354Y16223D1*
X14345Y16193D1*
X14335Y16163D1*
X14326Y16133D1*
X14316Y16103D1*
X14306Y16073D1*
X14296Y16043D1*
X14286Y16013D1*
X14277Y15983D1*
X14271Y15953D1*
X14267Y15923D1*
X14262Y15893D1*
X14254Y15863D1*
X14246Y15833D1*
X14241Y15803D1*
X14237Y15773D1*
X14232Y15743D1*
X14224Y15713D1*
X14216Y15683D1*
X14211Y15653D1*
X14208Y15623D1*
X14207Y15593D1*
X14206Y15563D1*
X14205Y15533D1*
X14201Y15503D1*
X14194Y15473D1*
X14186Y15443D1*
X14181Y15413D1*
X14178Y15383D1*
X14177Y15353D1*
X14176Y15323D1*
Y15293D1*
Y15263D1*
Y15233D1*
Y15203D1*
Y15173D1*
Y15143D1*
Y15113D1*
Y15083D1*
Y15053D1*
Y15023D1*
Y14993D1*
Y14963D1*
Y14933D1*
Y14903D1*
Y14873D1*
Y14843D1*
Y14813D1*
Y14783D1*
Y14753D1*
X14177Y14723D1*
X14181Y14693D1*
X14188Y14663D1*
X14196Y14633D1*
X14201Y14603D1*
X14204Y14573D1*
X14205Y14543D1*
X14206Y14513D1*
X14207Y14483D1*
X14211Y14453D1*
X14218Y14423D1*
X14226Y14393D1*
X14232Y14363D1*
X14239Y14333D1*
X14247Y14303D1*
X14256Y14273D1*
X14261Y14243D1*
X14265Y14213D1*
X14270Y14183D1*
X14278Y14153D1*
X14286Y14123D1*
X14292Y14093D1*
X14299Y14063D1*
X14308Y14033D1*
X14317Y14003D1*
X14326Y13973D1*
X14336Y13943D1*
X14346Y13913D1*
X14356Y13883D1*
X14366Y13853D1*
X14376Y13823D1*
X14386Y13793D1*
X14396Y13763D1*
X14406Y13733D1*
X14416Y13703D1*
X14427Y13673D1*
X14440Y13643D1*
X14454Y13613D1*
X14469Y13583D1*
X14483Y13553D1*
X14495Y13523D1*
X14505Y13493D1*
X14517Y13463D1*
X14530Y13433D1*
X14544Y13403D1*
X14559Y13373D1*
X14574Y13343D1*
X14589Y13313D1*
X14604Y13283D1*
X14620Y13253D1*
X14638Y13223D1*
X14657Y13193D1*
X14675Y13163D1*
X14692Y13133D1*
X14709Y13103D1*
X14727Y13073D1*
X14747Y13043D1*
X14766Y13013D1*
X14786Y12983D1*
X14806Y12953D1*
X14826Y12923D1*
X14846Y12893D1*
X14866Y12863D1*
X14886Y12833D1*
X14907Y12803D1*
X14931Y12773D1*
X14957Y12743D1*
X14982Y12713D1*
X15004Y12683D1*
X15026Y12653D1*
X15051Y12623D1*
X15078Y12593D1*
X15107Y12563D1*
X15135Y12533D1*
X15161Y12503D1*
X15184Y12473D1*
X15206Y12443D1*
X15231Y12413D1*
X15259Y12383D1*
X15292Y12353D1*
X15329Y12323D1*
X15366Y12293D1*
X15401Y12263D1*
X15434Y12233D1*
X15465Y12203D1*
X15497Y12173D1*
X15531Y12143D1*
X15568Y12113D1*
X15606Y12083D1*
X15642Y12053D1*
X15679Y12023D1*
X15719Y11993D1*
X15761Y11963D1*
X15804Y11933D1*
X15849Y11903D1*
X15893Y11873D1*
X15934Y11843D1*
X15971Y11813D1*
X16009Y11783D1*
X16049Y11753D1*
X16092Y11723D1*
X16138Y11693D1*
X16187Y11663D1*
X16236Y11633D1*
X16286Y11603D1*
X16335Y11573D1*
X16380Y11543D1*
X16417Y11513D1*
X16447Y11483D1*
X16470Y11453D1*
X16478Y11423D1*
X16483Y11393D1*
X16485Y11363D1*
X16484Y11333D1*
X16481Y11303D1*
X16474Y11273D1*
X16465Y11243D1*
X16456Y11213D1*
X16445Y11183D1*
X16432Y11153D1*
X16418Y11123D1*
X16403Y11093D1*
X16390Y11063D1*
X16378Y11033D1*
X16367Y11003D1*
X16355Y10973D1*
X16342Y10943D1*
X16329Y10913D1*
X16317Y10883D1*
X16307Y10853D1*
X16295Y10823D1*
X16282Y10793D1*
X16269Y10763D1*
X16257Y10733D1*
X16247Y10703D1*
X16235Y10673D1*
X16222Y10643D1*
X16208Y10613D1*
X16193Y10583D1*
X16180Y10553D1*
X16168Y10523D1*
X16157Y10493D1*
X16145Y10463D1*
X16132Y10433D1*
X16119Y10403D1*
X16107Y10373D1*
X16097Y10343D1*
X16085Y10313D1*
X16072Y10283D1*
X16058Y10253D1*
X16043Y10223D1*
X16030Y10193D1*
X16018Y10163D1*
X16007Y10133D1*
X15995Y10103D1*
X15982Y10073D1*
X15969Y10043D1*
X15957Y10013D1*
X15947Y9983D1*
X15935Y9953D1*
X15922Y9923D1*
X15909Y9893D1*
X15897Y9863D1*
X15887Y9833D1*
X15875Y9803D1*
X15862Y9773D1*
X15848Y9743D1*
X15833Y9713D1*
X15820Y9683D1*
X15808Y9653D1*
X15797Y9623D1*
X15785Y9593D1*
X15772Y9563D1*
X15759Y9533D1*
X15747Y9503D1*
X15737Y9473D1*
X15725Y9443D1*
X15712Y9413D1*
X15698Y9383D1*
X15683Y9353D1*
X15670Y9323D1*
X15658Y9293D1*
X15647Y9263D1*
X15635Y9233D1*
X15622Y9203D1*
X15609Y9173D1*
X15597Y9143D1*
X15587Y9113D1*
X15575Y9083D1*
X15562Y9053D1*
X15548Y9023D1*
X15533Y8993D1*
X15520Y8963D1*
X15508Y8933D1*
X15497Y8903D1*
X15485Y8873D1*
X15472Y8843D1*
X15459Y8813D1*
X15447Y8783D1*
X15437Y8753D1*
X15425Y8723D1*
X15412Y8693D1*
X15399Y8663D1*
X15387Y8633D1*
X15377Y8603D1*
X15365Y8573D1*
X15352Y8543D1*
X15338Y8513D1*
X15323Y8483D1*
X15310Y8453D1*
X15298Y8423D1*
X15287Y8393D1*
X15275Y8363D1*
X15262Y8333D1*
X15249Y8303D1*
X15237Y8273D1*
X15227Y8243D1*
X15215Y8213D1*
X15202Y8183D1*
X15188Y8153D1*
X15173Y8123D1*
X15160Y8093D1*
X15148Y8063D1*
X15137Y8033D1*
X15125Y8003D1*
X15112Y7973D1*
X15099Y7943D1*
X15087Y7913D1*
X15077Y7883D1*
X15065Y7853D1*
X15052Y7823D1*
X15039Y7793D1*
X15027Y7763D1*
X15017Y7733D1*
X15005Y7703D1*
X14992Y7673D1*
X14978Y7643D1*
X14963Y7613D1*
X14950Y7583D1*
X14938Y7553D1*
X14927Y7523D1*
X14915Y7493D1*
X14902Y7463D1*
X14889Y7433D1*
X14877Y7403D1*
X14867Y7373D1*
X14855Y7343D1*
X14842Y7313D1*
X14829Y7283D1*
X14817Y7253D1*
X14807Y7223D1*
X14795Y7193D1*
X14782Y7163D1*
X14768Y7133D1*
X14753Y7103D1*
X14740Y7073D1*
X14728Y7043D1*
X14717Y7013D1*
X14705Y6983D1*
X14692Y6953D1*
X14679Y6923D1*
X14667Y6893D1*
X14657Y6863D1*
X14645Y6833D1*
X14632Y6803D1*
X14618Y6773D1*
X14603Y6743D1*
X14590Y6713D1*
X14578Y6683D1*
X14567Y6653D1*
X14555Y6623D1*
X14542Y6593D1*
X14528Y6563D1*
X14513Y6533D1*
X14500Y6503D1*
X14488Y6473D1*
X14477Y6443D1*
X14465Y6413D1*
X14452Y6383D1*
X14439Y6353D1*
X14427Y6323D1*
X14417Y6293D1*
X14405Y6263D1*
X14392Y6233D1*
X14379Y6203D1*
X14367Y6173D1*
X14357Y6143D1*
X14345Y6113D1*
X14332Y6083D1*
X14318Y6053D1*
X14303Y6023D1*
X14290Y5993D1*
X14278Y5963D1*
X14267Y5933D1*
X14255Y5903D1*
X14242Y5873D1*
X14229Y5843D1*
X14217Y5813D1*
X14207Y5783D1*
X14195Y5753D1*
X14182Y5723D1*
X14169Y5693D1*
X14157Y5663D1*
X14147Y5633D1*
X14135Y5603D1*
X14122Y5573D1*
X14108Y5543D1*
X14093Y5513D1*
X14079Y5483D1*
X14066Y5453D1*
X14049Y5423D1*
X14022Y5393D1*
X13982Y5363D1*
X13936Y5333D1*
X15976Y18443D2*
Y18413D1*
Y18383D1*
X15975Y18353D1*
X15972Y18323D1*
X15953Y18293D1*
X15926Y18263D1*
X15892Y18233D1*
X15856Y18203D1*
X16156Y18443D2*
X16126Y18413D1*
X16156Y18443D2*
X16186Y18413D1*
X19816Y18443D2*
X19800Y18413D1*
X19786Y18383D1*
X19816Y18443D2*
X19832Y18413D1*
X19846Y18383D1*
X19996Y18443D2*
Y18413D1*
Y18383D1*
X19999Y18353D1*
X20004Y18323D1*
X20026Y18293D1*
X20054Y18263D1*
X20085Y18233D1*
X20116Y18203D1*
X20986Y18443D2*
Y18413D1*
Y18383D1*
Y18353D1*
Y18323D1*
Y18293D1*
Y18263D1*
Y18233D1*
Y18203D1*
Y18173D1*
Y18143D1*
Y18113D1*
Y18083D1*
Y18053D1*
Y18023D1*
Y17993D1*
Y17963D1*
Y17933D1*
Y17903D1*
Y17873D1*
Y17843D1*
Y17813D1*
Y17783D1*
Y17753D1*
Y17723D1*
Y17693D1*
Y17663D1*
Y17633D1*
Y17603D1*
Y17573D1*
X20985Y17543D1*
X20980Y17513D1*
X20970Y17483D1*
X20956Y17453D1*
X20976Y17423D1*
X20997Y17393D1*
X21020Y17363D1*
X21043Y17333D1*
X21065Y17303D1*
X21085Y17273D1*
X21106Y17243D1*
X21126Y17213D1*
X21146Y17183D1*
X21166Y17153D1*
X21186Y17123D1*
X21206Y17093D1*
X21226Y17063D1*
X21245Y17033D1*
X21262Y17003D1*
X21279Y16973D1*
X21297Y16943D1*
X21317Y16913D1*
X21335Y16883D1*
X21352Y16853D1*
X21368Y16823D1*
X21383Y16793D1*
X21399Y16763D1*
X21414Y16733D1*
X21429Y16703D1*
X21443Y16673D1*
X21455Y16643D1*
X21465Y16613D1*
X21477Y16583D1*
X21490Y16553D1*
X21504Y16523D1*
X21519Y16493D1*
X21534Y16463D1*
X21549Y16433D1*
X21563Y16403D1*
X21575Y16373D1*
X21585Y16343D1*
X21596Y16313D1*
X21605Y16283D1*
X21612Y16253D1*
X21619Y16223D1*
X21628Y16193D1*
X21637Y16163D1*
X21646Y16133D1*
X21656Y16103D1*
X21666Y16073D1*
X21676Y16043D1*
X21686Y16013D1*
X21695Y15983D1*
X21701Y15953D1*
X21705Y15923D1*
X21710Y15893D1*
X21718Y15863D1*
X21726Y15833D1*
X21731Y15803D1*
X21735Y15773D1*
X21740Y15743D1*
X21748Y15713D1*
X21756Y15683D1*
X21761Y15653D1*
X21764Y15623D1*
X21765Y15593D1*
X21766Y15563D1*
X21767Y15533D1*
X21771Y15503D1*
X21778Y15473D1*
X21786Y15443D1*
X21791Y15413D1*
X21794Y15383D1*
X21795Y15353D1*
X21796Y15323D1*
Y15293D1*
Y15263D1*
Y15233D1*
Y15203D1*
Y15173D1*
Y15143D1*
Y15113D1*
Y15083D1*
Y15053D1*
Y15023D1*
Y14993D1*
Y14963D1*
Y14933D1*
Y14903D1*
Y14873D1*
Y14843D1*
Y14813D1*
Y14783D1*
Y14753D1*
X21795Y14723D1*
X21791Y14693D1*
X21784Y14663D1*
X21776Y14633D1*
X21771Y14603D1*
X21768Y14573D1*
X21767Y14543D1*
X21766Y14513D1*
X21765Y14483D1*
X21761Y14453D1*
X21754Y14423D1*
X21746Y14393D1*
X21741Y14363D1*
X21737Y14333D1*
X21732Y14303D1*
X21724Y14273D1*
X21716Y14243D1*
X21710Y14213D1*
X21703Y14183D1*
X21695Y14153D1*
X21686Y14123D1*
X21680Y14093D1*
X21673Y14063D1*
X21665Y14033D1*
X21655Y14003D1*
X21646Y13973D1*
X21636Y13943D1*
X21626Y13913D1*
X21616Y13883D1*
X21606Y13853D1*
X21596Y13823D1*
X21586Y13793D1*
X21576Y13763D1*
X21566Y13733D1*
X21556Y13703D1*
X21545Y13673D1*
X21532Y13643D1*
X21518Y13613D1*
X21503Y13583D1*
X21490Y13553D1*
X21478Y13523D1*
X21467Y13493D1*
X21455Y13463D1*
X21442Y13433D1*
X21428Y13403D1*
X21413Y13373D1*
X21398Y13343D1*
X21383Y13313D1*
X21365Y13283D1*
X21345Y13253D1*
X21327Y13223D1*
X21310Y13193D1*
X21294Y13163D1*
X21279Y13133D1*
X21264Y13103D1*
X21249Y13073D1*
X21232Y13043D1*
X21214Y13013D1*
X21191Y12983D1*
X21169Y12953D1*
X21147Y12923D1*
X21127Y12893D1*
X21106Y12863D1*
X21086Y12833D1*
X21065Y12803D1*
X21041Y12773D1*
X21015Y12743D1*
X20990Y12713D1*
X20968Y12683D1*
X20946Y12653D1*
X20921Y12623D1*
X20894Y12593D1*
X20865Y12563D1*
X20837Y12533D1*
X20811Y12503D1*
X20788Y12473D1*
X20766Y12443D1*
X20741Y12413D1*
X20713Y12383D1*
X20680Y12353D1*
X20644Y12323D1*
X20606Y12293D1*
X20571Y12263D1*
X20538Y12233D1*
X20507Y12203D1*
X20475Y12173D1*
X20441Y12143D1*
X20404Y12113D1*
X20366Y12083D1*
X20330Y12053D1*
X20293Y12023D1*
X20254Y11993D1*
X20211Y11963D1*
X20168Y11933D1*
X20123Y11903D1*
X20080Y11873D1*
X20039Y11843D1*
X20001Y11813D1*
X19963Y11783D1*
X19924Y11753D1*
X19880Y11723D1*
X19834Y11693D1*
X19785Y11663D1*
X19736Y11633D1*
X19686Y11603D1*
X19637Y11573D1*
X19592Y11543D1*
X19555Y11513D1*
X19526Y11483D1*
X19503Y11453D1*
X19494Y11423D1*
X19490Y11393D1*
X19488Y11363D1*
Y11333D1*
X19491Y11303D1*
X19500Y11273D1*
X19511Y11243D1*
X19524Y11213D1*
X19535Y11183D1*
X19545Y11153D1*
X19557Y11123D1*
X19570Y11093D1*
X19583Y11063D1*
X19595Y11033D1*
X19605Y11003D1*
X19617Y10973D1*
X19630Y10943D1*
X19643Y10913D1*
X19655Y10883D1*
X19665Y10853D1*
X19677Y10823D1*
X19690Y10793D1*
X19703Y10763D1*
X19715Y10733D1*
X19725Y10703D1*
X19737Y10673D1*
X19750Y10643D1*
X19764Y10613D1*
X19779Y10583D1*
X19793Y10553D1*
X19805Y10523D1*
X19815Y10493D1*
X19827Y10463D1*
X19840Y10433D1*
X19853Y10403D1*
X19865Y10373D1*
X19875Y10343D1*
X19887Y10313D1*
X19900Y10283D1*
X19914Y10253D1*
X19929Y10223D1*
X19943Y10193D1*
X19955Y10163D1*
X19965Y10133D1*
X19977Y10103D1*
X19990Y10073D1*
X20003Y10043D1*
X20015Y10013D1*
X20025Y9983D1*
X20037Y9953D1*
X20050Y9923D1*
X20063Y9893D1*
X20075Y9863D1*
X20085Y9833D1*
X20097Y9803D1*
X20110Y9773D1*
X20123Y9743D1*
X20135Y9713D1*
X20145Y9683D1*
X20157Y9653D1*
X20170Y9623D1*
X20184Y9593D1*
X20199Y9563D1*
X20213Y9533D1*
X20225Y9503D1*
X20235Y9473D1*
X20247Y9443D1*
X20260Y9413D1*
X20273Y9383D1*
X20285Y9353D1*
X20295Y9323D1*
X20307Y9293D1*
X20320Y9263D1*
X20334Y9233D1*
X20349Y9203D1*
X20363Y9173D1*
X20375Y9143D1*
X20385Y9113D1*
X20397Y9083D1*
X20410Y9053D1*
X20423Y9023D1*
X20435Y8993D1*
X20445Y8963D1*
X20457Y8933D1*
X20470Y8903D1*
X20483Y8873D1*
X20495Y8843D1*
X20505Y8813D1*
X20517Y8783D1*
X20530Y8753D1*
X20544Y8723D1*
X20559Y8693D1*
X20573Y8663D1*
X20585Y8633D1*
X20595Y8603D1*
X20607Y8573D1*
X20620Y8543D1*
X20634Y8513D1*
X20649Y8483D1*
X20663Y8453D1*
X20675Y8423D1*
X20685Y8393D1*
X20697Y8363D1*
X20710Y8333D1*
X20723Y8303D1*
X20735Y8273D1*
X20745Y8243D1*
X20757Y8213D1*
X20770Y8183D1*
X20783Y8153D1*
X20795Y8123D1*
X20805Y8093D1*
X20817Y8063D1*
X20830Y8033D1*
X20844Y8003D1*
X20859Y7973D1*
X20873Y7943D1*
X20885Y7913D1*
X20895Y7883D1*
X20907Y7853D1*
X20920Y7823D1*
X20933Y7793D1*
X20945Y7763D1*
X20955Y7733D1*
X20967Y7703D1*
X20980Y7673D1*
X20993Y7643D1*
X21005Y7613D1*
X21015Y7583D1*
X21027Y7553D1*
X21040Y7523D1*
X21054Y7493D1*
X21069Y7463D1*
X21083Y7433D1*
X21095Y7403D1*
X21105Y7373D1*
X21117Y7343D1*
X21130Y7313D1*
X21143Y7283D1*
X21155Y7253D1*
X21167Y7223D1*
X21181Y7193D1*
X21197Y7163D1*
X21212Y7133D1*
X21224Y7103D1*
X21235Y7073D1*
X21246Y7043D1*
X21256Y7013D1*
X21267Y6983D1*
X21280Y6953D1*
X21293Y6923D1*
X21305Y6893D1*
X21315Y6863D1*
X21327Y6833D1*
X21340Y6803D1*
X21354Y6773D1*
X21369Y6743D1*
X21383Y6713D1*
X21395Y6683D1*
X21405Y6653D1*
X21417Y6623D1*
X21430Y6593D1*
X21443Y6563D1*
X21455Y6533D1*
X21465Y6503D1*
X21477Y6473D1*
X21490Y6443D1*
X21504Y6413D1*
X21519Y6383D1*
X21533Y6353D1*
X21545Y6323D1*
X21555Y6293D1*
X21567Y6263D1*
X21580Y6233D1*
X21593Y6203D1*
X21605Y6173D1*
X21615Y6143D1*
X21627Y6113D1*
X21640Y6083D1*
X21653Y6053D1*
X21665Y6023D1*
X21675Y5993D1*
X21687Y5963D1*
X21700Y5933D1*
X21714Y5903D1*
X21729Y5873D1*
X21743Y5843D1*
X21755Y5813D1*
X21765Y5783D1*
X21777Y5753D1*
X21790Y5723D1*
X21803Y5693D1*
X21815Y5663D1*
X21825Y5633D1*
X21837Y5603D1*
X21850Y5573D1*
X21864Y5543D1*
X21879Y5513D1*
X21894Y5483D1*
X21910Y5453D1*
X21930Y5423D1*
X21958Y5393D1*
X21995Y5363D1*
X22036Y5333D1*
X21106Y18443D2*
Y18413D1*
Y18383D1*
Y18353D1*
Y18323D1*
Y18293D1*
Y18263D1*
X22096Y18443D2*
Y18413D1*
Y18383D1*
Y18353D1*
Y18323D1*
Y18293D1*
Y18263D1*
Y18233D1*
Y18203D1*
Y18173D1*
Y18143D1*
Y18113D1*
Y18083D1*
Y18053D1*
Y18023D1*
Y17993D1*
Y17963D1*
Y17933D1*
Y17903D1*
Y17873D1*
Y17843D1*
Y17813D1*
Y17783D1*
Y17753D1*
Y17723D1*
Y17693D1*
Y17663D1*
Y17633D1*
Y17603D1*
Y17573D1*
Y17543D1*
Y17513D1*
Y17483D1*
X21946Y17453D1*
X22816Y18443D2*
Y18413D1*
Y18383D1*
Y18353D1*
Y18323D1*
Y18293D1*
Y18263D1*
Y18233D1*
Y18203D1*
Y18173D1*
Y18143D1*
Y18113D1*
Y18083D1*
Y18053D1*
Y18023D1*
Y17993D1*
Y17963D1*
Y17933D1*
Y17903D1*
Y17873D1*
X23806Y18443D2*
Y18413D1*
Y18383D1*
Y18353D1*
Y18323D1*
Y18293D1*
Y18263D1*
Y18233D1*
Y18203D1*
Y18173D1*
Y18143D1*
Y18113D1*
Y18083D1*
Y18053D1*
Y18023D1*
Y17993D1*
Y17963D1*
Y17933D1*
Y17903D1*
Y17873D1*
Y17843D1*
Y17813D1*
Y17783D1*
Y17753D1*
Y17723D1*
Y17693D1*
Y17663D1*
Y17633D1*
Y17603D1*
Y17573D1*
Y17543D1*
Y17513D1*
Y17483D1*
Y17453D1*
X23926Y18443D2*
Y18413D1*
Y18383D1*
Y18353D1*
Y18323D1*
Y18293D1*
Y18263D1*
X24916Y18443D2*
Y18413D1*
Y18383D1*
Y18353D1*
Y18323D1*
Y18293D1*
Y18263D1*
Y18233D1*
Y18203D1*
Y18173D1*
Y18143D1*
Y18113D1*
Y18083D1*
Y18053D1*
Y18023D1*
Y17993D1*
Y17963D1*
Y17933D1*
Y17903D1*
Y17873D1*
Y17843D1*
Y17813D1*
Y17783D1*
Y17753D1*
Y17723D1*
Y17693D1*
Y17663D1*
Y17633D1*
Y17603D1*
Y17573D1*
Y17543D1*
Y17513D1*
Y17483D1*
X24766Y17453D1*
X25036Y18443D2*
Y18413D1*
Y18383D1*
Y18353D1*
Y18323D1*
Y18293D1*
Y18263D1*
Y18233D1*
Y18203D1*
Y18173D1*
Y18143D1*
Y18113D1*
Y18083D1*
Y18053D1*
Y18023D1*
Y17993D1*
Y17963D1*
Y17933D1*
Y17903D1*
Y17873D1*
Y17843D1*
Y17813D1*
Y17783D1*
Y17753D1*
Y17723D1*
Y17693D1*
Y17663D1*
Y17633D1*
Y17603D1*
Y17573D1*
Y17543D1*
Y17513D1*
Y17483D1*
Y17453D1*
X26026Y18443D2*
Y18413D1*
Y18383D1*
Y18353D1*
Y18323D1*
Y18293D1*
Y18263D1*
X26176Y18443D2*
Y18413D1*
Y18383D1*
Y18353D1*
Y18323D1*
Y18293D1*
Y18263D1*
Y18233D1*
Y18203D1*
Y18173D1*
Y18143D1*
Y18113D1*
Y18083D1*
Y18053D1*
Y18023D1*
Y17993D1*
Y17963D1*
Y17933D1*
Y17903D1*
Y17873D1*
Y17843D1*
Y17813D1*
Y17783D1*
Y17753D1*
Y17723D1*
Y17693D1*
Y17663D1*
Y17633D1*
Y17603D1*
Y17573D1*
Y17543D1*
Y17513D1*
Y17483D1*
Y17453D1*
X26326Y18443D2*
Y18413D1*
Y18383D1*
Y18353D1*
Y18323D1*
Y18293D1*
Y18263D1*
Y18233D1*
Y18203D1*
Y18173D1*
Y18143D1*
Y18113D1*
Y18083D1*
Y18053D1*
Y18023D1*
Y17993D1*
Y17963D1*
Y17933D1*
Y17903D1*
Y17873D1*
Y17843D1*
Y17813D1*
Y17783D1*
Y17753D1*
Y17723D1*
Y17693D1*
Y17663D1*
Y17633D1*
X26626Y18443D2*
Y18413D1*
Y18383D1*
Y18353D1*
Y18323D1*
Y18293D1*
Y18263D1*
Y18233D1*
Y18203D1*
Y18173D1*
Y18143D1*
Y18113D1*
Y18083D1*
Y18053D1*
Y18023D1*
Y17993D1*
Y17963D1*
Y17933D1*
Y17903D1*
Y17873D1*
Y17843D1*
Y17813D1*
Y17783D1*
Y17753D1*
Y17723D1*
Y17693D1*
Y17663D1*
Y17633D1*
X26776Y18443D2*
Y18413D1*
Y18383D1*
Y18353D1*
Y18323D1*
Y18293D1*
Y18263D1*
Y18233D1*
Y18203D1*
Y18173D1*
Y18143D1*
Y18113D1*
Y18083D1*
Y18053D1*
Y18023D1*
Y17993D1*
Y17963D1*
Y17933D1*
Y17903D1*
Y17873D1*
Y17843D1*
Y17813D1*
Y17783D1*
Y17753D1*
Y17723D1*
Y17693D1*
Y17663D1*
Y17633D1*
X27076Y18443D2*
Y18413D1*
Y18383D1*
Y18353D1*
Y18323D1*
Y18293D1*
Y18263D1*
Y18233D1*
Y18203D1*
Y18173D1*
Y18143D1*
Y18113D1*
Y18083D1*
Y18053D1*
Y18023D1*
Y17993D1*
Y17963D1*
Y17933D1*
Y17903D1*
Y17873D1*
Y17843D1*
Y17813D1*
Y17783D1*
Y17753D1*
Y17723D1*
Y17693D1*
Y17663D1*
Y17633D1*
X27226Y18443D2*
Y18413D1*
Y18383D1*
Y18353D1*
Y18323D1*
Y18293D1*
Y18263D1*
Y18233D1*
Y18203D1*
Y18173D1*
Y18143D1*
Y18113D1*
Y18083D1*
Y18053D1*
Y18023D1*
Y17993D1*
Y17963D1*
Y17933D1*
Y17903D1*
Y17873D1*
Y17843D1*
Y17813D1*
Y17783D1*
Y17753D1*
Y17723D1*
Y17693D1*
Y17663D1*
Y17633D1*
Y17603D1*
Y17573D1*
Y17543D1*
Y17513D1*
Y17483D1*
Y17453D1*
X16156Y18383D2*
X16099Y18353D1*
X16049Y18323D1*
X16007Y18293D1*
X15991Y18263D1*
X15983Y18233D1*
X15979Y18203D1*
X15977Y18173D1*
X15976Y18143D1*
Y18113D1*
Y18083D1*
Y18053D1*
Y18023D1*
Y17993D1*
Y17963D1*
Y17933D1*
Y17903D1*
Y17873D1*
Y17843D1*
Y17813D1*
Y17783D1*
Y17753D1*
Y17723D1*
Y17693D1*
Y17663D1*
Y17633D1*
Y17603D1*
Y17573D1*
Y17543D1*
Y17513D1*
Y17483D1*
Y17453D1*
Y17423D1*
Y17393D1*
Y17363D1*
Y17333D1*
Y17303D1*
Y17273D1*
Y17243D1*
Y17213D1*
X16156Y18383D2*
X16181Y18353D1*
X16204Y18323D1*
X16225Y18293D1*
X16246Y18263D1*
X16266Y18233D1*
X16287Y18203D1*
X16310Y18173D1*
X16333Y18143D1*
X16355Y18113D1*
X16376Y18083D1*
X16400Y18053D1*
X16422Y18023D1*
X16438Y17993D1*
X16450Y17963D1*
Y17933D1*
X16437Y17903D1*
X16419Y17873D1*
X16398Y17843D1*
X16377Y17813D1*
X16356Y17783D1*
X16332Y17753D1*
X16309Y17723D1*
X16287Y17693D1*
X16266Y17663D1*
X16242Y17633D1*
X16219Y17603D1*
X16197Y17573D1*
X16176Y17543D1*
X16152Y17513D1*
X16126Y17483D1*
X19846Y18353D2*
Y18323D1*
Y18293D1*
Y18263D1*
Y18233D1*
Y18203D1*
Y18173D1*
Y18143D1*
Y18113D1*
Y18083D1*
Y18053D1*
Y18023D1*
Y17993D1*
Y17963D1*
Y17933D1*
Y17903D1*
Y17873D1*
Y17843D1*
Y17813D1*
Y17783D1*
Y17753D1*
Y17723D1*
Y17693D1*
Y17663D1*
Y17633D1*
Y17603D1*
Y17573D1*
Y17543D1*
Y17513D1*
Y17483D1*
X19876Y18353D2*
X19924Y18323D1*
X19965Y18293D1*
X19981Y18263D1*
X19990Y18233D1*
X19994Y18203D1*
X19995Y18173D1*
X19996Y18143D1*
Y18113D1*
Y18083D1*
Y18053D1*
Y18023D1*
Y17993D1*
Y17963D1*
Y17933D1*
Y17903D1*
Y17873D1*
Y17843D1*
Y17813D1*
Y17783D1*
Y17753D1*
Y17723D1*
Y17693D1*
Y17663D1*
Y17633D1*
Y17603D1*
Y17573D1*
Y17543D1*
Y17513D1*
Y17483D1*
X5386Y18293D2*
Y18263D1*
Y18233D1*
Y18203D1*
Y18173D1*
Y18143D1*
Y18113D1*
Y18083D1*
Y18053D1*
Y18023D1*
X6496Y18293D2*
Y18263D1*
Y18233D1*
Y18203D1*
Y18173D1*
Y18143D1*
Y18113D1*
Y18083D1*
Y18053D1*
Y18023D1*
Y17993D1*
Y17963D1*
Y17933D1*
Y17903D1*
Y17873D1*
Y17843D1*
Y17813D1*
Y17783D1*
Y17753D1*
Y17723D1*
Y17693D1*
Y17663D1*
Y17633D1*
Y17603D1*
Y17573D1*
Y17543D1*
Y17513D1*
Y17483D1*
X6946Y18293D2*
Y18263D1*
Y18233D1*
Y18203D1*
Y18173D1*
Y18143D1*
Y18113D1*
Y18083D1*
Y18053D1*
Y18023D1*
X7606Y18293D2*
Y18263D1*
Y18233D1*
Y18203D1*
Y18173D1*
Y18143D1*
Y18113D1*
Y18083D1*
Y18053D1*
Y18023D1*
X9196Y18263D2*
Y18233D1*
Y18203D1*
Y18173D1*
Y18143D1*
Y18113D1*
Y18083D1*
Y18053D1*
Y18023D1*
Y17993D1*
Y17963D1*
Y17933D1*
Y17903D1*
Y17873D1*
Y17843D1*
Y17813D1*
Y17783D1*
Y17753D1*
Y17723D1*
Y17693D1*
Y17663D1*
Y17633D1*
Y17603D1*
Y17573D1*
Y17543D1*
Y17513D1*
Y17483D1*
X9046Y17453D1*
X9826Y18263D2*
Y18233D1*
Y18203D1*
Y18173D1*
Y18143D1*
Y18113D1*
Y18083D1*
Y18053D1*
Y18023D1*
Y17993D1*
Y17963D1*
Y17933D1*
Y17903D1*
Y17873D1*
Y17843D1*
Y17813D1*
Y17783D1*
Y17753D1*
Y17723D1*
Y17693D1*
Y17663D1*
Y17633D1*
Y17603D1*
Y17573D1*
Y17543D1*
Y17513D1*
Y17483D1*
X9976Y17453D1*
X10306Y18263D2*
Y18233D1*
Y18203D1*
Y18173D1*
Y18143D1*
Y18113D1*
Y18083D1*
Y18053D1*
X10936Y18263D2*
Y18233D1*
Y18203D1*
Y18173D1*
Y18143D1*
Y18113D1*
Y18083D1*
Y18053D1*
X11416Y18263D2*
Y18233D1*
Y18203D1*
Y18173D1*
Y18143D1*
Y18113D1*
Y18083D1*
Y18053D1*
Y18023D1*
Y17993D1*
Y17963D1*
Y17933D1*
Y17903D1*
Y17873D1*
Y17843D1*
Y17813D1*
Y17783D1*
Y17753D1*
Y17723D1*
Y17693D1*
Y17663D1*
Y17633D1*
Y17603D1*
Y17573D1*
X11414Y17543D1*
X11400Y17513D1*
X11353Y17483D1*
X11296Y17453D1*
X11716Y18263D2*
Y18233D1*
Y18203D1*
Y18173D1*
Y18143D1*
Y18113D1*
Y18083D1*
Y18053D1*
Y18023D1*
Y17993D1*
Y17963D1*
Y17933D1*
Y17903D1*
Y17873D1*
Y17843D1*
Y17813D1*
Y17783D1*
Y17753D1*
Y17723D1*
Y17693D1*
Y17663D1*
Y17633D1*
Y17603D1*
X11717Y17573D1*
X11718Y17543D1*
X11732Y17513D1*
X11779Y17483D1*
X11836Y17453D1*
X11866Y18263D2*
Y18233D1*
Y18203D1*
Y18173D1*
Y18143D1*
Y18113D1*
Y18083D1*
Y18053D1*
Y18023D1*
Y17993D1*
Y17963D1*
Y17933D1*
Y17903D1*
Y17873D1*
Y17843D1*
Y17813D1*
Y17783D1*
Y17753D1*
Y17723D1*
Y17693D1*
Y17663D1*
Y17633D1*
Y17603D1*
Y17573D1*
X11864Y17543D1*
X11850Y17513D1*
X11803Y17483D1*
X11746Y17453D1*
X12166Y18263D2*
Y18233D1*
Y18203D1*
Y18173D1*
Y18143D1*
Y18113D1*
Y18083D1*
Y18053D1*
Y18023D1*
Y17993D1*
Y17963D1*
Y17933D1*
Y17903D1*
Y17873D1*
Y17843D1*
Y17813D1*
Y17783D1*
Y17753D1*
Y17723D1*
Y17693D1*
Y17663D1*
Y17633D1*
Y17603D1*
X12167Y17573D1*
X12168Y17543D1*
X12182Y17513D1*
X12229Y17483D1*
X12286Y17453D1*
X13576Y18263D2*
Y18233D1*
Y18203D1*
Y18173D1*
Y18143D1*
Y18113D1*
Y18083D1*
Y18053D1*
Y18023D1*
Y17993D1*
Y17963D1*
Y17933D1*
Y17903D1*
Y17873D1*
Y17843D1*
Y17813D1*
Y17783D1*
Y17753D1*
Y17723D1*
Y17693D1*
Y17663D1*
Y17633D1*
Y17603D1*
X13577Y17573D1*
X13578Y17543D1*
X13592Y17513D1*
X13639Y17483D1*
X13696Y17453D1*
X14056Y18263D2*
Y18233D1*
Y18203D1*
Y18173D1*
Y18143D1*
Y18113D1*
Y18083D1*
Y18053D1*
X14686Y18263D2*
Y18233D1*
Y18203D1*
Y18173D1*
Y18143D1*
Y18113D1*
Y18083D1*
Y18053D1*
X15166Y18263D2*
Y18233D1*
Y18203D1*
Y18173D1*
Y18143D1*
Y18113D1*
Y18083D1*
Y18053D1*
Y18023D1*
Y17993D1*
Y17963D1*
Y17933D1*
Y17903D1*
Y17873D1*
Y17843D1*
Y17813D1*
Y17783D1*
Y17753D1*
Y17723D1*
Y17693D1*
X15165Y17663D1*
X15160Y17633D1*
X15148Y17603D1*
X15128Y17573D1*
X15103Y17543D1*
X15075Y17513D1*
X15046Y17483D1*
X15796Y18263D2*
Y18233D1*
Y18203D1*
X17986Y18293D2*
Y18263D1*
Y18233D1*
Y18203D1*
Y18173D1*
Y18143D1*
Y18113D1*
Y18083D1*
Y18053D1*
Y18023D1*
X19696Y18293D2*
Y18263D1*
Y18233D1*
Y18203D1*
Y18173D1*
Y18143D1*
Y18113D1*
Y18083D1*
Y18053D1*
Y18023D1*
Y17993D1*
Y17963D1*
Y17933D1*
Y17903D1*
Y17873D1*
Y17843D1*
Y17813D1*
Y17783D1*
Y17753D1*
Y17723D1*
Y17693D1*
Y17663D1*
Y17633D1*
Y17603D1*
Y17573D1*
Y17543D1*
Y17513D1*
Y17483D1*
X20176Y18263D2*
Y18233D1*
Y18203D1*
X20806Y18263D2*
Y18233D1*
Y18203D1*
Y18173D1*
Y18143D1*
Y18113D1*
Y18083D1*
Y18053D1*
Y18023D1*
Y17993D1*
Y17963D1*
Y17933D1*
Y17903D1*
Y17873D1*
Y17843D1*
Y17813D1*
Y17783D1*
Y17753D1*
Y17723D1*
Y17693D1*
X20807Y17663D1*
X20812Y17633D1*
X20825Y17603D1*
X20844Y17573D1*
X20870Y17543D1*
X20897Y17513D1*
X20926Y17483D1*
X21916Y18263D2*
Y18233D1*
Y18203D1*
Y18173D1*
Y18143D1*
Y18113D1*
Y18083D1*
Y18053D1*
X22996Y18263D2*
Y18233D1*
Y18203D1*
Y18173D1*
Y18143D1*
Y18113D1*
Y18083D1*
Y18053D1*
X23626Y18263D2*
Y18233D1*
Y18203D1*
Y18173D1*
Y18143D1*
Y18113D1*
Y18083D1*
Y18053D1*
X24736Y18263D2*
Y18233D1*
Y18203D1*
Y18173D1*
Y18143D1*
Y18113D1*
Y18083D1*
Y18053D1*
Y18023D1*
Y17993D1*
Y17963D1*
Y17933D1*
Y17903D1*
Y17873D1*
Y17843D1*
Y17813D1*
Y17783D1*
Y17753D1*
Y17723D1*
Y17693D1*
Y17663D1*
Y17633D1*
Y17603D1*
Y17573D1*
Y17543D1*
Y17513D1*
Y17483D1*
X24886Y17453D1*
X25216Y18263D2*
Y18233D1*
Y18203D1*
Y18173D1*
Y18143D1*
Y18113D1*
Y18083D1*
Y18053D1*
X27736Y18263D2*
X27751Y18233D1*
X27764Y18203D1*
X27776Y18173D1*
X27790Y18143D1*
X27804Y18113D1*
X27819Y18083D1*
X27834Y18053D1*
X27849Y18023D1*
X27863Y17993D1*
X27875Y17963D1*
X27885Y17933D1*
X27897Y17903D1*
X27910Y17873D1*
X27924Y17843D1*
X27939Y17813D1*
X27954Y17783D1*
X27970Y17753D1*
X27989Y17723D1*
X28012Y17693D1*
X28038Y17663D1*
X28066Y17633D1*
X28186Y18293D2*
Y18263D1*
Y18233D1*
Y18203D1*
Y18173D1*
Y18143D1*
Y18113D1*
Y18083D1*
Y18053D1*
Y18023D1*
Y17993D1*
Y17963D1*
Y17933D1*
Y17903D1*
Y17873D1*
Y17843D1*
Y17813D1*
Y17783D1*
Y17753D1*
X28184Y17723D1*
X28178Y17693D1*
X28155Y17663D1*
X28126Y17633D1*
X28201Y17603D1*
X28269Y17573D1*
X28325Y17543D1*
X28350Y17513D1*
X28359Y17483D1*
X28366Y17453D1*
X29296Y18293D2*
Y18263D1*
Y18233D1*
Y18203D1*
Y18173D1*
Y18143D1*
Y18113D1*
Y18083D1*
Y18053D1*
Y18023D1*
Y17993D1*
Y17963D1*
Y17933D1*
Y17903D1*
Y17873D1*
Y17843D1*
Y17813D1*
Y17783D1*
Y17753D1*
Y17723D1*
Y17693D1*
Y17663D1*
Y17633D1*
Y17603D1*
Y17573D1*
Y17543D1*
Y17513D1*
Y17483D1*
X29746Y18293D2*
Y18263D1*
Y18233D1*
Y18203D1*
Y18173D1*
Y18143D1*
Y18113D1*
Y18083D1*
Y18053D1*
Y18023D1*
X32596Y18293D2*
Y18263D1*
Y18233D1*
Y18203D1*
Y18173D1*
Y18143D1*
Y18113D1*
Y18083D1*
Y18053D1*
Y18023D1*
X33256Y18293D2*
Y18263D1*
Y18233D1*
Y18203D1*
Y18173D1*
Y18143D1*
Y18113D1*
Y18083D1*
Y18053D1*
Y18023D1*
X34366Y18293D2*
Y18263D1*
Y18233D1*
Y18203D1*
Y18173D1*
Y18143D1*
Y18113D1*
Y18083D1*
Y18053D1*
Y18023D1*
Y17993D1*
Y17963D1*
Y17933D1*
Y17903D1*
Y17873D1*
Y17843D1*
Y17813D1*
Y17783D1*
Y17753D1*
Y17723D1*
Y17693D1*
Y17663D1*
Y17633D1*
X35476Y18293D2*
Y18263D1*
Y18233D1*
Y18203D1*
Y18173D1*
Y18143D1*
Y18113D1*
Y18083D1*
Y18053D1*
Y18023D1*
Y17993D1*
Y17963D1*
Y17933D1*
Y17903D1*
Y17873D1*
Y17843D1*
Y17813D1*
Y17783D1*
Y17753D1*
Y17723D1*
Y17693D1*
Y17663D1*
Y17633D1*
Y17603D1*
Y17573D1*
Y17543D1*
Y17513D1*
Y17483D1*
X37066Y18293D2*
Y18263D1*
Y18233D1*
Y18203D1*
Y18173D1*
Y18143D1*
Y18113D1*
Y18083D1*
Y18053D1*
Y18023D1*
Y17993D1*
Y17963D1*
Y17933D1*
Y17903D1*
Y17873D1*
Y17843D1*
Y17813D1*
Y17783D1*
Y17753D1*
Y17723D1*
Y17693D1*
Y17663D1*
Y17633D1*
X37726Y18293D2*
Y18263D1*
Y18233D1*
Y18203D1*
Y18173D1*
Y18143D1*
Y18113D1*
Y18083D1*
Y18053D1*
Y18023D1*
Y17993D1*
Y17963D1*
Y17933D1*
Y17903D1*
Y17873D1*
Y17843D1*
Y17813D1*
Y17783D1*
Y17753D1*
Y17723D1*
Y17693D1*
Y17663D1*
Y17633D1*
X38836Y18293D2*
Y18263D1*
Y18233D1*
Y18203D1*
Y18173D1*
Y18143D1*
Y18113D1*
Y18083D1*
Y18053D1*
Y18023D1*
X39286Y18293D2*
Y18263D1*
Y18233D1*
Y18203D1*
Y18173D1*
Y18143D1*
Y18113D1*
Y18083D1*
Y18053D1*
Y18023D1*
Y17993D1*
Y17963D1*
Y17933D1*
Y17903D1*
Y17873D1*
Y17843D1*
Y17813D1*
Y17783D1*
Y17753D1*
Y17723D1*
Y17693D1*
Y17663D1*
Y17633D1*
Y17603D1*
Y17573D1*
Y17543D1*
Y17513D1*
Y17483D1*
X39946Y18293D2*
Y18263D1*
Y18233D1*
Y18203D1*
Y18173D1*
Y18143D1*
Y18113D1*
Y18083D1*
Y18053D1*
Y18023D1*
Y17993D1*
Y17963D1*
Y17933D1*
Y17903D1*
Y17873D1*
Y17843D1*
Y17813D1*
Y17783D1*
Y17753D1*
Y17723D1*
Y17693D1*
Y17663D1*
Y17633D1*
Y17603D1*
Y17573D1*
Y17543D1*
Y17513D1*
Y17483D1*
X40426Y18293D2*
Y18263D1*
Y18233D1*
Y18203D1*
Y18173D1*
Y18143D1*
Y18113D1*
Y18083D1*
Y18053D1*
Y18023D1*
X41086Y18293D2*
Y18263D1*
Y18233D1*
Y18203D1*
Y18173D1*
Y18143D1*
Y18113D1*
Y18083D1*
Y18053D1*
Y18023D1*
X41536Y18293D2*
Y18263D1*
Y18233D1*
Y18203D1*
Y18173D1*
Y18143D1*
Y18113D1*
Y18083D1*
Y18053D1*
Y18023D1*
Y17993D1*
Y17963D1*
Y17933D1*
Y17903D1*
Y17873D1*
Y17843D1*
Y17813D1*
Y17783D1*
Y17753D1*
Y17723D1*
Y17693D1*
Y17663D1*
Y17633D1*
X42196Y18293D2*
Y18263D1*
Y18233D1*
Y18203D1*
Y18173D1*
Y18143D1*
Y18113D1*
Y18083D1*
Y18053D1*
Y18023D1*
Y17993D1*
Y17963D1*
Y17933D1*
Y17903D1*
Y17873D1*
Y17843D1*
Y17813D1*
Y17783D1*
Y17753D1*
Y17723D1*
Y17693D1*
Y17663D1*
Y17633D1*
X42646Y18293D2*
Y18263D1*
Y18233D1*
Y18203D1*
Y18173D1*
Y18143D1*
Y18113D1*
Y18083D1*
Y18053D1*
Y18023D1*
Y17993D1*
Y17963D1*
Y17933D1*
Y17903D1*
Y17873D1*
Y17843D1*
Y17813D1*
Y17783D1*
Y17753D1*
Y17723D1*
Y17693D1*
Y17663D1*
Y17633D1*
X43306Y18293D2*
Y18263D1*
Y18233D1*
Y18203D1*
Y18173D1*
Y18143D1*
Y18113D1*
Y18083D1*
Y18053D1*
Y18023D1*
Y17993D1*
Y17963D1*
Y17933D1*
Y17903D1*
Y17873D1*
Y17843D1*
Y17813D1*
Y17783D1*
Y17753D1*
Y17723D1*
Y17693D1*
Y17663D1*
Y17633D1*
X15826Y18173D2*
X15772Y18143D1*
X15723Y18113D1*
X15679Y18083D1*
X15637Y18053D1*
X15598Y18023D1*
X15561Y17993D1*
X15528Y17963D1*
X15497Y17933D1*
X15466Y17903D1*
X15436Y17873D1*
X15406Y17843D1*
X15376Y17813D1*
X15346Y17783D1*
X15316Y17753D1*
X15286Y17723D1*
X15256Y17693D1*
X15226Y17663D1*
X15196Y17633D1*
X15826Y18173D2*
Y18143D1*
Y18113D1*
Y18083D1*
Y18053D1*
Y18023D1*
Y17993D1*
Y17963D1*
Y17933D1*
Y17903D1*
Y17873D1*
Y17843D1*
Y17813D1*
Y17783D1*
Y17753D1*
Y17723D1*
Y17693D1*
Y17663D1*
Y17633D1*
X20146Y18173D2*
Y18143D1*
Y18113D1*
Y18083D1*
Y18053D1*
Y18023D1*
Y17993D1*
Y17963D1*
Y17933D1*
Y17903D1*
Y17873D1*
Y17843D1*
Y17813D1*
Y17783D1*
Y17753D1*
Y17723D1*
Y17693D1*
Y17663D1*
Y17633D1*
Y18173D2*
X20200Y18143D1*
X20249Y18113D1*
X20293Y18083D1*
X20335Y18053D1*
X20375Y18023D1*
X20411Y17993D1*
X20444Y17963D1*
X20475Y17933D1*
X20506Y17903D1*
X20536Y17873D1*
X20566Y17843D1*
X20596Y17813D1*
X20626Y17783D1*
X20656Y17753D1*
X20686Y17723D1*
X20716Y17693D1*
X20746Y17663D1*
X20776Y17633D1*
X4576Y18023D2*
Y17993D1*
Y17963D1*
Y17933D1*
Y17903D1*
Y17873D1*
Y17843D1*
Y17813D1*
Y17783D1*
Y17753D1*
Y17723D1*
Y17693D1*
Y17663D1*
Y17633D1*
Y17603D1*
Y17573D1*
Y17543D1*
Y17513D1*
Y17483D1*
X17176Y18023D2*
Y17993D1*
Y17963D1*
Y17933D1*
Y17903D1*
Y17873D1*
X21106Y18053D2*
Y18023D1*
Y17993D1*
Y17963D1*
Y17933D1*
Y17903D1*
Y17873D1*
X26026Y18053D2*
Y18023D1*
Y17993D1*
Y17963D1*
Y17933D1*
Y17903D1*
Y17873D1*
Y17843D1*
Y17813D1*
Y17783D1*
Y17753D1*
Y17723D1*
Y17693D1*
Y17663D1*
Y17633D1*
Y17603D1*
Y17573D1*
Y17543D1*
Y17513D1*
Y17483D1*
Y17453D1*
X30556Y18023D2*
Y17993D1*
Y17963D1*
Y17933D1*
Y17903D1*
Y17873D1*
Y17843D1*
Y17813D1*
Y17783D1*
Y17753D1*
Y17723D1*
Y17693D1*
Y17663D1*
Y17633D1*
Y17603D1*
Y17573D1*
Y17543D1*
Y17513D1*
Y17483D1*
X38026Y18023D2*
Y17993D1*
Y17963D1*
Y17933D1*
Y17903D1*
Y17873D1*
Y17843D1*
Y17813D1*
Y17783D1*
Y17753D1*
Y17723D1*
Y17693D1*
Y17663D1*
Y17633D1*
Y17603D1*
Y17573D1*
Y17543D1*
Y17513D1*
Y17483D1*
X10936Y17873D2*
Y17843D1*
Y17813D1*
Y17783D1*
Y17753D1*
Y17723D1*
Y17693D1*
Y17663D1*
Y17633D1*
X14686Y17873D2*
Y17843D1*
Y17813D1*
Y17783D1*
Y17753D1*
Y17723D1*
Y17693D1*
Y17663D1*
Y17633D1*
X21916Y17873D2*
Y17843D1*
Y17813D1*
Y17783D1*
Y17753D1*
Y17723D1*
Y17693D1*
Y17663D1*
Y17633D1*
Y17603D1*
Y17573D1*
Y17543D1*
Y17513D1*
Y17483D1*
X22066Y17453D1*
X23626Y17873D2*
Y17843D1*
Y17813D1*
Y17783D1*
Y17753D1*
Y17723D1*
Y17693D1*
Y17663D1*
Y17633D1*
X25216Y17873D2*
Y17843D1*
Y17813D1*
Y17783D1*
Y17753D1*
Y17723D1*
Y17693D1*
Y17663D1*
Y17633D1*
X25846Y17873D2*
Y17843D1*
Y17813D1*
Y17783D1*
Y17753D1*
Y17723D1*
Y17693D1*
Y17663D1*
Y17633D1*
X4726Y17873D2*
Y17843D1*
Y17813D1*
Y17783D1*
Y17753D1*
Y17723D1*
Y17693D1*
Y17663D1*
Y17633D1*
X7606Y17873D2*
Y17843D1*
Y17813D1*
Y17783D1*
Y17753D1*
Y17723D1*
Y17693D1*
Y17663D1*
Y17633D1*
X17986Y17873D2*
Y17843D1*
Y17813D1*
Y17783D1*
Y17753D1*
Y17723D1*
Y17693D1*
Y17663D1*
Y17633D1*
X29746Y17873D2*
Y17843D1*
Y17813D1*
Y17783D1*
Y17753D1*
Y17723D1*
Y17693D1*
Y17663D1*
Y17633D1*
X30406Y17873D2*
Y17843D1*
Y17813D1*
Y17783D1*
Y17753D1*
Y17723D1*
Y17693D1*
Y17663D1*
Y17633D1*
X30886Y17873D2*
Y17843D1*
Y17813D1*
Y17783D1*
Y17753D1*
Y17723D1*
Y17693D1*
Y17663D1*
Y17633D1*
Y17603D1*
Y17573D1*
Y17543D1*
Y17513D1*
Y17483D1*
X31546Y17873D2*
Y17843D1*
Y17813D1*
Y17783D1*
Y17753D1*
Y17723D1*
Y17693D1*
Y17663D1*
Y17633D1*
Y17603D1*
Y17573D1*
Y17543D1*
Y17513D1*
Y17483D1*
X33256Y17873D2*
Y17843D1*
Y17813D1*
Y17783D1*
Y17753D1*
Y17723D1*
Y17693D1*
Y17663D1*
Y17633D1*
X38176Y17873D2*
Y17843D1*
Y17813D1*
Y17783D1*
Y17753D1*
Y17723D1*
Y17693D1*
Y17663D1*
Y17633D1*
X41086Y17873D2*
Y17843D1*
Y17813D1*
Y17783D1*
Y17753D1*
Y17723D1*
Y17693D1*
Y17663D1*
Y17633D1*
X16576Y17813D2*
X16551Y17783D1*
X16528Y17753D1*
X16506Y17723D1*
X16482Y17693D1*
X16459Y17663D1*
X16437Y17633D1*
X16416Y17603D1*
X16392Y17573D1*
X16370Y17543D1*
X16351Y17513D1*
X16336Y17483D1*
X16576Y17813D2*
X16601Y17783D1*
X16624Y17753D1*
X16646Y17723D1*
X16670Y17693D1*
X16693Y17663D1*
X16715Y17633D1*
X16736Y17603D1*
X16760Y17573D1*
X16782Y17543D1*
X16801Y17513D1*
X16816Y17483D1*
X5536Y17633D2*
Y17603D1*
Y17573D1*
Y17543D1*
Y17513D1*
Y17483D1*
X6826Y17633D2*
Y17603D1*
X6827Y17573D1*
X6828Y17543D1*
X6842Y17513D1*
X6889Y17483D1*
X6946Y17453D1*
X6799Y17423D1*
X6644Y17393D1*
X6485Y17363D1*
X6322Y17333D1*
X6159Y17303D1*
X5997Y17273D1*
X5837Y17243D1*
X5675Y17213D1*
X5512Y17183D1*
X5349Y17153D1*
X5187Y17123D1*
X5027Y17093D1*
X4868Y17063D1*
X4717Y17033D1*
X4589Y17003D1*
X4492Y16973D1*
X4427Y16943D1*
X4378Y16913D1*
X4358Y16883D1*
X4346Y16853D1*
X4340Y16823D1*
X4338Y16793D1*
X4337Y16763D1*
X4336Y16733D1*
Y16703D1*
Y16673D1*
Y16643D1*
Y16613D1*
Y16583D1*
Y16553D1*
Y16523D1*
Y16493D1*
Y16463D1*
Y16433D1*
Y16403D1*
Y16373D1*
Y16343D1*
Y16313D1*
Y16283D1*
Y16253D1*
Y16223D1*
Y16193D1*
Y16163D1*
Y16133D1*
Y16103D1*
Y16073D1*
Y16043D1*
Y16013D1*
Y15983D1*
Y15953D1*
Y15923D1*
Y15893D1*
Y15863D1*
Y15833D1*
Y15803D1*
Y15773D1*
Y15743D1*
Y15713D1*
Y15683D1*
Y15653D1*
Y15623D1*
Y15593D1*
Y15563D1*
Y15533D1*
Y15503D1*
Y15473D1*
Y15443D1*
Y15413D1*
Y15383D1*
Y15353D1*
Y15323D1*
Y15293D1*
Y15263D1*
Y15233D1*
Y15203D1*
Y15173D1*
Y15143D1*
Y15113D1*
Y15083D1*
Y15053D1*
Y15023D1*
Y14993D1*
Y14963D1*
Y14933D1*
Y14903D1*
Y14873D1*
Y14843D1*
Y14813D1*
Y14783D1*
Y14753D1*
Y14723D1*
Y14693D1*
Y14663D1*
Y14633D1*
Y14603D1*
Y14573D1*
Y14543D1*
Y14513D1*
Y14483D1*
Y14453D1*
Y14423D1*
Y14393D1*
Y14363D1*
Y14333D1*
Y14303D1*
Y14273D1*
Y14243D1*
Y14213D1*
Y14183D1*
Y14153D1*
Y14123D1*
Y14093D1*
Y14063D1*
Y14033D1*
Y14003D1*
Y13973D1*
Y13943D1*
Y13913D1*
Y13883D1*
Y13853D1*
Y13823D1*
Y13793D1*
Y13763D1*
Y13733D1*
Y13703D1*
Y13673D1*
Y13643D1*
Y13613D1*
Y13583D1*
Y13553D1*
Y13523D1*
Y13493D1*
Y13463D1*
Y13433D1*
Y13403D1*
Y13373D1*
Y13343D1*
X4337Y13313D1*
X4343Y13283D1*
X4352Y13253D1*
X4384Y13223D1*
X4437Y13193D1*
X4521Y13163D1*
X4636Y13133D1*
X4773Y13103D1*
X4924Y13073D1*
X5082Y13043D1*
X5241Y13013D1*
X5402Y12983D1*
X5564Y12953D1*
X5726Y12923D1*
X5885Y12893D1*
X6048Y12863D1*
X6213Y12833D1*
X6376Y12803D1*
X6535Y12773D1*
X6692Y12743D1*
X6849Y12713D1*
X7007Y12683D1*
X7167Y12653D1*
X7325Y12623D1*
X7477Y12593D1*
X7614Y12563D1*
X7723Y12533D1*
X7801Y12503D1*
X7852Y12473D1*
X7885Y12443D1*
X7908Y12413D1*
X7927Y12383D1*
X7943Y12353D1*
X7958Y12323D1*
X7972Y12293D1*
X7985Y12263D1*
X7995Y12233D1*
X8007Y12203D1*
X8020Y12173D1*
X8033Y12143D1*
X8045Y12113D1*
X8055Y12083D1*
X8067Y12053D1*
X8080Y12023D1*
X8094Y11993D1*
X8109Y11963D1*
X8123Y11933D1*
X8135Y11903D1*
X8145Y11873D1*
X8156Y11843D1*
X8166Y11813D1*
X8176Y11783D1*
X8187Y11753D1*
X8200Y11723D1*
X8213Y11693D1*
X8225Y11663D1*
X8235Y11633D1*
X8247Y11603D1*
X8260Y11573D1*
X8273Y11543D1*
X8285Y11513D1*
X8295Y11483D1*
X8307Y11453D1*
X8320Y11423D1*
X8333Y11393D1*
X8345Y11363D1*
X8355Y11333D1*
X8367Y11303D1*
X8380Y11273D1*
X8393Y11243D1*
X8405Y11213D1*
X8415Y11183D1*
X8427Y11153D1*
X8440Y11123D1*
X8453Y11093D1*
X8465Y11063D1*
X8475Y11033D1*
X8487Y11003D1*
X8500Y10973D1*
X8513Y10943D1*
X8525Y10913D1*
X8535Y10883D1*
X8547Y10853D1*
X8560Y10823D1*
X8573Y10793D1*
X8585Y10763D1*
X8595Y10733D1*
X8606Y10703D1*
X8616Y10673D1*
X8626Y10643D1*
X8637Y10613D1*
X8650Y10583D1*
X8664Y10553D1*
X8679Y10523D1*
X8693Y10493D1*
X8705Y10463D1*
X8715Y10433D1*
X8726Y10403D1*
X8736Y10373D1*
X8746Y10343D1*
X8757Y10313D1*
X8770Y10283D1*
X8784Y10253D1*
X8799Y10223D1*
X8813Y10193D1*
X8825Y10163D1*
X8835Y10133D1*
X8847Y10103D1*
X8860Y10073D1*
X8873Y10043D1*
X8885Y10013D1*
X8895Y9983D1*
X8907Y9953D1*
X8920Y9923D1*
X8933Y9893D1*
X8945Y9863D1*
X8955Y9833D1*
X8966Y9803D1*
X8975Y9773D1*
X8981Y9743D1*
X8983Y9713D1*
X8980Y9683D1*
X8972Y9653D1*
X8961Y9623D1*
X8948Y9593D1*
X8932Y9563D1*
X8914Y9533D1*
X8891Y9503D1*
X8869Y9473D1*
X8847Y9443D1*
X8827Y9413D1*
X8806Y9383D1*
X8786Y9353D1*
X8766Y9323D1*
X8746Y9293D1*
X8726Y9263D1*
X8705Y9233D1*
X8682Y9203D1*
X8659Y9173D1*
X8639Y9143D1*
X8621Y9113D1*
X8603Y9083D1*
X8584Y9053D1*
X8562Y9023D1*
X8539Y8993D1*
X8517Y8963D1*
X8497Y8933D1*
X8476Y8903D1*
X8456Y8873D1*
X8436Y8843D1*
X8416Y8813D1*
X8396Y8783D1*
X8376Y8753D1*
X8356Y8723D1*
X8336Y8693D1*
X8315Y8663D1*
X8292Y8633D1*
X8269Y8603D1*
X8248Y8573D1*
X8227Y8543D1*
X8206Y8513D1*
X8186Y8483D1*
X8166Y8453D1*
X8146Y8423D1*
X8126Y8393D1*
X8106Y8363D1*
X8086Y8333D1*
X8066Y8303D1*
X8046Y8273D1*
X8026Y8243D1*
X8006Y8213D1*
X7986Y8183D1*
X7966Y8153D1*
X7946Y8123D1*
X7925Y8093D1*
X7902Y8063D1*
X7879Y8033D1*
X7858Y8003D1*
X7837Y7973D1*
X7816Y7943D1*
X7796Y7913D1*
X7776Y7883D1*
X7756Y7853D1*
X7736Y7823D1*
X7716Y7793D1*
X7696Y7763D1*
X7676Y7733D1*
X7656Y7703D1*
X7636Y7673D1*
X7616Y7643D1*
X7595Y7613D1*
X7572Y7583D1*
X7549Y7553D1*
X7528Y7523D1*
X7507Y7493D1*
X7486Y7463D1*
X7466Y7433D1*
X7446Y7403D1*
X7426Y7373D1*
X7406Y7343D1*
X7386Y7313D1*
X7366Y7283D1*
X7346Y7253D1*
X7326Y7223D1*
X7306Y7193D1*
X7286Y7163D1*
X7265Y7133D1*
X7242Y7103D1*
X7219Y7073D1*
X7198Y7043D1*
X7177Y7013D1*
X7156Y6983D1*
X7136Y6953D1*
X7116Y6923D1*
X7097Y6893D1*
X7081Y6863D1*
X7069Y6833D1*
X7058Y6803D1*
X7050Y6773D1*
X7053Y6743D1*
X7059Y6713D1*
X7068Y6683D1*
X7083Y6653D1*
X7104Y6623D1*
X7129Y6593D1*
X7157Y6563D1*
X7187Y6533D1*
X7216Y6503D1*
X7246Y6473D1*
X7276Y6443D1*
X7306Y6413D1*
X7336Y6383D1*
X7366Y6353D1*
X7396Y6323D1*
X7426Y6293D1*
X7456Y6263D1*
X7486Y6233D1*
X7516Y6203D1*
X7546Y6173D1*
X7576Y6143D1*
X7606Y6113D1*
X7636Y6083D1*
X7666Y6053D1*
X7696Y6023D1*
X7726Y5993D1*
X7756Y5963D1*
X7786Y5933D1*
X7816Y5903D1*
X7846Y5873D1*
X7876Y5843D1*
X7906Y5813D1*
X7936Y5783D1*
X7966Y5753D1*
X7996Y5723D1*
X8026Y5693D1*
X8056Y5663D1*
X8086Y5633D1*
X8116Y5603D1*
X8146Y5573D1*
X8176Y5543D1*
X8206Y5513D1*
X8236Y5483D1*
X8266Y5453D1*
X8296Y5423D1*
X8326Y5393D1*
X8356Y5363D1*
X8386Y5333D1*
X8416Y5303D1*
X8446Y5273D1*
X8476Y5243D1*
X8506Y5213D1*
X8536Y5183D1*
X8566Y5153D1*
X8596Y5123D1*
X8626Y5093D1*
X8656Y5063D1*
X8686Y5033D1*
X8716Y5003D1*
X8746Y4973D1*
X8776Y4943D1*
X8806Y4913D1*
X8836Y4883D1*
X8866Y4853D1*
X8896Y4823D1*
X8926Y4793D1*
X8956Y4763D1*
X8986Y4733D1*
X9016Y4703D1*
X9046Y4673D1*
X9076Y4643D1*
X9106Y4613D1*
X9136Y4583D1*
X9166Y4553D1*
X9196Y4523D1*
X9226Y4493D1*
X9256Y4463D1*
X9286Y4433D1*
X9316Y4403D1*
X9346Y4373D1*
X9376Y4343D1*
X9406Y4313D1*
X9436Y4283D1*
X9466Y4253D1*
X9496Y4223D1*
X9526Y4193D1*
X9556Y4163D1*
X9586Y4133D1*
X17176Y17633D2*
Y17603D1*
Y17573D1*
Y17543D1*
Y17513D1*
Y17483D1*
X32446Y17633D2*
Y17603D1*
Y17573D1*
Y17543D1*
Y17513D1*
Y17483D1*
X33556Y17633D2*
Y17603D1*
Y17573D1*
Y17543D1*
Y17513D1*
Y17483D1*
X38986Y17633D2*
Y17603D1*
Y17573D1*
Y17543D1*
Y17513D1*
Y17483D1*
X40276Y17633D2*
Y17603D1*
Y17573D1*
Y17543D1*
Y17513D1*
Y17483D1*
X10126Y17633D2*
Y17603D1*
Y17573D1*
Y17543D1*
Y17513D1*
Y17483D1*
Y17453D1*
X13876Y17633D2*
Y17603D1*
Y17573D1*
Y17543D1*
Y17513D1*
Y17483D1*
Y17453D1*
X22816Y17633D2*
Y17603D1*
Y17573D1*
Y17543D1*
Y17513D1*
Y17483D1*
Y17453D1*
X7816Y17603D2*
X7660Y17573D1*
X7498Y17543D1*
X7328Y17513D1*
X7153Y17483D1*
X6976Y17453D1*
X7786Y17603D2*
Y17573D1*
Y17543D1*
Y17513D1*
Y17483D1*
Y17453D1*
X15826Y17483D2*
Y17453D1*
Y17423D1*
Y17393D1*
Y17363D1*
Y17333D1*
Y17303D1*
Y17273D1*
Y17243D1*
Y17213D1*
X42196Y17483D2*
Y17453D1*
Y17423D1*
Y17393D1*
Y17363D1*
Y17333D1*
Y17303D1*
Y17273D1*
Y17243D1*
Y17213D1*
X12556Y6023D2*
X12497Y5993D1*
X12441Y5963D1*
X12390Y5933D1*
X12342Y5903D1*
X12299Y5873D1*
X12257Y5843D1*
X12215Y5813D1*
X12172Y5783D1*
X12128Y5753D1*
X12083Y5723D1*
X12039Y5693D1*
X11994Y5663D1*
X11949Y5633D1*
X11904Y5603D1*
X11859Y5573D1*
X11814Y5543D1*
X11770Y5513D1*
X11727Y5483D1*
X11686Y5453D1*
X11641Y5423D1*
X11595Y5393D1*
X11550Y5363D1*
X11508Y5333D1*
X11466Y5303D1*
X11422Y5273D1*
X11378Y5243D1*
X11334Y5213D1*
X11290Y5183D1*
X11248Y5153D1*
X11207Y5123D1*
X11165Y5093D1*
X11122Y5063D1*
X11078Y5033D1*
X11033Y5003D1*
X10989Y4973D1*
X10944Y4943D1*
X10900Y4913D1*
X10858Y4883D1*
X10817Y4853D1*
X10775Y4823D1*
X10732Y4793D1*
X10688Y4763D1*
X10643Y4733D1*
X10599Y4703D1*
X10554Y4673D1*
X10509Y4643D1*
X10464Y4613D1*
X10419Y4583D1*
X10374Y4553D1*
X10329Y4523D1*
X10284Y4493D1*
X10240Y4463D1*
X10198Y4433D1*
X10157Y4403D1*
X10115Y4373D1*
X10072Y4343D1*
X10028Y4313D1*
X9983Y4283D1*
X9939Y4253D1*
X9894Y4223D1*
X9849Y4193D1*
X9807Y4163D1*
X9766Y4133D1*
X12556Y6023D2*
X12636Y5993D1*
X12706Y5963D1*
X12768Y5933D1*
X12828Y5903D1*
X12887Y5873D1*
X12946Y5843D1*
X13006Y5813D1*
X13066Y5783D1*
X13125Y5753D1*
X13181Y5723D1*
X13234Y5693D1*
X13286Y5663D1*
X13341Y5633D1*
X13398Y5603D1*
X13457Y5573D1*
X13515Y5543D1*
X13571Y5513D1*
X13624Y5483D1*
X13676Y5453D1*
X13731Y5423D1*
X13788Y5393D1*
X13847Y5363D1*
X13906Y5333D1*
X23416Y6023D2*
X23337Y5993D1*
X23267Y5963D1*
X23204Y5933D1*
X23145Y5903D1*
X23085Y5873D1*
X23026Y5843D1*
X22966Y5813D1*
X22907Y5783D1*
X22851Y5753D1*
X22798Y5723D1*
X22746Y5693D1*
X22691Y5663D1*
X22634Y5633D1*
X22575Y5603D1*
X22517Y5573D1*
X22460Y5543D1*
X22404Y5513D1*
X22349Y5483D1*
X22294Y5453D1*
X22239Y5423D1*
X22183Y5393D1*
X22125Y5363D1*
X22066Y5333D1*
X23386Y6023D2*
X23464Y5993D1*
X23531Y5963D1*
X23585Y5933D1*
X23633Y5903D1*
X23678Y5873D1*
X23724Y5843D1*
X23769Y5813D1*
X23814Y5783D1*
X23859Y5753D1*
X23903Y5723D1*
X23945Y5693D1*
X23985Y5663D1*
X24027Y5633D1*
X24070Y5603D1*
X24113Y5573D1*
X24155Y5543D1*
X24195Y5513D1*
X24237Y5483D1*
X24280Y5453D1*
X24324Y5423D1*
X24369Y5393D1*
X24414Y5363D1*
X24459Y5333D1*
X24504Y5303D1*
X24549Y5273D1*
X24594Y5243D1*
X24639Y5213D1*
X24683Y5183D1*
X24725Y5153D1*
X24765Y5123D1*
X24807Y5093D1*
X24850Y5063D1*
X24894Y5033D1*
X24939Y5003D1*
X24984Y4973D1*
X25029Y4943D1*
X25074Y4913D1*
X25119Y4883D1*
X25163Y4853D1*
X25205Y4823D1*
X25246Y4793D1*
X25291Y4763D1*
X25337Y4733D1*
X25382Y4703D1*
X25424Y4673D1*
X25466Y4643D1*
X25510Y4613D1*
X25554Y4583D1*
X25599Y4553D1*
X25644Y4523D1*
X25689Y4493D1*
X25734Y4463D1*
X25779Y4433D1*
X25823Y4403D1*
X25865Y4373D1*
X25905Y4343D1*
X25947Y4313D1*
X25990Y4283D1*
X26034Y4253D1*
X26079Y4223D1*
X26123Y4193D1*
X26165Y4163D1*
X26206Y4133D1*
M02*
