M48
INCH
T01C0.019
T02C0.0354
T03C0.039
T04C0.0394
T05C0.0669
%
T01
X+014097Y+020591
X+014097Y+019841
X+014910Y+019841
X+014910Y+020591
X+016160Y+020591
X+016903Y+020604
X+016903Y+019841
X+016160Y+019841
X+009349Y+022438
X+008217Y+022513
X+007039Y+022067
X+008140Y+024563
X+004742Y+028455
X+008202Y+019298
X+008769Y+018441
X+006531Y+017624
X+010977Y+011941
X+012102Y+011003
X+015040Y+011191
X+016070Y+011190
X+021228Y+011566
X+023416Y+012128
X+021728Y+009316
X+021915Y+007003
X+014688Y+005916
X+009010Y+006464
X+016977Y+027755
X+020165Y+028193
X+024563Y+027234
X+024531Y+026218
X+024215Y+025446
X+025992Y+026188
X+027139Y+026451
X+029946Y+026023
X+037292Y+026067
X+042605Y+025942
T02
X+023415Y+008781
X+023415Y+007781
X+025243Y+009619
X+025243Y+010619
X+025243Y+011619
X+025243Y+012619
X+028243Y+012619
X+028243Y+011619
X+028243Y+010619
X+028243Y+009619
X+027284Y+007806
X+026284Y+007806
X+012542Y+019525
X+012542Y+020525
T03
X+023416Y+010164
X+021894Y+010903
X+021055Y+009977
X+018894Y+010903
X+018055Y+009977
X+023416Y+014514
X+027407Y+015965
X+028407Y+015965
X+027510Y+005652
X+027510Y+004662
X+024510Y+004662
X+024510Y+005652
X+018067Y+017305
X+018067Y+020305
T04
X+005757Y+024195
X+005757Y+023195
X+005757Y+022195
X+007015Y+019150G85X+007015Y+019937
X+008590Y+017615G85X+007802Y+017615
X+008579Y+016468
X+009579Y+016468
X+010579Y+016468
X+011579Y+016468
X+012579Y+016468
X+013579Y+016468
X+014579Y+016468
X+015579Y+016468
X+016579Y+016468
X+017579Y+016468
X+018579Y+016468
X+019579Y+016468
X+020579Y+016468
X+021579Y+016468
X+021579Y+014780
X+020579Y+014780
X+019579Y+014780
X+018579Y+014780
X+017579Y+014780
X+016579Y+014780
X+015579Y+014780
X+014579Y+014780
X+013579Y+014780
X+012579Y+014780
X+011579Y+014780
X+010579Y+014780
X+009579Y+014780
X+008579Y+014780
X+008579Y+013780
X+009579Y+013780
X+010579Y+013780
X+011579Y+013780
X+012579Y+013780
X+013579Y+013780
X+014579Y+013780
X+015579Y+013780
X+016579Y+013780
X+017579Y+013780
X+018579Y+013780
X+019579Y+013780
X+020579Y+013780
X+021579Y+013780
X+023308Y+016155
X+024308Y+016155
X+025737Y+013971
X+026737Y+013971
X+020799Y+018815
X+020799Y+021315
X+020578Y+023750
X+019578Y+023750
X+018578Y+023750
X+017578Y+023750
X+016578Y+023750
X+015578Y+023750
X+014578Y+023750
X+013578Y+023750
X+012578Y+023750
X+011578Y+023750
X+010578Y+023750
X+009578Y+023750
X+008578Y+023750
X+008579Y+025375
X+008579Y+026375
X+009579Y+026375
X+010579Y+026375
X+011579Y+026375
X+011579Y+025375
X+010579Y+025375
X+009579Y+025375
X+012579Y+025375
X+013579Y+025375
X+014579Y+025375
X+015579Y+025375
X+016579Y+025375
X+017579Y+025375
X+018579Y+025375
X+019579Y+025375
X+020579Y+025375
X+021579Y+025375
X+021579Y+026375
X+020579Y+026375
X+019579Y+026375
X+018579Y+026375
X+017579Y+026375
X+016579Y+026375
X+015579Y+026375
X+014579Y+026375
X+013579Y+026375
X+012579Y+026375
X+005757Y+025995
X+005757Y+026995
X+005757Y+027995
X+009377Y+019052G85X+009377Y+020036
X+005407Y+015216
X+005407Y+013247
X+005407Y+011279
X+005407Y+009310
X+005407Y+007342
X+005407Y+005373
X+010277Y+006625
X+010277Y+007625
X+010277Y+008625
X+013493Y+008615
X+013493Y+007615
X+013493Y+006615
X+016889Y+006633
X+016889Y+007633
X+016889Y+008633
X+020477Y+008715
X+020477Y+006215
X+019828Y+004966
X+018828Y+004966
X+017828Y+004966
X+016828Y+004966
X+021553Y+005094
X+022553Y+005094
X+032446Y+007607
X+037291Y+007603
X+042132Y+007607
X+042132Y+024851
X+040754Y+024851
X+041446Y+026219
X+041446Y+027991
X+038887Y+027991
X+038887Y+026219
X+037291Y+024847
X+035913Y+024847
X+034229Y+026149
X+034229Y+027921
X+031669Y+027921
X+031669Y+026149
X+031068Y+024851
X+032446Y+024851
X+021578Y+023750
T05
X+043116Y+022685
X+039769Y+023158
X+038275Y+022681
X+034929Y+023154
X+033430Y+022685
X+030084Y+023158
X+033430Y+009772
X+034929Y+009296
X+038275Y+009768
X+039769Y+009300
X+043116Y+009772
X+030084Y+009300
T00
M30
