G04 DipTrace 2.3.0.3*
%INTop.gbr*%
%MOIN*%
%ADD13C,0.049*%
%ADD14C,0.026*%
%ADD15C,0.0128*%
%ADD16C,0.079*%
%ADD17C,0.118*%
%ADD18C,0.0787*%
%ADD19C,0.013*%
%ADD20C,0.0197*%
%ADD21C,0.0118*%
%ADD22C,0.0492*%
%ADD23C,0.0787*%
%ADD24R,0.07X0.07*%
%ADD25C,0.0709*%
%ADD26O,0.0709X0.189*%
%ADD27O,0.0787X0.1575*%
%ADD28O,0.1575X0.0787*%
%ADD29C,0.079*%
%ADD30R,0.0118X0.0492*%
%ADD31C,0.1575*%
%ADD32R,0.0787X0.0394*%
%ADD33R,0.0394X0.0787*%
%FSLAX44Y44*%
G04*
G70*
G90*
G75*
G01*
%LNTop*%
%LPD*%
X5757Y26995D2*
D13*
X5855D1*
X6503Y26347D1*
Y23476D1*
X6222Y23195D1*
X5757D1*
X18055Y9977D2*
D14*
Y9222D1*
D13*
X18509D1*
X18879Y8852D1*
Y6789D1*
X19316Y6352D1*
X20477D1*
Y6215D1*
Y6381D1*
X27522D1*
X28487D1*
X29632Y7526D1*
X32366D1*
X32446Y7607D1*
X37287D1*
X37291Y7603D1*
X42132D1*
Y7607D1*
X27407Y15965D2*
D19*
X26638Y16734D1*
X23271D1*
X22931Y17073D1*
Y18553D1*
X23258D1*
X18055Y9977D2*
X18308Y10230D1*
X19742D1*
X21078Y11566D1*
X21228D1*
X20477Y6215D2*
X22043Y7781D1*
X23415D1*
X16889Y8633D2*
X16920D1*
D13*
X17509Y9222D1*
X18055D1*
X27522Y6381D2*
D19*
X27510Y5652D1*
X21553Y5094D2*
Y5131D1*
X20362D1*
X20197Y4966D1*
X19828D1*
X23416Y12128D2*
X23378Y12091D1*
X21691D1*
X21603Y12003D1*
X21353Y11753D1*
Y11628D1*
X21290Y11566D1*
X21228D1*
X7039Y22067D2*
X7159D1*
X7329Y21897D1*
X10195D1*
X11125Y20967D1*
X12191D1*
X12542Y20616D1*
Y20525D1*
X21603Y12003D2*
Y13804D1*
X21579Y13780D1*
X23258Y19143D2*
X24032D1*
X24215Y19326D1*
Y25446D1*
X42605Y25942D2*
Y25324D1*
X42132Y24851D1*
X32446D2*
Y24836D1*
X32344D1*
X31779Y24271D1*
Y9338D1*
X30544Y8102D1*
X29082D1*
X27982Y7003D1*
X21915D1*
X21579Y25375D2*
D20*
Y23750D1*
X21578D1*
X17223Y21279D2*
D21*
Y21463D1*
X17935D1*
D15*
X19290D1*
X21578Y23750D1*
D19*
Y22094D1*
X20799Y21315D1*
X18067Y20305D2*
X18132D1*
X19290Y21463D1*
X20579Y25375D2*
D20*
Y23750D1*
X20578D1*
X16967Y21279D2*
D21*
Y20968D1*
D15*
Y20667D1*
X16903Y20604D1*
X19579Y25375D2*
D20*
Y23752D1*
X19578Y23750D1*
X16711Y21279D2*
D15*
Y21686D1*
X16866Y21842D1*
X19115D1*
X19578Y22305D1*
Y23750D1*
X18579Y25375D2*
D20*
Y23752D1*
X18578Y23750D1*
X16455Y21279D2*
D21*
Y22020D1*
X16688Y22253D1*
X17712D1*
D15*
X18565Y23106D1*
Y23750D1*
X18578D1*
X17579Y25375D2*
D20*
Y23752D1*
X17578Y23750D1*
X16199Y21279D2*
D21*
Y20968D1*
D15*
Y20630D1*
X16160Y20591D1*
X16579Y25375D2*
D20*
Y23752D1*
X16578Y23750D1*
X15943Y21279D2*
D21*
Y22814D1*
D15*
X16751Y23623D1*
Y23750D1*
X16578D1*
X15579Y25375D2*
D20*
Y23752D1*
X15578Y23750D1*
X15687Y21279D2*
D21*
Y21352D1*
D15*
Y23859D1*
X15578Y23750D1*
X14579Y25375D2*
D20*
Y23752D1*
X14578Y23750D1*
X15431Y21279D2*
D21*
Y21406D1*
D15*
Y22715D1*
X14396Y23750D1*
X14578D1*
X13579Y25375D2*
D20*
Y23752D1*
X13578Y23750D1*
X15175Y21279D2*
D21*
Y21733D1*
D15*
X13578Y23331D1*
Y23750D1*
X12579Y25375D2*
D20*
Y23752D1*
X12578Y23750D1*
X14919Y21279D2*
D21*
Y20968D1*
D15*
Y20601D1*
X14910Y20591D1*
X11579Y25375D2*
D20*
Y23752D1*
X11578Y23750D1*
X14664Y21279D2*
D21*
Y21147D1*
D15*
X14650Y21134D1*
Y21836D1*
X14227Y22259D1*
X13047D1*
X11578Y23727D1*
Y23750D1*
X10579Y25375D2*
D20*
Y23752D1*
X10578Y23750D1*
X14408Y21279D2*
D21*
Y21588D1*
D15*
X14216Y21780D1*
X12548D1*
X10578Y23750D1*
X9579Y25375D2*
D20*
Y23752D1*
X9578Y23750D1*
X14152Y21279D2*
D21*
Y20968D1*
D15*
Y20645D1*
X14097Y20591D1*
X8579Y25375D2*
D20*
Y23752D1*
X8578Y23750D1*
X13896Y21279D2*
D21*
Y21504D1*
X11578D1*
D15*
X10078Y23004D1*
X9324D1*
X8578Y23750D1*
X8579Y16468D2*
D20*
Y14780D1*
X13896Y19153D2*
D15*
Y18451D1*
X13381Y17936D1*
X10047D1*
X8579Y16468D1*
X9579D2*
D20*
Y14780D1*
X14152Y19153D2*
D21*
Y19463D1*
D15*
Y19786D1*
X14097Y19841D1*
X10579Y16468D2*
D20*
Y14780D1*
X14408Y19153D2*
D21*
Y18320D1*
D15*
X13639Y17552D1*
X11663D1*
X10579Y16468D1*
X11579D2*
D20*
Y14780D1*
X14664Y19153D2*
D21*
Y18033D1*
D15*
X13849Y17218D1*
X12330D1*
X11579Y16468D1*
X12579D2*
D20*
Y14780D1*
X14919Y19153D2*
D21*
Y19463D1*
D15*
Y19831D1*
X14910Y19841D1*
X13579Y16468D2*
D20*
Y14780D1*
X15175Y19153D2*
D15*
Y17940D1*
X13703Y16468D1*
X13579D1*
X14579D2*
D20*
Y14780D1*
X15431Y19153D2*
D21*
Y17684D1*
D15*
X14827Y17080D1*
Y16715D1*
X14579Y16468D1*
X15579D2*
D20*
Y14780D1*
X15687Y19153D2*
D21*
Y17657D1*
D15*
Y16547D1*
X15579Y16655D1*
Y16468D1*
X16579D2*
D20*
Y14780D1*
X15943Y19153D2*
D21*
Y17657D1*
D15*
Y17022D1*
X16497Y16468D1*
X16579D1*
X17579D2*
D20*
Y14780D1*
X16199Y19153D2*
D21*
Y19463D1*
D15*
Y19802D1*
X16160Y19841D1*
X18067Y17305D2*
D19*
Y16955D1*
X17579Y16468D1*
X18579D2*
D20*
Y14780D1*
X16455Y19153D2*
D21*
Y18151D1*
D15*
X16727Y17879D1*
X18728D1*
X18978Y17629D1*
Y16973D1*
X18473Y16468D1*
X18579D1*
X19579D2*
D20*
Y14780D1*
X16711Y19153D2*
D21*
Y18481D1*
D15*
X17022Y18170D1*
X19137D1*
X19599Y17708D1*
Y16468D1*
X19579D1*
X20579D2*
D20*
Y14780D1*
X16903Y19841D2*
D15*
X16967D1*
Y19153D1*
X21579Y16468D2*
D20*
Y14780D1*
X17223Y19153D2*
D15*
Y18966D1*
X17583Y18605D1*
X19442D1*
X21579Y16468D1*
D19*
Y18034D1*
X20799Y18815D1*
X23258Y25639D2*
X23427D1*
Y26491D1*
X22729Y27189D1*
X19308D1*
X18681Y26562D1*
X18393D1*
X18579Y26375D1*
X5757Y25995D2*
D22*
X4653Y24891D1*
Y22657D1*
X5115Y22195D1*
X5757D1*
X5407Y11279D2*
D19*
Y11378D1*
X11289D1*
X11727Y11816D1*
X14477D1*
X15040Y11253D1*
Y11191D1*
X16070Y11190D2*
X16102D1*
Y10316D1*
X15915Y10128D1*
Y5370D1*
X16365Y4920D1*
X16568D1*
X16828Y4782D1*
Y4966D1*
X9377Y19544D2*
D17*
X7888Y21033D1*
X6032D1*
X5078Y20079D1*
Y17740D1*
X6987Y15830D1*
Y14400D1*
X5834Y13247D1*
X5407D1*
X5757Y22195D2*
D13*
Y21033D1*
X6032D1*
X21894Y10903D2*
D15*
X20871D1*
X20290Y10323D1*
Y8901D1*
X20477Y8715D1*
X6531Y17624D2*
X8193Y19286D1*
X8202Y19298D1*
X21894Y10903D2*
D19*
X22610Y11619D1*
X25243D1*
X5757Y27995D2*
X5842D1*
X6975Y26863D1*
Y23819D1*
X8281Y22513D1*
X8217D1*
X13493Y6615D2*
X15579Y8701D1*
Y13780D1*
X10977Y11941D2*
X8605D1*
X7877Y12669D1*
Y16454D1*
X7150Y17181D1*
Y17859D1*
X7761Y18470D1*
X8769D1*
Y18441D1*
X9010Y6464D2*
Y8911D1*
X11102Y11003D1*
X12102D1*
X37292Y26067D2*
X38509Y24851D1*
X40754D1*
X27139Y26451D2*
X26618D1*
X26324Y26744D1*
X23747D1*
X23003Y27489D1*
X18595D1*
X18236Y27130D1*
X16790D1*
X16579Y26919D1*
X16477Y26817D1*
Y26274D1*
X16579Y26375D1*
Y26919D1*
X21728Y9316D2*
Y9248D1*
X22344D1*
X22728Y9632D1*
Y10555D1*
X23012Y10839D1*
X24100D1*
X24412Y10527D1*
Y9073D1*
X24964Y8521D1*
X30475D1*
X31068Y9115D1*
Y24851D1*
X25243Y12619D2*
Y12652D1*
X23381Y14514D1*
X23416D1*
Y10164D2*
X23429Y10151D1*
Y8795D1*
X23415Y8781D1*
X20165Y28193D2*
X23430D1*
X23877Y27746D1*
X27811D1*
X29535Y26023D1*
X29946D1*
X28243Y11619D2*
X27595Y12267D1*
Y14523D1*
X27181Y14936D1*
X25527D1*
X24308Y16155D1*
X18894Y10903D2*
X17633D1*
X16279Y9550D1*
Y6139D1*
X16665Y5753D1*
X19665D1*
X19853Y5565D1*
X21040D1*
X21353Y5878D1*
X23034D1*
X23557Y5355D1*
Y4711D1*
X23177Y4332D1*
X15155D1*
X14704Y4783D1*
Y5916D1*
X14688D1*
X4742Y28455D2*
X4941Y28653D1*
X6546D1*
X7502Y27697D1*
Y23792D1*
X8242Y23051D1*
X8736D1*
X9349Y22438D1*
X13493Y7615D2*
D18*
X12320D1*
X11811Y7106D1*
Y5666D1*
X11237Y5091D1*
X7798D1*
X7159Y5731D1*
Y6795D1*
X6612Y7342D1*
X5407D1*
X19579Y26375D2*
D19*
X19592Y26363D1*
Y26592D1*
X19926Y26926D1*
X22071D1*
X22360Y26637D1*
Y25378D1*
X22689Y25049D1*
X23258D1*
X35913Y24847D2*
Y27530D1*
X34814Y28629D1*
X16289D1*
X15540Y27880D1*
Y26336D1*
X15579Y26375D1*
X15540Y27880D1*
X24563Y27234D2*
X23929D1*
X23408Y27755D1*
X16977D1*
X25992Y26188D2*
X24531D1*
Y26218D1*
X28407Y15965D2*
X29202Y16760D1*
Y19618D1*
X29086Y19734D1*
X28376D1*
X8140Y24563D2*
D15*
X7890Y24813D1*
Y26688D1*
X8390Y27188D1*
X11767D1*
X12579Y26375D1*
X38887Y27991D2*
D19*
X41446D1*
D13*
X6531Y17624D3*
X14097Y20591D3*
X14910D3*
X14097Y19841D3*
X14910D3*
X16903Y20604D3*
Y19841D3*
X16160D3*
Y20591D3*
X27139Y26451D3*
X37292Y26067D3*
X8202Y19298D3*
X8217Y22513D3*
X23416Y12128D3*
X7039Y22067D3*
X9349Y22438D3*
X8140Y24563D3*
X21228Y11566D3*
X24215Y25446D3*
X15040Y11191D3*
X16070Y11190D3*
X8769Y18441D3*
X10977Y11941D3*
X12102Y11003D3*
X9010Y6464D3*
X21728Y9316D3*
X29946Y26023D3*
X20165Y28193D3*
X16977Y27755D3*
X24563Y27234D3*
X24531Y26218D3*
X25992Y26188D3*
X42605Y25942D3*
X21915Y7003D3*
X14688Y5916D3*
X4742Y28455D3*
D23*
X5757Y24195D3*
Y23195D3*
Y22195D3*
Y27995D3*
Y26995D3*
Y25995D3*
D24*
X23415Y8781D3*
D16*
Y7781D3*
D24*
X27284Y7806D3*
D16*
X26284D3*
X24308Y16155D3*
D24*
X23308D3*
D16*
X20477Y6215D3*
D24*
Y8715D3*
D16*
X21553Y5094D3*
D24*
X22553D3*
D16*
X25737Y13971D3*
D24*
X26737D3*
D16*
X20799Y18815D3*
D24*
Y21315D3*
X23416Y10164D3*
D25*
Y14514D3*
D23*
X13493Y8615D3*
Y7615D3*
Y6615D3*
X10277Y8625D3*
Y7625D3*
Y6625D3*
X16889Y8633D3*
Y7633D3*
Y6633D3*
X8578Y23750D3*
X9578D3*
X10578D3*
X11578D3*
X12578D3*
X13578D3*
X14578D3*
X15578D3*
X16578D3*
X17578D3*
X18578D3*
X19578D3*
X20578D3*
X21578D3*
X21579Y16468D3*
X20579D3*
X19579D3*
X18579D3*
X17579D3*
X16579D3*
X15579D3*
X14579D3*
X13579D3*
X12579D3*
X11579D3*
X10579D3*
X9579D3*
X8579D3*
X21579Y26375D3*
X20579D3*
X19579D3*
X18579D3*
X17579D3*
X16579D3*
X15579D3*
X14579D3*
X13579D3*
X12579D3*
X11579D3*
X10579D3*
X9579D3*
X8579D3*
Y25375D3*
X9579D3*
X10579D3*
X11579D3*
X12579D3*
X13579D3*
X14579D3*
X15579D3*
X16579D3*
X17579D3*
X18579D3*
X19579D3*
X20579D3*
X21579D3*
Y14780D3*
X20579D3*
X19579D3*
X18579D3*
X17579D3*
X16579D3*
X15579D3*
X14579D3*
X13579D3*
X12579D3*
X11579D3*
X10579D3*
X9579D3*
X8579D3*
Y13780D3*
X9579D3*
X10579D3*
X11579D3*
X12579D3*
X13579D3*
X14579D3*
X15579D3*
X16579D3*
X17579D3*
X18579D3*
X19579D3*
X20579D3*
X21579D3*
D26*
X9377Y19544D3*
D27*
X7015D3*
D28*
X8196Y17615D3*
D16*
X28407Y15965D3*
D24*
X27407D3*
X28243Y9619D3*
D29*
Y10619D3*
Y11619D3*
Y12619D3*
X25243D3*
Y11619D3*
Y10619D3*
Y9619D3*
D24*
X12542Y19525D3*
D29*
Y20525D3*
D16*
X18055Y9977D3*
D29*
X21055D3*
D16*
X27510Y5652D3*
D29*
X24510D3*
D16*
X27510Y4662D3*
D29*
X24510D3*
D16*
X21894Y10903D3*
D29*
X18894D3*
D16*
X18067Y17305D3*
D29*
Y20305D3*
D24*
X31669Y27921D3*
D29*
Y26149D3*
X34229D3*
Y27921D3*
D24*
X38887Y27991D3*
D29*
Y26219D3*
X41446D3*
Y27991D3*
D23*
X42132Y24851D3*
X40754D3*
X42132Y7607D3*
X37291Y24847D3*
X35913D3*
X37291Y7603D3*
X32446Y24851D3*
X31068D3*
X32446Y7607D3*
D30*
X17223Y21279D3*
X16967D3*
X16711D3*
X16455D3*
X16199D3*
X15943D3*
X15687D3*
X15431D3*
X15175D3*
X14919D3*
X14664D3*
X14408D3*
X14152D3*
X13896D3*
Y19153D3*
X14152D3*
X14408D3*
X14664D3*
X14919D3*
X15175D3*
X15431D3*
X15687D3*
X15943D3*
X16199D3*
X16455D3*
X16711D3*
X16967D3*
X17223D3*
D23*
X19828Y4966D3*
X18828D3*
X17828D3*
X16828D3*
D31*
X5407Y15216D3*
Y13247D3*
Y11279D3*
Y9310D3*
Y7342D3*
Y5373D3*
D32*
X23258Y25639D3*
Y25049D3*
Y24458D3*
Y23868D3*
Y23277D3*
Y22686D3*
Y22096D3*
Y21505D3*
Y20915D3*
Y20324D3*
Y19734D3*
Y19143D3*
Y18553D3*
D33*
X23750Y17849D3*
X24340D3*
X24931D3*
X25522D3*
X26112D3*
X26703D3*
X27293D3*
X27884D3*
D32*
X28376Y18553D3*
Y19143D3*
Y19734D3*
Y20324D3*
Y20915D3*
Y21505D3*
X28377Y22096D3*
X28376Y22686D3*
Y23277D3*
Y23868D3*
Y24458D3*
Y25049D3*
Y25639D3*
M02*
