G04 DipTrace 2.3.0.3*
%INTopSilk.gbr*%
%MOIN*%
%ADD10C,0.0098*%
%ADD12C,0.003*%
%ADD65C,0.0093*%
%ADD66C,0.0062*%
%ADD67C,0.0185*%
%ADD68C,0.0124*%
%FSLAX44Y44*%
G04*
G70*
G90*
G75*
G01*
%LNTopSilk*%
%LPD*%
X6382Y24882D2*
D10*
X4882D1*
Y21507D1*
X6382D1*
Y24882D1*
G36*
X5194Y24820D2*
X4882D1*
Y21570D1*
X5194D1*
Y24820D1*
G37*
X6382Y28682D2*
D10*
X4882D1*
Y25307D1*
X6382D1*
Y28682D1*
G36*
X5194Y28620D2*
X4882D1*
Y25370D1*
X5194D1*
Y28620D1*
G37*
X23297Y9580D2*
D10*
X23533D1*
X23415Y9698D2*
Y9462D1*
X22415Y8281D2*
G02X22415Y8281I1000J0D01*
G01*
X28083Y7924D2*
Y7688D1*
X28201Y7806D2*
X27965D1*
X25784D2*
G02X25784Y7806I1000J0D01*
G01*
X23108Y15555D2*
X24507D1*
X23108Y16755D2*
X24507D1*
Y15555D2*
G03X24507Y16755I1J600D01*
G01*
X23108D2*
G03X23108Y15555I-1J-600D01*
G01*
X22745Y16037D2*
Y16273D1*
X22627Y16155D2*
X22863D1*
X20359Y9527D2*
X20595D1*
X20477Y9645D2*
Y9409D1*
X18725Y7465D2*
G02X18725Y7465I1752J0D01*
G01*
X22752Y5694D2*
X21354D1*
X22752Y4494D2*
X21354D1*
Y5694D2*
G03X21354Y4494I-1J-600D01*
G01*
X22752D2*
G03X22752Y5694I1J600D01*
G01*
X23116Y5213D2*
Y4976D1*
X23234Y5094D2*
X22998D1*
X26936Y14571D2*
X25537D1*
X26936Y13371D2*
X25537D1*
Y14571D2*
G03X25537Y13371I-1J-600D01*
G01*
X26936D2*
G03X26936Y14571I1J600D01*
G01*
X27300Y14089D2*
Y13852D1*
X27418Y13971D2*
X27182D1*
X20681Y22127D2*
X20917D1*
X20799Y22245D2*
Y22009D1*
X19047Y20065D2*
G02X19047Y20065I1752J0D01*
G01*
X23967Y11393D2*
X22865D1*
Y11413D2*
Y13265D1*
X23967Y11692D2*
X22865D1*
X23967Y13265D2*
X22865D1*
X23967Y11413D2*
Y13265D1*
X14118Y9302D2*
X12618D1*
Y5927D1*
X14118D1*
Y9302D1*
G36*
X12930Y9240D2*
X12618D1*
Y5990D1*
X12930D1*
Y9240D1*
G37*
X10902Y9312D2*
D10*
X9402D1*
Y5937D1*
X10902D1*
Y9312D1*
G36*
X9714Y9250D2*
X9402D1*
Y6000D1*
X9714D1*
Y9250D1*
G37*
X17514Y9321D2*
D10*
X16014D1*
Y5946D1*
X17514D1*
Y9321D1*
G36*
X16326Y9258D2*
X16014D1*
Y6008D1*
X16326D1*
Y9258D1*
G37*
X9693Y18559D2*
D10*
Y17772D1*
X3984Y21315D2*
X9693D1*
Y20548D1*
Y17772D2*
X9200D1*
X7153D2*
X3984D1*
Y21315D1*
X26907Y15215D2*
Y16714D1*
X26909Y15212D2*
G03X26909Y16717I998J752D01*
G01*
X25719Y9150D2*
Y13087D1*
X27767D2*
X25719D1*
X27767Y9150D2*
Y13087D1*
Y9150D2*
X26979D1*
X25719D2*
X26507D1*
X26979D2*
G03X26507Y9150I-236J0D01*
G01*
X9845Y20025D2*
G02X9845Y20025I1909J0D01*
G01*
X18753Y10277D2*
Y9677D1*
X20356Y10277D2*
X18753D1*
X20356D2*
Y9677D1*
X18753D1*
X26812Y5352D2*
Y5952D1*
X25209Y5352D2*
X26812D1*
X25209D2*
Y5952D1*
X26812D1*
Y4362D2*
Y4962D1*
X25209Y4362D2*
X26812D1*
X25209D2*
Y4962D1*
X26812D1*
X21196Y10604D2*
Y11203D1*
X19593Y10604D2*
X21196D1*
X19593D2*
Y11203D1*
X21196D1*
X17767Y18003D2*
X18367D1*
X17767Y19606D2*
Y18003D1*
Y19606D2*
X18367D1*
Y18003D1*
X32240Y27035D2*
G02X32240Y27035I709J0D01*
G01*
X32043Y25854D2*
X33855D1*
X34130Y26641D2*
Y27429D1*
X33855Y28216D2*
X32201D1*
X31768Y27429D2*
Y26641D1*
X32359Y27035D2*
G02X32359Y27035I590J0D01*
G01*
X39458Y27105D2*
G02X39458Y27105I709J0D01*
G01*
X39261Y25924D2*
X41072D1*
X41348Y26711D2*
Y27499D1*
X41072Y28286D2*
X39419D1*
X38986Y27499D2*
Y26711D1*
X39576Y27105D2*
G02X39576Y27105I590J0D01*
G01*
X43883Y25362D2*
X39002D1*
Y7095D1*
X43883D1*
Y25362D1*
X39043Y25359D2*
X34161D1*
Y7091D1*
X39043D1*
Y25359D1*
X34198Y25362D2*
X29316D1*
Y7095D1*
X34198D1*
Y25362D1*
X17434Y20903D2*
X13684D1*
Y19528D1*
X17434D1*
Y20903D1*
X17184Y20684D2*
G02X17184Y20684I31J0D01*
G01*
X6407Y16295D2*
X4407D1*
Y4295D1*
X6407D1*
Y16295D1*
X22719Y28581D2*
X28917D1*
Y17329D1*
X22719D1*
Y28581D1*
X22827Y28145D2*
X23326D1*
Y27144D1*
X23826D1*
Y28145D1*
X24327D1*
Y27144D2*
Y28145D1*
X24827D2*
X25327D1*
X25826D2*
X26327D1*
X26827D2*
X27327D1*
X24327Y27144D2*
X24827D1*
Y28145D1*
X25327D2*
Y27144D1*
X25826D1*
Y28145D1*
X26327D2*
Y27144D1*
X26827D1*
Y28145D1*
X27327D2*
Y27144D1*
X27826D1*
Y28145D2*
Y27144D1*
Y28145D2*
X28327D1*
Y26645D1*
X25327Y20145D2*
X27826D1*
Y18644D1*
X25327D1*
Y20145D1*
Y24144D2*
X27826D1*
Y21645D1*
X25327D1*
Y24144D1*
X31099Y6278D2*
D12*
X32629D1*
X33139D2*
X33709D1*
X33949D2*
X34489D1*
X35569D2*
X37189D1*
X37429D2*
X38899D1*
X31099Y6248D2*
X32691D1*
X33139D2*
X33709D1*
X33949D2*
X34489D1*
X35569D2*
X37189D1*
X37429D2*
X38985D1*
X31099Y6218D2*
X32746D1*
X33139D2*
X33709D1*
X33949D2*
X34489D1*
X35569D2*
X37189D1*
X37429D2*
X39057D1*
X31099Y6188D2*
X32791D1*
X33139D2*
X33709D1*
X33949D2*
X34489D1*
X35569D2*
X37189D1*
X37429D2*
X39113D1*
X31099Y6158D2*
X32826D1*
X33139D2*
X33709D1*
X33949D2*
X34489D1*
X35569D2*
X37189D1*
X37429D2*
X39153D1*
X31099Y6128D2*
X32853D1*
X33139D2*
X33709D1*
X33949D2*
X34489D1*
X35569D2*
X37189D1*
X37429D2*
X39182D1*
X31099Y6098D2*
X32873D1*
X33139D2*
X33709D1*
X33949D2*
X34489D1*
X35569D2*
X37189D1*
X37429D2*
X39206D1*
X31099Y6068D2*
X32890D1*
X33139D2*
X33709D1*
X33949D2*
X34489D1*
X35569D2*
X37189D1*
X37429D2*
X39227D1*
X31099Y6038D2*
X32905D1*
X33139D2*
X33709D1*
X33949D2*
X34489D1*
X35569D2*
X37189D1*
X37429D2*
X39243D1*
X31099Y6008D2*
X32916D1*
X33139D2*
X33709D1*
X33949D2*
X34489D1*
X35569D2*
X37189D1*
X37429D2*
X39253D1*
X31099Y5978D2*
X32923D1*
X33139D2*
X33709D1*
X33949D2*
X34489D1*
X35569D2*
X37189D1*
X37429D2*
X39261D1*
X31099Y5948D2*
X32928D1*
X33139D2*
X33709D1*
X33949D2*
X34489D1*
X35569D2*
X37189D1*
X37429D2*
X39270D1*
X31099Y5918D2*
X32933D1*
X33139D2*
X33709D1*
X33949D2*
X34489D1*
X35569D2*
X37189D1*
X37429D2*
X39278D1*
X31099Y5888D2*
X32941D1*
X33139D2*
X33709D1*
X33949D2*
X34489D1*
X35569D2*
X37189D1*
X37429D2*
X39284D1*
X31099Y5858D2*
X32949D1*
X33139D2*
X33709D1*
X33949D2*
X34489D1*
X35569D2*
X37189D1*
X37429D2*
X39287D1*
X31099Y5828D2*
X32954D1*
X33139D2*
X33709D1*
X33949D2*
X34489D1*
X35569D2*
X37189D1*
X37429D2*
X39288D1*
X31099Y5798D2*
X31639D1*
X32389D2*
X32957D1*
X33139D2*
X33709D1*
X33949D2*
X34489D1*
X35569D2*
X36109D1*
X37429D2*
X37969D1*
X38749D2*
X39289D1*
X31099Y5768D2*
X31639D1*
X32389D2*
X32958D1*
X33139D2*
X33709D1*
X33949D2*
X34489D1*
X35569D2*
X36109D1*
X37429D2*
X37969D1*
X38749D2*
X39289D1*
X31099Y5738D2*
X31639D1*
X32389D2*
X32959D1*
X33139D2*
X33709D1*
X33949D2*
X34489D1*
X35569D2*
X36109D1*
X37429D2*
X37969D1*
X38749D2*
X39289D1*
X31099Y5708D2*
X31639D1*
X32389D2*
X32959D1*
X33139D2*
X33709D1*
X33949D2*
X34489D1*
X35569D2*
X36109D1*
X37429D2*
X37969D1*
X38749D2*
X39289D1*
X31099Y5678D2*
X31639D1*
X32389D2*
X32959D1*
X33139D2*
X33709D1*
X33949D2*
X34489D1*
X35569D2*
X36109D1*
X37429D2*
X37969D1*
X38749D2*
X39289D1*
X31099Y5648D2*
X31639D1*
X32389D2*
X32959D1*
X33139D2*
X33709D1*
X33949D2*
X34489D1*
X35569D2*
X36109D1*
X37429D2*
X37969D1*
X38749D2*
X39289D1*
X31099Y5618D2*
X31639D1*
X32389D2*
X32959D1*
X33139D2*
X33709D1*
X33949D2*
X34489D1*
X35569D2*
X36109D1*
X37429D2*
X37969D1*
X38749D2*
X39289D1*
X31099Y5588D2*
X31639D1*
X32389D2*
X32959D1*
X33139D2*
X33709D1*
X33949D2*
X34489D1*
X35569D2*
X36109D1*
X37429D2*
X37969D1*
X38749D2*
X39289D1*
X31099Y5558D2*
X31639D1*
X32389D2*
X32959D1*
X33139D2*
X33709D1*
X33949D2*
X34489D1*
X35569D2*
X36109D1*
X37429D2*
X37969D1*
X38749D2*
X39289D1*
X31099Y5528D2*
X31639D1*
X32389D2*
X32959D1*
X33139D2*
X33709D1*
X33949D2*
X34489D1*
X35569D2*
X37189D1*
X37429D2*
X37969D1*
X38749D2*
X39289D1*
X31099Y5498D2*
X31639D1*
X32389D2*
X32958D1*
X33139D2*
X33709D1*
X33949D2*
X34489D1*
X35569D2*
X37189D1*
X37429D2*
X37969D1*
X38749D2*
X39289D1*
X31099Y5468D2*
X31639D1*
X32389D2*
X32954D1*
X33139D2*
X33709D1*
X33949D2*
X34489D1*
X35569D2*
X37189D1*
X37429D2*
X37969D1*
X38749D2*
X39289D1*
X31099Y5438D2*
X31639D1*
X32389D2*
X32947D1*
X33139D2*
X33709D1*
X33949D2*
X34489D1*
X35569D2*
X37189D1*
X37429D2*
X37969D1*
X38749D2*
X39289D1*
X31099Y5408D2*
X31639D1*
X32389D2*
X32939D1*
X33139D2*
X33709D1*
X33949D2*
X34489D1*
X35569D2*
X37189D1*
X37429D2*
X37969D1*
X38749D2*
X39289D1*
X31099Y5378D2*
X32933D1*
X33139D2*
X33709D1*
X33949D2*
X34489D1*
X35569D2*
X37189D1*
X37429D2*
X37969D1*
X38749D2*
X39289D1*
X31099Y5348D2*
X32926D1*
X33139D2*
X33709D1*
X33949D2*
X34489D1*
X35569D2*
X37189D1*
X37429D2*
X37969D1*
X38749D2*
X39289D1*
X31099Y5318D2*
X32916D1*
X33139D2*
X33709D1*
X33949D2*
X34489D1*
X35569D2*
X37189D1*
X37429D2*
X37969D1*
X38749D2*
X39289D1*
X31099Y5288D2*
X32904D1*
X33139D2*
X33709D1*
X33949D2*
X34489D1*
X35569D2*
X37189D1*
X37429D2*
X37969D1*
X38749D2*
X39289D1*
X31099Y5258D2*
X32890D1*
X33139D2*
X33709D1*
X33949D2*
X34489D1*
X35569D2*
X37189D1*
X37429D2*
X37969D1*
X38749D2*
X39289D1*
X31099Y5228D2*
X32875D1*
X33139D2*
X33709D1*
X33949D2*
X34489D1*
X35569D2*
X37189D1*
X37429D2*
X37969D1*
X38749D2*
X39289D1*
X31099Y5198D2*
X32856D1*
X33139D2*
X33709D1*
X33949D2*
X34489D1*
X35569D2*
X37189D1*
X37429D2*
X37969D1*
X38749D2*
X39289D1*
X31099Y5168D2*
X32833D1*
X33139D2*
X33709D1*
X33949D2*
X34489D1*
X35569D2*
X36109D1*
X37429D2*
X37969D1*
X38749D2*
X39289D1*
X31099Y5138D2*
X32805D1*
X33139D2*
X33709D1*
X33949D2*
X34489D1*
X35569D2*
X36109D1*
X37429D2*
X37969D1*
X38749D2*
X39289D1*
X31099Y5108D2*
X32769D1*
X33139D2*
X33709D1*
X33949D2*
X34489D1*
X35569D2*
X36109D1*
X37429D2*
X37969D1*
X38749D2*
X39289D1*
X31099Y5078D2*
X32718D1*
X33139D2*
X33709D1*
X33949D2*
X34489D1*
X35569D2*
X36109D1*
X37429D2*
X37969D1*
X38749D2*
X39289D1*
X31099Y5048D2*
X32649D1*
X33139D2*
X33709D1*
X33949D2*
X34489D1*
X35569D2*
X36109D1*
X37429D2*
X37969D1*
X38749D2*
X39289D1*
X31099Y5018D2*
X32569D1*
X33139D2*
X33709D1*
X33949D2*
X34489D1*
X35569D2*
X36109D1*
X37429D2*
X37969D1*
X38749D2*
X39289D1*
X31099Y4988D2*
X31639D1*
X33139D2*
X33709D1*
X33949D2*
X34489D1*
X35569D2*
X36109D1*
X37429D2*
X37969D1*
X38749D2*
X39289D1*
X31099Y4958D2*
X31639D1*
X33139D2*
X33709D1*
X33949D2*
X34489D1*
X35569D2*
X36109D1*
X37429D2*
X37969D1*
X38749D2*
X39289D1*
X31099Y4928D2*
X31639D1*
X33139D2*
X33709D1*
X33949D2*
X34489D1*
X35569D2*
X36109D1*
X37429D2*
X37969D1*
X38749D2*
X39289D1*
X31099Y4898D2*
X31639D1*
X33139D2*
X33709D1*
X33949D2*
X34489D1*
X35569D2*
X36109D1*
X37429D2*
X37969D1*
X38749D2*
X39289D1*
X31099Y4868D2*
X31639D1*
X33139D2*
X33709D1*
X33949D2*
X35449D1*
X35569D2*
X37189D1*
X37429D2*
X39289D1*
X31099Y4838D2*
X31639D1*
X33139D2*
X33709D1*
X33949D2*
X35449D1*
X35569D2*
X37189D1*
X37429D2*
X39288D1*
X31099Y4808D2*
X31639D1*
X33139D2*
X33709D1*
X33949D2*
X35449D1*
X35569D2*
X37189D1*
X37429D2*
X39284D1*
X31099Y4778D2*
X31639D1*
X33139D2*
X33709D1*
X33949D2*
X35449D1*
X35569D2*
X37189D1*
X37429D2*
X39277D1*
X31099Y4748D2*
X31639D1*
X33139D2*
X33709D1*
X33949D2*
X35449D1*
X35569D2*
X37189D1*
X37429D2*
X39268D1*
X31099Y4718D2*
X31639D1*
X33139D2*
X33709D1*
X33949D2*
X35449D1*
X35569D2*
X37189D1*
X37429D2*
X39258D1*
X31099Y4688D2*
X31639D1*
X33139D2*
X33709D1*
X33949D2*
X35449D1*
X35569D2*
X37189D1*
X37429D2*
X39244D1*
X31099Y4658D2*
X31639D1*
X33139D2*
X33709D1*
X33949D2*
X35449D1*
X35569D2*
X37189D1*
X37429D2*
X39226D1*
X31099Y4628D2*
X31639D1*
X33139D2*
X33709D1*
X33949D2*
X35449D1*
X35569D2*
X37189D1*
X37429D2*
X39208D1*
X31099Y4598D2*
X31639D1*
X33139D2*
X33709D1*
X33949D2*
X35449D1*
X35569D2*
X37189D1*
X37429D2*
X39188D1*
X31099Y4568D2*
X31639D1*
X33139D2*
X33709D1*
X33949D2*
X35449D1*
X35569D2*
X37189D1*
X37429D2*
X39163D1*
X31099Y4538D2*
X31639D1*
X33139D2*
X33709D1*
X33949D2*
X35449D1*
X35569D2*
X37189D1*
X37429D2*
X39135D1*
X31099Y4508D2*
X31639D1*
X33139D2*
X33709D1*
X33949D2*
X35449D1*
X35569D2*
X37189D1*
X37429D2*
X39101D1*
X31099Y4478D2*
X31639D1*
X33139D2*
X33709D1*
X33949D2*
X35449D1*
X35569D2*
X37189D1*
X37429D2*
X39054D1*
X31099Y4448D2*
X31639D1*
X33139D2*
X33709D1*
X33949D2*
X35449D1*
X35569D2*
X37189D1*
X37429D2*
X38995D1*
X31099Y4418D2*
X31639D1*
X33139D2*
X33709D1*
X33949D2*
X35449D1*
X35569D2*
X37189D1*
X37429D2*
X38929D1*
X31099Y6278D2*
Y6248D1*
Y6218D1*
Y6188D1*
Y6158D1*
Y6128D1*
Y6098D1*
Y6068D1*
Y6038D1*
Y6008D1*
Y5978D1*
Y5948D1*
Y5918D1*
Y5888D1*
Y5858D1*
Y5828D1*
Y5798D1*
Y5768D1*
Y5738D1*
Y5708D1*
Y5678D1*
Y5648D1*
Y5618D1*
Y5588D1*
Y5558D1*
Y5528D1*
Y5498D1*
Y5468D1*
Y5438D1*
Y5408D1*
Y5378D1*
Y5348D1*
Y5318D1*
Y5288D1*
Y5258D1*
Y5228D1*
Y5198D1*
Y5168D1*
Y5138D1*
Y5108D1*
Y5078D1*
Y5048D1*
Y5018D1*
Y4988D1*
Y4958D1*
Y4928D1*
Y4898D1*
Y4868D1*
Y4838D1*
Y4808D1*
Y4778D1*
Y4748D1*
Y4718D1*
Y4688D1*
Y4658D1*
Y4628D1*
Y4598D1*
Y4568D1*
Y4538D1*
Y4508D1*
Y4478D1*
Y4448D1*
Y4418D1*
X32629Y6278D2*
X32691Y6248D1*
X32746Y6218D1*
X32791Y6188D1*
X32826Y6158D1*
X32853Y6128D1*
X32873Y6098D1*
X32890Y6068D1*
X32905Y6038D1*
X32916Y6008D1*
X32923Y5978D1*
X32928Y5948D1*
X32933Y5918D1*
X32941Y5888D1*
X32949Y5858D1*
X32954Y5828D1*
X32957Y5798D1*
X32958Y5768D1*
X32959Y5738D1*
Y5708D1*
Y5678D1*
Y5648D1*
Y5618D1*
Y5588D1*
Y5558D1*
Y5528D1*
X32958Y5498D1*
X32954Y5468D1*
X32947Y5438D1*
X32939Y5408D1*
X32933Y5378D1*
X32926Y5348D1*
X32916Y5318D1*
X32904Y5288D1*
X32890Y5258D1*
X32875Y5228D1*
X32856Y5198D1*
X32833Y5168D1*
X32805Y5138D1*
X32769Y5108D1*
X32718Y5078D1*
X32649Y5048D1*
X32569Y5018D1*
X33139Y6278D2*
Y6248D1*
Y6218D1*
Y6188D1*
Y6158D1*
Y6128D1*
Y6098D1*
Y6068D1*
Y6038D1*
Y6008D1*
Y5978D1*
Y5948D1*
Y5918D1*
Y5888D1*
Y5858D1*
Y5828D1*
Y5798D1*
Y5768D1*
Y5738D1*
Y5708D1*
Y5678D1*
Y5648D1*
Y5618D1*
Y5588D1*
Y5558D1*
Y5528D1*
Y5498D1*
Y5468D1*
Y5438D1*
Y5408D1*
Y5378D1*
Y5348D1*
Y5318D1*
Y5288D1*
Y5258D1*
Y5228D1*
Y5198D1*
Y5168D1*
Y5138D1*
Y5108D1*
Y5078D1*
Y5048D1*
Y5018D1*
Y4988D1*
Y4958D1*
Y4928D1*
Y4898D1*
Y4868D1*
Y4838D1*
Y4808D1*
Y4778D1*
Y4748D1*
Y4718D1*
Y4688D1*
Y4658D1*
Y4628D1*
Y4598D1*
Y4568D1*
Y4538D1*
Y4508D1*
Y4478D1*
Y4448D1*
Y4418D1*
X33709Y6278D2*
Y6248D1*
Y6218D1*
Y6188D1*
Y6158D1*
Y6128D1*
Y6098D1*
Y6068D1*
Y6038D1*
Y6008D1*
Y5978D1*
Y5948D1*
Y5918D1*
Y5888D1*
Y5858D1*
Y5828D1*
Y5798D1*
Y5768D1*
Y5738D1*
Y5708D1*
Y5678D1*
Y5648D1*
Y5618D1*
Y5588D1*
Y5558D1*
Y5528D1*
Y5498D1*
Y5468D1*
Y5438D1*
Y5408D1*
Y5378D1*
Y5348D1*
Y5318D1*
Y5288D1*
Y5258D1*
Y5228D1*
Y5198D1*
Y5168D1*
Y5138D1*
Y5108D1*
Y5078D1*
Y5048D1*
Y5018D1*
Y4988D1*
Y4958D1*
Y4928D1*
Y4898D1*
Y4868D1*
Y4838D1*
Y4808D1*
Y4778D1*
Y4748D1*
Y4718D1*
Y4688D1*
Y4658D1*
Y4628D1*
Y4598D1*
Y4568D1*
Y4538D1*
Y4508D1*
Y4478D1*
Y4448D1*
Y4418D1*
X33949Y6278D2*
Y6248D1*
Y6218D1*
Y6188D1*
Y6158D1*
Y6128D1*
Y6098D1*
Y6068D1*
Y6038D1*
Y6008D1*
Y5978D1*
Y5948D1*
Y5918D1*
Y5888D1*
Y5858D1*
Y5828D1*
Y5798D1*
Y5768D1*
Y5738D1*
Y5708D1*
Y5678D1*
Y5648D1*
Y5618D1*
Y5588D1*
Y5558D1*
Y5528D1*
Y5498D1*
Y5468D1*
Y5438D1*
Y5408D1*
Y5378D1*
Y5348D1*
Y5318D1*
Y5288D1*
Y5258D1*
Y5228D1*
Y5198D1*
Y5168D1*
Y5138D1*
Y5108D1*
Y5078D1*
Y5048D1*
Y5018D1*
Y4988D1*
Y4958D1*
Y4928D1*
Y4898D1*
Y4868D1*
Y4838D1*
Y4808D1*
Y4778D1*
Y4748D1*
Y4718D1*
Y4688D1*
Y4658D1*
Y4628D1*
Y4598D1*
Y4568D1*
Y4538D1*
Y4508D1*
Y4478D1*
Y4448D1*
Y4418D1*
X34489Y6278D2*
Y6248D1*
Y6218D1*
Y6188D1*
Y6158D1*
Y6128D1*
Y6098D1*
Y6068D1*
Y6038D1*
Y6008D1*
Y5978D1*
Y5948D1*
Y5918D1*
Y5888D1*
Y5858D1*
Y5828D1*
Y5798D1*
Y5768D1*
Y5738D1*
Y5708D1*
Y5678D1*
Y5648D1*
Y5618D1*
Y5588D1*
Y5558D1*
Y5528D1*
Y5498D1*
Y5468D1*
Y5438D1*
Y5408D1*
Y5378D1*
Y5348D1*
Y5318D1*
Y5288D1*
Y5258D1*
Y5228D1*
Y5198D1*
Y5168D1*
Y5138D1*
Y5108D1*
Y5078D1*
Y5048D1*
Y5018D1*
Y4988D1*
Y4958D1*
Y4928D1*
Y4898D1*
Y4868D1*
X35569Y6278D2*
Y6248D1*
Y6218D1*
Y6188D1*
Y6158D1*
Y6128D1*
Y6098D1*
Y6068D1*
Y6038D1*
Y6008D1*
Y5978D1*
Y5948D1*
Y5918D1*
Y5888D1*
Y5858D1*
Y5828D1*
Y5798D1*
Y5768D1*
Y5738D1*
Y5708D1*
Y5678D1*
Y5648D1*
Y5618D1*
Y5588D1*
Y5558D1*
Y5528D1*
Y5498D1*
Y5468D1*
Y5438D1*
Y5408D1*
Y5378D1*
Y5348D1*
Y5318D1*
Y5288D1*
Y5258D1*
Y5228D1*
Y5198D1*
Y5168D1*
Y5138D1*
Y5108D1*
Y5078D1*
Y5048D1*
Y5018D1*
Y4988D1*
Y4958D1*
Y4928D1*
Y4898D1*
Y4868D1*
Y4838D1*
Y4808D1*
Y4778D1*
Y4748D1*
Y4718D1*
Y4688D1*
Y4658D1*
Y4628D1*
Y4598D1*
Y4568D1*
Y4538D1*
Y4508D1*
Y4478D1*
Y4448D1*
Y4418D1*
X37189Y6278D2*
Y6248D1*
Y6218D1*
Y6188D1*
Y6158D1*
Y6128D1*
Y6098D1*
Y6068D1*
Y6038D1*
Y6008D1*
Y5978D1*
Y5948D1*
Y5918D1*
Y5888D1*
Y5858D1*
Y5828D1*
X37429Y6278D2*
Y6248D1*
Y6218D1*
Y6188D1*
Y6158D1*
Y6128D1*
Y6098D1*
Y6068D1*
Y6038D1*
Y6008D1*
Y5978D1*
Y5948D1*
Y5918D1*
Y5888D1*
Y5858D1*
Y5828D1*
Y5798D1*
Y5768D1*
Y5738D1*
Y5708D1*
Y5678D1*
Y5648D1*
Y5618D1*
Y5588D1*
Y5558D1*
Y5528D1*
Y5498D1*
Y5468D1*
Y5438D1*
Y5408D1*
Y5378D1*
Y5348D1*
Y5318D1*
Y5288D1*
Y5258D1*
Y5228D1*
Y5198D1*
Y5168D1*
Y5138D1*
Y5108D1*
Y5078D1*
Y5048D1*
Y5018D1*
Y4988D1*
Y4958D1*
Y4928D1*
Y4898D1*
Y4868D1*
Y4838D1*
Y4808D1*
Y4778D1*
Y4748D1*
Y4718D1*
Y4688D1*
Y4658D1*
Y4628D1*
Y4598D1*
Y4568D1*
Y4538D1*
Y4508D1*
Y4478D1*
Y4448D1*
Y4418D1*
X38899Y6278D2*
X38985Y6248D1*
X39057Y6218D1*
X39113Y6188D1*
X39153Y6158D1*
X39182Y6128D1*
X39206Y6098D1*
X39227Y6068D1*
X39243Y6038D1*
X39253Y6008D1*
X39261Y5978D1*
X39270Y5948D1*
X39278Y5918D1*
X39284Y5888D1*
X39287Y5858D1*
X39288Y5828D1*
X39289Y5798D1*
Y5768D1*
Y5738D1*
Y5708D1*
Y5678D1*
Y5648D1*
Y5618D1*
Y5588D1*
Y5558D1*
Y5528D1*
Y5498D1*
Y5468D1*
Y5438D1*
Y5408D1*
Y5378D1*
Y5348D1*
Y5318D1*
Y5288D1*
Y5258D1*
Y5228D1*
Y5198D1*
Y5168D1*
Y5138D1*
Y5108D1*
Y5078D1*
Y5048D1*
Y5018D1*
Y4988D1*
Y4958D1*
Y4928D1*
Y4898D1*
Y4868D1*
X39288Y4838D1*
X39284Y4808D1*
X39277Y4778D1*
X39268Y4748D1*
X39258Y4718D1*
X39244Y4688D1*
X39226Y4658D1*
X39208Y4628D1*
X39188Y4598D1*
X39163Y4568D1*
X39135Y4538D1*
X39101Y4508D1*
X39054Y4478D1*
X38995Y4448D1*
X38929Y4418D1*
X31639Y5828D2*
Y5798D1*
Y5768D1*
Y5738D1*
Y5708D1*
Y5678D1*
Y5648D1*
Y5618D1*
Y5588D1*
Y5558D1*
Y5528D1*
Y5498D1*
Y5468D1*
Y5438D1*
Y5408D1*
Y5378D1*
X32389Y5828D2*
Y5798D1*
Y5768D1*
Y5738D1*
Y5708D1*
Y5678D1*
Y5648D1*
Y5618D1*
Y5588D1*
Y5558D1*
Y5528D1*
Y5498D1*
Y5468D1*
Y5438D1*
Y5408D1*
Y5378D1*
X36109Y5828D2*
Y5798D1*
Y5768D1*
Y5738D1*
Y5708D1*
Y5678D1*
Y5648D1*
Y5618D1*
Y5588D1*
Y5558D1*
Y5528D1*
X37969Y5828D2*
Y5798D1*
Y5768D1*
Y5738D1*
Y5708D1*
Y5678D1*
Y5648D1*
Y5618D1*
Y5588D1*
Y5558D1*
Y5528D1*
Y5498D1*
Y5468D1*
Y5438D1*
Y5408D1*
Y5378D1*
Y5348D1*
Y5318D1*
Y5288D1*
Y5258D1*
Y5228D1*
Y5198D1*
Y5168D1*
Y5138D1*
Y5108D1*
Y5078D1*
Y5048D1*
Y5018D1*
Y4988D1*
Y4958D1*
Y4928D1*
Y4898D1*
Y4868D1*
X38749Y5828D2*
Y5798D1*
Y5768D1*
Y5738D1*
Y5708D1*
Y5678D1*
Y5648D1*
Y5618D1*
Y5588D1*
Y5558D1*
Y5528D1*
Y5498D1*
Y5468D1*
Y5438D1*
Y5408D1*
Y5378D1*
Y5348D1*
Y5318D1*
Y5288D1*
Y5258D1*
Y5228D1*
Y5198D1*
Y5168D1*
Y5138D1*
Y5108D1*
Y5078D1*
Y5048D1*
Y5018D1*
Y4988D1*
Y4958D1*
Y4928D1*
Y4898D1*
Y4868D1*
X37189Y5528D2*
Y5498D1*
Y5468D1*
Y5438D1*
Y5408D1*
Y5378D1*
Y5348D1*
Y5318D1*
Y5288D1*
Y5258D1*
Y5228D1*
Y5198D1*
X36109D2*
Y5168D1*
Y5138D1*
Y5108D1*
Y5078D1*
Y5048D1*
Y5018D1*
Y4988D1*
Y4958D1*
Y4928D1*
Y4898D1*
Y4868D1*
X31639Y5018D2*
Y4988D1*
Y4958D1*
Y4928D1*
Y4898D1*
Y4868D1*
Y4838D1*
Y4808D1*
Y4778D1*
Y4748D1*
Y4718D1*
Y4688D1*
Y4658D1*
Y4628D1*
Y4598D1*
Y4568D1*
Y4538D1*
Y4508D1*
Y4478D1*
Y4448D1*
Y4418D1*
X35449Y4868D2*
Y4838D1*
Y4808D1*
Y4778D1*
Y4748D1*
Y4718D1*
Y4688D1*
Y4658D1*
Y4628D1*
Y4598D1*
Y4568D1*
Y4538D1*
Y4508D1*
Y4478D1*
Y4448D1*
Y4418D1*
X37189Y4868D2*
Y4838D1*
Y4808D1*
Y4778D1*
Y4748D1*
Y4718D1*
Y4688D1*
Y4658D1*
Y4628D1*
Y4598D1*
Y4568D1*
Y4538D1*
Y4508D1*
Y4478D1*
Y4448D1*
Y4418D1*
X40047Y20579D2*
D65*
X40105Y20636D1*
X40133Y20723D1*
Y20837D1*
X40105Y20924D1*
X40047Y20981D1*
X39990D1*
X39932Y20952D1*
X39904Y20924D1*
X39875Y20867D1*
X39818Y20694D1*
X39789Y20636D1*
X39760Y20608D1*
X39703Y20579D1*
X39617D1*
X39560Y20636D1*
X39530Y20723D1*
Y20837D1*
X39560Y20924D1*
X39617Y20981D1*
X40133Y20394D2*
X39530D1*
X40133Y20209D2*
X40105Y20180D1*
X40133Y20151D1*
X40163Y20180D1*
X40133Y20209D1*
X39932Y20180D2*
X39530D1*
X40133Y19622D2*
X39530D1*
X39846D2*
X39904Y19679D1*
X39932Y19736D1*
Y19823D1*
X39904Y19880D1*
X39846Y19937D1*
X39760Y19966D1*
X39703D1*
X39617Y19937D1*
X39560Y19880D1*
X39530Y19823D1*
Y19736D1*
X39560Y19679D1*
X39617Y19622D1*
X39760Y19436D2*
Y19092D1*
X39818D1*
X39875Y19121D1*
X39904Y19149D1*
X39932Y19207D1*
Y19293D1*
X39904Y19350D1*
X39846Y19408D1*
X39760Y19436D1*
X39703D1*
X39617Y19408D1*
X39560Y19350D1*
X39530Y19293D1*
Y19207D1*
X39560Y19149D1*
X39617Y19092D1*
X39818Y18324D2*
Y18065D1*
X39846Y17979D1*
X39875Y17950D1*
X39932Y17922D1*
X40019D1*
X40076Y17950D1*
X40105Y17979D1*
X40133Y18065D1*
Y18324D1*
X39530D1*
X39932Y17593D2*
X39904Y17650D1*
X39846Y17708D1*
X39760Y17737D1*
X39703D1*
X39617Y17708D1*
X39560Y17650D1*
X39530Y17593D1*
Y17507D1*
X39560Y17449D1*
X39617Y17392D1*
X39703Y17363D1*
X39760D1*
X39846Y17392D1*
X39904Y17449D1*
X39932Y17507D1*
Y17593D1*
X40133Y17092D2*
X39645D1*
X39560Y17063D1*
X39530Y17005D1*
Y16948D1*
X39932Y17178D2*
Y16977D1*
X39760Y16763D2*
Y16419D1*
X39818D1*
X39875Y16447D1*
X39904Y16476D1*
X39932Y16534D1*
Y16620D1*
X39904Y16677D1*
X39846Y16735D1*
X39760Y16763D1*
X39703D1*
X39617Y16735D1*
X39560Y16677D1*
X39530Y16620D1*
Y16534D1*
X39560Y16476D1*
X39617Y16419D1*
X39932Y16234D2*
X39530D1*
X39818D2*
X39904Y16147D1*
X39932Y16090D1*
Y16004D1*
X39904Y15946D1*
X39818Y15918D1*
X39530D1*
X40133Y15646D2*
X39645D1*
X39560Y15618D1*
X39530Y15560D1*
Y15503D1*
X39932Y15733D2*
Y15532D1*
X40133Y15318D2*
X40105Y15289D1*
X40133Y15260D1*
X40163Y15289D1*
X40133Y15318D1*
X39932Y15289D2*
X39530D1*
X39932Y14932D2*
X39904Y14989D1*
X39846Y15046D1*
X39760Y15075D1*
X39703D1*
X39617Y15046D1*
X39560Y14989D1*
X39530Y14932D1*
Y14845D1*
X39560Y14788D1*
X39617Y14731D1*
X39703Y14701D1*
X39760D1*
X39846Y14731D1*
X39904Y14788D1*
X39932Y14845D1*
Y14932D1*
Y14516D2*
X39530D1*
X39818D2*
X39904Y14430D1*
X39932Y14372D1*
Y14287D1*
X39904Y14229D1*
X39818Y14201D1*
X39530D1*
X39818D2*
X39904Y14114D1*
X39932Y14057D1*
Y13971D1*
X39904Y13913D1*
X39818Y13884D1*
X39530D1*
X39760Y13699D2*
Y13355D1*
X39818D1*
X39875Y13383D1*
X39904Y13412D1*
X39932Y13469D1*
Y13556D1*
X39904Y13613D1*
X39846Y13670D1*
X39760Y13699D1*
X39703D1*
X39617Y13670D1*
X39560Y13613D1*
X39530Y13556D1*
Y13469D1*
X39560Y13412D1*
X39617Y13355D1*
X40133Y13083D2*
X39645D1*
X39560Y13055D1*
X39530Y12997D1*
Y12940D1*
X39932Y13169D2*
Y12968D1*
X39760Y12755D2*
Y12410D1*
X39818D1*
X39875Y12439D1*
X39904Y12467D1*
X39932Y12525D1*
Y12611D1*
X39904Y12668D1*
X39846Y12726D1*
X39760Y12755D1*
X39703D1*
X39617Y12726D1*
X39560Y12668D1*
X39530Y12611D1*
Y12525D1*
X39560Y12467D1*
X39617Y12410D1*
X39932Y12225D2*
X39530D1*
X39760D2*
X39846Y12196D1*
X39904Y12139D1*
X39932Y12081D1*
Y11995D1*
X40133Y11169D2*
Y10854D1*
X39903Y11026D1*
Y10939D1*
X39875Y10882D1*
X39846Y10854D1*
X39760Y10825D1*
X39703D1*
X39617Y10854D1*
X39559Y10911D1*
X39530Y10997D1*
Y11083D1*
X39559Y11169D1*
X39588Y11197D1*
X39645Y11227D1*
X35305Y20579D2*
X35363Y20636D1*
X35391Y20723D1*
Y20837D1*
X35363Y20924D1*
X35305Y20981D1*
X35248D1*
X35190Y20952D1*
X35162Y20924D1*
X35133Y20867D1*
X35075Y20694D1*
X35047Y20636D1*
X35018Y20608D1*
X34961Y20579D1*
X34875D1*
X34817Y20636D1*
X34788Y20723D1*
Y20837D1*
X34817Y20924D1*
X34875Y20981D1*
X35391Y20394D2*
X34788D1*
X35391Y20209D2*
X35363Y20180D1*
X35391Y20151D1*
X35420Y20180D1*
X35391Y20209D1*
X35190Y20180D2*
X34788D1*
X35391Y19622D2*
X34788D1*
X35104D2*
X35162Y19679D1*
X35190Y19736D1*
Y19823D1*
X35162Y19880D1*
X35104Y19937D1*
X35018Y19966D1*
X34961D1*
X34875Y19937D1*
X34817Y19880D1*
X34788Y19823D1*
Y19736D1*
X34817Y19679D1*
X34875Y19622D1*
X35018Y19436D2*
Y19092D1*
X35075D1*
X35133Y19121D1*
X35162Y19149D1*
X35190Y19207D1*
Y19293D1*
X35162Y19350D1*
X35104Y19408D1*
X35018Y19436D1*
X34961D1*
X34875Y19408D1*
X34817Y19350D1*
X34788Y19293D1*
Y19207D1*
X34817Y19149D1*
X34875Y19092D1*
X35075Y18324D2*
Y18065D1*
X35104Y17979D1*
X35133Y17950D1*
X35190Y17922D1*
X35276D1*
X35333Y17950D1*
X35363Y17979D1*
X35391Y18065D1*
Y18324D1*
X34788D1*
X35190Y17593D2*
X35162Y17650D1*
X35104Y17708D1*
X35018Y17737D1*
X34961D1*
X34875Y17708D1*
X34817Y17650D1*
X34788Y17593D1*
Y17507D1*
X34817Y17449D1*
X34875Y17392D1*
X34961Y17363D1*
X35018D1*
X35104Y17392D1*
X35162Y17449D1*
X35190Y17507D1*
Y17593D1*
X35391Y17092D2*
X34903D1*
X34817Y17063D1*
X34788Y17005D1*
Y16948D1*
X35190Y17178D2*
Y16977D1*
X35018Y16763D2*
Y16419D1*
X35075D1*
X35133Y16447D1*
X35162Y16476D1*
X35190Y16534D1*
Y16620D1*
X35162Y16677D1*
X35104Y16735D1*
X35018Y16763D1*
X34961D1*
X34875Y16735D1*
X34817Y16677D1*
X34788Y16620D1*
Y16534D1*
X34817Y16476D1*
X34875Y16419D1*
X35190Y16234D2*
X34788D1*
X35075D2*
X35162Y16147D1*
X35190Y16090D1*
Y16004D1*
X35162Y15946D1*
X35075Y15918D1*
X34788D1*
X35391Y15646D2*
X34903D1*
X34817Y15618D1*
X34788Y15560D1*
Y15503D1*
X35190Y15733D2*
Y15532D1*
X35391Y15318D2*
X35363Y15289D1*
X35391Y15260D1*
X35420Y15289D1*
X35391Y15318D1*
X35190Y15289D2*
X34788D1*
X35190Y14932D2*
X35162Y14989D1*
X35104Y15046D1*
X35018Y15075D1*
X34961D1*
X34875Y15046D1*
X34817Y14989D1*
X34788Y14932D1*
Y14845D1*
X34817Y14788D1*
X34875Y14731D1*
X34961Y14701D1*
X35018D1*
X35104Y14731D1*
X35162Y14788D1*
X35190Y14845D1*
Y14932D1*
Y14516D2*
X34788D1*
X35075D2*
X35162Y14430D1*
X35190Y14372D1*
Y14287D1*
X35162Y14229D1*
X35075Y14201D1*
X34788D1*
X35075D2*
X35162Y14114D1*
X35190Y14057D1*
Y13971D1*
X35162Y13913D1*
X35075Y13884D1*
X34788D1*
X35018Y13699D2*
Y13355D1*
X35075D1*
X35133Y13383D1*
X35162Y13412D1*
X35190Y13469D1*
Y13556D1*
X35162Y13613D1*
X35104Y13670D1*
X35018Y13699D1*
X34961D1*
X34875Y13670D1*
X34817Y13613D1*
X34788Y13556D1*
Y13469D1*
X34817Y13412D1*
X34875Y13355D1*
X35391Y13083D2*
X34903D1*
X34817Y13055D1*
X34788Y12997D1*
Y12940D1*
X35190Y13169D2*
Y12968D1*
X35018Y12755D2*
Y12410D1*
X35075D1*
X35133Y12439D1*
X35162Y12467D1*
X35190Y12525D1*
Y12611D1*
X35162Y12668D1*
X35104Y12726D1*
X35018Y12755D1*
X34961D1*
X34875Y12726D1*
X34817Y12668D1*
X34788Y12611D1*
Y12525D1*
X34817Y12467D1*
X34875Y12410D1*
X35190Y12225D2*
X34788D1*
X35018D2*
X35104Y12196D1*
X35162Y12139D1*
X35190Y12081D1*
Y11995D1*
X35247Y11197D2*
X35276D1*
X35333Y11169D1*
X35362Y11140D1*
X35391Y11083D1*
Y10968D1*
X35362Y10911D1*
X35333Y10882D1*
X35276Y10853D1*
X35219D1*
X35161Y10882D1*
X35075Y10939D1*
X34788Y11227D1*
Y10825D1*
X30340Y20847D2*
X30398Y20904D1*
X30426Y20990D1*
Y21105D1*
X30398Y21191D1*
X30340Y21249D1*
X30283D1*
X30225Y21220D1*
X30197Y21191D1*
X30168Y21134D1*
X30110Y20962D1*
X30082Y20904D1*
X30053Y20876D1*
X29996Y20847D1*
X29909D1*
X29852Y20904D1*
X29823Y20990D1*
Y21105D1*
X29852Y21191D1*
X29909Y21249D1*
X30426Y20662D2*
X29823D1*
X30426Y20477D2*
X30398Y20448D1*
X30426Y20419D1*
X30455Y20448D1*
X30426Y20477D1*
X30225Y20448D2*
X29823D1*
X30426Y19889D2*
X29823D1*
X30139D2*
X30197Y19946D1*
X30225Y20004D1*
Y20090D1*
X30197Y20147D1*
X30139Y20205D1*
X30053Y20234D1*
X29996D1*
X29909Y20205D1*
X29852Y20147D1*
X29823Y20090D1*
Y20004D1*
X29852Y19946D1*
X29909Y19889D1*
X30053Y19704D2*
Y19360D1*
X30110D1*
X30168Y19388D1*
X30197Y19417D1*
X30225Y19475D1*
Y19561D1*
X30197Y19618D1*
X30139Y19676D1*
X30053Y19704D1*
X29996D1*
X29909Y19676D1*
X29852Y19618D1*
X29823Y19561D1*
Y19475D1*
X29852Y19417D1*
X29909Y19360D1*
X30110Y18591D2*
Y18333D1*
X30139Y18247D1*
X30168Y18218D1*
X30225Y18190D1*
X30311D1*
X30368Y18218D1*
X30398Y18247D1*
X30426Y18333D1*
Y18591D1*
X29823D1*
X30225Y17861D2*
X30197Y17918D1*
X30139Y17976D1*
X30053Y18004D1*
X29996D1*
X29909Y17976D1*
X29852Y17918D1*
X29823Y17861D1*
Y17775D1*
X29852Y17717D1*
X29909Y17660D1*
X29996Y17631D1*
X30053D1*
X30139Y17660D1*
X30197Y17717D1*
X30225Y17775D1*
Y17861D1*
X30426Y17359D2*
X29938D1*
X29852Y17331D1*
X29823Y17273D1*
Y17216D1*
X30225Y17446D2*
Y17245D1*
X30053Y17031D2*
Y16687D1*
X30110D1*
X30168Y16715D1*
X30197Y16744D1*
X30225Y16801D1*
Y16888D1*
X30197Y16945D1*
X30139Y17002D1*
X30053Y17031D1*
X29996D1*
X29909Y17002D1*
X29852Y16945D1*
X29823Y16888D1*
Y16801D1*
X29852Y16744D1*
X29909Y16687D1*
X30225Y16501D2*
X29823D1*
X30110D2*
X30197Y16415D1*
X30225Y16357D1*
Y16272D1*
X30197Y16214D1*
X30110Y16186D1*
X29823D1*
X30426Y15914D2*
X29938D1*
X29852Y15886D1*
X29823Y15828D1*
Y15771D1*
X30225Y16000D2*
Y15799D1*
X30426Y15586D2*
X30398Y15557D1*
X30426Y15528D1*
X30455Y15557D1*
X30426Y15586D1*
X30225Y15557D2*
X29823D1*
X30225Y15199D2*
X30197Y15256D1*
X30139Y15314D1*
X30053Y15343D1*
X29996D1*
X29909Y15314D1*
X29852Y15256D1*
X29823Y15199D1*
Y15113D1*
X29852Y15055D1*
X29909Y14998D1*
X29996Y14969D1*
X30053D1*
X30139Y14998D1*
X30197Y15055D1*
X30225Y15113D1*
Y15199D1*
Y14784D2*
X29823D1*
X30110D2*
X30197Y14698D1*
X30225Y14640D1*
Y14554D1*
X30197Y14497D1*
X30110Y14468D1*
X29823D1*
X30110D2*
X30197Y14382D1*
X30225Y14324D1*
Y14239D1*
X30197Y14181D1*
X30110Y14152D1*
X29823D1*
X30053Y13967D2*
Y13622D1*
X30110D1*
X30168Y13651D1*
X30197Y13679D1*
X30225Y13737D1*
Y13823D1*
X30197Y13880D1*
X30139Y13938D1*
X30053Y13967D1*
X29996D1*
X29909Y13938D1*
X29852Y13880D1*
X29823Y13823D1*
Y13737D1*
X29852Y13679D1*
X29909Y13622D1*
X30426Y13351D2*
X29938D1*
X29852Y13322D1*
X29823Y13265D1*
Y13208D1*
X30225Y13437D2*
Y13236D1*
X30053Y13022D2*
Y12678D1*
X30110D1*
X30168Y12707D1*
X30197Y12735D1*
X30225Y12793D1*
Y12879D1*
X30197Y12936D1*
X30139Y12994D1*
X30053Y13022D1*
X29996D1*
X29909Y12994D1*
X29852Y12936D1*
X29823Y12879D1*
Y12793D1*
X29852Y12735D1*
X29909Y12678D1*
X30225Y12493D2*
X29823D1*
X30053D2*
X30139Y12464D1*
X30197Y12407D1*
X30225Y12349D1*
Y12263D1*
X30311Y11494D2*
X30340Y11437D1*
X30425Y11350D1*
X29823D1*
X27086Y12594D2*
X26483D1*
X26885Y12409D2*
X26483D1*
X26770D2*
X26856Y12323D1*
X26885Y12265D1*
Y12180D1*
X26856Y12122D1*
X26770Y12094D1*
X26483D1*
X26770D2*
X26856Y12007D1*
X26885Y11950D1*
Y11864D1*
X26856Y11806D1*
X26770Y11777D1*
X26483D1*
X27085Y11534D2*
Y11219D1*
X26856Y11391D1*
Y11305D1*
X26827Y11248D1*
X26799Y11219D1*
X26712Y11190D1*
X26655D1*
X26569Y11219D1*
X26511Y11276D1*
X26483Y11362D1*
Y11449D1*
X26511Y11534D1*
X26541Y11563D1*
X26598Y11592D1*
X27085Y10861D2*
X27057Y10947D1*
X27000Y10976D1*
X26942D1*
X26885Y10947D1*
X26856Y10890D1*
X26827Y10775D1*
X26799Y10689D1*
X26741Y10632D1*
X26684Y10603D1*
X26598D1*
X26541Y10632D1*
X26511Y10660D1*
X26483Y10747D1*
Y10861D1*
X26511Y10947D1*
X26541Y10976D1*
X26598Y11005D1*
X26684D1*
X26741Y10976D1*
X26799Y10918D1*
X26827Y10833D1*
X26856Y10718D1*
X26885Y10660D1*
X26942Y10632D1*
X27000D1*
X27057Y10660D1*
X27085Y10747D1*
Y10861D1*
X27000Y10074D2*
X27057Y10102D1*
X27085Y10189D1*
Y10246D1*
X27057Y10332D1*
X26970Y10390D1*
X26827Y10418D1*
X26684D1*
X26569Y10390D1*
X26511Y10332D1*
X26483Y10246D1*
Y10217D1*
X26511Y10132D1*
X26569Y10074D1*
X26655Y10045D1*
X26684D1*
X26770Y10074D1*
X26827Y10132D1*
X26856Y10217D1*
Y10246D1*
X26827Y10332D1*
X26770Y10390D1*
X26684Y10418D1*
X21860Y28829D2*
X21257Y28600D1*
X21860Y28370D1*
X21716Y27755D2*
X21773Y27783D1*
X21831Y27841D1*
X21860Y27898D1*
Y28013D1*
X21831Y28070D1*
X21773Y28127D1*
X21716Y28157D1*
X21630Y28185D1*
X21486D1*
X21401Y28157D1*
X21343Y28127D1*
X21286Y28070D1*
X21257Y28013D1*
Y27898D1*
X21286Y27841D1*
X21343Y27783D1*
X21401Y27755D1*
X21716Y27139D2*
X21773Y27168D1*
X21831Y27225D1*
X21860Y27282D1*
Y27397D1*
X21831Y27455D1*
X21773Y27512D1*
X21716Y27541D1*
X21630Y27569D1*
X21486D1*
X21401Y27541D1*
X21343Y27512D1*
X21286Y27455D1*
X21257Y27397D1*
Y27282D1*
X21286Y27225D1*
X21343Y27168D1*
X21401Y27139D1*
X20606Y28751D2*
Y28492D1*
X20635Y28406D1*
X20664Y28377D1*
X20721Y28349D1*
X20807D1*
X20864Y28377D1*
X20894Y28406D1*
X20922Y28492D1*
Y28751D1*
X20319D1*
X20807Y28163D2*
X20836Y28106D1*
X20921Y28020D1*
X20319D1*
X20377Y27806D2*
X20348Y27834D1*
X20319Y27806D1*
X20348Y27777D1*
X20377Y27806D1*
X20921Y27419D2*
X20893Y27505D1*
X20807Y27563D1*
X20663Y27591D1*
X20577D1*
X20434Y27563D1*
X20348Y27505D1*
X20319Y27419D1*
Y27362D1*
X20348Y27276D1*
X20434Y27219D1*
X20577Y27189D1*
X20663D1*
X20807Y27219D1*
X20893Y27276D1*
X20921Y27362D1*
Y27419D1*
X20807Y27219D2*
X20434Y27563D1*
X19606Y28751D2*
Y28492D1*
X19635Y28406D1*
X19664Y28377D1*
X19721Y28349D1*
X19807D1*
X19864Y28377D1*
X19893Y28406D1*
X19922Y28492D1*
Y28751D1*
X19319D1*
X19807Y28163D2*
X19836Y28106D1*
X19921Y28020D1*
X19319D1*
X19377Y27806D2*
X19348Y27834D1*
X19319Y27806D1*
X19348Y27777D1*
X19377Y27806D1*
X19807Y27591D2*
X19836Y27534D1*
X19921Y27447D1*
X19319D1*
X18544Y28751D2*
Y28492D1*
X18572Y28406D1*
X18601Y28377D1*
X18658Y28349D1*
X18745D1*
X18802Y28377D1*
X18831Y28406D1*
X18859Y28492D1*
Y28751D1*
X18256D1*
X18744Y28163D2*
X18773Y28106D1*
X18859Y28020D1*
X18256D1*
X18314Y27806D2*
X18285Y27834D1*
X18256Y27806D1*
X18285Y27777D1*
X18314Y27806D1*
X18715Y27562D2*
X18744D1*
X18802Y27534D1*
X18830Y27505D1*
X18859Y27447D1*
Y27333D1*
X18830Y27276D1*
X18802Y27247D1*
X18744Y27218D1*
X18687D1*
X18629Y27247D1*
X18544Y27304D1*
X18256Y27591D1*
Y27189D1*
X17606Y28751D2*
Y28492D1*
X17635Y28406D1*
X17664Y28377D1*
X17721Y28349D1*
X17807D1*
X17864Y28377D1*
X17893Y28406D1*
X17922Y28492D1*
Y28751D1*
X17319D1*
X17806Y28163D2*
X17836Y28106D1*
X17921Y28020D1*
X17319D1*
X17377Y27806D2*
X17347Y27834D1*
X17319Y27806D1*
X17347Y27777D1*
X17377Y27806D1*
X17921Y27534D2*
Y27219D1*
X17692Y27390D1*
Y27304D1*
X17663Y27247D1*
X17635Y27219D1*
X17548Y27189D1*
X17491D1*
X17405Y27219D1*
X17347Y27276D1*
X17319Y27362D1*
Y27448D1*
X17347Y27534D1*
X17377Y27562D1*
X17434Y27591D1*
X16543Y28751D2*
Y28492D1*
X16572Y28406D1*
X16601Y28377D1*
X16658Y28349D1*
X16744D1*
X16801Y28377D1*
X16831Y28406D1*
X16859Y28492D1*
Y28751D1*
X16256D1*
X16744Y28163D2*
X16773Y28106D1*
X16858Y28020D1*
X16256D1*
X16314Y27806D2*
X16285Y27834D1*
X16256Y27806D1*
X16285Y27777D1*
X16314Y27806D1*
X16256Y27304D2*
X16858D1*
X16457Y27591D1*
Y27161D1*
X14543Y28751D2*
Y28492D1*
X14572Y28406D1*
X14601Y28377D1*
X14658Y28349D1*
X14744D1*
X14801Y28377D1*
X14830Y28406D1*
X14859Y28492D1*
Y28751D1*
X14256D1*
X14858Y28106D2*
Y27791D1*
X14629Y27963D1*
Y27876D1*
X14600Y27819D1*
X14572Y27791D1*
X14486Y27762D1*
X14428D1*
X14342Y27791D1*
X14285Y27848D1*
X14256Y27934D1*
Y28020D1*
X14285Y28106D1*
X14314Y28134D1*
X14371Y28163D1*
X14314Y27548D2*
X14285Y27576D1*
X14256Y27548D1*
X14285Y27519D1*
X14314Y27548D1*
X14744Y27333D2*
X14773Y27276D1*
X14858Y27189D1*
X14256D1*
X15606Y28751D2*
Y28492D1*
X15634Y28406D1*
X15664Y28377D1*
X15721Y28349D1*
X15807D1*
X15864Y28377D1*
X15893Y28406D1*
X15922Y28492D1*
Y28751D1*
X15319D1*
X15806Y28163D2*
X15835Y28106D1*
X15921Y28020D1*
X15319D1*
X15376Y27806D2*
X15347Y27834D1*
X15319Y27806D1*
X15347Y27777D1*
X15376Y27806D1*
X15921Y27247D2*
Y27534D1*
X15663Y27562D1*
X15691Y27534D1*
X15721Y27447D1*
Y27362D1*
X15691Y27276D1*
X15634Y27218D1*
X15548Y27189D1*
X15491D1*
X15405Y27218D1*
X15347Y27276D1*
X15319Y27362D1*
Y27447D1*
X15347Y27534D1*
X15376Y27562D1*
X15433Y27591D1*
X13543Y28751D2*
Y28492D1*
X13572Y28406D1*
X13601Y28377D1*
X13658Y28349D1*
X13744D1*
X13801Y28377D1*
X13830Y28406D1*
X13859Y28492D1*
Y28751D1*
X13256D1*
X13858Y28106D2*
Y27791D1*
X13629Y27963D1*
Y27876D1*
X13600Y27819D1*
X13572Y27791D1*
X13485Y27762D1*
X13428D1*
X13342Y27791D1*
X13284Y27848D1*
X13256Y27934D1*
Y28020D1*
X13284Y28106D1*
X13314Y28134D1*
X13371Y28163D1*
X13314Y27548D2*
X13284Y27576D1*
X13256Y27548D1*
X13284Y27519D1*
X13314Y27548D1*
X13858Y27161D2*
X13830Y27247D1*
X13743Y27305D1*
X13600Y27333D1*
X13514D1*
X13371Y27305D1*
X13284Y27247D1*
X13256Y27161D1*
Y27104D1*
X13284Y27018D1*
X13371Y26961D1*
X13514Y26931D1*
X13600D1*
X13743Y26961D1*
X13830Y27018D1*
X13858Y27104D1*
Y27161D1*
X13743Y26961D2*
X13371Y27305D1*
X12543Y28751D2*
Y28492D1*
X12572Y28406D1*
X12601Y28377D1*
X12658Y28349D1*
X12744D1*
X12801Y28377D1*
X12830Y28406D1*
X12859Y28492D1*
Y28751D1*
X12256D1*
X12715Y28134D2*
X12743D1*
X12801Y28106D1*
X12830Y28077D1*
X12858Y28020D1*
Y27905D1*
X12830Y27848D1*
X12801Y27819D1*
X12743Y27790D1*
X12686D1*
X12629Y27819D1*
X12543Y27876D1*
X12256Y28163D1*
Y27762D1*
X12314Y27548D2*
X12284Y27576D1*
X12256Y27548D1*
X12284Y27519D1*
X12314Y27548D1*
X12858Y27161D2*
X12830Y27247D1*
X12743Y27305D1*
X12600Y27333D1*
X12514D1*
X12371Y27305D1*
X12284Y27247D1*
X12256Y27161D1*
Y27104D1*
X12284Y27018D1*
X12371Y26961D1*
X12514Y26931D1*
X12600D1*
X12743Y26961D1*
X12830Y27018D1*
X12858Y27104D1*
Y27161D1*
X12743Y26961D2*
X12371Y27305D1*
X11605Y28751D2*
Y28492D1*
X11634Y28406D1*
X11663Y28377D1*
X11720Y28349D1*
X11806D1*
X11863Y28377D1*
X11893Y28406D1*
X11921Y28492D1*
Y28751D1*
X11318D1*
X11777Y28134D2*
X11806D1*
X11863Y28106D1*
X11892Y28077D1*
X11920Y28020D1*
Y27905D1*
X11892Y27848D1*
X11863Y27819D1*
X11806Y27790D1*
X11749D1*
X11691Y27819D1*
X11605Y27876D1*
X11318Y28163D1*
Y27762D1*
X11376Y27548D2*
X11347Y27576D1*
X11318Y27548D1*
X11347Y27519D1*
X11376Y27548D1*
X11806Y27333D2*
X11835Y27276D1*
X11920Y27189D1*
X11318D1*
X10605Y28751D2*
Y28492D1*
X10634Y28406D1*
X10663Y28377D1*
X10720Y28349D1*
X10806D1*
X10863Y28377D1*
X10892Y28406D1*
X10921Y28492D1*
Y28751D1*
X10318D1*
X10777Y28134D2*
X10806D1*
X10863Y28106D1*
X10892Y28077D1*
X10920Y28020D1*
Y27905D1*
X10892Y27848D1*
X10863Y27819D1*
X10806Y27790D1*
X10749D1*
X10691Y27819D1*
X10605Y27876D1*
X10318Y28163D1*
Y27762D1*
X10376Y27548D2*
X10347Y27576D1*
X10318Y27548D1*
X10347Y27519D1*
X10376Y27548D1*
X10777Y27304D2*
X10806D1*
X10863Y27276D1*
X10892Y27247D1*
X10920Y27189D1*
Y27075D1*
X10892Y27018D1*
X10863Y26989D1*
X10806Y26960D1*
X10749D1*
X10691Y26989D1*
X10605Y27046D1*
X10318Y27333D1*
Y26931D1*
X9605Y28751D2*
Y28492D1*
X9634Y28406D1*
X9663Y28377D1*
X9720Y28349D1*
X9806D1*
X9863Y28377D1*
X9892Y28406D1*
X9921Y28492D1*
Y28751D1*
X9318D1*
X9920Y28106D2*
Y27791D1*
X9691Y27963D1*
Y27876D1*
X9662Y27819D1*
X9634Y27791D1*
X9547Y27762D1*
X9490D1*
X9404Y27791D1*
X9347Y27848D1*
X9318Y27934D1*
Y28020D1*
X9347Y28106D1*
X9376Y28134D1*
X9433Y28163D1*
X9376Y27548D2*
X9347Y27576D1*
X9318Y27548D1*
X9347Y27519D1*
X9376Y27548D1*
X9777Y27304D2*
X9805D1*
X9863Y27276D1*
X9892Y27247D1*
X9920Y27189D1*
Y27075D1*
X9892Y27018D1*
X9863Y26989D1*
X9805Y26960D1*
X9748D1*
X9691Y26989D1*
X9605Y27046D1*
X9318Y27333D1*
Y26931D1*
X8605Y28751D2*
Y28492D1*
X8634Y28406D1*
X8663Y28377D1*
X8720Y28349D1*
X8806D1*
X8863Y28377D1*
X8892Y28406D1*
X8921Y28492D1*
Y28751D1*
X8318D1*
X8920Y28106D2*
Y27791D1*
X8691Y27963D1*
Y27876D1*
X8662Y27819D1*
X8634Y27791D1*
X8547Y27762D1*
X8490D1*
X8404Y27791D1*
X8346Y27848D1*
X8318Y27934D1*
Y28020D1*
X8346Y28106D1*
X8376Y28134D1*
X8433Y28163D1*
X8376Y27548D2*
X8346Y27576D1*
X8318Y27548D1*
X8346Y27519D1*
X8376Y27548D1*
X8920Y27276D2*
Y26961D1*
X8691Y27132D1*
Y27046D1*
X8662Y26989D1*
X8634Y26961D1*
X8547Y26931D1*
X8490D1*
X8404Y26961D1*
X8346Y27018D1*
X8318Y27104D1*
Y27190D1*
X8346Y27276D1*
X8376Y27304D1*
X8433Y27333D1*
X21716Y12844D2*
X21773Y12872D1*
X21831Y12930D1*
X21860Y12987D1*
Y13102D1*
X21831Y13159D1*
X21773Y13216D1*
X21716Y13246D1*
X21630Y13274D1*
X21486D1*
X21401Y13246D1*
X21343Y13216D1*
X21286Y13159D1*
X21257Y13102D1*
Y12987D1*
X21286Y12930D1*
X21343Y12872D1*
X21401Y12844D1*
X21486D1*
Y12987D1*
X21860Y12257D2*
X21257D1*
X21860Y12658D1*
X21257D1*
X21860Y12071D2*
X21257D1*
Y11870D1*
X21286Y11784D1*
X21343Y11726D1*
X21401Y11698D1*
X21486Y11669D1*
X21630D1*
X21716Y11698D1*
X21773Y11726D1*
X21831Y11784D1*
X21860Y11870D1*
Y12071D1*
X20606Y13195D2*
Y12937D1*
X20635Y12851D1*
X20664Y12822D1*
X20721Y12794D1*
X20807D1*
X20864Y12822D1*
X20894Y12851D1*
X20922Y12937D1*
Y13195D1*
X20319D1*
X20778Y12579D2*
X20807D1*
X20864Y12551D1*
X20893Y12522D1*
X20921Y12464D1*
Y12350D1*
X20893Y12293D1*
X20864Y12264D1*
X20807Y12235D1*
X20750D1*
X20692Y12264D1*
X20606Y12321D1*
X20319Y12608D1*
Y12206D1*
X20377Y11993D2*
X20348Y12021D1*
X20319Y11993D1*
X20348Y11963D1*
X20377Y11993D1*
X20836Y11434D2*
X20893Y11462D1*
X20921Y11549D1*
Y11606D1*
X20893Y11692D1*
X20807Y11750D1*
X20663Y11778D1*
X20520D1*
X20405Y11750D1*
X20348Y11692D1*
X20319Y11606D1*
Y11577D1*
X20348Y11492D1*
X20405Y11434D1*
X20492Y11405D1*
X20520D1*
X20606Y11434D1*
X20663Y11492D1*
X20692Y11577D1*
Y11606D1*
X20663Y11692D1*
X20606Y11750D1*
X20520Y11778D1*
X19606Y13195D2*
Y12937D1*
X19635Y12851D1*
X19664Y12822D1*
X19721Y12794D1*
X19807D1*
X19864Y12822D1*
X19893Y12851D1*
X19922Y12937D1*
Y13195D1*
X19319D1*
X19778Y12579D2*
X19807D1*
X19864Y12551D1*
X19893Y12522D1*
X19921Y12464D1*
Y12350D1*
X19893Y12293D1*
X19864Y12264D1*
X19807Y12235D1*
X19750D1*
X19692Y12264D1*
X19606Y12321D1*
X19319Y12608D1*
Y12206D1*
X19377Y11993D2*
X19348Y12021D1*
X19319Y11993D1*
X19348Y11963D1*
X19377Y11993D1*
X19319Y11663D2*
X19921Y11376D1*
Y11778D1*
X18914Y12993D2*
X18312D1*
X18914Y13194D2*
Y12792D1*
X18828Y12205D2*
X18886Y12262D1*
X18914Y12348D1*
Y12463D1*
X18886Y12549D1*
X18828Y12607D1*
X18771D1*
X18713Y12578D1*
X18685Y12549D1*
X18656Y12492D1*
X18599Y12320D1*
X18570Y12262D1*
X18541Y12234D1*
X18484Y12205D1*
X18398D1*
X18341Y12262D1*
X18312Y12348D1*
Y12463D1*
X18341Y12549D1*
X18398Y12607D1*
X18914Y11819D2*
X18312D1*
X18914Y12020D2*
Y11618D1*
X17635Y13195D2*
Y12937D1*
X17664Y12851D1*
X17692Y12822D1*
X17749Y12794D1*
X17807D1*
X17864Y12822D1*
X17893Y12851D1*
X17922Y12937D1*
Y13195D1*
X17319D1*
X17635Y12994D2*
X17319Y12794D1*
X17836Y12206D2*
X17893Y12263D1*
X17922Y12350D1*
Y12464D1*
X17893Y12551D1*
X17836Y12608D1*
X17778D1*
X17721Y12579D1*
X17692Y12551D1*
X17664Y12494D1*
X17606Y12321D1*
X17578Y12263D1*
X17548Y12235D1*
X17491Y12206D1*
X17405D1*
X17348Y12263D1*
X17319Y12350D1*
Y12464D1*
X17348Y12551D1*
X17405Y12608D1*
X17922Y11820D2*
X17319D1*
X17922Y12021D2*
Y11619D1*
X16543Y13195D2*
Y12937D1*
X16572Y12851D1*
X16601Y12822D1*
X16658Y12794D1*
X16744D1*
X16801Y12822D1*
X16831Y12851D1*
X16859Y12937D1*
Y13195D1*
X16256D1*
X16744Y12608D2*
X16773Y12551D1*
X16858Y12464D1*
X16256D1*
X16314Y12251D2*
X16285Y12279D1*
X16256Y12251D1*
X16285Y12221D1*
X16314Y12251D1*
X16256Y11921D2*
X16858Y11634D1*
Y12036D1*
X14543Y13133D2*
Y12874D1*
X14572Y12789D1*
X14601Y12760D1*
X14658Y12731D1*
X14744D1*
X14801Y12760D1*
X14830Y12789D1*
X14859Y12874D1*
Y13133D1*
X14256D1*
X14858Y12488D2*
Y12173D1*
X14629Y12345D1*
Y12259D1*
X14600Y12202D1*
X14572Y12173D1*
X14486Y12144D1*
X14428D1*
X14342Y12173D1*
X14285Y12230D1*
X14256Y12316D1*
Y12402D1*
X14285Y12488D1*
X14314Y12517D1*
X14371Y12546D1*
X14314Y11930D2*
X14285Y11959D1*
X14256Y11930D1*
X14285Y11901D1*
X14314Y11930D1*
X14256Y11601D2*
X14858Y11314D1*
Y11716D1*
X15606Y13195D2*
Y12937D1*
X15634Y12851D1*
X15664Y12822D1*
X15721Y12794D1*
X15807D1*
X15864Y12822D1*
X15893Y12851D1*
X15922Y12937D1*
Y13195D1*
X15319D1*
X15806Y12608D2*
X15835Y12551D1*
X15921Y12464D1*
X15319D1*
X15376Y12251D2*
X15347Y12279D1*
X15319Y12251D1*
X15347Y12221D1*
X15376Y12251D1*
X15835Y11692D2*
X15892Y11720D1*
X15921Y11807D1*
Y11864D1*
X15892Y11950D1*
X15806Y12008D1*
X15663Y12036D1*
X15520D1*
X15405Y12008D1*
X15347Y11950D1*
X15319Y11864D1*
Y11835D1*
X15347Y11750D1*
X15405Y11692D1*
X15491Y11663D1*
X15520D1*
X15606Y11692D1*
X15663Y11750D1*
X15691Y11835D1*
Y11864D1*
X15663Y11950D1*
X15606Y12008D1*
X15520Y12036D1*
X13543Y13195D2*
Y12937D1*
X13572Y12851D1*
X13601Y12822D1*
X13658Y12794D1*
X13744D1*
X13801Y12822D1*
X13830Y12851D1*
X13859Y12937D1*
Y13195D1*
X13256D1*
X13858Y12551D2*
Y12236D1*
X13629Y12407D1*
Y12321D1*
X13600Y12264D1*
X13572Y12236D1*
X13485Y12206D1*
X13428D1*
X13342Y12236D1*
X13284Y12293D1*
X13256Y12379D1*
Y12465D1*
X13284Y12551D1*
X13314Y12579D1*
X13371Y12608D1*
X13314Y11993D2*
X13284Y12021D1*
X13256Y11993D1*
X13284Y11963D1*
X13314Y11993D1*
X13773Y11434D2*
X13830Y11462D1*
X13858Y11549D1*
Y11606D1*
X13830Y11692D1*
X13743Y11750D1*
X13600Y11778D1*
X13457D1*
X13342Y11750D1*
X13284Y11692D1*
X13256Y11606D1*
Y11577D1*
X13284Y11492D1*
X13342Y11434D1*
X13428Y11405D1*
X13457D1*
X13543Y11434D1*
X13600Y11492D1*
X13629Y11577D1*
Y11606D1*
X13600Y11692D1*
X13543Y11750D1*
X13457Y11778D1*
X12543Y13195D2*
Y12937D1*
X12572Y12851D1*
X12601Y12822D1*
X12658Y12794D1*
X12744D1*
X12801Y12822D1*
X12830Y12851D1*
X12859Y12937D1*
Y13195D1*
X12256D1*
X12858Y12551D2*
Y12236D1*
X12629Y12407D1*
Y12321D1*
X12600Y12264D1*
X12572Y12236D1*
X12485Y12206D1*
X12428D1*
X12342Y12236D1*
X12284Y12293D1*
X12256Y12379D1*
Y12465D1*
X12284Y12551D1*
X12314Y12579D1*
X12371Y12608D1*
X12314Y11993D2*
X12284Y12021D1*
X12256Y11993D1*
X12284Y11963D1*
X12314Y11993D1*
X12858Y11434D2*
Y11720D1*
X12600Y11749D1*
X12629Y11720D1*
X12658Y11634D1*
Y11549D1*
X12629Y11462D1*
X12572Y11405D1*
X12485Y11376D1*
X12428D1*
X12342Y11405D1*
X12284Y11462D1*
X12256Y11549D1*
Y11634D1*
X12284Y11720D1*
X12314Y11749D1*
X12371Y11778D1*
X11605Y13133D2*
Y12874D1*
X11634Y12789D1*
X11663Y12760D1*
X11720Y12731D1*
X11806D1*
X11863Y12760D1*
X11893Y12789D1*
X11921Y12874D1*
Y13133D1*
X11318D1*
X11777Y12517D2*
X11806D1*
X11863Y12488D1*
X11892Y12460D1*
X11920Y12402D1*
Y12287D1*
X11892Y12230D1*
X11863Y12202D1*
X11806Y12172D1*
X11749D1*
X11691Y12202D1*
X11605Y12259D1*
X11318Y12546D1*
Y12144D1*
X11376Y11930D2*
X11347Y11959D1*
X11318Y11930D1*
X11347Y11901D1*
X11376Y11930D1*
X11920Y11371D2*
Y11658D1*
X11662Y11686D1*
X11691Y11658D1*
X11720Y11572D1*
Y11486D1*
X11691Y11400D1*
X11634Y11342D1*
X11548Y11314D1*
X11491D1*
X11404Y11342D1*
X11347Y11400D1*
X11318Y11486D1*
Y11572D1*
X11347Y11658D1*
X11376Y11686D1*
X11433Y11716D1*
X10605Y13195D2*
Y12937D1*
X10634Y12851D1*
X10663Y12822D1*
X10720Y12794D1*
X10806D1*
X10863Y12822D1*
X10892Y12851D1*
X10921Y12937D1*
Y13195D1*
X10318D1*
X10777Y12579D2*
X10806D1*
X10863Y12551D1*
X10892Y12522D1*
X10920Y12464D1*
Y12350D1*
X10892Y12293D1*
X10863Y12264D1*
X10806Y12235D1*
X10749D1*
X10691Y12264D1*
X10605Y12321D1*
X10318Y12608D1*
Y12206D1*
X10376Y11993D2*
X10347Y12021D1*
X10318Y11993D1*
X10347Y11963D1*
X10376Y11993D1*
X10318Y11491D2*
X10920D1*
X10519Y11778D1*
Y11348D1*
X9605Y13195D2*
Y12937D1*
X9634Y12851D1*
X9663Y12822D1*
X9720Y12794D1*
X9806D1*
X9863Y12822D1*
X9892Y12851D1*
X9921Y12937D1*
Y13195D1*
X9318D1*
X9777Y12579D2*
X9805D1*
X9863Y12551D1*
X9892Y12522D1*
X9920Y12464D1*
Y12350D1*
X9892Y12293D1*
X9863Y12264D1*
X9805Y12235D1*
X9748D1*
X9691Y12264D1*
X9605Y12321D1*
X9318Y12608D1*
Y12206D1*
X9376Y11993D2*
X9347Y12021D1*
X9318Y11993D1*
X9347Y11963D1*
X9376Y11993D1*
X9920Y11720D2*
Y11405D1*
X9691Y11577D1*
Y11491D1*
X9662Y11434D1*
X9634Y11405D1*
X9547Y11376D1*
X9490D1*
X9404Y11405D1*
X9347Y11462D1*
X9318Y11549D1*
Y11635D1*
X9347Y11720D1*
X9376Y11749D1*
X9433Y11778D1*
X8605Y13195D2*
Y12937D1*
X8634Y12851D1*
X8663Y12822D1*
X8720Y12794D1*
X8806D1*
X8863Y12822D1*
X8892Y12851D1*
X8921Y12937D1*
Y13195D1*
X8318D1*
X8920Y12551D2*
Y12236D1*
X8691Y12407D1*
Y12321D1*
X8662Y12264D1*
X8634Y12236D1*
X8547Y12206D1*
X8490D1*
X8404Y12236D1*
X8346Y12293D1*
X8318Y12379D1*
Y12465D1*
X8346Y12551D1*
X8376Y12579D1*
X8433Y12608D1*
X8376Y11993D2*
X8346Y12021D1*
X8318Y11993D1*
X8346Y11963D1*
X8376Y11993D1*
X8318Y11491D2*
X8920D1*
X8519Y11778D1*
Y11348D1*
X20426Y7717D2*
X20397Y7774D1*
X20339Y7832D1*
X20282Y7860D1*
X20168D1*
X20110Y7832D1*
X20053Y7774D1*
X20024Y7717D1*
X19995Y7631D1*
Y7487D1*
X20024Y7401D1*
X20053Y7344D1*
X20110Y7287D1*
X20168Y7257D1*
X20282D1*
X20339Y7287D1*
X20397Y7344D1*
X20426Y7401D1*
X20898Y7257D2*
Y7860D1*
X20611Y7458D1*
X21041D1*
X11097Y20037D2*
X11700D1*
X11097Y20266D1*
X11700Y20496D1*
X11097D1*
X11700Y19852D2*
X11097D1*
X11557Y19236D2*
X11614Y19264D1*
X11672Y19322D1*
X11700Y19379D1*
Y19494D1*
X11672Y19552D1*
X11614Y19609D1*
X11557Y19638D1*
X11471Y19666D1*
X11327D1*
X11241Y19638D1*
X11183Y19609D1*
X11126Y19552D1*
X11097Y19494D1*
Y19379D1*
X11126Y19322D1*
X11183Y19264D1*
X11241Y19236D1*
X25661Y5666D2*
D66*
X25833D1*
X25890Y5685D1*
X25910Y5704D1*
X25929Y5742D1*
Y5781D1*
X25910Y5819D1*
X25890Y5838D1*
X25833Y5857D1*
X25661D1*
Y5455D1*
X25795Y5666D2*
X25929Y5455D1*
X26072Y5761D2*
Y5780D1*
X26091Y5819D1*
X26110Y5838D1*
X26148Y5857D1*
X26225D1*
X26263Y5838D1*
X26282Y5819D1*
X26301Y5780D1*
Y5742D1*
X26282Y5704D1*
X26244Y5647D1*
X26052Y5455D1*
X26320D1*
X20156Y10912D2*
X20328D1*
X20385Y10931D1*
X20405Y10950D1*
X20424Y10988D1*
Y11027D1*
X20405Y11065D1*
X20385Y11084D1*
X20328Y11103D1*
X20156D1*
Y10701D1*
X20290Y10912D2*
X20424Y10701D1*
X20739D2*
Y11103D1*
X20547Y10835D1*
X20834D1*
X25663Y4601D2*
X25835D1*
X25893Y4620D1*
X25912Y4639D1*
X25931Y4677D1*
Y4716D1*
X25912Y4754D1*
X25893Y4773D1*
X25835Y4792D1*
X25663D1*
Y4390D1*
X25797Y4601D2*
X25931Y4390D1*
X26093Y4792D2*
X26303D1*
X26189Y4639D1*
X26246D1*
X26284Y4620D1*
X26303Y4601D1*
X26323Y4543D1*
Y4505D1*
X26303Y4448D1*
X26265Y4409D1*
X26208Y4390D1*
X26150D1*
X26093Y4409D1*
X26074Y4429D1*
X26055Y4467D1*
X19406Y9995D2*
X19578D1*
X19636Y10015D1*
X19655Y10034D1*
X19674Y10072D1*
Y10110D1*
X19655Y10148D1*
X19636Y10168D1*
X19578Y10187D1*
X19406D1*
Y9785D1*
X19540Y9995D2*
X19674Y9785D1*
X19798Y10110D2*
X19836Y10129D1*
X19894Y10186D1*
Y9785D1*
X30250Y27473D2*
D67*
X30136Y27588D1*
X29964Y27645D1*
X29734D1*
X29562Y27588D1*
X29447Y27473D1*
Y27359D1*
X29505Y27243D1*
X29562Y27186D1*
X29676Y27129D1*
X30021Y27014D1*
X30136Y26957D1*
X30193Y26898D1*
X30250Y26784D1*
Y26612D1*
X30136Y26498D1*
X29964Y26439D1*
X29734D1*
X29562Y26498D1*
X29447Y26612D1*
X30621Y27414D2*
X30736Y27473D1*
X30909Y27644D1*
Y26439D1*
X37152Y27463D2*
X37038Y27578D1*
X36865Y27635D1*
X36636D1*
X36463Y27578D1*
X36348Y27463D1*
Y27349D1*
X36406Y27233D1*
X36463Y27176D1*
X36577Y27119D1*
X36922Y27004D1*
X37038Y26947D1*
X37095Y26889D1*
X37152Y26774D1*
Y26602D1*
X37038Y26488D1*
X36865Y26430D1*
X36636D1*
X36463Y26488D1*
X36348Y26602D1*
X37581Y27348D2*
Y27405D1*
X37638Y27520D1*
X37695Y27577D1*
X37810Y27634D1*
X38040D1*
X38154Y27577D1*
X38211Y27520D1*
X38269Y27405D1*
Y27290D1*
X38211Y27175D1*
X38097Y27004D1*
X37522Y26430D1*
X38326D1*
X18085Y19224D2*
D66*
Y19052D1*
X18105Y18995D1*
X18124Y18975D1*
X18162Y18956D1*
X18200D1*
X18238Y18975D1*
X18258Y18995D1*
X18277Y19052D1*
Y19224D1*
X17875D1*
X18085Y19090D2*
X17875Y18956D1*
X18276Y18603D2*
Y18794D1*
X18104Y18813D1*
X18123Y18794D1*
X18143Y18737D1*
Y18680D1*
X18123Y18622D1*
X18085Y18584D1*
X18028Y18565D1*
X17990D1*
X17932Y18584D1*
X17894Y18622D1*
X17875Y18680D1*
Y18737D1*
X17894Y18794D1*
X17913Y18813D1*
X17951Y18833D1*
X24010Y8325D2*
X23991Y8363D1*
X23953Y8401D1*
X23915Y8420D1*
X23838D1*
X23800Y8401D1*
X23762Y8363D1*
X23742Y8325D1*
X23723Y8267D1*
Y8171D1*
X23742Y8114D1*
X23762Y8076D1*
X23800Y8038D1*
X23838Y8018D1*
X23915D1*
X23953Y8038D1*
X23991Y8076D1*
X24010Y8114D1*
X24134Y8343D2*
X24172Y8363D1*
X24230Y8420D1*
Y8018D1*
X26698Y7324D2*
X26679Y7363D1*
X26640Y7401D1*
X26602Y7420D1*
X26526D1*
X26487Y7401D1*
X26449Y7363D1*
X26430Y7324D1*
X26411Y7267D1*
Y7171D1*
X26430Y7114D1*
X26449Y7076D1*
X26487Y7038D1*
X26526Y7018D1*
X26602D1*
X26640Y7038D1*
X26679Y7076D1*
X26698Y7114D1*
X26841Y7324D2*
Y7343D1*
X26860Y7382D1*
X26879Y7401D1*
X26917Y7420D1*
X26994D1*
X27032Y7401D1*
X27051Y7382D1*
X27070Y7343D1*
Y7305D1*
X27051Y7267D1*
X27013Y7210D1*
X26821Y7018D1*
X27089D1*
X23161Y13108D2*
Y12706D1*
X23295D1*
X23352Y12726D1*
X23390Y12764D1*
X23410Y12802D1*
X23429Y12859D1*
Y12955D1*
X23410Y13013D1*
X23390Y13051D1*
X23352Y13089D1*
X23295Y13108D1*
X23161D1*
X23552Y13031D2*
X23591Y13051D1*
X23648Y13108D1*
Y12706D1*
X28011Y14075D2*
X27992Y14113D1*
X27953Y14152D1*
X27915Y14171D1*
X27839D1*
X27800Y14152D1*
X27762Y14113D1*
X27743Y14075D1*
X27724Y14018D1*
Y13922D1*
X27743Y13865D1*
X27762Y13826D1*
X27800Y13788D1*
X27839Y13769D1*
X27915D1*
X27953Y13788D1*
X27992Y13826D1*
X28011Y13865D1*
X28364Y14113D2*
X28344Y14151D1*
X28287Y14170D1*
X28249D1*
X28192Y14151D1*
X28153Y14094D1*
X28134Y13998D1*
Y13903D1*
X28153Y13826D1*
X28192Y13788D1*
X28249Y13769D1*
X28268D1*
X28325Y13788D1*
X28364Y13826D1*
X28383Y13884D1*
Y13903D1*
X28364Y13960D1*
X28325Y13998D1*
X28268Y14017D1*
X28249D1*
X28192Y13998D1*
X28153Y13960D1*
X28134Y13903D1*
X25573Y16263D2*
X25554Y16301D1*
X25515Y16339D1*
X25477Y16358D1*
X25401D1*
X25362Y16339D1*
X25324Y16301D1*
X25305Y16263D1*
X25286Y16205D1*
Y16109D1*
X25305Y16052D1*
X25324Y16014D1*
X25362Y15976D1*
X25401Y15957D1*
X25477D1*
X25515Y15976D1*
X25554Y16014D1*
X25573Y16052D1*
X25735Y16358D2*
X25945D1*
X25830Y16205D1*
X25888D1*
X25926Y16186D1*
X25945Y16167D1*
X25964Y16109D1*
Y16071D1*
X25945Y16014D1*
X25907Y15976D1*
X25849Y15957D1*
X25792D1*
X25735Y15976D1*
X25716Y15995D1*
X25696Y16033D1*
X20697Y20201D2*
X20678Y20239D1*
X20640Y20277D1*
X20602Y20296D1*
X20525D1*
X20487Y20277D1*
X20449Y20239D1*
X20429Y20201D1*
X20410Y20143D1*
Y20047D1*
X20429Y19990D1*
X20449Y19952D1*
X20487Y19914D1*
X20525Y19894D1*
X20602D1*
X20640Y19914D1*
X20678Y19952D1*
X20697Y19990D1*
X20897Y19894D2*
X21089Y20296D1*
X20821D1*
X9721Y9920D2*
X9472D1*
Y9518D1*
Y9729D2*
X9625D1*
X10093Y9920D2*
X9844D1*
Y9518D1*
X10093D1*
X9844Y9729D2*
X9997D1*
X10350Y9920D2*
Y9518D1*
X10216Y9920D2*
X10484D1*
X10608Y9843D2*
X10646Y9863D1*
X10704Y9920D1*
Y9518D1*
X12908Y9920D2*
X12659D1*
Y9518D1*
Y9729D2*
X12812D1*
X13280Y9920D2*
X13032D1*
Y9518D1*
X13280D1*
X13032Y9729D2*
X13185D1*
X13538Y9920D2*
Y9518D1*
X13404Y9920D2*
X13672D1*
X13815Y9824D2*
Y9843D1*
X13834Y9882D1*
X13853Y9901D1*
X13891Y9920D1*
X13968D1*
X14006Y9901D1*
X14025Y9882D1*
X14044Y9843D1*
Y9805D1*
X14025Y9767D1*
X13987Y9710D1*
X13795Y9518D1*
X14063D1*
X16346Y9920D2*
X16097D1*
Y9518D1*
Y9729D2*
X16250D1*
X16718Y9920D2*
X16470D1*
Y9518D1*
X16718D1*
X16470Y9729D2*
X16623D1*
X16976Y9920D2*
Y9518D1*
X16842Y9920D2*
X17110D1*
X17272D2*
X17482D1*
X17367Y9767D1*
X17425D1*
X17463Y9748D1*
X17482Y9729D1*
X17501Y9671D1*
Y9633D1*
X17482Y9576D1*
X17444Y9537D1*
X17386Y9518D1*
X17329D1*
X17272Y9537D1*
X17253Y9557D1*
X17233Y9595D1*
X6937Y27583D2*
Y27774D1*
X6765Y27794D1*
X6784Y27774D1*
X6803Y27717D1*
Y27660D1*
X6784Y27602D1*
X6746Y27564D1*
X6688Y27545D1*
X6650D1*
X6593Y27564D1*
X6554Y27602D1*
X6535Y27660D1*
Y27717D1*
X6554Y27774D1*
X6574Y27794D1*
X6612Y27813D1*
X6937Y27422D2*
X6535Y27269D1*
X6937Y27116D1*
X6746Y26992D2*
Y26820D1*
X6765Y26763D1*
X6784Y26743D1*
X6822Y26724D1*
X6861D1*
X6899Y26743D1*
X6918Y26763D1*
X6937Y26820D1*
Y26992D1*
X6535D1*
X6746Y26858D2*
X6535Y26724D1*
X6937Y26352D2*
Y26601D1*
X6535D1*
Y26352D1*
X6746Y26601D2*
Y26448D1*
X6842Y25942D2*
X6880Y25961D1*
X6918Y25999D1*
X6937Y26037D1*
Y26114D1*
X6918Y26152D1*
X6880Y26190D1*
X6842Y26210D1*
X6784Y26229D1*
X6688D1*
X6631Y26210D1*
X6593Y26190D1*
X6555Y26152D1*
X6535Y26114D1*
Y26037D1*
X6555Y25999D1*
X6593Y25961D1*
X6631Y25942D1*
X6688D1*
Y26037D1*
X6937Y24149D2*
Y23939D1*
X6784Y24054D1*
Y23996D1*
X6765Y23958D1*
X6746Y23939D1*
X6688Y23920D1*
X6650D1*
X6593Y23939D1*
X6554Y23977D1*
X6535Y24035D1*
Y24092D1*
X6554Y24149D1*
X6574Y24168D1*
X6612Y24188D1*
X6937Y23796D2*
X6535Y23643D1*
X6937Y23490D1*
X6746Y23367D2*
Y23195D1*
X6765Y23137D1*
X6784Y23118D1*
X6822Y23099D1*
X6861D1*
X6899Y23118D1*
X6918Y23137D1*
X6937Y23195D1*
Y23367D1*
X6535D1*
X6746Y23233D2*
X6535Y23099D1*
X6937Y22727D2*
Y22975D1*
X6535D1*
Y22727D1*
X6746Y22975D2*
Y22822D1*
X6842Y22316D2*
X6880Y22335D1*
X6918Y22374D1*
X6937Y22412D1*
Y22488D1*
X6918Y22527D1*
X6880Y22565D1*
X6842Y22584D1*
X6784Y22603D1*
X6688D1*
X6631Y22584D1*
X6593Y22565D1*
X6555Y22527D1*
X6535Y22488D1*
Y22412D1*
X6555Y22374D1*
X6593Y22335D1*
X6631Y22316D1*
X6688D1*
Y22412D1*
X27286Y15483D2*
Y15081D1*
X27515D1*
X27887Y15483D2*
X27639D1*
Y15081D1*
X27887D1*
X27639Y15292D2*
X27792D1*
X28011Y15483D2*
Y15081D1*
X28145D1*
X28202Y15101D1*
X28241Y15139D1*
X28260Y15177D1*
X28279Y15234D1*
Y15330D1*
X28260Y15388D1*
X28241Y15426D1*
X28202Y15464D1*
X28145Y15483D1*
X28011D1*
X28402Y15406D2*
X28441Y15426D1*
X28498Y15483D1*
Y15081D1*
X23760Y5199D2*
X23741Y5237D1*
X23703Y5276D1*
X23665Y5295D1*
X23588D1*
X23550Y5276D1*
X23512Y5237D1*
X23492Y5199D1*
X23473Y5142D1*
Y5046D1*
X23492Y4989D1*
X23512Y4950D1*
X23550Y4912D1*
X23588Y4893D1*
X23665D1*
X23703Y4912D1*
X23741Y4950D1*
X23760Y4989D1*
X24113Y5294D2*
X23922D1*
X23903Y5122D1*
X23922Y5141D1*
X23980Y5161D1*
X24037D1*
X24094Y5141D1*
X24133Y5103D1*
X24152Y5046D1*
Y5008D1*
X24133Y4950D1*
X24094Y4912D1*
X24037Y4893D1*
X23980D1*
X23922Y4912D1*
X23903Y4931D1*
X23884Y4969D1*
X6601Y15607D2*
D68*
X6907Y14803D1*
X7213Y15607D1*
X7460Y15204D2*
X7903D1*
X6601Y13606D2*
X6907Y12803D1*
X7213Y13606D1*
X7804Y13549D2*
Y12860D1*
X7460Y13204D2*
X8149D1*
X6726Y7285D2*
X7070D1*
X7185Y7324D1*
X7224Y7362D1*
X7262Y7438D1*
Y7515D1*
X7224Y7591D1*
X7185Y7630D1*
X7070Y7668D1*
X6726D1*
Y6864D1*
X6994Y7285D2*
X7262Y6864D1*
X7300Y5602D2*
X7262Y5678D1*
X7185Y5755D1*
X7109Y5793D1*
X6956D1*
X6879Y5755D1*
X6803Y5678D1*
X6764Y5602D1*
X6726Y5487D1*
Y5295D1*
X6764Y5181D1*
X6803Y5104D1*
X6879Y5028D1*
X6956Y4989D1*
X7109D1*
X7185Y5028D1*
X7262Y5104D1*
X7300Y5181D1*
Y5295D1*
X7109D1*
X6726Y9731D2*
Y8927D1*
X7071D1*
X7186Y8966D1*
X7224Y9004D1*
X7262Y9080D1*
Y9195D1*
X7224Y9272D1*
X7186Y9310D1*
X7071Y9348D1*
X7186Y9387D1*
X7224Y9425D1*
X7262Y9501D1*
Y9578D1*
X7224Y9654D1*
X7186Y9693D1*
X7071Y9731D1*
X6726D1*
Y9348D2*
X7071D1*
X6601Y11669D2*
X6907Y10865D1*
X7213Y11669D1*
X7804Y11611D2*
Y10922D1*
X7460Y11266D2*
X8149D1*
X4414Y19982D2*
Y19178D1*
X4682D1*
X4797Y19217D1*
X4874Y19293D1*
X4912Y19370D1*
X4950Y19484D1*
Y19676D1*
X4912Y19791D1*
X4874Y19867D1*
X4797Y19944D1*
X4682Y19982D1*
X4414D1*
X5771Y19791D2*
X5732Y19867D1*
X5656Y19944D1*
X5579Y19982D1*
X5427D1*
X5350Y19944D1*
X5274Y19867D1*
X5235Y19791D1*
X5197Y19676D1*
Y19484D1*
X5235Y19370D1*
X5274Y19293D1*
X5350Y19217D1*
X5427Y19178D1*
X5579D1*
X5656Y19217D1*
X5732Y19293D1*
X5771Y19370D1*
X6018Y19828D2*
X6094Y19867D1*
X6209Y19981D1*
Y19178D1*
X40480Y5481D2*
X40786Y4677D1*
X41092Y5481D1*
X41378Y5289D2*
Y5327D1*
X41416Y5404D1*
X41454Y5442D1*
X41531Y5480D1*
X41684D1*
X41760Y5442D1*
X41798Y5404D1*
X41837Y5327D1*
Y5251D1*
X41798Y5174D1*
X41722Y5060D1*
X41339Y4677D1*
X41875D1*
X42160Y4754D2*
X42122Y4715D1*
X42160Y4677D1*
X42199Y4715D1*
X42160Y4754D1*
X42446Y5327D2*
X42523Y5366D1*
X42638Y5480D1*
Y4677D1*
M02*
