M48
INCH
T01C0.019
T02C0.0354
%
T01
X+005846Y+007277
X+006756Y+006357
X+007658Y+005455
X+008544Y+004528
X+012403Y+007263
X+013320Y+006356
X+014219Y+005456
X+015116Y+004543
X+018970Y+007269
X+019879Y+006360
X+020787Y+005452
X+021698Y+004543
T02
X+004523Y+007264
X+004523Y+006359
X+004523Y+005453
X+004523Y+004548
X+023039Y+004548
X+023039Y+005453
X+023039Y+006359
X+023039Y+007264
T00
M30
