M48
INCH
T01C0.019
T02C0.0354
%
T01
X+005843Y+007274
X+006752Y+006354
X+007654Y+005452
X+008541Y+004525
X+012400Y+007260
X+013317Y+006353
X+014216Y+005453
X+015113Y+004540
X+018967Y+007266
X+019876Y+006357
X+020784Y+005449
X+021695Y+004540
T02
X+004520Y+007261
X+004520Y+006356
X+004520Y+005450
X+004520Y+004545
X+023036Y+004545
X+023036Y+005450
X+023036Y+006356
X+023036Y+007261
T00
M30
